<?xml version="1.0" encoding="utf-8"?>
<!-- Generator: Adobe Illustrator 25.2.3, SVG Export Plug-In . SVG Version: 6.00 Build 0)  -->
<svg version="1.1" id="Layer_1" xmlns="http://www.w3.org/2000/svg" xmlns:xlink="http://www.w3.org/1999/xlink" x="0px" y="0px"
	 viewBox="0 0 1217 1885" style="enable-background:new 0 0 1217 1885;" xml:space="preserve">
<style type="text/css">
	.st0{fill:#F9F9A6;}
	.st1{fill:#F1A9A9;}
</style>
<path id="Inside_Fill" class="st0" d="M1044.3,822.4c-6.3,7.5-11.9,16.1-19.5,22.6c-6.1,5.3-14.3,8.2-21.8,11.7
	c-2.3,1.1-4.7,0.4-6.6-3c-3-5.4-8.5-9.4-11.6-14.8c-7.9-13.9-18.2-25.6-29.6-36.7c-26.6-25.9-52.2-52.9-75.3-82.1
	c-8.4-10.7-16.2-22-23.6-33.4c-3.2-4.9-4.3-11.1-6.7-16.6c-11-25.3-24.6-49.1-39.4-72.3c-0.7-1.1-1.6-2.2-2.5-3.2
	c-4.8-5.4-9.8-4.6-12.4,2.2c-2.1,5.6-3.9,11.3-5.8,17c-7,21.2-17.1,40.9-29.3,59.4c-6.8,10.3-9,21.7-10.4,33.4
	c-1.7,13.9,0.7,27.4,2.6,41.2c1.9,14.1,2.2,28.5,2.4,42.8c0.2,10.5,4,19.6,8.8,28.5c6.4,11.7,10.1,24.2,10.9,37.5
	c1,17.3,0.9,34.6,2.5,51.8c0.8,9,3.7,17.8,6.4,26.6c4.6,15.1,9.8,30.1,14.6,45.1c5.4,16.8,11.4,33.4,15.8,50.4
	c5.1,19.8,10.4,39.9,8.9,60.5c-1.6,22.9,2.1,45.7,0.1,68.5c-0.9,9.6-1.4,19.3-3.2,28.7c-2.2,12.2-5.8,24.1-8.2,36.3
	c-2.5,13.1-8.9,24.9-12.1,37.8c-0.4,1.6-0.7,3.3-0.6,4.9c0.7,13.6-0.8,26.8-4.4,40c-1.3,4.7-1.1,9.8-1.4,14.7
	c-0.4,6.6-0.7,13.2-1,19.8c-0.3,5.1-0.9,10.2-0.9,15.3c-0.1,12.9,2.6,25.3,6.5,37.5c0.9,2.8,0.3,5.9,0.8,8.8
	c4.1,23.4,8.8,46.8,12.2,70.3c1.9,13.4,2.8,27.2,2.2,40.7c-0.6,14.5-3.4,28.9-5.3,43.4c-1.8,13.2-3.5,26.3-5.5,39.5
	c-1.5,9.7-3.5,19.3-4.9,29c-0.9,6-1.2,12.2-1.4,18.3c-0.4,12.3-0.3,24.6-1,36.9c-0.2,4.1-2.9,8.1-3.2,12.2
	c-0.2,3.6,1.5,7.2,2.1,10.9c0.6,3.9,0.8,7.8,1.2,12.3c-19.6,0-38.4,0-57,0c-1.7-30.9-11.3-60.2-17.3-90.1
	c-4.7-23.5-10.4-46.8-16.4-70c-1.7-6.4-5.4-12.5-9.1-18.1c-13.1-19.8-14.5-41.2-10.5-63.8c4.8-26.9,9.3-53.8,13.5-80.8
	c1.3-8.6-0.1-17-2.4-25.6c-4.9-18.6-8.8-37.6-12.4-56.5c-3.7-19.1-10.2-37.2-17.6-55.1c-8.6-20.6-17.3-41.2-24.4-62.3
	c-3.5-10.4-4.5-21.8-5.4-32.8c-1.7-19.7-3-39.5-3.7-59.3c-0.6-18.3-0.3-36.6,0-54.9c0.1-6.5-0.1-12.3-4.3-17.8
	c-5.4-7-8.1-15.4-9.3-24.2c-0.1-0.7,0-1.7-0.3-1.9c-1.8-1-4.3-2.9-5.3-2.3c-3.9,2.2-11-4.4-12.3,4c-1.7,10.7-6.3,20-12.1,29
	c-1.8,2.9-1.7,7.3-1.7,11c0.1,13.7,1,27.3,0.5,41c-0.6,16.3-2.3,32.5-3.4,48.8c-0.3,4.3-0.9,8.7-0.6,13c2.1,30.8-8.4,58.5-20.3,86.1
	c-8.5,19.7-17,39.6-23.1,60.1c-5.8,19.7-8.5,40.4-12.7,60.6c-0.8,4.1-2.1,8.1-3.6,11.9c-4.4,11.3-3.9,22.8-2,34.4
	c4.2,24.8,8.2,49.6,12.7,74.4c4.4,24.2,1.5,46.6-13.5,67c-7.8,10.6-9.4,23.7-12.3,36.2c-5.7,24.8-11.1,49.7-16.5,74.6
	c-3.5,15.9-7,31.9-10.1,47.9c-1,5-0.6,10.2-0.8,15.7c-18.8,0-37.7,0-58.1,0c1.2-5.3,2.6-10,3.2-14.7s2-10.4,0.1-14.1
	c-3.3-6.3-2.5-12.5-2.9-18.9c-1-16.4,0.3-32.7-3-49.1c-4.1-20-6.4-40.3-9.3-60.6c-2-14.3-4.4-28.5-5.5-42.9
	c-0.7-9.5,0.5-19.2,1.2-28.8c0.6-8.1,1.2-16.3,2.5-24.3c3.3-19.8,6.9-39.6,10.5-59.4c2.2-11.8,5-23.5,6.9-35.4
	c0.8-5-0.1-10.2-0.2-15.3c-0.1-3.3,0-6.7-0.3-10c-0.9-13-1-26.1-3.3-38.8c-2.3-12.5-4.1-24.9-3.6-37.7c0.1-2.4-0.8-4.9-1.6-7.2
	c-3.2-8.9-6.9-17.6-9.7-26.6c-2.1-6.6-2.9-13.6-4.7-20.3c-8.4-30.2-8.2-61.1-8.3-92c0-2.6,0.9-5.3,0.9-7.9c-0.1-7-0.4-14-0.6-21.1
	c-0.5-17.5,2.8-34.4,6.9-51.3c3.6-14.5,7.5-29,11.9-43.3c3.2-10.3,7.6-20.2,11-30.5c3.7-11.2,6.4-22.8,10.3-33.9
	c8.8-24.7,7.5-50.4,8.3-76c0.4-13.4,4.5-26.1,11-37.9c4.8-8.7,8.5-17.7,8.7-28.1c0.2-13.8,1.1-27.6,2.1-41.4
	c0.3-4.9,1.7-9.8,2.4-14.8c2.7-17.8,1.5-35.4-4.9-52.1c-3-7.8-8.3-14.8-12.7-22c-11.7-19-19.6-39.6-26.4-60.8
	c-0.6-1.9-1.2-3.9-2.3-5.5c-2.6-4-7-4.6-9.9-0.9c-4.3,5.5-8.5,11.2-11.8,17.3c-10.5,19.3-22.4,38.1-30.4,58.4
	c-9.8,24.9-25.7,45-42.7,64.5c-20.2,23.2-41.5,45.6-62.9,67.6c-9.3,9.6-19.3,18.5-25.9,30.2c-4.3,7.5-9,14.7-15.2,20.8
	c-5.3,5.2-5.7,5.6-12.9,2.5c-8.8-3.8-17.2-8.1-23.1-15.9c-4.3-5.7-8.5-11.5-12.4-16.8c7.1-10.1,13-20.9,21.1-29.7
	c7.6-8.1,14-17,19.7-26.2c7.8-12.7,13-27,20-40.2c13.9-26.1,26-53.2,42.9-77.7c2-2.9,3.5-6.5,4.5-9.9c9.6-31.4,21.7-61.8,36.5-91.2
	c5.6-11.1,10.7-22.6,15.6-34c4.2-9.9,2.7-20.3,2.2-30.6c-0.9-17.2-1.7-34.3,3.7-51c4.9-15.1,11-29.8,21.1-42.1
	c6-7.4,13.5-13.7,21-19.7c18.1-14.5,39.5-18.5,62-17.6c10.9,0.5,21.8,1.8,32.7,3.2c7.6,1,14.1-0.4,20.6-4.9
	c10.6-7.4,22.2-13.6,32.9-20.9c9-6.2,16.8-13.9,20.1-24.7c1.5-4.9,1.3-10.5,1.5-15.8c0.4-17,0.6-34-5.8-50.2
	c-2.5-6.3-6.2-10-13.2-11.3c-2.7-0.5-5.7-3.8-7.2-6.5c-6.1-11.7-6.6-24.6-7.2-37.4c-0.2-3.9,1.5-6,6.1-5.7c5.3,0.4,6.8-1.3,6.8-6.8
	c0-9.8,0.2-19.7-0.4-29.5c-1.4-23.5,7-43.3,22.2-60.7c14.6-16.8,33.3-26.3,55.5-26.6c16.6-0.2,31.7,5.9,45,16.5
	c12,9.5,20.5,21.5,26.6,35c3.5,7.7,5.3,16.6,5.8,25.1c0.9,13.3,0,26.6,0,40c0,5.8,1.3,7.2,7.1,7c3.2-0.1,5.7,0.7,5.6,4
	c-0.3,15.1-0.5,30.4-10,43.4c-0.8,1.2-2.5,2.3-3.9,2.4c-7.4,0.6-11,4.9-13.6,11.4c-6.3,16.3-6,33.3-5.6,50.3
	c0.1,5.3-0.1,10.9,1.6,15.8c3.7,11.3,12.2,19.3,21.9,25.7c11,7.2,22.4,13.7,33.3,21.2c7,4.8,14.1,4.1,21.5,2.6
	c18.2-3.8,36.4-3.7,54.6-0.9c19.6,3,35.4,13.1,49.6,26.7c11.5,11,18.6,24.6,24.9,38.7c8.9,20,9.7,41.2,8.1,62.7
	c-0.7,9.9-2.1,20.1,1.5,29.7c2.9,7.8,6.5,15.3,10,22.8c12.4,26.3,25.6,52.3,34.4,80.2c3.3,10.4,6.7,21,11.3,30.8
	c4.2,8.8,10.4,16.6,15.2,25.2c7.3,13.2,14.3,26.7,21.1,40.2c9.2,18.3,17.9,36.8,27.4,54.9c4.2,7.9,9,15.9,15.3,22
	c4.4,4.2,8.1,8.5,11.4,13.6C1033.8,808.4,1038.9,815,1044.3,822.4z"/>
<g id="Rhomboid">
	<path class="st1" d="M616.2,695.2c0-108.6,0-215.7,0-322.8c8.1,2.9,15.8,6.3,23.9,8.5c13.6,3.9,27.3,2.6,40.8-1.3
		c15.4-4.5,30.3-10,44.2-18.1c6.5-3.8,13.3-7.1,21-7.4c10.3-0.5,20.5-0.8,30.8-1c1.1,0,3,1.8,3.1,2.8c0.2,5.6,0.6,11.5-0.5,16.9
		c-2.4,12-9.6,21.7-17,31c-13.1,16.6-29,30.4-46.3,42.5c-5,3.5-6.4,9.3-7,14.6c-2.1,19.8-3.6,39.6-5.2,59.5
		c-0.5,6.4-0.6,12.9-1,19.3c-1,16.5-2.8,32.9-7.9,48.8c-2.9,9-5.5,18.2-9.9,26.4c-4.5,8.4-10.9,15.8-16.4,23.7
		c-6.2,8.8-12.1,17.9-18.8,26.3c-6.6,8.3-13.8,16.2-21.3,23.7C625.7,691.5,621,692.7,616.2,695.2z"/>
	<path class="st1" d="M601.7,694c-8.1-1.3-14-5.5-18.8-11.5c-6.9-8.6-13.9-17-20.5-25.8c-9.2-12.3-18.8-24.3-27-37.3
		c-5-8-8.7-17.2-11.1-26.4c-3.9-14.9-6.2-30.3-9.2-45.5c-0.2-0.8,0-1.7-0.1-2.5c-0.3-13.1-0.2-26.2-1.1-39.3
		c-1.1-15.4-3.1-30.7-5-46c-1.1-9-7.9-14-14.5-19.2c-8.3-6.5-15.8-13.9-23.9-20.7c-11.9-10-20.5-22.5-27.7-35.9
		c-3.9-7.2-6-15.2-5.7-23.6c0.2-6.5,1.1-7.7,7.4-7.4c11.5,0.5,23.2,0.5,34.5,2.3c5.9,0.9,11.4,4.7,16.8,7.7
		c14.8,8.2,30.5,13.7,46.8,18c19.2,5,37.3,1,54.8-7.1c1.3-0.6,2.6-1.3,4.3-2.1C601.7,479.5,601.7,586.6,601.7,694z"/>
</g>
<g id="Lats">
	<path class="st1" d="M616.7,698.2c14-2.5,22.2-13.3,30.5-23.8c10.9-13.9,21.5-28,32.1-42.2c6.7-8.9,12.1-18.6,15.2-29.3
		c1.2-4.1,3.5-4,6.6-3.9c12.5,0.4,24.9,1,37.4,0.9c7.2-0.1,14.8-0.1,21.5-2.2c9.7-3,19-7.4,27.9-12.3c4.5-2.5,7.6-7.3,12-10.8
		c-1.9,7.7,0.6,15.7-3.8,23.3c-4.2,7.3-5.4,16.3-9,24.1c-7,15.1-14,30.2-22.3,44.5c-7.5,12.9-13.8,26-15.4,40.8
		c-1.2,11.1-4.6,21.2-9.2,31.2c-2.1,4.7-3.6,9.7-4.9,14.7c-6.4,23.8-17.9,45.5-29,67.2c-0.6,1.2-2.3,2.1-3.7,2.8
		c-21.2,9.7-42.5,19.2-63.7,29c-7.2,3.3-14.1,7.4-22.1,11.6C616.7,808,616.7,753.3,616.7,698.2z"/>
	<path class="st1" d="M419.2,574.2c3.1,3.3,6,6.9,9.4,9.8c9.1,7.9,20,12.3,31.7,13.9c11.1,1.5,22.2,2.6,33.4,2.9
		c7.8,0.2,15.7-1.1,23.6-1.8c3-0.2,5-0.1,6.2,3.7c4.9,15.3,13.7,28.3,24,40.5c7.1,8.5,12.7,18.2,19.6,26.9
		c7.5,9.5,14.7,19.5,25.8,25.3c2.7,1.4,5.8,2.1,8.4,3c0,54.7,0,109.4,0,165.4c-5.9-3.2-10.7-6.2-15.8-8.5
		c-22.8-10.5-45.7-20.9-68.6-31.2c-3.3-1.5-5.5-3.6-7-6.9c-8.3-18.8-17.6-37.2-24.7-56.4c-4.9-13.2-9-26.8-14.6-39.8
		c-1.5-3.6-1.2-8-1.6-12.1c-2-18.3-10.4-33.9-20-49.3c-10.3-16.5-18.5-34.1-23.1-53.2c-0.4-1.7-0.9-3.6-1.9-4.9
		c-5.9-8.1-5.2-17.5-6.1-26.7C418.4,574.6,418.8,574.4,419.2,574.2z"/>
</g>
<g id="Forearm">
	<path class="st1" d="M904.9,603.9c5.4,3.1,10.4,6.5,15.9,9c5.9,2.6,8.6,7.6,9,13c0.4,7.3,3.6,13.2,6.9,19.2
		c12.7,22.6,26,44.8,38.4,67.5c7.5,13.7,13,28.4,20.5,42.1c5.4,9.8,12.4,18.8,18.7,28.1c6.9,10.1,13.8,20.1,21.3,31
		c-6.6,5.6-13.1,11.4-19.8,16.9c-6.2,5.1-12.5,10.1-18.9,14.9c-4.5,3.4-7.1,2.7-10.1-2.3c-4.9-8.1-9.7-16.2-14.8-24.2
		c-1.3-2.1-3.1-3.8-4.9-5.5c-8.4-8.2-17.1-16.1-25.4-24.5c-6.8-6.9-13.1-14.4-19.7-21.6c-6.1-6.6-12.6-12.9-18.5-19.7
		c-7.8-9-15.3-18.4-22.7-27.8c-0.4-0.5,0.1-2.2,0.6-3s1.4-1.4,2.3-1.9c6.2-3.8,9.3-8.2,6-13.9c-5.9-10.6,1.3-16.3,6.1-23.5
		c5.6-8.4,12.3-16.4,16-25.6c2.3-5.8,0.6-13.5-0.4-20.2C909.7,622.4,907.1,613.1,904.9,603.9z"/>
	<path class="st1" d="M181.8,813.8c10.3-14,19.9-26.6,29-39.5c10.3-14.6,17.1-31.1,24.2-47.3c4.6-10.4,10.4-20.3,15.8-30.3
		c3.5-6.4,7.3-12.7,11-19.1c7.5-12.8,15.2-25.4,22.3-38.4c2.1-3.9,2.7-8.6,3.8-13c1.4-5.5,3.1-10.5,8.9-13.3c5.5-2.7,10.8-6,16-8.9
		c-2.3,10.5-4.4,21.5-7.1,32.3c-2.4,9.7-0.2,18.2,5.2,26.1c5.2,7.5,10.4,15,16.2,22.1c3.6,4.3,4.4,8.3,2.3,13.5
		c-3.7,8.9-2.5,12.5,5.4,17.4c3.4,2.1,3.4,3.4,0.7,6.6c-9.3,11-18.1,22.4-27,33.7c-0.4,0.5-0.9,1-1.4,1.5
		c-11.4,11.7-22.7,23.5-34.2,35.1c-7.2,7.3-15.1,13.9-22.1,21.4c-4.5,4.8-8.1,10.6-11.9,16.1c-3.7,5.3-7.1,10.8-10.6,16.1
		c-1.9,2.9-4.3,2.2-6.4,0.5C208.8,835.9,195.6,825.1,181.8,813.8z"/>
</g>
<g id="Tricep">
	<path class="st1" d="M923.8,611.6c-8.1-6.8-16.2-13.7-25.3-21.3c0.9,5.7,1.8,10.3,2.5,14.9c1.4,8.5,2.5,17.1,4.1,25.6
		c0.5,3,2,5.8,2.9,8.8c2.7,8.3-1.2,15.1-5.6,21.3c-5.7,8.2-12.1,15.8-18.7,24.5c-1-7.6-1.7-14.1-2.7-20.6
		c-1.9-13-3.7-26.1-10.5-37.8c-6.1-10.4-11.7-21.1-18.7-30.7c-4.2-5.7-10.9-9.5-16.4-14.2c-2.6-2.3-4.9-4.9-7.5-7.2
		c-1.5-1.3-3.3-2.3-4.9-3.5c-0.4,0.4-0.8,0.8-1.3,1.3c1.7,3.4,3.5,6.8,5.4,10.6c-1.4,0.4-2.6,0.8-4.8,1.5c1.8,4.9,3.7,9.6,5.5,14.5
		c-1.8-0.5-3.4-1-5.1-1.6c-0.5,0.3-1,0.6-1.4,0.8c1.4,4.1,2.3,8.5,4.3,12.4c5.3,10,11.3,19.7,16.6,29.7c3.6,6.8,6.5,14,9.7,21
		c-0.6,0.3-1.1,0.5-1.7,0.8c-7.3-12.9-14.4-26.1-22.1-38.8c-7.6-12.5-13.3-26.5-25.4-35.6c0.4-8.9,1.1-18,1.2-27
		c0-3.8-1.2-7.7-1.9-11.5c-1.9-9.4-3.9-18.8-5.7-28.2c-1.5-8-3.1-16-4-24.1c-0.2-1.9,1.6-5,3.3-5.9c6.1-3.4,12.4-6.6,18.9-9
		c5.4-2,10.6,0.6,15.5,3.1c9.6,4.8,19.2,9.7,28.8,14.4c5.2,2.6,10.6,4.7,15.9,7.2c7.1,3.3,9.5,10.4,12.6,16.6
		c6.4,12.7,12.6,25.5,18.4,38.5c7,15.7,13.5,31.7,20.2,47.5C925.1,610.4,924.4,611,923.8,611.6z"/>
	<path class="st1" d="M334.3,685.3c-6.1-7.8-11.9-14.8-17.2-22.3c-3.1-4.3-5.9-9.1-7.4-14.2c-1-3.3,0.3-7.3,0.9-11
		c1.7-8.9,3.6-17.8,5.4-26.8c0.9-4.6,1.7-9.3,2.4-14c0.3-1.9,0.5-3.8,0.8-6.7c-8.8,7.5-16.9,14.3-25,21.1c-0.5-0.4-1.1-0.9-1.6-1.3
		c2.8-7.5,5.2-15.2,8.5-22.5c9.7-21.6,20-42.9,29.7-64.4c5-11.1,12.6-18.2,24.7-22c10.6-3.3,20.2-9.7,30.2-14.7
		c13.3-6.7,27.3-4.6,38.1,5.9c1.2,1.2,2.2,3.6,1.9,5.1c-2.3,13-5.1,25.9-7.6,38.8c-1.9,9.9-4.3,19.8-4.9,29.9
		c-0.4,7.2,1.7,14.5,2.5,20.5c-4,4.3-8,7.6-10.6,11.7c-7.8,12.4-15,25.2-22.4,37.9c-5.1,8.7-10.2,17.3-16.3,25.6
		c2.2-5.9,3.9-12,6.7-17.5c4.9-9.8,10.5-19.4,15.9-29c1.7-3.1,3.7-6.1,5.1-9.3c1-2.3,1.5-4.9,2.5-8.4c-2.9,0.7-4.7,1-6.6,1.5
		c1.3-3.4,2.8-7,4-10.7c1.2-3.9,1.1-3.9-3.3-5.1c1.8-3.5,3.6-6.9,5.3-10.3c-0.2-0.4-0.5-0.8-0.7-1.2c-1.6,0.7-3.6,1.1-4.8,2.2
		c-4,3.7-7.4,8.1-11.7,11.3c-12.1,9-20.7,20.7-28,33.6c-8.2,14.7-12.5,30.6-14.1,47.2C336.4,672.2,335.3,678.2,334.3,685.3z"/>
</g>
<g id="Shoulder">
	<path class="st1" d="M786.2,352.5c6.4,1.2,13.8,1.5,20.3,4.1c9.8,3.8,19.5,8.5,28.3,14.2c11,7.1,18.6,17.9,25.5,29
		c7.6,12.3,13.1,25.5,17,39.3c1.4,5,2.3,10.2,2.5,15.4c0.4,11,0.3,22,0.1,33c-0.1,5.6-0.9,11.2-1.3,17.1c-4.2-2-8.6-4.2-12.9-6.2
		c-4.9-2.3-9.7-4.8-14.7-6.7c-3.6-1.3-5.6-3.9-7.7-6.8c-5.6-8-10.5-16.7-17.2-23.7c-6.8-7.2-13.5-15.2-23.8-18
		c-8-2.2-15.9-0.5-21.7,4.5c-5.2,4.5-10.1,1.7-15.1,2.2c-2.1,0.2-4.2-0.7-6.3-0.7c-12.5-0.1-25.1,0-38.1,0
		c12.6-11.5,24.9-21.4,35.7-32.8c10.6-11.1,20.6-23.1,25.2-38.1C784.6,370.3,784.8,361.8,786.2,352.5z"/>
	<path class="st1" d="M496.2,447.6c-10.2,0.5-20.5,0.8-30.7,1.4c-7.5,0.4-15.1,1.1-22.6,1.6c-0.8,0.1-1.9-0.3-2.5-0.8
		c-12-9.9-25.4-10.6-36.9,0.5c-7.6,7.3-14.5,15.3-21.3,23.4c-3.7,4.5-6.4,9.9-10,14.5c-1.4,1.8-4.1,2.8-6.3,3.9
		c-8.8,4.2-17.7,8.2-27.9,13c0-17.9-0.9-35.1,0.3-52.3c0.7-9.7,3.7-19.6,7.4-28.7c4.4-10.6,10.3-20.7,16.2-30.6
		c10.1-16.9,25.2-27.6,43.4-34.6c8.8-3.4,17.6-5.8,27.1-6c0.5,6,1,11.7,1.5,17.3c1.1,11.6,7.3,21,13.9,29.7
		c7,9.3,14.9,18.1,23.2,26.3C478.9,434,487.7,440.5,496.2,447.6z"/>
</g>
<g id="Traphs">
	<path class="st1" d="M625.1,260.8c2.2,7.9,4.3,15.9,6.5,23.8c0.4,0.2,0.8,0.5,1.1,0.7c0.8-1.4,1.9-2.8,2.3-4.4
		c1.2-5.7,2-11.5,2.8-15.7c2.7,6.6,4.8,14.8,9.1,21.5c4.6,7.2,11.3,13.1,17,19.6c0.5-0.3,0.9-0.5,1.4-0.8c-0.4-1.8-0.5-3.8-1.2-5.4
		c-4.8-11.5-10.2-22.9-14.5-34.6c-1.2-3.3,0.5-7.6,0.9-11.4c0.5-0.1,1-0.1,1.6-0.2c3.3,6.5,7.1,12.8,9.9,19.5
		c2.3,5.4,3.7,11.3,5,17.1c0.5,2.1-0.6,4.5-0.9,6.8c-1.4,9.7,5.8,15.8,10,23.2c5.2,9.2,15.1,12.2,23.2,17.4
		c9.1,5.9,18.5,11.5,28.7,17.8c-7.6,3.9-14.2,8-21.3,10.7c-10.6,4.1-21.4,7.9-32.4,10.6c-18.6,4.6-36.4,1.2-53.4-7.3
		c-3.2-1.6-5.1-4.1-5-8.5c0.3-26,0.2-52,0.2-78c0-1.6,0-3.2,0-4.7c0.5-0.3,1-0.7,1.6-1c1.9,2.7,3.8,5.4,5.6,8.1
		c0.4-0.3,0.9-0.6,1.3-0.9c0-7.9,0-15.8,0-23.8C624.7,261,624.9,260.9,625.1,260.8z"/>
	<path class="st1" d="M593.5,261c0,7.9,0,15.8,0,25c2.9-2.8,5.3-5.1,8.5-8.3c0,2.7,0,4.4,0,6.2c0,25.7-0.2,51.3,0.2,77
		c0.1,5.2-2.1,7.9-6.2,9.8c-14.9,6.9-30.2,10-46.7,7.6c-20.3-2.9-38.2-11.7-56.2-20.7c-0.7-0.4-1.2-1.2-2.4-2.5
		c13.8-8.1,27.7-15.4,40.7-24.2c5.9-4,10.1-10.5,14.6-16.2c5.3-6.7,7.2-14,5.2-22.9c-2.1-9.6,4.5-17.4,8.3-25.6
		c1.9-4.1,4.4-7.9,7.1-12.6c1.4,5.4,3.7,9.3,1,14.7c-5.2,10.3-9.2,21.1-13.5,31.8c-0.7,1.7-0.9,3.7-0.5,5.8
		c11.2-12.5,26.3-22.4,25.6-42.3c3.4,6.9,2.3,14.9,5.4,21.7c0.6-0.1,1.2-0.2,1.8-0.3c2.2-8,4.4-16.1,6.6-24.1
		C593.1,260.9,593.3,260.9,593.5,261z"/>
</g>
<g id="Infraspinatus">
	<path class="st1" d="M762.1,453.5c-0.8,7.4-1.4,14.6-2.2,21.8c-0.9,8-1.9,15.9-2.9,23.9c-1,9-1.9,17.9-3.1,26.9
		c-1.5,10.5-2.8,21.1-5,31.4c-2.6,12.4-5.9,24.7-9.2,36.9c-0.3,1.2-2.9,2.5-4.4,2.5c-12.6,0.2-25.2,0.1-38.5,0.1
		c2-7.4,4-13.4,5.1-19.5c1.7-9.7,3.2-19.4,4-29.1c0.9-10.6,0.4-21.2,1.2-31.8c1.3-15.9,3.1-31.7,4.9-47.5c0.6-5,2-9.9,3-14.8
		c0.5-2.4,1.8-3.5,4.5-3.4c12.1,0.5,24.2,0.7,36.3,1.1C757.7,452.1,759.6,452.9,762.1,453.5z"/>
	<path class="st1" d="M455.4,452.4c15.3-0.5,29.5-1,43.7-1.3c1.2,0,3.3,1.3,3.5,2.3c2,7.9,4.5,15.8,5.2,23.8
		c1.6,18.1,2,36.3,3.3,54.4c1,13.9,2.2,27.8,4.1,41.7c1,7.5,3.7,14.8,5.8,23c-13.3,0.2-26.3,0.5-39.3,0.6c-1.2,0-3.1-1.7-3.5-3
		c-2.2-7.8-4.6-15.6-6.1-23.6c-3-16.4-5.8-32.8-8-49.3c-2.4-17.4-4-34.8-6.1-52.3C457.4,463.7,456.4,458.8,455.4,452.4z"/>
</g>
<g id="Teres_Major">
	<path class="st1" d="M818.4,476.7c-11.2,2.4-20.6,7.5-28.6,14.7c-1.7,1.5-1.1,6.4-0.6,9.6c2.4,14.8,5.2,29.5,7.9,44.2
		c0.9,4.8,2.4,9.5,3,14.3c0.3,2.6,0.2,5.9-1.1,8c-10.2,16.1-25.8,24-44,27.4c-1.6,0.3-3.2,0.7-4.8,0.9c-1.4,0.2-2.9,0-3.9,0
		c3.2-5,6.8-9.8,9.6-15.1c3.5-6.7,6.5-13.8,9.5-20.8c6.6-15.4,10.1-31.6,12.5-48c1.3-8.9,1.6-18,3.2-26.8
		c2.1-12,14.5-20.2,26.1-14.5C811,472.6,814.7,474.7,818.4,476.7z"/>
	<path class="st1" d="M472.4,596.3c-19.6-2.5-36.7-8.2-50-23.7c-5.8-6.8-4.7-12.7-3.4-19.7c2.4-13.1,4.6-26.3,7.1-39.4
		c1.1-6.1,2.7-12,3.7-18.1c0.2-1.3-0.3-3.3-1.2-4c-8.4-6.9-17.6-12.2-29.3-13.6c6.4-4.8,12.3-9.4,20.4-8.7
		c9.4,0.7,16.5,8.1,17.3,17.5c1.7,20.4,4.9,40.4,10.8,60.1c4.8,16,11.5,31.1,21,44.8C469.8,592.8,470.9,594.2,472.4,596.3z"/>
</g>
<g id="Teres_Minor">
	<path class="st1" d="M747.1,586.1c9.2-44.4,15.3-88.4,19-133.8c8.5,3.5,14.6-0.1,21.3-4c8.2-4.8,16.1-2.3,23.5,3.9
		c9.5,7.9,17.3,17,24,27.3c1,1.6,1.9,3.3,2.2,5.8c-3.8-2.6-7.4-5.5-11.3-7.9c-6.8-4.1-13.4-8.8-20.8-11.6
		c-11.5-4.4-25.9,6.3-27.1,18.4c-1.9,19.1-4.1,38.3-9.8,56.8c-4.7,15.3-10.2,30.2-19.4,43.6C748.5,585,748,585.3,747.1,586.1z"/>
	<path class="st1" d="M379.6,485.5c7-12.6,15-22.8,25-31.4c1.5-1.3,3-2.5,4.6-3.7c7.9-5.8,16.6-6.2,24.6-0.3c4.5,3.3,8.6,5.1,14,3
		c1-0.4,2.3-0.1,4.1-0.1c3.7,44.6,9.8,88.8,18.6,132.6c-7.8-10.6-13.7-22.2-17.4-34.7c-3.2-10.9-6.2-21.9-8.5-33
		c-1.8-8.8-2.8-17.8-3.5-26.7c-0.9-10.5-3.1-20-14.2-24.1c-8.9-3.3-17.5-1.8-25.3,3.9c-5.8,4.2-11.7,8.4-17.5,12.5
		C383,484.1,381.8,484.5,379.6,485.5z"/>
</g>
<g id="Obliques">
	<path class="st1" d="M722.5,829.6c-5.8-8.2-3.5-16.3,0-24.7c4.4-10.7,9.8-21.2,12.1-32.3c2.9-13.6,8.6-26.2,12.5-39.3
		c0.6-2.1,1.9-3.9,2.8-5.9c0.5,0.1,0.9,0.2,1.4,0.3c0.6,9.8,1.2,19.5,1.7,29.3c0.4,9.4,1.4,18.9,0.8,28.2c-0.5,7.1-0.6,13.9,2,20.6
		c0.4,1-0.6,3.3-1.7,4c-9.8,6.4-19.6,12.7-29.5,18.9C723.9,829.2,723.1,829.3,722.5,829.6z"/>
	<path class="st1" d="M468.4,727.5c2.5,6.6,5.4,13.1,7.6,19.9c2.5,7.8,4.2,16,6.8,23.8c2.9,8.8,6.6,17.3,9.8,26
		c1.4,3.6,2.4,7.5,4.1,11c3.6,7.4,3.3,14.5-1.2,22c-3.1-2.4-6-4.9-9.2-7c-7.1-4.5-14.5-8.6-21.7-13c-1.1-0.7-2.6-2.8-2.3-3.6
		c5.1-12,0.7-24.4,1.8-36.6c1.2-14,1.9-28.1,2.8-42.2C467.3,727.6,467.8,727.5,468.4,727.5z"/>
</g>
<g id="Hamstrings">
	<path class="st1" d="M426.9,1349.2c-0.6-15.2-1.1-30.4-2-45.5c-0.8-15.8-1.6-31.6-3.1-47.4c-1.1-11.5-3.4-23-4.8-34.5
		c-1-8.3-1.5-16.7-2.1-25.1c-0.7-10.2-1.9-20.4-1.9-30.6c0-12.7,1-25.4,1.8-38.1c0.4-7,1.1-14.1,2.1-21.1
		c2.1-15.1,3.9-30.2,6.7-45.1c2.1-11.4,5.5-22.6,9.3-33.8c0,15.7-0.1,31.4,0.1,47.1c0,1.7,1.2,3.5,1.9,5.2c0.6-0.2,1.1-0.3,1.7-0.5
		c2.3-24,4.5-47.9,6.8-71.9c3,16.7,6.3,33.5,5.4,50.6c-0.8,17.1-2.7,34.1-4.1,51.1c0.5,0.2,1.1,0.5,1.6,0.7c1.2-1.9,2.5-3.6,3.6-5.6
		c6.3-11.8,12.5-23.8,23.3-32.1c3.4-2.6,8.9-3.6,13.3-3.4c9.1,0.4,18.2,2.1,27.3,3.2c1.8,0.2,3.6,0.6,5.8,0.9
		c3.7,15.6,7.5,31.5,11.4,47.4c2.9,12,6.1,24,8.9,36c4.5,18.8,8.7,37.7,13.2,56.5c1.9,8.2,4.7,16.3,6,24.6c0.5,3.4-1.2,7.4-2.7,10.9
		c-2.9,7.1-6.4,13.9-9.4,21c-6.4,14.5-10.1,29.7-12.2,45.5c-2,15.1-3.9,30.4-9.3,44.8c-1.7,4.4-2.4,9.3-3.8,15.2
		c-1.5-2-2.2-2.8-2.8-3.7c-9.3-15.3-18.7-30.6-27.8-46.1c-4.8-8.1-9.3-16.5-13.7-24.9c-0.8-1.6-0.9-4.3-0.2-6
		c4.4-9.7,4-20.2,4.7-30.4c0.4-5.5,0.2-11,0-16.5c-0.2-7.4-0.7-14.8-1.2-24.1c-1.9,1.8-3.3,2.5-3.7,3.6c-3.7,10-2.8,20.7-4.1,31.1
		c-1.5,11.9-5.5,23-9.7,34.2c-7.1,18.9-18.8,35-29.8,51.5c-1.5,2.2-3.4,4-5.1,6C427.9,1349.7,427.4,1349.5,426.9,1349.2z"/>
	<path class="st1" d="M774.6,1008c2.3,23.8,4.5,47.7,6.8,71.5c3.6-0.2,3.6-0.2,3.6-4.3c0-14,0-28,0-42c0-1.7,0-3.3,0-5
		c0.3-0.1,0.6-0.1,0.8-0.2c1.7,6.8,3.7,13.6,5.1,20.5c3.5,16.6,7,33.1,9.9,49.8c1.5,8.6,1.6,17.4,2.2,26.1c0.7,10.2,2,20.4,1.9,30.6
		c-0.1,15.9-0.7,31.8-2,47.6c-1.1,13.2-3.9,26.2-5.7,39.3c-0.7,4.9-0.9,9.9-1.1,14.8c-0.7,13.4-1.3,26.7-2,40.1
		c-0.7,12.9-1.3,25.7-2,38.6c-0.3,4.6-0.9,9.2-1.5,14.8c-3-3.5-6.1-6.3-8.4-9.7c-7-10.6-14.4-21.1-20.2-32.3
		c-7.9-15.2-14-31.2-16.7-48.2c-0.6-3.6-0.7-7.2-1.1-10.8c-0.9-7.4-1.9-14.9-3.1-22.3c-0.1-0.9-1.9-1.5-3-2.2
		c-0.6,0.3-1.2,0.6-1.9,0.9c0,14.6-0.6,29.2,0.2,43.7c0.5,8.5,3.2,16.9,4.5,25.4c0.4,2.4,0.3,5.3-0.9,7.3
		c-9.4,16.6-19.1,33-28.8,49.5c-4.5,7.6-9.1,15-14.5,24c-1.3-4.5-2.3-7.9-3.1-11.3c-2.6-10.2-5.6-20.4-7.7-30.7
		c-1.8-8.6-2.5-17.4-3.8-26.2c-2.4-15.9-7.8-30.8-14.6-45.3c-3.1-6.5-5.9-13.1-8.7-19.7c-0.4-1-0.8-2.3-0.5-3.3
		c4-16.6,8.3-33.1,12.3-49.7c3.6-15,7-30.1,10.6-45.1c3-12.6,6.3-25.2,9.4-37.9c2.7-10.9,5.3-21.8,8.1-33.2
		c10.1-1.3,20.5-2.9,30.9-3.8c12.4-1.2,20.6,5.6,26.6,15.6c4.8,8.1,9.4,16.3,14.2,24.3c0.3,0.6,1.5,0.7,3.1,1.3
		c-1.5-17.7-3.3-34.7-4.2-51.8C768.3,1041.5,771.6,1024.7,774.6,1008z"/>
</g>
<g id="Calves">
	<path class="st1" d="M478.3,1509c-1.2,15.8-6.3,28.2-16.1,38.3c-7.2,7.4-25.3,8.1-35.1,1.1c-4.3-3.2-7.5-8-11-12.2
		c-1.2-1.4-2.2-3.1-3.3-4.6c-0.7,0.4-1.4,0.7-2.2,1.1c1.4,3.6,2.5,7.3,4.1,10.7c5,10.8,10.1,21.5,15.2,32.3
		c11.3,24,21,48.6,24.8,74.8c2.4,17,2.2,34.3,2.4,51.6c-8.1-18.8-13.2-38.5-22-57c-1.3,18.4,2.1,36.2,3,54.7
		c-2.6-4.7-5.4-9.2-7.7-14c-5.6-11.9-7.3-24.8-7.3-37.8c0-15.9-3-31.2-6.3-46.7c-2.4-11.3-4-22.8-5.7-34.3
		c-1.4-9.2-2.7-18.4-3.8-27.7c-0.6-4.9-0.8-9.9-0.9-14.8c-0.2-9.2-0.2-18.4-0.3-27.6c0-0.5,0.1-1,0.1-1.5c0-9,0.3-17.9,2.7-26.9
		c2.6-9.4,2.6-19.4,4.4-29.1c2.6-14.3,5.9-28.4,8.5-42.6c2.1-11.9,3.6-23.9,5.5-35.8c0.3-1.7,0.6-3.7,1.6-5
		c5.8-7.7,12-15.2,17.7-22.9c3.7-5.1,7-10.6,10.6-16.2c9.7,14.1,21.2,26.9,26.2,43.7c0.1,0.4,3.4,0.7,3.7,0.2c1.8-3.1,3-6.4,4.5-9.6
		c1.3-2.7,2.7-5.2,4.2-8.3c3.7,6.2,7.3,12.2,10.9,18.2c3.9,6.6,8.2,13,11.6,19.8c1.7,3.5,2.1,7.8,2.8,11.8
		c2.1,11.4,4.1,22.8,5.9,34.2c1.6,9.9,2.8,19.8,4.1,29.6c2.1,15.2,4.7,30.4,5.8,45.7c0.4,5.7-1.9,12-4.3,17.4
		c-5.3,12.1-11.6,23.7-17.1,35.7c-2,4.2-3,8.9-4.6,13.6c-11.9-4.3-16.4-14.2-19.7-24.7c-3.3-10.7-6-21.6-9.2-32.3
		C481.6,1511,480,1510.4,478.3,1509z"/>
	<path class="st1" d="M805.4,1531.5c-1.1,1.4-2.7,2.6-3.3,4.1c-6,15.6-28.8,23.7-44.9,12.1c-5.3-3.8-9.2-10.2-12.1-16.2
		c-3-6.3-4.1-13.6-6.3-21.6c-0.8,0.7-2.4,1.4-2.7,2.5c-3.2,10.9-6,21.9-9.3,32.8c-2.3,7.8-6.5,14.7-12.3,20.3
		c-1.7,1.7-4.6,2.2-6.5,3c-4.2-9.2-8.3-18.2-12.3-27.3c-5-11.4-10.1-22.9-14.5-34.5c-1.1-3-0.3-7,0.1-10.4
		c1.1-9.3,2.3-18.5,3.7-27.7c1.6-10.5,3.7-20.9,5.3-31.4c1.7-11,3-22,4.7-33c1.1-6.9,2.2-13.9,3.9-20.6c0.9-3.5,3.2-6.7,5.1-9.9
		c5.7-9.9,11.5-19.7,17.3-29.6c0.2-0.4,0.7-0.6,1.5-1.3c2.1,5.3,4,10.5,6.4,15.4c0.7,1.5,2.7,2.4,4,3.6c0.7-1.3,1.4-2.6,2.1-3.8
		c4.2-7.5,8.1-15.2,12.6-22.5c3.9-6.4,8.5-12.3,12.9-18.6c4.6,6.8,9.1,13.7,13.9,20.4c4.3,6,8.8,11.8,13.6,17.4
		c3.9,4.5,2.2,10,3.5,15c1.1,4.2,1.3,8.7,2.2,13c2.2,11.7,4.6,23.3,6.9,35c1.4,7.2,2.8,14.4,4,21.6c1.4,9,1.7,18.3,4.1,27.1
		c3.4,12.4,3.8,25.1,3.6,37.6c-0.3,17.4-2.7,34.7-4.7,52c-1.6,14.3-3.8,28.5-6.1,42.7c-1,6.6-3,13-4.1,19.6
		c-1.2,7.4-2.1,14.9-2.8,22.4c-1.1,11.1-0.9,22.5-3.4,33.3c-2.1,8.9-7.2,17.2-10.9,25.7c-0.5-0.2-1-0.4-1.5-0.5
		c1.8-18,3.7-35.9,5.5-53.9c-0.7-0.3-1.3-0.5-2-0.8c-0.9,1.2-2.2,2.2-2.7,3.5c-3.2,9.4-6.1,18.8-9.3,28.2
		c-2.9,8.6-5.9,17.1-8.9,25.9c0-12.3-0.6-24.3,0.2-36.1c0.7-10.9,2-21.9,4.9-32.4c3.9-14.4,9.1-28.5,14.5-42.4
		c4.2-10.6,9.7-20.6,14.4-31c3.8-8.3,7.4-16.7,11-25.1c0.3-0.8,0-1.9,0-2.9C806.4,1532.1,805.9,1531.8,805.4,1531.5z"/>
</g>
<g id="Glutes">
	<path class="st1" d="M474.7,832.7c11.7,10.2,22.9,20.1,34.3,29.8c9.5,8.1,19.2,15.9,28.8,23.9c5.7,4.8,11.2,9.7,16.7,14.7
		c6.9,6.2,14.4,11.8,20.4,18.7c8.1,9.2,15.8,18.9,22.1,29.3c3.3,5.4,3.7,12.7,4.8,19.2c0.9,5.5,1.4,11.2,1,16.8
		c-0.9,12.9-0.5,26-5.1,38.4c-2.8,7.6-7.5,13.7-14.1,18.4c-8.2,5.9-16,12.6-24.8,17.5c-10.6,5.9-22.1,9.1-34.5,9.9
		c-13.8,1-25.3-4.1-36.6-10.8c-13.7-8-20.6-21.2-26.8-34.9c-4-8.8-5-18.1-5.2-27.8c-0.3-15,1.5-29.6,4-44.2c1.6-9.2,2-18.7,2.1-28
		c0.1-11.4-0.5-22.9-0.9-34.3c-0.3-8.9-0.1-17.7,3-26.3c3.2-9.2,6-18.5,9.1-27.8C473.3,834.3,474,833.7,474.7,832.7z"/>
	<path class="st1" d="M743.8,832.2c1.8,4.9,3.7,9.2,5.1,13.6c2.5,7.7,5.4,15.4,6.9,23.4c1.3,6.7,1.1,13.8,1.2,20.7
		c0,5.6-0.8,11.2-0.9,16.8c-0.2,8-0.5,16,0.1,24c0.6,8.6,2,17.2,3.1,25.8c0.9,6.8,2.2,13.6,2.7,20.4c0.5,7.2,0,14.4,0.1,21.6
		c0.2,12.3-3.3,23.5-9.8,33.9c-3.3,5.2-5.9,11.1-10,15.6c-10.4,11.5-23.5,18.7-39,20.9c-10.8,1.6-21.4-0.6-31.6-4.1
		c-14-4.8-25.8-13.1-37-22.5c-6-5-11.3-10.3-13.9-17.9c-3.2-9.5-5.3-19.2-4.9-29.4c0.3-5.7-1.1-11.6-0.8-17.3
		c0.6-11.1,0.8-22.4,7.1-32.2c3.8-5.9,8.1-11.5,12.7-16.9c15.4-18,34.4-32.1,52.2-47.4c10.1-8.7,20.2-17.5,30.2-26.2
		C725.9,847.8,734.3,840.5,743.8,832.2z"/>
</g>
<g id="Inner_Thigh">
	<path class="st1" d="M524,1073.2c23.1-3,44.3-8.7,61.6-25.4c0.5,6.3,1.5,11.8,1.4,17.3c-0.5,21.4-1.3,42.7-1.9,64.1
		c-0.3,11.1-0.1,22.3-1.2,33.3c-0.9,9.5-2.8,19-5.3,28.3c-3.3,12-7.6,23.8-11.5,35.7c-0.9,2.8-2.1,5.6-3.2,8.4
		c-0.4,0-0.9-0.1-1.3-0.1C549.7,1181,536.9,1127.3,524,1073.2z"/>
	<path class="st1" d="M654.1,1234.8c-2-5.4-4.3-10.7-6-16.2c-3.6-11.4-7.3-22.9-10.4-34.5c-2.4-8.8-3.9-17.8-3.9-27.2
		c0-17.5-1.2-35.1-1.8-52.6c-0.4-13.8-0.8-27.5-0.9-41.3c0-4.7,0.9-9.5,1.4-15.1c17.1,16.4,38.3,22.4,61.5,25.2
		c-12.9,54-25.7,107.8-38.5,161.5C655,1234.7,654.6,1234.8,654.1,1234.8z"/>
</g>
<g id="Outer_Thigh">
	<path class="st1" d="M414.5,999.4c2.9,4.4,5.7,8.6,8.5,12.7c0.5,0.7,0.9,1.6,1.5,1.9c8.6,4.2,5.7,10.9,2.9,16.7
		c-5.3,11.2-6.1,23.2-8.5,35c-1.5,7-3.1,14-4.3,21c-1.5,8.9-3.2,17.8-3.6,26.7c-0.8,20.2-1.6,40.5-0.9,60.7
		c0.5,17.4,3.1,34.6,4.7,52c0.7,8,1.4,16.1,2.1,24.1c0.3,3.6,0.6,7.1,0.3,10.9c-2.5-8.2-5.2-16.4-7.4-24.6
		c-3.5-12.7-7.1-25.4-10-38.2c-1.6-6.8-2.3-13.9-2.7-20.9c-0.9-15.8-1.4-31.7-2.1-47.6c-0.4-9.6-1.3-19.2-0.8-28.8
		c0.6-12.3,2.6-24.5,3.6-36.7c1.7-19.9,9.2-38.2,15.2-56.9C413.7,1004.9,414,1002.3,414.5,999.4z"/>
	<path class="st1" d="M803.3,1001.1c1.8,5.8,4,12.8,6.1,19.8c3.6,12.2,7.6,24.2,10.4,36.6c1.7,7.6,1.7,15.7,2.2,23.5
		c0.8,11.7,2,23.4,1.9,35.1c-0.1,16.9-1.2,33.7-1.9,50.6c-1,25-7.4,49-14.2,72.8c-2.1,7.3-4.8,14.4-7.5,22.6
		c0.3-5.8,0.3-10.6,0.8-15.3c1.2-11.7,2.3-23.5,4-35.2c3.8-25.7,3.4-51.6,2.7-77.4c-0.5-19.9-1.9-39.9-7.2-59.4
		c-3.1-11.3-4.1-23.1-6.7-34.5c-1.4-6.3-4-12.3-5.9-18.5c-0.3-1-0.3-2.6,0.3-3.3C793.4,1012.3,798.8,1006.3,803.3,1001.1z"/>
</g>
<path id="Right_Upper" d="M624,243c2.2,8,4.3,16,6.5,23.9c0.6,2.3,1.4,4.6,2.2,7.5c1.3-7.5,2.5-14.6,4-23.3c1.4,1.5,2.8,2.3,3.3,3.5
	c3.2,8.3,1.5,18,6.9,25.8c3,4.3,6,8.5,10,12.1c-3.3-8-6.6-16-10-23.9c-1.6-3.8-0.4-16.3,2.4-18.9c0.6-0.5,3.3,0,3.8,0.8
	c4.1,6.8,7.9,13.9,11.9,20.8c3.8,6.5,6.3,13.6,4.9,21.1c-3,16,8.3,25,17.1,34.8c3.2,3.5,8.7,4.8,13,7.4c9.7,5.9,19.4,12,29.1,18
	c1,0.6,2.4,1.2,3.5,1.1c9.4-1.1,18.7-3,28.1-3.6c9.6-0.6,19.5-1,29,0.1c8.9,1,17.8,3.6,26.4,6.5c13.6,4.6,25.6,12.3,34.5,23.6
	c6.4,8,12.2,16.6,17.2,25.5c7,12.5,13,25.7,14,40.2c1.1,15.2,2,30.6,0.7,45.7c-0.9,10.2,1.8,18.2,6.1,26.8
	c9.6,19.3,18.3,39,27.2,58.6c3.6,7.9,7.2,15.7,9.9,23.9c3,9,4.8,18.4,7.3,27.6c0.8,2.8,2,5.6,3.4,8.1c7.2,12.6,14.6,25.1,21.7,37.7
	c6.7,11.8,13.5,23.5,19.7,35.5c6.7,13,12.2,26.7,19.2,39.5c5.8,10.7,13,20.7,19.9,30.8c7.2,10.6,14.7,21.1,22,31.6c0,1,0,2,0,3
	c-9.1,7.9-18,16-27.2,23.6c-5.9,4.9-12.3,9.2-18.6,13.5c-0.7,0.5-2.5-0.1-3.3-0.7c-7.1-5.8-10.5-14.3-15.2-21.8
	c-3.5-5.6-8.4-10.3-12.8-15.2c-4-4.5-8.1-8.9-12.3-13.2c-2.1-2.1-4.7-3.7-6.7-5.8c-8-8.6-16-17.2-23.9-25.9
	c-8-8.7-16.2-17.2-24-26.1c-6.7-7.6-12.9-15.6-19.2-23.5c-0.5-0.7-0.1-2.9,0.6-3.6c2-1.9,4.3-3.6,6.8-4.8c3-1.4,4.7-3.6,3.7-6.6
	c-1.4-4.4-3.6-8.5-5.5-12.7c-0.5-1.2-1.2-2.5-1.4-3.8c-1.7-13.1-2.6-26.5-5.2-39.4c-3.3-16.1-11-30.5-21.4-44.1
	c-0.3,2.1-0.6,3.5-1.1,6.4c-5.7-6.9-10.6-13.1-15.6-19.2c-0.2,0.1-0.3,0.3-0.5,0.4c2.9,6.1,5.9,12.1,8.7,18.3c0.4,0.8,0,1.9-0.2,4.5
	c-2.6-3-4.3-5-7-8.1c1,4.4,1.8,7.4,2.5,10.4c-0.5,0.3-1,0.5-1.5,0.8c-3.5-4.9-6.9-9.8-10.4-14.7c-0.5,0.3-1,0.7-1.5,1
	c10.1,21.2,26.2,40,28.5,64.5c-0.6,0.5-1.1,1-1.7,1.4c-1.6-1.3-3.7-2.3-4.8-4c-7.1-11.9-13.9-24-21.1-35.9
	c-7.4-12.1-15.1-24-22.7-36c-0.6-1-1.3-2-1.9-3c-2,3.4-3.9,5.8-4.9,8.5c-3,7.9-5,16.2-8.5,23.8c-7,15.1-14.1,30.1-22.4,44.5
	c-7.5,12.9-12.4,26.3-15.8,40.7c-1.9,8.2,2.7,14.6,2.6,22.1c-0.1,3.7,1.5,7.4,1.6,11.1c0.5,15.3,1.6,30.6,0.7,45.8
	c-0.4,7,2.6,13,2.5,19.6c-0.1,2.6-0.9,3.8-3.2,5.2c-10.5,6.5-20.7,13.3-31,20.1c-1.2,0.8-2.4,1.4-3.6,2.1
	c-5.6-8.5-6.6-17.2-4.8-26.7c-0.7,1.2-1.7,2.3-2.1,3.6c-2.8,9.7-9.8,14.7-18.6,18.5c-20.9,9.2-41.7,18.7-62.4,28.2
	c-5,2.3-9.8,5.2-14.8,7.7c-1.5,0.8-3.3,1.1-5.2,1.7c0-198.7,0-396.8,0-596.3c3,1.9,5.5,3.5,8.8,5.6c-0.8-11.8-1.5-23.2-2.3-34.7
	C621.3,243,622.7,243,624,243z M616.2,695.2c4.9-2.5,9.5-3.7,12.4-6.5c7.5-7.5,14.7-15.4,21.3-23.7c6.7-8.4,12.6-17.5,18.8-26.3
	c5.6-7.8,12-15.2,16.4-23.7c4.4-8.3,7-17.5,9.9-26.4c5.1-15.8,6.9-32.2,7.9-48.8c0.4-6.4,0.5-12.9,1-19.3c1.6-19.8,3-39.7,5.2-59.5
	c0.6-5.3,1.9-11.1,7-14.6c17.3-12.1,33.2-25.9,46.3-42.5c7.4-9.3,14.5-19.1,17-31c1.1-5.5,0.6-11.3,0.5-16.9c0-1-2-2.8-3.1-2.8
	c-10.3,0.1-20.5,0.5-30.8,1c-7.7,0.3-14.5,3.6-21,7.4c-13.9,8.1-28.8,13.6-44.2,18.1c-13.5,3.9-27.2,5.2-40.8,1.3
	c-8.1-2.3-15.8-5.6-23.9-8.5C616.2,479.5,616.2,586.6,616.2,695.2z M616.7,698.2c0,55.1,0,109.7,0,165.5c8-4.2,14.9-8.2,22.1-11.6
	c21.2-9.8,42.5-19.3,63.7-29c1.4-0.6,3.1-1.5,3.7-2.8c11.1-21.8,22.5-43.4,29-67.2c1.4-5,2.8-10.1,4.9-14.7c4.6-10,8-20.1,9.2-31.2
	c1.6-14.7,7.9-27.9,15.4-40.8c8.3-14.3,15.4-29.4,22.3-44.5c3.6-7.8,4.8-16.7,9-24.1c4.4-7.7,1.9-15.6,3.8-23.3
	c-4.3,3.5-7.5,8.3-12,10.8c-8.9,4.9-18.2,9.3-27.9,12.3c-6.7,2.1-14.3,2.2-21.5,2.2c-12.5,0.1-24.9-0.5-37.4-0.9
	c-3.1-0.1-5.4-0.2-6.6,3.9c-3.1,10.7-8.5,20.4-15.2,29.3c-10.6,14.1-21.2,28.3-32.1,42.2C638.9,684.9,630.7,695.8,616.7,698.2z
	 M904.9,603.9c2.1,9.2,4.8,18.5,6.4,28c1.1,6.7,2.8,14.4,0.4,20.2c-3.7,9.2-10.4,17.2-16,25.6c-4.8,7.1-12,12.9-6.1,23.5
	c3.2,5.7,0.2,10.2-6,13.9c-0.8,0.5-1.8,1.1-2.3,1.9c-0.5,0.9-1,2.5-0.6,3c7.5,9.4,14.9,18.7,22.7,27.8c5.9,6.8,12.4,13.1,18.5,19.7
	c6.6,7.1,12.9,14.6,19.7,21.6c8.2,8.4,16.9,16.3,25.4,24.5c1.8,1.7,3.6,3.5,4.9,5.5c5,8,9.8,16.1,14.8,24.2c3,5,5.6,5.7,10.1,2.3
	c6.4-4.8,12.7-9.8,18.9-14.9c6.7-5.5,13.2-11.3,19.8-16.9c-7.5-10.9-14.4-20.9-21.3-31c-6.3-9.3-13.3-18.2-18.7-28.1
	c-7.5-13.7-13-28.4-20.5-42.1c-12.4-22.7-25.7-45-38.4-67.5c-3.3-5.9-6.5-11.9-6.9-19.2c-0.3-5.5-3-10.4-9-13
	C915.3,610.4,910.3,607,904.9,603.9z M923.8,611.6c0.7-0.6,1.3-1.3,2-1.9c-6.7-15.9-13.2-31.8-20.2-47.5c-5.8-13-12-25.8-18.4-38.5
	c-3.1-6.2-5.5-13.3-12.6-16.6c-5.3-2.5-10.6-4.7-15.9-7.2c-9.6-4.7-19.2-9.7-28.8-14.4c-4.9-2.4-10.1-5-15.5-3.1
	c-6.5,2.4-12.8,5.6-18.9,9c-1.7,1-3.5,4-3.3,5.9c0.9,8.1,2.5,16.1,4,24.1c1.8,9.4,3.9,18.8,5.7,28.2c0.8,3.8,1.9,7.7,1.9,11.5
	c-0.1,9-0.7,18.1-1.2,27c12,9,17.7,23.1,25.4,35.6c7.8,12.7,14.8,25.8,22.1,38.8c0.6-0.3,1.1-0.5,1.7-0.8c-3.2-7-6.1-14.2-9.7-21
	c-5.3-10-11.3-19.7-16.6-29.7c-2-3.8-2.9-8.2-4.3-12.4c0.5-0.3,1-0.6,1.4-0.8c1.7,0.5,3.4,1,5.1,1.6c-1.9-4.9-3.7-9.7-5.5-14.5
	c2.1-0.7,3.4-1.1,4.8-1.5c-1.9-3.8-3.7-7.2-5.4-10.6c0.4-0.4,0.8-0.8,1.3-1.3c1.7,1.1,3.4,2.1,4.9,3.5c2.6,2.3,4.8,5,7.5,7.2
	c5.5,4.8,12.2,8.5,16.4,14.2c7.1,9.6,12.7,20.3,18.7,30.7c6.8,11.7,8.6,24.8,10.5,37.8c0.9,6.5,1.7,13.1,2.7,20.6
	c6.7-8.6,13-16.3,18.7-24.5c4.4-6.3,8.3-13,5.6-21.3c-1-2.9-2.4-5.8-2.9-8.8c-1.5-8.5-2.7-17.1-4.1-25.6c-0.7-4.6-1.5-9.3-2.5-14.9
	C907.6,598,915.7,604.8,923.8,611.6z M786.2,352.5c-1.4,9.3-1.6,17.9-4.1,25.7c-4.7,15-14.7,27-25.2,38.1
	c-10.8,11.3-23,21.3-35.7,32.8c13,0,25.5,0,38.1,0c2.1,0,4.3,0.9,6.3,0.7c5-0.5,9.9,2.2,15.1-2.2c5.8-4.9,13.7-6.7,21.7-4.5
	c10.3,2.9,17,10.9,23.8,18c6.7,7,11.6,15.7,17.2,23.7c2,2.9,4,5.5,7.7,6.8c5,1.8,9.8,4.4,14.7,6.7c4.3,2,8.7,4.2,12.9,6.2
	c0.5-5.9,1.2-11.5,1.3-17.1c0.2-11,0.3-22-0.1-33c-0.2-5.2-1.1-10.4-2.5-15.4c-3.9-13.8-9.5-27-17-39.3c-6.9-11.2-14.5-21.9-25.5-29
	c-8.8-5.7-18.5-10.3-28.3-14.2C800,354,792.7,353.7,786.2,352.5z M625.1,260.8c-0.2,0.1-0.4,0.2-0.6,0.3c0,7.9,0,15.8,0,23.8
	c-0.4,0.3-0.9,0.6-1.3,0.9c-1.9-2.7-3.8-5.4-5.6-8.1c-0.5,0.3-1,0.7-1.6,1c0,1.6,0,3.2,0,4.7c0,26,0.2,52-0.2,78
	c-0.1,4.4,1.8,6.9,5,8.5c16.9,8.5,34.8,11.9,53.4,7.3c11-2.7,21.8-6.5,32.4-10.6c7.1-2.7,13.7-6.8,21.3-10.7
	c-10.2-6.3-19.6-11.9-28.7-17.8c-8.1-5.3-18-8.2-23.2-17.4c-4.2-7.4-11.4-13.4-10-23.2c0.3-2.3,1.3-4.7,0.9-6.8
	c-1.3-5.8-2.7-11.6-5-17.1c-2.8-6.7-6.6-13-9.9-19.5c-0.5,0.1-1,0.1-1.6,0.2c-0.4,3.8-2.1,8.2-0.9,11.4c4.3,11.7,9.6,23.1,14.5,34.6
	c0.7,1.7,0.8,3.6,1.2,5.4c-0.5,0.3-0.9,0.5-1.4,0.8c-5.8-6.5-12.4-12.4-17-19.6c-4.3-6.7-6.4-14.9-9.1-21.5
	c-0.7,4.2-1.6,10-2.8,15.7c-0.3,1.5-1.5,2.9-2.3,4.4c-0.4-0.2-0.8-0.5-1.1-0.7C629.4,276.7,627.2,268.7,625.1,260.8z M762.1,453.5
	c-2.5-0.6-4.4-1.4-6.3-1.4c-12.1-0.4-24.2-0.7-36.3-1.1c-2.7-0.1-4,0.9-4.5,3.4c-1,4.9-2.4,9.8-3,14.8c-1.8,15.8-3.6,31.6-4.9,47.5
	c-0.8,10.6-0.4,21.2-1.2,31.8c-0.8,9.8-2.3,19.5-4,29.1c-1.1,6.1-3.1,12.1-5.1,19.5c13.3,0,25.9,0.1,38.5-0.1c1.5,0,4.1-1.3,4.4-2.5
	c3.3-12.2,6.6-24.5,9.2-36.9c2.2-10.4,3.5-20.9,5-31.4c1.2-8.9,2.1-17.9,3.1-26.9c0.9-8,2-15.9,2.9-23.9
	C760.7,468.1,761.3,460.9,762.1,453.5z M818.4,476.7c-3.7-2-7.3-4.2-11.1-6c-11.6-5.7-24,2.5-26.1,14.5c-1.6,8.8-1.9,17.9-3.2,26.8
	c-2.4,16.5-5.9,32.7-12.5,48c-3,7-6,14.1-9.5,20.8c-2.8,5.3-6.4,10.1-9.6,15.1c1,0,2.5,0.1,3.9,0c1.6-0.2,3.2-0.6,4.8-0.9
	c18.2-3.5,33.7-11.4,44-27.4c1.3-2.1,1.5-5.4,1.1-8c-0.6-4.8-2.1-9.5-3-14.3c-2.7-14.7-5.4-29.4-7.9-44.2c-0.5-3.2-1.2-8,0.6-9.6
	C797.8,484.2,807.2,479.1,818.4,476.7z M747.1,586.1c1-0.8,1.4-1.1,1.7-1.5c9.1-13.3,14.6-28.3,19.4-43.6
	c5.7-18.5,7.9-37.7,9.8-56.8c1.2-12.2,15.6-22.8,27.1-18.4c7.3,2.8,14,7.5,20.8,11.6c3.9,2.4,7.5,5.2,11.3,7.9
	c-0.3-2.5-1.1-4.2-2.2-5.8c-6.7-10.2-14.5-19.4-24-27.3c-7.5-6.2-15.4-8.7-23.5-3.9c-6.7,3.9-12.9,7.5-21.3,4
	C762.4,497.7,756.2,541.7,747.1,586.1z M722.5,829.6c0.6-0.2,1.4-0.4,2.1-0.8c9.9-6.3,19.8-12.5,29.5-18.9c1-0.7,2.1-3,1.7-4
	c-2.6-6.8-2.5-13.5-2-20.6c0.6-9.4-0.3-18.8-0.8-28.2c-0.5-9.8-1.1-19.5-1.7-29.3c-0.5-0.1-0.9-0.2-1.4-0.3c-1,2-2.2,3.8-2.8,5.9
	c-3.9,13.2-9.6,25.7-12.5,39.3c-2.3,11.1-7.7,21.7-12.1,32.3C719,813.2,716.7,821.3,722.5,829.6z"/>
<path id="Left_Upper" d="M179,812c7.2-10.4,13.9-21.2,21.9-31.1c9-11.2,16.4-23.2,22.6-36c2.8-5.7,4.7-11.8,7.5-17.5
	c5.2-10.7,10.5-21.4,16.2-31.8c5.9-10.7,12.2-21.2,18.4-31.7c4.9-8.3,10.3-16.3,14.7-24.8c2.4-4.6,3.2-10.1,4.7-15.2
	c0.1-0.3,0-0.7,0.1-1c4.8-13.3,8.9-26.8,14.5-39.7c8.8-20.5,18.5-40.7,27.8-61c2.6-5.6,5.5-11,7.6-16.7c1.1-3,1-6.5,0.9-9.7
	c-0.2-15.3-1.5-30.6-0.6-45.8c0.6-9.4,3.6-18.9,7.3-27.7c4.6-11,10.3-21.8,16.8-31.9c10.5-16.3,25.2-28.1,43.8-34.2
	c9.7-3.2,19.7-6.1,29.8-6.8c11.6-0.8,23.4,0.7,35,1.7c6,0.5,11.8,2,17.8,2.8c1,0.1,2.3-0.9,3.4-1.5c11-7,21.4-15.4,33.2-20.6
	c12.3-5.4,18.3-15.3,24.4-25.7c1.6-2.8,1.2-6.8,1.6-10.2c0.6-5.8-0.3-12.2,1.8-17.3c3.9-9.6,9.5-18.5,14.4-27.6
	c1.9-3.5,3.2-2.7,4.7,0.6c2.9,6.6,4.7,12.8,0.9,19.9c-3.6,6.6-6,13.9-8.6,21.1c6.5-6.7,12.6-13.4,13.6-23.5c0.5-5.2,1.8-10.3,3-15.3
	c0.2-0.9,1.9-1.4,3.3-2.2c1.4,8,2.6,15.3,3.8,22.5c0.2,0,0.4,0.1,0.7,0.1c2.7-10.3,5.4-20.7,8.2-31c1.3,0,2.7,0,4,0
	c-0.8,11.4-1.5,22.8-2.3,34.7c3.3-2.1,5.8-3.7,8.8-5.6c0,199.4,0,397.4,0,596c-1.4-0.3-2.9-0.4-4.3-1c-28.7-13.4-57.3-27-86-40.2
	c-4.2-1.9-6-5.1-7.8-8.9c-1.5-3.2-3.2-6.2-5.1-9.3c2.1,9.3,0.9,18-4.5,26.8c-3.1-2.2-6.2-4.5-9.5-6.6c-8.2-5.3-16.2-10.9-24.8-15.4
	c-4.1-2.2-4.2-5.2-3.3-8c4.2-12.8,0.8-25.8,1.8-38.6c1-13.3,0.2-27,3.4-39.8c5.8-23.2-4.2-41.7-15.1-59.9
	c-9.8-16.2-18.2-32.8-24.1-50.7c-2.4-7.2-3.4-15-8.9-20.9c-0.5-0.6-0.3-1.9-0.7-4.5c-5,6.9-9.7,12.7-13.5,19
	c-11.2,18.8-22,37.8-33.1,56.6c-1,1.7-3.2,2.7-4.8,4c-0.7-0.5-1.4-0.9-2.1-1.4c1.3-5.5,2-11.2,4-16.4c3-7.9,6.6-15.6,10.6-23
	c3.6-6.9,8-13.4,11.9-20.1c1-1.6,1.6-3.4,2.4-5.1c-0.5-0.3-1-0.7-1.6-1c-3.5,4.9-6.9,9.8-10.4,14.7c-0.5-0.3-1-0.5-1.5-0.8
	c0.7-3,1.4-6.1,2.5-10.5c-2.6,3.2-4.3,5.2-6,7.3c-0.4-0.3-0.8-0.5-1.3-0.8c0.8-7.8,5.8-14,8.3-21.4c-5,6.1-10,12.2-15.6,19.2
	c-0.4-2.8-0.6-4.3-1-7.1c-4.2,6.7-8,12.4-11.4,18.4c-9.3,16.6-12.7,34.8-14.2,53.5c-0.2,2.9-0.8,5.9-0.9,8.8c-0.2,3.3-0.2,6.1-3,9.2
	c-2.7,3.1-3.1,8.3-3.9,12.8c-0.2,1.2,1.6,2.9,2.8,4.1c0.9,0.9,2.3,1.2,3.4,1.9c7,4.6,6.8,4.5,1.4,11c-9.2,11.1-18,22.5-27,33.8
	c-0.8,1-1.8,2-2.7,2.9c-5.9,5.9-11.9,11.8-17.8,17.8c-8.4,8.6-16.6,17.4-25,25.9c-4.1,4.2-8.8,7.7-12.8,12
	c-3.6,3.9-6.9,8.3-9.8,12.8c-3.4,5.3-6.1,11.2-9.5,16.5c-1.7,2.7-4.2,4.8-6.6,7c-0.4,0.4-2.2-0.2-3-0.8c-8.1-6-16.4-11.9-24.3-18.3
	c-7.3-5.9-14.1-12.4-21.2-18.6C179,814,179,813,179,812z M601.7,694c0-107.4,0-214.6,0-322.2c-1.7,0.9-3,1.5-4.3,2.1
	c-17.5,8-35.6,12.1-54.8,7.1c-16.3-4.2-32-9.7-46.8-18c-5.4-3-11-6.8-16.8-7.7c-11.4-1.7-23-1.8-34.5-2.3c-6.3-0.3-7.2,0.9-7.4,7.4
	c-0.3,8.4,1.8,16.4,5.7,23.6c7.2,13.4,15.8,25.9,27.7,35.9c8.1,6.8,15.6,14.2,23.9,20.7c6.6,5.2,13.4,10.2,14.5,19.2
	c1.9,15.3,3.9,30.6,5,46c1,13.1,0.8,26.2,1.1,39.3c0,0.8-0.1,1.7,0.1,2.5c3,15.2,5.3,30.5,9.2,45.5c2.4,9.2,6.1,18.4,11.1,26.4
	c8.1,13,17.7,25.1,27,37.3c6.6,8.8,13.6,17.2,20.5,25.8C587.7,688.5,593.6,692.7,601.7,694z M419.2,574.2c-0.4,0.2-0.8,0.4-1.2,0.7
	c0.9,9.1,0.2,18.6,6.1,26.7c1,1.4,1.5,3.2,1.9,4.9c4.6,19.1,12.8,36.7,23.1,53.2c9.6,15.4,18,30.9,20,49.3c0.4,4.1,0.1,8.5,1.6,12.1
	c5.6,13,9.7,26.5,14.6,39.8c7.1,19.2,16.4,37.6,24.7,56.4c1.5,3.3,3.7,5.4,7,6.9c22.9,10.3,45.8,20.7,68.6,31.2
	c5.1,2.3,9.9,5.3,15.8,8.5c0-56,0-110.7,0-165.4c-2.7-0.9-5.7-1.6-8.4-3c-11.2-5.8-18.3-15.8-25.8-25.3
	c-6.9-8.7-12.5-18.4-19.6-26.9c-10.3-12.2-19.1-25.2-24-40.5c-1.2-3.8-3.3-3.9-6.2-3.7c-7.9,0.7-15.7,2-23.6,1.8
	c-11.1-0.3-22.3-1.4-33.4-2.9c-11.8-1.6-22.7-5.9-31.7-13.9C425.2,581,422.3,577.5,419.2,574.2z M181.8,813.8
	c13.8,11.2,27,22,40.3,32.7c2,1.6,4.5,2.4,6.4-0.5c3.5-5.4,6.9-10.9,10.6-16.1c3.8-5.5,7.4-11.3,11.9-16.1
	c7-7.5,14.9-14.1,22.1-21.4c11.5-11.6,22.8-23.4,34.2-35.1c0.5-0.5,1-0.9,1.4-1.5c9-11.3,17.7-22.7,27-33.7c2.7-3.2,2.7-4.5-0.7-6.6
	c-7.9-4.9-9.1-8.5-5.4-17.4c2.1-5.2,1.3-9.1-2.3-13.5c-5.8-7.1-11-14.6-16.2-22.1c-5.4-7.9-7.7-16.4-5.2-26.1
	c2.7-10.8,4.8-21.9,7.1-32.3c-5.3,3-10.5,6.3-16,8.9c-5.8,2.8-7.5,7.8-8.9,13.3c-1.1,4.4-1.7,9.1-3.8,13
	c-7.1,13-14.8,25.6-22.3,38.4c-3.7,6.3-7.5,12.6-11,19.1c-5.4,10-11.2,19.9-15.8,30.3c-7.2,16.3-13.9,32.7-24.2,47.3
	C201.7,787.3,192.1,799.8,181.8,813.8z M334.3,685.3c1-7.1,2.1-13.1,2.6-19.1c1.6-16.7,5.9-32.5,14.1-47.2
	c7.2-12.9,15.8-24.7,28-33.6c4.3-3.2,7.7-7.7,11.7-11.3c1.2-1.1,3.2-1.5,4.8-2.2c0.2,0.4,0.5,0.8,0.7,1.2c-1.8,3.4-3.5,6.8-5.3,10.3
	c4.4,1.1,4.6,1.2,3.3,5.1c-1.2,3.7-2.7,7.3-4,10.7c2-0.4,3.7-0.8,6.6-1.5c-1,3.6-1.4,6.2-2.5,8.4c-1.5,3.2-3.4,6.2-5.1,9.3
	c-5.3,9.7-10.9,19.2-15.9,29c-2.8,5.6-4.5,11.7-6.7,17.5c6.1-8.2,11.2-16.9,16.3-25.6c7.4-12.6,14.6-25.4,22.4-37.9
	c2.6-4.1,6.6-7.4,10.6-11.7c-0.8-6-3-13.4-2.5-20.5c0.6-10,3.1-19.9,4.9-29.9c2.5-12.9,5.2-25.8,7.6-38.8c0.3-1.6-0.7-4-1.9-5.1
	c-10.8-10.5-24.8-12.6-38.1-5.9c-10,5-19.7,11.4-30.2,14.7c-12.1,3.8-19.6,10.9-24.7,22c-9.8,21.5-20,42.9-29.7,64.4
	c-3.3,7.3-5.7,15-8.5,22.5c0.5,0.4,1.1,0.9,1.6,1.3c8.1-6.8,16.2-13.7,25-21.1c-0.4,2.8-0.5,4.7-0.8,6.7c-0.8,4.7-1.5,9.3-2.4,14
	c-1.7,8.9-3.7,17.8-5.4,26.8c-0.7,3.6-1.9,7.7-0.9,11c1.5,5,4.4,9.8,7.4,14.2C322.4,670.5,328.2,677.5,334.3,685.3z M496.2,447.6
	c-8.4-7.1-17.3-13.6-25.1-21.3c-8.3-8.2-16.2-17-23.2-26.3c-6.6-8.8-12.8-18.2-13.9-29.7c-0.5-5.7-1-11.4-1.5-17.3
	c-9.5,0.1-18.4,2.6-27.1,6c-18.2,7-33.3,17.7-43.4,34.6c-5.9,9.9-11.8,19.9-16.2,30.6c-3.7,9.1-6.8,18.9-7.4,28.7
	c-1.2,17.1-0.3,34.4-0.3,52.3c10.2-4.7,19.1-8.8,27.9-13c2.2-1.1,4.9-2,6.3-3.9c3.6-4.6,6.2-10,10-14.5c6.8-8.1,13.7-16.1,21.3-23.4
	c11.5-11.1,24.9-10.4,36.9-0.5c0.6,0.5,1.7,0.9,2.5,0.8c7.5-0.5,15.1-1.1,22.6-1.6C475.7,448.5,485.9,448.1,496.2,447.6z M593.5,261
	c-0.2,0-0.4,0-0.6,0c-2.2,8-4.4,16.1-6.6,24.1c-0.6,0.1-1.2,0.2-1.8,0.3c-3.1-6.7-2-14.7-5.4-21.7c0.8,19.8-14.3,29.8-25.6,42.3
	c-0.4-2.2-0.2-4.1,0.5-5.8c4.4-10.7,8.4-21.5,13.5-31.8c2.7-5.5,0.4-9.4-1-14.7c-2.7,4.7-5.2,8.5-7.1,12.6
	c-3.7,8.2-10.4,16-8.3,25.6c1.9,8.9,0,16.2-5.2,22.9c-4.5,5.7-8.8,12.3-14.6,16.2c-13,8.8-26.9,16.1-40.7,24.2
	c1.3,1.3,1.7,2.1,2.4,2.5c17.9,9,35.9,17.7,56.2,20.7c16.6,2.4,31.9-0.7,46.7-7.6c4.1-1.9,6.3-4.5,6.2-9.8
	c-0.4-25.7-0.2-51.3-0.2-77c0-1.7,0-3.5,0-6.2c-3.2,3.2-5.6,5.5-8.5,8.3C593.5,276.7,593.5,268.8,593.5,261z M455.4,452.4
	c1,6.3,1.9,11.3,2.5,16.3c2.1,17.4,3.7,34.9,6.1,52.3c2.3,16.5,5,32.9,8,49.3c1.5,8,3.8,15.8,6.1,23.6c0.4,1.3,2.3,3,3.5,3
	c13,0,26.1-0.3,39.3-0.6c-2.1-8.2-4.8-15.5-5.8-23c-1.9-13.8-3.1-27.7-4.1-41.7c-1.3-18.1-1.7-36.3-3.3-54.4
	c-0.7-8-3.2-15.9-5.2-23.8c-0.3-1-2.3-2.4-3.5-2.3C484.9,451.4,470.7,451.9,455.4,452.4z M472.4,596.3c-1.5-2.1-2.6-3.5-3.6-4.9
	c-9.5-13.8-16.2-28.8-21-44.8c-5.9-19.6-9.1-39.7-10.8-60.1c-0.8-9.4-7.9-16.7-17.3-17.5c-8.1-0.6-14,3.9-20.4,8.7
	c11.7,1.4,20.9,6.7,29.3,13.6c0.9,0.8,1.5,2.8,1.2,4c-1.1,6.1-2.6,12-3.7,18.1c-2.4,13.1-4.7,26.3-7.1,39.4
	c-1.3,7-2.4,12.9,3.4,19.7C435.7,588.1,452.8,593.8,472.4,596.3z M379.6,485.5c2.2-1,3.4-1.4,4.4-2.1c5.9-4.1,11.7-8.3,17.5-12.5
	c7.8-5.7,16.4-7.2,25.3-3.9c11,4.1,13.3,13.7,14.2,24.1c0.8,9,1.7,18,3.5,26.7c2.3,11.1,5.3,22.1,8.5,33
	c3.7,12.5,9.6,24.1,17.4,34.7c-8.8-43.8-14.8-88-18.6-132.6c-1.8,0-3.1-0.3-4.1,0.1c-5.4,2.1-9.6,0.3-14-3c-8-5.9-16.7-5.5-24.6,0.3
	c-1.6,1.2-3.1,2.4-4.6,3.7C394.6,462.7,386.6,472.9,379.6,485.5z M468.4,727.5c-0.5,0.1-1.1,0.1-1.6,0.2
	c-0.9,14.1-1.6,28.1-2.8,42.2c-1,12.2,3.4,24.6-1.8,36.6c-0.3,0.8,1.2,2.9,2.3,3.6c7.2,4.5,14.5,8.6,21.7,13c3.2,2,6.1,4.6,9.2,7
	c4.5-7.5,4.9-14.6,1.2-22c-1.7-3.5-2.7-7.3-4.1-11c-3.3-8.7-6.9-17.2-9.8-26c-2.6-7.8-4.2-15.9-6.8-23.8
	C473.7,740.6,470.9,734.1,468.4,727.5z"/>
<path id="Left_Leg" d="M448,1721c-9.5-13.1-18.5-26.5-23.9-41.9c-1.5-4.3-2.5-8.8-3-13.3c-0.7-7.1-0.3-14.2-1.2-21.3
	c-1.8-13.8-4-27.5-6.2-41.2c-1.8-11.8-3.9-23.5-5.7-35.3c-1.4-9-2.8-18.1-3.9-27.2c-0.7-5.4-1-10.9-1.1-16.3
	c-0.1-15.4-0.3-30.7,0.1-46.1c0.1-4.1,2.1-8.1,2.8-12.3c1.5-9.4,2.4-18.8,4.1-28.1c2.7-14.6,6.2-29,8.6-43.6
	c2.7-16.8,6.7-33.5,5.4-50.9c-1-13-1.4-26.1-2.1-39.1c-0.6-10.9-1.3-21.7-2-32.6c-0.1-2.1-0.8-4.2-2.2-5.4c-1.2-1.3-3.2-2.3-3.6-3.8
	c-4.8-16.2-9.3-32.5-14.2-48.7c-4-13.3-5.5-26.9-6-40.7c-0.5-13.5-1.4-27.1-1.9-40.6c-0.5-11.1-1.3-22.2-0.9-33.3
	c0.5-12.4,2.6-24.8,3.7-37.2c1.7-19.6,8.9-37.6,15-56c1.4-4.1,1.4-8.7,2.2-13c0.3-1.9,1.1-3.7,2.4-5.5c5,11.1,7.2,23.9,21.6,28.3
	c0,9.8,0,20.4,0,30.9c0.2,0,0.5,0,0.7,0c1.5-17.2,3.1-34.3,4.8-53.1c1.7,1.7,3.2,2.5,3.4,3.6c1.8,10.4,3.7,20.9,5,31.4
	c1.1,9.3,2.1,18.7,1.9,28.1c-0.3,12.3-1.8,24.6-2.8,36.9c-0.1,0.9,0.1,1.8,0.2,3.5c5.1-7.2,9.8-13.6,14.2-20.2
	c5.3-7.9,12.8-11.2,22.1-11c2.1,0,4.3,0,8,0c-3-1.8-4.9-2.9-6.7-4.1c-9.7-6-17.1-14.1-22.5-24.2c-4.7-8.8-9-17.7-10.6-27.6
	c-0.1-0.8-0.5-1.6-0.5-2.4c0-8-0.5-16.1,0.1-24.1c0.9-11.4,2.7-22.8,3.8-34.2c0.9-9.7,1.9-19.4,2-29.1c0.1-12.6-0.3-25.2-1-37.8
	c-0.5-8.6,1.4-16.6,4-24.5c3.2-9.9,6.3-19.8,9.7-30.7c2.5,1.3,4.9,2.1,6.7,3.6c8.2,6.9,16.1,14.1,24.2,21.1
	c15.5,13.3,31.1,26.3,46.5,39.7c9.9,8.5,20.1,16.8,29,26.2c8.2,8.8,15.6,18.6,21.8,28.9c3.4,5.5,3.9,12.9,5,19.6
	c0.9,6,1.3,12.2,1,18.3c-0.7,13.6,0,27.4-5.1,40.3c-2.1,5.3-6.2,9.9-9.1,14.9c-1.2,2-2.5,4.3-2.5,6.5c0.1,12.4,1,24.9,0.8,37.3
	c-0.2,15.9-1.3,31.7-1.9,47.6c-0.4,11.1-0.1,22.3-1.2,33.3c-0.9,9.5-2.9,19-5.4,28.2c-3.3,12-7.3,23.9-11.5,35.7
	c-2,5.5-5.2,10.6-7.7,16c-3.5,7.5-6.7,15.2-10.3,22.7c-6.5,13.9-10.9,28.5-13.4,43.7c-1.4,8.2-1.9,16.6-3.6,24.7
	c-2.1,10.2-4.9,20.2-7.5,30.3c-1.4,5.5-3.2,10.9-4.1,16.5c-0.5,3.5,0,7.2,0.6,10.7c1.8,10.6,4.2,21.1,5.8,31.7
	c2.3,15.5,4,31.2,6.2,46.7c1.4,10,3.3,20,4.7,30c0.3,2.6-0.4,5.5-1.1,8.1c-4.3,15.7-12.3,29.7-19.5,44.1c-2.8,5.6-4.5,11.8-6.7,17.8
	c-9.5,1.6-15.3-4.3-19.6-12.8c-4.8-9.4-7.3-20.1-10.8-30.2c-0.8-2.3-1.5-4.6-2.6-7.9c-4.1,13.5-8.7,26.1-21.7,32.2
	c-12.9,6-25.4,4.1-38.5-4.6c14.6,27.1,26.1,53.9,34,82.2c8,28.9,5.2,58.6,6.2,89.3c-1.4-1.5-2.8-2.4-3.2-3.6
	c-4.8-14.3-9.4-28.7-14.1-43c-1.2-3.5-2.7-6.9-4.9-10.2c0.3,3.2,0.5,6.4,1,9.6c1.9,11.4,3.7,22.8,6.1,34.1c1.1,5,3.8,9.6,5.8,14.3
	C450,1721,449,1721,448,1721z M426.9,1349.2c0.5,0.3,1,0.6,1.4,0.9c1.7-2,3.6-3.9,5.1-6c11.1-16.5,22.7-32.6,29.8-51.5
	c4.2-11.2,8.2-22.3,9.7-34.2c1.3-10.4,0.4-21,4.1-31.1c0.4-1.1,1.8-1.8,3.7-3.6c0.5,9.3,0.9,16.7,1.2,24.1c0.2,5.5,0.3,11,0,16.5
	c-0.7,10.2-0.3,20.7-4.7,30.4c-0.7,1.7-0.7,4.4,0.2,6c4.3,8.4,8.9,16.7,13.7,24.9c9.1,15.4,18.5,30.7,27.8,46.1
	c0.5,0.9,1.2,1.7,2.8,3.7c1.4-5.9,2.1-10.7,3.8-15.2c5.5-14.5,7.3-29.7,9.3-44.8c2.1-15.8,5.8-31,12.2-45.5c3.1-7,6.5-13.9,9.4-21
	c1.4-3.5,3.2-7.5,2.7-10.9c-1.3-8.3-4-16.4-6-24.6c-4.5-18.8-8.7-37.7-13.2-56.5c-2.9-12-6-24-8.9-36c-3.9-15.9-7.6-31.8-11.4-47.4
	c-2.3-0.4-4-0.7-5.8-0.9c-9.1-1.2-18.2-2.8-27.3-3.2c-4.5-0.2-10,0.8-13.3,3.4c-10.8,8.3-17,20.3-23.3,32.1c-1,1.9-2.4,3.7-3.6,5.6
	c-0.5-0.2-1.1-0.5-1.6-0.7c1.4-17,3.3-34,4.1-51.1c0.8-17.1-2.4-33.8-5.4-50.6c-2.3,24-4.5,47.9-6.8,71.9c-0.6,0.2-1.1,0.3-1.7,0.5
	c-0.6-1.7-1.8-3.5-1.9-5.2c-0.1-15.7-0.1-31.4-0.1-47.1c-3.7,11.2-7.1,22.3-9.3,33.8c-2.8,14.9-4.6,30-6.7,45.1
	c-1,7-1.6,14-2.1,21.1c-0.8,12.7-1.8,25.4-1.8,38.1c0,10.2,1.1,20.4,1.9,30.6c0.6,8.4,1.1,16.8,2.1,25.1c1.4,11.5,3.7,22.9,4.8,34.5
	c1.5,15.8,2.2,31.6,3.1,47.4C425.8,1318.8,426.3,1334,426.9,1349.2z M478.3,1509c1.8,1.4,3.3,2,3.6,3c3.2,10.7,5.8,21.6,9.2,32.3
	c3.3,10.5,7.8,20.4,19.7,24.7c1.6-4.7,2.6-9.4,4.6-13.6c5.6-12,11.8-23.6,17.1-35.7c2.4-5.4,4.7-11.7,4.3-17.4
	c-1.1-15.3-3.8-30.5-5.8-45.7c-1.3-9.9-2.6-19.8-4.1-29.6c-1.8-11.4-3.9-22.8-5.9-34.2c-0.7-4-1.1-8.2-2.8-11.8
	c-3.4-6.8-7.7-13.3-11.6-19.8c-3.6-6-7.2-12-10.9-18.2c-1.6,3-3,5.6-4.2,8.3c-1.5,3.2-2.8,6.6-4.5,9.6c-0.3,0.5-3.6,0.2-3.7-0.2
	c-5-16.8-16.6-29.6-26.2-43.7c-3.6,5.6-6.8,11.1-10.6,16.2c-5.7,7.8-11.9,15.2-17.7,22.9c-1,1.3-1.4,3.3-1.6,5
	c-1.9,11.9-3.3,23.9-5.5,35.8c-2.6,14.3-5.9,28.4-8.5,42.6c-1.7,9.6-1.8,19.7-4.4,29.1c-2.5,9-2.7,17.8-2.7,26.9
	c0,0.5-0.1,1-0.1,1.5c0.1,9.2,0.1,18.4,0.3,27.6c0.1,4.9,0.3,9.9,0.9,14.8c1.1,9.3,2.4,18.5,3.8,27.7c1.8,11.5,3.3,23,5.7,34.3
	c3.3,15.4,6.4,30.8,6.3,46.7c0,13,1.7,25.8,7.3,37.8c2.3,4.8,5.1,9.4,7.7,14c-0.9-18.5-4.3-36.3-3-54.7c8.8,18.5,13.9,38.3,22,57
	c-0.2-17.3,0.1-34.7-2.4-51.6c-3.8-26.3-13.5-50.9-24.8-74.8c-5.1-10.8-10.2-21.5-15.2-32.3c-1.6-3.5-2.8-7.1-4.1-10.7
	c0.7-0.4,1.4-0.7,2.2-1.1c1.1,1.5,2.1,3.2,3.3,4.6c3.6,4.2,6.7,9.1,11,12.2c9.8,7.1,27.8,6.3,35.1-1.1
	C472,1537.1,477.1,1524.8,478.3,1509z M474.7,832.7c-0.8,1.1-1.4,1.6-1.7,2.4c-3,9.3-5.8,18.6-9.1,27.8c-3,8.6-3.2,17.4-3,26.3
	c0.4,11.4,1,22.9,0.9,34.3c-0.1,9.4-0.5,18.8-2.1,28c-2.5,14.7-4.3,29.3-4,44.2c0.2,9.7,1.3,19,5.2,27.8
	c6.2,13.7,13.1,26.8,26.8,34.9c11.3,6.7,22.8,11.8,36.6,10.8c12.4-0.9,24-4,34.5-9.9c8.8-4.9,16.5-11.6,24.8-17.5
	c6.6-4.7,11.3-10.8,14.1-18.4c4.6-12.4,4.1-25.5,5.1-38.4c0.4-5.5-0.1-11.3-1-16.8c-1-6.5-1.5-13.8-4.8-19.2
	c-6.4-10.4-14.1-20.1-22.1-29.3c-6.1-6.9-13.5-12.6-20.4-18.7c-5.5-4.9-11.1-9.9-16.7-14.7c-9.5-8-19.3-15.8-28.8-23.9
	C497.6,852.8,486.4,842.8,474.7,832.7z M524,1073.2c12.9,54.1,25.7,107.8,38.5,161.5c0.4,0,0.9,0.1,1.3,0.1c1.1-2.8,2.3-5.6,3.2-8.4
	c3.9-11.9,8.2-23.6,11.5-35.7c2.5-9.2,4.4-18.7,5.3-28.3c1.1-11,0.8-22.2,1.2-33.3c0.7-21.4,1.5-42.7,1.9-64.1
	c0.1-5.5-0.8-11-1.4-17.3C568.2,1064.5,547,1070.2,524,1073.2z M414.5,999.4c-0.5,2.9-0.8,5.5-1.6,8c-6,18.7-13.5,37-15.2,56.9
	c-1,12.2-3,24.4-3.6,36.7c-0.5,9.6,0.5,19.2,0.8,28.8c0.6,15.9,1.1,31.7,2.1,47.6c0.4,7,1.1,14.1,2.7,20.9c3,12.8,6.5,25.5,10,38.2
	c2.3,8.3,4.9,16.4,7.4,24.6c0.3-3.7,0-7.3-0.3-10.9c-0.7-8-1.3-16.1-2.1-24.1c-1.6-17.3-4.2-34.6-4.7-52
	c-0.6-20.2,0.1-40.5,0.9-60.7c0.4-8.9,2.1-17.9,3.6-26.7c1.2-7.1,2.8-14,4.3-21c2.4-11.8,3.2-23.8,8.5-35c2.7-5.7,5.7-12.5-2.9-16.7
	c-0.7-0.3-1.1-1.2-1.5-1.9C420.2,1008,417.5,1003.8,414.5,999.4z M480.2,1238.1c-0.6,0-1.2-0.1-1.8-0.1c-1.9,12.8-2.8,26-6,38.5
	c-3.3,12.5-9,24.3-13.4,36c9.1,14,18.2,28.1,27,41.5c2.4-4.6,5.3-10.2,8.4-16.3c-4.6-7.6-9.9-15.9-14.5-24.5
	c-3.2-6.1-8.8-11.8-5.8-19.8c0.7-1.8,1.7-3.6,1.9-5.5C477.5,1271.3,478.8,1254.7,480.2,1238.1z"/>
<path id="Right_Leg" d="M767,1721c1.9-4.4,4.4-8.7,5.6-13.4c2.2-8.5,3.9-17.1,5.3-25.8c1.1-6.3,1.5-12.7,1.2-19.3
	c-2.4,6.8-4.8,13.6-7.1,20.4c-2.8,8.3-5.6,16.6-8.4,24.9c-0.9,2.8-1.6,5.7-2.6,8.4c-0.5,1.2-1.7,2.1-3.4,4
	c1.3-30.9-1.7-60.7,6.3-89.7c7.8-28.2,19.1-55,34-82c-13.1,8.4-25.7,10.5-38.6,4.4c-13-6.2-17.6-18.7-21.7-32.3
	c-2.8,9.3-4.9,17.6-7.7,25.7c-3.6,10.6-7.9,20.9-19.8,25c-0.6,0.2-1.2,0.5-1.9,0.6c-1.2,0.1-2.3,0-2.8,0
	c-4.6-10.1-9.1-19.8-13.4-29.6c-4.8-11.2-9.8-22.3-13.9-33.7c-1.4-3.9-0.8-8.7-0.1-13c3.1-20.7,6.7-41.3,9.8-61.9
	c1.6-10.8,2.7-21.8,4.1-32.6c0.5-3.7,1.7-7.4,1.9-11.1c0.3-4.5,0.7-9.2-0.3-13.5c-3.2-13.7-7.5-27.2-10.6-41c-2-8.7-2.7-17.7-4-26.6
	c-2.4-15.7-7.7-30.6-14.4-44.9c-5-10.7-10.9-21-15.3-31.9c-4.1-10.2-7-20.9-10.2-31.5c-2.1-6.8-3.9-13.7-5.5-20.7
	c-1.2-5.5-2.2-11.2-2.5-16.9c-0.6-13.4-0.7-26.9-1.1-40.3c-0.6-19.2-1.4-38.4-1.9-57.6c-0.1-3.3,0.8-6.5,0.9-9.8
	c0.1-6.8,1-13.5-5.1-19.1c-8.2-7.6-9.3-18.6-10.6-28.8c-1.4-10.6-1.5-21.5-1.1-32.3c0.4-10.9,0.8-22.1,7.1-31.7
	c3.9-6,8.4-11.7,13-17.2c15.6-18.3,34.8-32.6,53-48.1c10.1-8.7,20.1-17.5,30.2-26.2c8.7-7.5,17.5-14.9,26.3-22.3
	c1.2-1,2.7-1.4,4.6-2.4c4.6,14.4,9.6,27.9,13,41.9c1.7,7.1,0.7,14.9,0.6,22.4c-0.1,8.4-0.7,16.9-0.9,25.3
	c-0.4,13.2,0.6,26.2,3.7,39.2c1.8,7.6,1.8,15.7,2.2,23.5c0.3,7.3,0,14.7,0.1,22.1c0.1,11.8-3.8,22.3-9.4,32.5
	c-4,7.3-7.8,14.5-14.2,19.9c-3.6,3-7.6,5.7-11.4,8.5c-1.4,1-2.8,1.9-4.4,3.1c5.8,0.5,11.4,0,16.2,1.7c4.5,1.6,9,4.9,12.1,8.6
	c5.4,6.4,9.7,13.7,14.1,20.3c0-5.6,0.1-11.4,0-17.2c-0.3-12.8-1.1-25.6-0.8-38.4c0.2-10,1.7-19.9,3-29.9c0.6-4.7,1.8-9.3,3-13.8
	c0.3-1,2-1.5,3.4-2.6c1.7,18.3,3.2,35.5,4.8,52.6c0.2,0,0.4,0,0.6,0c0-10.4,0-20.8,0-30.9c14.3-4.2,16.8-16.8,21.2-29.2
	c1.3,2,2.8,3.2,2.8,4.4c0,13.9,7.2,26,10.2,39.1c2.7,11.7,6.4,23.4,7.6,35.2c2,19.2,2.8,38.6,3.1,57.9c0.2,15-1.2,30.1-1.8,45.1
	c-1.1,25-7.4,49-14.2,72.9c-2,7.2-4.4,14.3-6.9,21.3c-0.5,1.4-2.2,2.4-3.3,3.7c-0.5-0.3-1.1-0.6-1.6-1c-0.6,7.3-1.5,14.5-1.9,21.8
	c-0.5,11.4-0.6,22.9-1.1,34.3c-0.5,10.2-2.1,20.4-1.7,30.6c0.4,11.2,2.4,22.4,4.1,33.6c2,12.7,4.4,25.4,6.6,38c1.4,8,3,16,4.3,24.1
	c1,5.6,1.2,11.4,2.6,16.9c3.9,14.3,4.1,29.1,3.7,43.6c-0.4,16.7-2.7,33.4-4.8,50c-1.9,15.7-3.9,31.5-7.2,47
	c-3.4,16.1-5.8,32.2-5.9,48.8c-0.1,17.1-5.1,33.1-14.8,47.5c-4.4,6.5-8.7,13-13,19.5C769,1721,768,1721,767,1721z M774.6,1008
	c-3,16.7-6.3,33.5-5.5,50.6s2.7,34.1,4.2,51.8c-1.6-0.7-2.8-0.8-3.1-1.3c-4.8-8.1-9.4-16.3-14.2-24.3c-6-10.1-14.1-16.8-26.6-15.6
	c-10.4,1-20.7,2.6-30.9,3.8c-2.8,11.5-5.4,22.4-8.1,33.2c-3.1,12.6-6.4,25.2-9.4,37.9c-3.6,15-7,30.1-10.6,45.1
	c-4,16.6-8.2,33.1-12.3,49.7c-0.2,1,0.1,2.3,0.5,3.3c2.8,6.6,5.7,13.2,8.7,19.7c6.8,14.5,12.2,29.4,14.6,45.3
	c1.3,8.7,2,17.5,3.8,26.2c2.1,10.3,5.1,20.5,7.7,30.7c0.9,3.4,1.9,6.8,3.1,11.3c5.4-8.9,10-16.4,14.5-24
	c9.7-16.4,19.4-32.9,28.8-49.5c1.1-2,1.2-4.9,0.9-7.3c-1.4-8.5-4.1-16.9-4.5-25.4c-0.8-14.5-0.2-29.1-0.2-43.7
	c0.6-0.3,1.2-0.6,1.9-0.9c1,0.7,2.8,1.3,3,2.2c1.2,7.4,2.2,14.8,3.1,22.3c0.5,3.6,0.5,7.2,1.1,10.8c2.7,17.1,8.8,33.1,16.7,48.2
	c5.9,11.2,13.2,21.7,20.2,32.3c2.2,3.4,5.4,6.3,8.4,9.7c0.6-5.6,1.2-10.2,1.5-14.8c0.8-12.9,1.4-25.7,2-38.6
	c0.7-13.4,1.3-26.7,2-40.1c0.3-4.9,0.4-9.9,1.1-14.8c1.8-13.1,4.5-26.1,5.7-39.3c1.4-15.8,1.9-31.7,2-47.6
	c0.1-10.2-1.1-20.4-1.9-30.6c-0.6-8.7-0.7-17.5-2.2-26.1c-2.9-16.7-6.4-33.2-9.9-49.8c-1.4-6.9-3.4-13.7-5.1-20.5
	c-0.3,0.1-0.6,0.1-0.8,0.2c0,1.7,0,3.3,0,5c0,14,0,28,0,42c0,4-0.1,4-3.6,4.3C779.1,1055.7,776.8,1031.8,774.6,1008z M805.4,1531.5
	c0.5,0.3,1,0.6,1.5,0.9c0,1,0.3,2.1,0,2.9c-3.6,8.4-7.2,16.8-11,25.1c-4.7,10.4-10.3,20.4-14.4,31c-5.5,13.9-10.6,28-14.5,42.4
	c-2.8,10.5-4.1,21.5-4.9,32.4c-0.8,11.9-0.2,23.8-0.2,36.1c3-8.8,6.1-17.3,8.9-25.9c3.1-9.4,6.1-18.8,9.3-28.2
	c0.4-1.3,1.8-2.3,2.7-3.5c0.7,0.3,1.3,0.5,2,0.8c-1.8,18-3.7,35.9-5.5,53.9c0.5,0.2,1,0.4,1.5,0.5c3.8-8.5,8.9-16.8,10.9-25.7
	c2.5-10.8,2.3-22.2,3.4-33.3c0.8-7.5,1.6-15,2.8-22.4c1.1-6.6,3-13,4.1-19.6c2.2-14.2,4.4-28.4,6.1-42.7c2-17.3,4.4-34.6,4.7-52
	c0.2-12.5-0.2-25.2-3.6-37.6c-2.4-8.8-2.7-18.1-4.1-27.1c-1.2-7.2-2.6-14.4-4-21.6c-2.3-11.7-4.7-23.3-6.9-35c-0.8-4.3-1-8.8-2.2-13
	c-1.3-5,0.4-10.5-3.5-15c-4.8-5.6-9.3-11.4-13.6-17.4c-4.8-6.7-9.3-13.6-13.9-20.4c-4.4,6.3-9,12.3-12.9,18.6
	c-4.5,7.3-8.4,15-12.6,22.5c-0.7,1.3-1.4,2.5-2.1,3.8c-1.4-1.2-3.3-2.1-4-3.6c-2.3-5-4.2-10.2-6.4-15.4c-0.8,0.7-1.3,0.9-1.5,1.3
	c-5.8,9.8-11.6,19.7-17.3,29.6c-1.9,3.2-4.2,6.4-5.1,9.9c-1.8,6.7-2.9,13.7-3.9,20.6c-1.7,11-3,22-4.7,33
	c-1.6,10.5-3.7,20.9-5.3,31.4c-1.4,9.2-2.6,18.5-3.7,27.7c-0.4,3.5-1.3,7.4-0.1,10.4c4.4,11.7,9.5,23.1,14.5,34.5
	c4,9.1,8.1,18.1,12.3,27.3c1.9-0.8,4.7-1.3,6.5-3c5.8-5.7,10-12.5,12.3-20.3c3.2-10.9,6.1-21.9,9.3-32.8c0.3-1.1,2-1.8,2.7-2.5
	c2.2,8,3.3,15.3,6.3,21.6c2.9,6,6.8,12.4,12.1,16.2c16.1,11.6,38.8,3.5,44.9-12.1C802.8,1534.1,804.3,1532.9,805.4,1531.5z
	 M743.8,832.2c-9.5,8.2-18,15.5-26.4,22.9c-10.1,8.7-20.1,17.5-30.2,26.2c-17.9,15.3-36.9,29.4-52.2,47.4c-4.6,5.3-8.8,11-12.7,16.9
	c-6.3,9.8-6.5,21.1-7.1,32.2c-0.3,5.7,1,11.5,0.8,17.3c-0.4,10.2,1.7,19.9,4.9,29.4c2.6,7.6,7.9,12.9,13.9,17.9
	c11.2,9.4,23,17.7,37,22.5c10.2,3.5,20.8,5.7,31.6,4.1c15.4-2.3,28.6-9.4,39-20.9c4.1-4.5,6.7-10.4,10-15.6
	c6.5-10.4,10-21.6,9.8-33.9c-0.1-7.2,0.3-14.4-0.1-21.6c-0.4-6.8-1.8-13.6-2.7-20.4c-1.1-8.6-2.6-17.2-3.1-25.8
	c-0.5-8-0.2-16-0.1-24c0.1-5.6,0.9-11.2,0.9-16.8c0-6.9,0.1-14-1.2-20.7c-1.5-7.9-4.4-15.6-6.9-23.4
	C747.5,841.4,745.7,837.2,743.8,832.2z M654.1,1234.8c0.5,0,0.9-0.1,1.4-0.1c12.8-53.8,25.7-107.5,38.5-161.5
	c-23.2-2.8-44.4-8.8-61.5-25.2c-0.6,5.6-1.5,10.4-1.4,15.1c0.1,13.8,0.5,27.5,0.9,41.3c0.6,17.5,1.8,35.1,1.8,52.6
	c0,9.4,1.5,18.3,3.9,27.2c3.1,11.6,6.7,23.1,10.4,34.5C649.8,1224.1,652.1,1229.4,654.1,1234.8z M803.3,1001.1
	c-4.6,5.2-10,11.2-15.1,17.3c-0.6,0.7-0.6,2.3-0.3,3.3c1.9,6.2,4.5,12.2,5.9,18.5c2.5,11.4,3.6,23.3,6.7,34.5
	c5.4,19.5,6.7,39.5,7.2,59.4c0.7,25.8,1.1,51.7-2.7,77.4c-1.7,11.7-2.8,23.4-4,35.2c-0.5,4.8-0.5,9.5-0.8,15.3
	c2.7-8.2,5.4-15.3,7.5-22.6c6.8-23.9,13.2-47.8,14.2-72.8c0.7-16.9,1.8-33.7,1.9-50.6c0.1-11.7-1.1-23.4-1.9-35.1
	c-0.5-7.9-0.5-15.9-2.2-23.5c-2.8-12.3-6.8-24.4-10.4-36.6C807.4,1013.9,805.1,1006.9,803.3,1001.1z M759,1312.5
	c-4.7-12.1-10.3-23.8-13.5-36.2c-3.2-12.5-4-25.6-5.5-35.2c0,8.6-0.4,20.3,0.2,32c0.3,6.4,2.4,12.7,3.4,19.1c0.5,3,1.4,6.3,0.6,9
	c-1.5,4.4-4.1,8.5-6.4,12.6c-4.7,8.3-9.6,16.5-14,24c3.2,6.2,6,11.8,8.3,16.2C740.8,1340.5,750,1326.4,759,1312.5z"/>
<path id="Outline" d="M800.1,1721.2c-0.5,0-1.9,0.2-3.4,0.2c-19.7,0-39.3-0.1-59,0.1c-4.8,0.1-5.4-1.6-5.5-6.1
	c-0.2-9.1-0.9-18.3-2.8-27.1c-6.7-31.8-14-63.4-21.1-95.1c-2.3-10.1-4.7-20.1-7-30.2c-2.1-9.3-7-17.2-12.1-25
	c-10.6-16.3-13.3-34.3-10.5-53.1c4.6-30.6,9.6-61.2,14.6-91.7c1.4-8.5-0.7-16.4-2.7-24.5c-4.2-16.8-8.3-33.6-11.3-50.6
	c-3.6-20.7-10.3-40.2-18.4-59.5c-8.2-19.5-16.1-39.1-23.5-58.9c-4.6-12.2-6.3-25-6.5-38.2c-0.3-17.1-2.5-34.2-3-51.3
	c-0.6-22-0.3-43.9-0.7-65.9c-0.1-3.4-1-7.3-2.8-10.1c-5.8-8.9-9.6-18.6-10.8-30.5c-1.9,3.4-3,5.5-4.6,8.3c-1.5-2.6-2.8-4.8-3.9-6.8
	c-2.3,7-3.1,15.3-7.4,20.8c-9.9,12.6-6.2,26.5-6.5,40.2c-0.4,16.8-0.9,33.6-1.7,50.4c-0.6,13.8-2.7,27.6-2.5,41.3
	c0.3,18.6-3.7,36.1-10.2,53.1c-7.5,19.4-15.6,38.6-24.1,57.6c-9,20.3-12.6,42-16.9,63.5c-2.8,14-6.8,27.7-9.8,41.7
	c-1.2,5.8-2.3,11.9-1.5,17.7c3.1,22.1,7.3,44,10.7,66.1c1.9,12.6,3.7,25.4,4.6,38.1c1.4,17.8-5.1,33.3-14.6,48.2
	c-4.7,7.4-7.9,16.2-10,24.8c-7.6,32.1-14.4,64.3-21.5,96.5c-2.4,11-5.1,22.1-7.1,33.2c-1,5.8-0.9,11.8-0.9,17.8
	c0,2.9,0.2,5.2-3.9,5.2c-21-0.1-42-0.1-63-0.1c-0.6,0-1.3-0.2-1-0.2c0.4-3.4,0.6-6.5,1.1-9.5c0.6-3.8,1.1-7.5,2-11.2
	c1.2-4.6,2.5-8.9-0.6-13.4c-1.1-1.6-1.2-4.1-1.3-6.2c-0.6-11.5-1.8-23-1.2-34.4c0.8-16.9-4.2-32.8-6.3-49.2
	c-3-24.1-5.4-48.2-9.5-72.1c-1.9-11.3-1.1-22.4-1.4-33.6c-0.3-9.9,2.4-19.9,4.1-29.8c3.4-20,7.7-39.9,10.4-59.9
	c1.6-11.6,6-22.5,6.9-34c0.4-4.7,0.1-9.5-0.1-14.2c-0.3-8.6-0.3-17.2-1.1-25.8c-0.8-8.8-2.5-17.4-3.6-26.2c-0.9-7.7-2.4-15.4-2.1-23
	c0.3-9.6-2.1-18.5-5.1-27.3c-1.9-5.5-4.8-10.6-6.5-16.1c-1.9-6-2.6-12.3-4.2-18.3c-1.3-5.1-3.2-10-4.8-15c-0.2-0.6-0.4-1.3-0.4-1.9
	c-1.3-27-2.8-54-3.6-81.1c-0.4-13.9-0.4-27.9,0.7-41.8c1-12.4,3.7-24.6,5.9-36.9c1.2-6.7,2.7-13.4,4.9-19.9
	c6.2-19,12.9-37.8,19.1-56.7c3.6-10.9,6.3-22.1,10-33c4.8-14.2,6.7-28.8,7.6-43.6c0.5-9.6,0.1-19.3,0.3-29
	c0.3-14.9,4.5-28.8,11.5-41.9c5-9.2,8.7-18.8,8.2-29.7c-0.8-18.2,1.7-36.2,4.7-54.1c2.7-16.3,1.1-32.4-4.9-47.6
	c-3.1-7.9-8.5-15-13-22.4c-11.5-18.7-19.2-39.1-25.9-59.9c-0.5-1.6-1-3.2-1.7-4.7c-0.3-0.7-0.9-1.3-1.8-2.6
	c-1.6,1.8-3.2,3.1-4.3,4.8c-14.9,23.2-29.5,46.6-39.1,72.4c-9.2,24.6-25.3,44.1-41.9,63.2c-20.5,23.6-42.1,46.3-63.9,68.7
	c-9.1,9.3-18.7,18-25.2,29.4c-4.2,7.4-8.4,14.7-15.2,20.2c-0.5,0.4-0.9,1-1.3,1.5c-1.4,1.8-2.6,4.9-4.2,5.1
	c-3.8,0.4-8.2,0.4-11.6-1.2c-7.3-3.4-14.6-7.3-21.1-12.1c-4-3-6.2-8.3-9.4-12.3c-2.4-3-5-5.7-7.8-8.4c-2.2-2.2-2.8-3.9-0.8-6.8
	c7.3-10.2,13-21.8,21.5-30.8c18.4-19.4,28.5-43.2,39.8-66.7c10.2-21.2,21.8-41.9,33.6-62.4c7.4-12.8,13.5-25.9,18.5-39.9
	c8.9-24.9,19.9-49,30.2-73.3c5.2-12.2,11.3-24.1,16.6-36.3c3.4-7.9,2.6-16.3,2.1-24.6c-1.1-17-2-34,2-50.7
	c4.4-18.2,11.9-35.3,23.9-49.6c19.9-23.7,45-38,77-37.7c14.7,0.1,29.3-0.4,43.7,3.4c6.1,1.6,10.6-1.2,15.3-4.2
	c9.6-6.2,19.3-12.5,29.1-18.5c10.3-6.2,18.9-13.9,22.7-25.5c1.7-5.2,1.5-11.1,1.6-16.8c0.2-15.3-0.5-30.6-5.9-45.3
	c-1.8-4.9-4.6-8.1-9.7-8.8c-6.3-0.8-9-5-11.4-10.3c-4.7-10.4-5.6-21.5-6.3-32.6c-0.2-2.7-0.4-5.3-0.2-8c0.5-5.6,2.8-7.9,8.4-7.6
	c3.9,0.2,4.4-1.7,4.4-4.8c-0.2-10,0.2-20-0.3-30c-1.3-23,7.2-42.3,21.7-59.3c14.4-16.9,32.2-27.7,54.9-29c19.8-1.1,37.4,4,53.2,16.8
	c12.7,10.2,21.7,23,28.6,37.3c3.2,6.7,4.9,14.7,5.3,22.2c0.8,13.8,0.3,27.7,0.1,41.5c-0.1,3.9,0.8,5.7,5.3,5.4
	c4.8-0.4,7.6,2.5,7.5,8c-0.4,12.6-0.4,25.3-5.3,37.3c-1.4,3.4-1.7,7.3-5.4,9.4c-2.2,1.2-4.2,3.1-6.5,3.6c-5.5,1.2-8.5,4.1-10.4,9.4
	c-6.4,17.7-6.4,36-5.3,54.3c0.3,5.5,2.6,11.4,5.6,16.1c4.9,7.8,12.1,13.4,20.3,18c10.3,5.8,20.1,12.4,29.9,19
	c3.9,2.6,7.8,3.6,12.3,2.4c15.2-3.9,30.7-3.3,46.2-3.3c13.8,0,27.2,2.8,39.1,9c10.4,5.5,19.1,14.1,28.5,21.5
	c12.7,10.1,19.3,24.6,25.4,38.7c4.8,11,6.8,23.6,7.7,35.7c1.1,14.5-0.6,29.3-0.4,43.9c0.1,5.3,1.3,11,3.5,15.9
	c10.9,24.7,22.7,48.9,33.2,73.7c6.3,14.8,10.8,30.4,16.6,45.5c2.5,6.5,5.7,12.7,9,18.7c8.4,15.4,17.5,30.5,25.6,46.2
	c10.5,20.2,19.9,41,30.5,61.2c5,9.5,10.8,19.1,18.1,26.8c10.5,10.9,17.3,24.3,26.4,36.1c0.8,1,0.2,4.1-0.8,5.4
	c-4.9,6.5-9.9,12.9-15.3,19.1c-2.6,2.9-5.7,5.5-9.1,7.4c-7.4,4-14.6,9.1-23.6,8.3c-1.6-0.1-3.1-1.7-4.5-2.7
	c-0.6-0.5-0.8-1.6-1.4-2.1c-9.3-7.5-13.6-18.8-20.7-27.8c-7.6-9.6-16.5-18.1-24.9-27.1c-18.5-19.8-37.7-39.1-55.4-59.6
	c-13.9-16.1-26-33.7-38.7-50.7c-1.8-2.5-3-5.6-4-8.5c-10.7-29.1-26.4-55.6-42.8-81.7c-1.1-1.8-2.7-3.3-4.7-5.7
	c-1.3,2.5-2.3,4.2-3,6.1c-6.3,15.9-12.1,32.1-19,47.7c-4.1,9.2-9.5,18-15.2,26.3c-7.3,10.6-10.4,22.6-10.6,34.9
	c-0.2,12.7,2,25.4,2.8,38.2c0.9,14.1,1.8,28.2,2.2,42.4c0.3,9.5,4,17.7,8.2,25.7c7.1,13.3,11.1,27.3,11.6,42.4
	c0.6,16.6-0.3,33.6,2.8,49.8c4,20.8,10.6,41.2,17.4,61.3c7.5,22.2,15.7,44.2,20.9,67.1c4.2,18.7,7.4,37.5,7.3,56.8
	c-0.2,23.4,0,46.9-0.5,70.3c-0.2,8.7-1.9,17.4-2.8,26.2c-0.3,2.6-0.1,5.3-0.2,7.9c0,1,0.2,2.1-0.1,3c-2.2,7.4-4.5,14.8-6.8,22.2
	c-4.4,13.9-8.8,27.7-13.2,41.5c-0.4,1.4-0.6,2.9-0.6,4.4c0.1,13.9-0.9,27.5-4.9,41c-1.3,4.5-1,9.5-1.2,14.3
	c-0.4,8.4,0.1,17-1.2,25.3c-1.9,12.2,0.7,23.9,3.6,35.3c3.1,12.6,4.5,25.4,6.9,38.1c2.5,12.9,4.8,25.8,6.9,38.8
	c0.9,5.7,1.1,11.6,1.9,17.3c0.4,3.2,1.4,6.4,2.1,9.6c0.2,1.1,0.5,2.3,0.5,3.4c-0.1,5.3-0.1,10.7-0.4,16c-1.1,17.5-2.3,34.9-5.5,52.2
	c-2.5,13.7-3.8,27.7-5.8,41.5c-1.2,8.5-3.1,17-4.2,25.6c-0.8,6-0.9,12.1-1.1,18.2c-0.6,12.1-1,24.3-1.6,36.4
	c-0.1,1.8-0.3,3.9-1.2,5.2c-3.1,4.4-1.9,8.8-0.7,13.3c1,3.8,1.4,7.8,2,11.7C799.4,1714.9,799.7,1717.9,800.1,1721.2z M1044.3,822.4
	c-5.4-7.5-10.5-14.1-15.1-21c-3.3-5-7-9.3-11.4-13.6c-6.3-6.1-11.1-14.1-15.3-22c-9.5-18.1-18.2-36.7-27.4-54.9
	c-6.8-13.5-13.8-27-21.1-40.2c-4.7-8.6-11-16.4-15.2-25.2c-4.6-9.9-8-20.4-11.3-30.8c-8.8-27.9-22-53.9-34.4-80.2
	c-3.6-7.5-7.1-15.1-10-22.8c-3.6-9.6-2.3-19.8-1.5-29.7c1.6-21.5,0.8-42.7-8.1-62.7c-6.3-14.1-13.4-27.6-24.9-38.7
	c-14.2-13.6-30.1-23.7-49.6-26.7c-18.2-2.8-36.5-2.8-54.6,0.9c-7.4,1.5-14.5,2.2-21.5-2.6c-10.8-7.4-22.3-13.9-33.3-21.2
	c-9.7-6.4-18.2-14.4-21.9-25.7c-1.6-4.9-1.4-10.5-1.6-15.8c-0.4-17-0.7-34,5.6-50.3c2.5-6.5,6.2-10.8,13.6-11.4
	c1.4-0.1,3.1-1.2,3.9-2.4c9.5-13,9.7-28.3,10-43.4c0.1-3.3-2.4-4.1-5.6-4c-5.8,0.2-7.1-1.2-7.1-7c0-13.3,0.9-26.7,0-40
	c-0.6-8.5-2.4-17.4-5.8-25.1c-6.1-13.5-14.6-25.5-26.6-35c-13.4-10.6-28.5-16.7-45-16.5c-22.1,0.2-40.8,9.8-55.5,26.6
	c-15.1,17.4-23.5,37.2-22.2,60.7c0.6,9.8,0.3,19.7,0.4,29.5c0,5.5-1.4,7.2-6.8,6.8c-4.6-0.3-6.3,1.8-6.1,5.7
	c0.6,12.8,1.1,25.7,7.2,37.4c1.4,2.7,4.4,6,7.2,6.5c7,1.3,10.7,5,13.2,11.3c6.4,16.3,6.1,33.3,5.8,50.2c-0.1,5.3,0.1,10.8-1.5,15.8
	c-3.3,10.7-11.1,18.5-20.1,24.7c-10.7,7.3-22.3,13.4-32.9,20.9c-6.5,4.6-12.9,5.9-20.6,4.9c-10.8-1.4-21.8-2.8-32.7-3.2
	c-22.5-1-43.9,3.1-62,17.6c-7.5,6-15,12.3-21,19.7c-10.1,12.3-16.1,27-21.1,42.1c-5.5,16.7-4.6,33.8-3.7,51
	c0.5,10.3,2,20.8-2.2,30.6c-4.9,11.5-10,22.9-15.6,34c-14.8,29.4-26.8,59.8-36.5,91.2c-1.1,3.5-2.5,7-4.5,9.9
	c-16.9,24.5-29,51.6-42.9,77.7c-7,13.2-12.3,27.5-20,40.2c-5.6,9.2-12.1,18.1-19.7,26.2c-8.2,8.7-14.1,19.5-21.1,29.7
	c3.9,5.3,8.1,11.1,12.4,16.8c5.9,7.8,14.3,12.1,23.1,15.9c7.1,3.1,7.6,2.7,12.9-2.5c6.2-6.2,10.9-13.3,15.2-20.8
	c6.7-11.7,16.6-20.6,25.9-30.2c21.5-22.1,42.8-44.4,62.9-67.6c17-19.5,32.9-39.7,42.7-64.5c8-20.3,19.9-39.1,30.4-58.4
	c3.3-6.1,7.5-11.8,11.8-17.3c2.9-3.7,7.4-3.1,9.9,0.9c1.1,1.7,1.7,3.6,2.3,5.5c6.8,21.1,14.7,41.8,26.4,60.8
	c4.4,7.2,9.7,14.2,12.7,22c6.4,16.8,7.6,34.4,4.9,52.1c-0.8,4.9-2.1,9.8-2.4,14.8c-0.9,13.8-1.9,27.6-2.1,41.4
	c-0.1,10.4-3.9,19.3-8.7,28.1c-6.5,11.9-10.6,24.5-11,37.9c-0.7,25.6,0.5,51.2-8.3,76c-3.9,11.1-6.6,22.7-10.3,33.9
	c-3.4,10.3-7.9,20.2-11,30.5c-4.4,14.3-8.3,28.8-11.9,43.3c-4.2,16.8-7.4,33.8-6.9,51.3c0.2,7,0.5,14,0.6,21.1
	c0,2.6-0.9,5.3-0.9,7.9c0.1,30.9-0.1,61.9,8.3,92c1.9,6.7,2.6,13.7,4.7,20.3c2.8,9,6.5,17.7,9.7,26.6c0.8,2.3,1.7,4.8,1.6,7.2
	c-0.5,12.7,1.3,25.1,3.6,37.7c2.3,12.7,2.3,25.9,3.3,38.8c0.2,3.3,0.2,6.6,0.3,10c0.1,5.1,1,10.3,0.2,15.3
	c-1.9,11.9-4.7,23.6-6.9,35.4c-3.7,19.8-7.3,39.6-10.5,59.4c-1.3,8-2,16.2-2.5,24.3c-0.7,9.6-1.9,19.2-1.2,28.8
	c1.1,14.4,3.4,28.6,5.5,42.9c2.9,20.2,5.2,40.6,9.3,60.6c3.3,16.4,2.1,32.7,3,49.1c0.4,6.4-0.4,12.6,2.9,18.9
	c1.9,3.7,0.5,9.4-0.1,14.1c-0.6,4.8-2,9.4-3.2,14.7c20.3,0,39.2,0,58.1,0c0.3-5.5-0.1-10.7,0.8-15.7c3.1-16,6.6-31.9,10.1-47.9
	c5.4-24.9,10.8-49.8,16.5-74.6c2.9-12.4,4.5-25.6,12.3-36.2c15-20.4,17.8-42.8,13.5-67c-4.5-24.7-8.5-49.6-12.7-74.4
	c-2-11.6-2.5-23.1,2-34.4c1.5-3.9,2.8-7.9,3.6-11.9c4.2-20.2,6.8-40.9,12.7-60.6c6.1-20.5,14.6-40.4,23.1-60.1
	c11.9-27.6,22.4-55.3,20.3-86.1c-0.3-4.3,0.3-8.7,0.6-13c1.2-16.3,2.9-32.5,3.4-48.8c0.5-13.6-0.5-27.3-0.5-41c0-3.7-0.2-8.2,1.7-11
	c5.8-9,10.4-18.3,12.1-29c1.3-8.4,8.4-1.8,12.3-4c1-0.6,3.6,1.3,5.3,2.3c0.3,0.2,0.2,1.2,0.3,1.9c1.2,8.8,4,17.2,9.3,24.2
	c4.2,5.6,4.4,11.4,4.3,17.8c-0.3,18.3-0.6,36.6,0,54.9c0.7,19.8,2,39.6,3.7,59.3c1,11,1.9,22.4,5.4,32.8
	c7.2,21.1,15.9,41.7,24.4,62.3c7.4,17.9,13.9,36,17.6,55.1c3.6,18.9,7.5,37.9,12.4,56.5c2.2,8.6,3.7,17,2.4,25.6
	c-4.2,27-8.7,53.9-13.5,80.8c-4,22.6-2.6,44.1,10.5,63.8c3.7,5.6,7.5,11.7,9.1,18.1c6,23.2,11.7,46.5,16.4,70
	c6,29.9,15.6,59.2,17.3,90.1c18.6,0,37.5,0,57,0c-0.4-4.4-0.6-8.4-1.2-12.3c-0.5-3.7-2.3-7.3-2.1-10.9c0.3-4.1,2.9-8.1,3.2-12.2
	c0.7-12.3,0.6-24.6,1-36.9c0.2-6.1,0.5-12.3,1.4-18.3c1.4-9.7,3.4-19.3,4.9-29c2-13.1,3.7-26.3,5.5-39.5c1.9-14.5,4.7-28.9,5.3-43.4
	c0.6-13.5-0.3-27.3-2.2-40.7c-3.4-23.5-8.1-46.9-12.2-70.3c-0.5-2.9,0.1-6.1-0.8-8.8c-3.9-12.2-6.7-24.6-6.5-37.5
	c0.1-5.1,0.7-10.2,0.9-15.3c0.4-6.6,0.6-13.2,1-19.8c0.3-4.9,0.1-10,1.4-14.7c3.6-13.1,5.1-26.4,4.4-40c-0.1-1.6,0.2-3.3,0.6-4.9
	c3.2-12.8,9.5-24.7,12.1-37.8c2.4-12.2,5.9-24.1,8.2-36.3c1.7-9.5,2.3-19.1,3.2-28.7c2-22.8-1.8-45.6-0.1-68.5
	c1.5-20.6-3.8-40.7-8.9-60.5c-4.4-17-10.4-33.7-15.8-50.4c-4.8-15-10-30-14.6-45.1c-2.6-8.7-5.6-17.6-6.4-26.6
	c-1.6-17.2-1.5-34.5-2.5-51.8c-0.8-13.2-4.5-25.8-10.9-37.5c-4.9-8.9-8.7-18-8.8-28.5c-0.2-14.3-0.5-28.7-2.4-42.8
	c-1.9-13.7-4.3-27.3-2.6-41.2c1.5-11.7,3.6-23.1,10.4-33.4c12.2-18.5,22.4-38.2,29.3-59.4c1.9-5.7,3.6-11.4,5.8-17
	c2.6-6.8,7.6-7.6,12.4-2.2c0.9,1,1.7,2,2.5,3.2c14.8,23.2,28.4,47,39.4,72.3c2.4,5.5,3.5,11.7,6.7,16.6
	c7.4,11.5,15.1,22.7,23.6,33.4c23.1,29.2,48.6,56.2,75.3,82.1c11.5,11.1,21.7,22.8,29.6,36.7c3.1,5.4,8.6,9.4,11.6,14.8
	c1.9,3.5,4.3,4.1,6.6,3c7.5-3.4,15.7-6.4,21.8-11.7C1032.4,838.6,1038.1,829.9,1044.3,822.4z"/>
</svg>
