<?xml version="1.0" encoding="utf-8"?>
<!-- Generator: Adobe Illustrator 25.2.3, SVG Export Plug-In . SVG Version: 6.00 Build 0)  -->
<svg version="1.1" xmlns="http://www.w3.org/2000/svg" xmlns:xlink="http://www.w3.org/1999/xlink" x="0px" y="0px"
	 viewBox="0 0 554 1300" style="enable-background:new 0 0 554 1300;" xml:space="preserve">
<style type="text/css">
	.st0{fill:#F2E4A7;}
	.st1{fill:#FF8080;}
	.st2{display:none;}
</style>
<g id="Layer_1">
	<g id="XMLID_1_">
		<g>
			<path class="st0" d="M270.7,673.2c0,0.1,0,0.2,0,0.4l-1.8,0.2c-1.4-0.5-2.8-1.1-4.9-1.9c-2.1,5.3-5,10.3-5.9,15.7
				c-2.9,16.8-4.9,33.8-7.5,50.7c-2.7,17.3-6.6,34.4-8.4,51.7c-3.1,31.1-5.2,62.3-7.4,93.5c-1.1,14.9-3.1,29.4-9.9,43
				c-1.8,3.5-3.3,7.4-3.9,11.3c-2.2,16.8-4.9,33.6-5.8,50.5c-0.4,6.8-0.9,13.6-1.5,20.4c-1.9,20.4-5.2,40.4-10.9,60.3
				c-7.4,25.7-13.7,51.8-19.9,77.8c-1.5,6.4-1,13.5-0.9,20.2c0.1,5.9,1.9,12,0.9,17.6c-1,5.7-1.6,9.9,3.4,14.2
				c4.7,4,3.3,14.5-1.7,16.4c-5.2,1.9-7.4,5.2-7.1,10.6c0.1,1.6-0.3,3.3-0.5,5c-0.9,6.2-5,9.2-10.7,10.2c-3.1,0.5-6.2,1-9.2,0.9
				c-3.6-0.1-7-1.1-10.1-4.1c-0.2-0.2-0.5-0.5-0.6-0.8c-2.4-9.7-6.3-19.3-3.2-29.6c0.8-2.7,2.4-5.5,1.9-8
				c-1.8-9.5,0.4-18.1,3.8-26.8c0.9-2.3,1.5-4.9,1.4-7.3c-0.1-4.6-0.2-9.1-0.3-13.7c-0.3-9.5-0.6-19.1-1.1-28.6
				c-1.5-29.7-3.4-59.4-4.7-89.1c0-1-0.1-1.9-0.1-2.9c-1.1-32.6,4.1-64.5,13.9-95.5c7.7-24.1,8.1-48.5,6.9-73.1
				c-1.5-31-4.2-62-6.7-93c-1.6-19.9-3-39.8-5.4-59.6c-1.2-10.4-1.6-20.8-1.6-31.2c0.1-13.2,1.1-26.3,2.4-39.5
				c2.2-22.6,4.8-45.3,7.5-67.9c2.8-23.3,9.5-45.5,20.4-66.4c3.1-6,7.1-12.2,7.9-18.6c0.4-3.5,0.7-7,0.8-10.5c0.3-7.2,0-14.5-1-21.6
				c-2.7-18.9-6.8-37.6-10.3-56.4c-1.8-9.5-3.5-19-5.7-28.4c-0.3-1.5-1.8-2.7-3.2-4c-0.4-0.4-0.9-0.9-1.3-1.3
				c-1.6,1.5-3.4,2.8-4.8,4.5c-0.8,1-1.1,2.4-1.6,3.6c-5.3,12.2-10.9,24.3-15.8,36.7c-5.2,13.2-11.1,26.2-15.5,39.7
				c-1.7,5.3-3.2,10.7-4.2,16.2c-1.5,7.4-4.4,14.7-7.6,21.6c-13.7,28.7-28,57.1-41.6,85.8c-7,14.6-15.9,28.7-15.5,45.8
				c-8.4,2.1-15.3-0.5-21.8-5c-3.4-2.4-4.4-5.1-2.5-9.2c3.2-7,6.4-14,8.3-21.4c1.9-7.5,3.9-15,5.7-22.5c3.1-12.5,6-25,8.5-37.6
				c4.7-23.9,9.2-47.8,20.2-69.7c4.8-9.7,11.3-18.6,15.5-28.5c2.8-6.6,5.3-13.3,7.8-20.1c2.7-7.5,5.2-15.1,7.7-22.6
				c7.9-24,12.6-48.4,13.2-73.9c0.2-10.9,3.3-22.1,6.9-32.5c3.5-9.9,8.8-18.1,16.2-24c5.8-4.5,12.8-7.6,21.2-8.8
				c16.4-2.4,31.6-7.7,46.1-15.5c19.9-10.7,25.9-24.9,21.8-46.4c-1.5-7.8-3.4-15.6-5.6-23.3c-0.5-1.9-2.5-3.6-4-5.1
				c-1.4-1.4-3.9-2.2-4.6-3.8c-2.7-6.1-5.1-12.3-7.1-18.6c-0.7-2.3-0.1-5.1-0.1-7.8c6.7,2.7,8.5,1.2,8.6-5.5c0.2-8,0.1-16,1.2-23.9
				c1.1-7.5,2.9-15,7.5-21c1.3-1.7,2.8-3.2,4.5-4.7c15.8-12.8,37.2-13.9,55.2-4c7.3,4,12,9.6,15,17.2c4.4,11.2,4.4,22.8,4.5,34.4
				c0,1.9,0.1,4.2,0.7,5.9c0.2,0.6,0.5,1.1,0.9,1.5c1.2,1.3,4.5,0.8,7.2,1.1c0.4,10-3.2,19.1-8.8,27.6c-0.5,0.7-1.8,0.8-2.4,1.5
				c-0.7,0.7-1.4,1.4-2.2,2.1c-1.2,1.2-2.4,2.4-2.8,3.8c-2.1,7.1-3.7,14.5-5.3,21.8c-3,13.6-1.7,26.1,6.8,35.9
				c1.9,2.2,4.3,4.4,7,6.3c15.1,10.8,32.2,17.3,50.6,19.9c17,2.4,29.3,10.8,37.3,25.8c7.1,13.4,9.9,27.8,10.7,42.7
				c0.5,9.1,0.1,18.5,2.1,27.3c2.2,9.5,4.6,19.1,7.1,28.5c3.2,12.1,6.6,24.1,10.1,36c2.9,9.6,6.9,19.2,12.1,27.9
				c11.6,19.6,21.1,40.1,26.3,62.3c3.9,17,6.9,34.2,10.2,51.4c4.1,21.3,10.4,41.9,18.9,62c0.6,1.3,0.8,3.5,0.1,4.5
				c-3.5,4.8-12,9.3-18.8,9.3c-1.5,0-2.8-0.2-4.1-0.7c-3.1-10-4.9-19.5-8.8-27.9c-13.8-29.7-28-59.3-42.6-88.6
				c-7.9-15.7-15.2-31.4-18-49c-0.5-3.1-1.7-6.1-2.9-9c-10-24.3-20-48.6-30.4-72.8c-0.9-2.2-3-5.2-4.8-6.3c-0.4-0.2-0.8-0.4-1.2-0.4
				c-4.1-0.1-4.6,4.5-5.2,7.9c-5.6,30.4-11.6,60.8-16.5,91.3c-1.9,12-1,24.3,5.5,35.3c14.8,24.8,22,51.9,24.9,80.3
				c0.7,7.4,1.6,14.8,2.4,22.2c1.8,15.9,3.6,31.7,4.8,47.7c1.2,16.2,1.7,32.6,0.9,48.8c-0.9,19.1-3.7,38-5.3,57.1
				c-1.6,18.6-2.9,37.1-4,55.7c-1.2,18.9-2.5,37.8-3.3,56.7c-0.2,4-0.4,8-0.5,12c-0.6,18.8,1.5,37.3,7.1,55.6
				c0.5,1.8,1.1,3.6,1.6,5.4c8.8,30.1,13.5,61,12.3,92.5c-1,23.9-2,47.8-3.2,71.8c-0.1,1.3-0.1,2.6-0.2,3.9
				c-0.6,10.7-1.6,21.3-2.5,31.9c-1.2,14-1.7,27.9,4.2,41.2c1.1,2.5,1.6,5.6,1.3,8.3c-0.4,3.4-0.3,6.7,0,10
				c0.4,3.8,1.1,7.6,1.8,11.4c1.2,6.7-0.9,14-2.1,21c-1.2,6.3-4.3,8.8-10.8,9.1c-16.3,0.7-21.1-3.2-22.1-14.4
				c-0.1-1.1-0.2-2.2-0.2-3.5c-0.1-2.5-2.4-6-4.7-7.3c-7.5-4.4-9.1-12.7-2.6-18.7c3.5-3.2,3.7-6.4,2.8-10.8
				c-0.8-3.9-0.7-8.1-0.6-12.2c0-1.8,0.2-3.7,0.3-5.5c0.6-6.7,1.5-13.4,0.3-19.7c-4.5-22.3-10.4-44.4-16-66.5
				c-2.7-10.6-6.6-21-9-31.6c-0.5-2.5-1-5-1.4-7.5c-3.4-23.8-5-47.9-7.2-71.9c-1.2-13-2.6-26-6.3-38.5c-1.5-5-3.3-10-5.6-14.8
				c-2.7-5.7-4.5-12.3-5.1-18.7c-1.7-17-3.3-34-4.5-51c-0.5-7.2-1-14.4-1.4-21.7c-1.6-30.3-6-60.2-11.8-90
				c-2.8-14.7-5.8-29.5-7-44.3C277.7,685.6,275.3,679.4,270.7,673.2z"/>
			<path class="st0" d="M431.3,392.2c4.8,14.6,9.8,28.9,18,42.1c15.5,25.1,23.3,53,28.5,82c3.9,21.9,9.5,43.5,15.1,65.1
				c2.5,9.5,7.1,18.5,11.1,28.7c-4.8,3.2-9.4,7.6-14.9,9.7c-2.8,1.1-6,1.4-9.2,1.4l0-2c6.8,0,15.2-4.5,18.8-9.3
				c0.7-1,0.5-3.1-0.1-4.5c-8.4-20-14.7-40.6-18.9-62c-3.3-17.2-6.2-34.4-10.2-51.4c-5.2-22.2-14.7-42.6-26.3-62.3
				c-5.1-8.6-9.2-18.2-12.1-27.9c-3.6-11.9-7-23.9-10.1-36l2.1-0.6C425.6,374.3,428.4,383.3,431.3,392.2z"/>
			<path class="st0" d="M394,1197.7c-0.1,0.7-0.1,1.4-0.1,2.2l-2.5,0.3c-0.3-3.3-0.4-6.6,0-10c0.3-2.7-0.2-5.8-1.3-8.3
				c-5.9-13.3-5.4-27.2-4.2-41.2c0.9-10.6,1.9-21.3,2.5-31.9l2.9,0.2c-0.5,8.5-1.1,16.9-1.6,25.4c-0.6,9.8-1.1,19.5-1,29.3
				c0.1,4.4,1.7,8.8,3.1,13C394.2,1183.5,395.4,1190.4,394,1197.7z"/>
			<path class="st0" d="M383.9,945.4c12.4,39.5,12.5,80.3,10.1,121.2c-0.8,14.1-1.8,28.2-2.7,42.3l-2.9-0.2c0.1-1.3,0.1-2.6,0.2-3.9
				c1.2-23.9,2.3-47.8,3.2-71.8c1.3-31.6-3.5-62.5-12.3-92.5l2.6-0.8C382.7,941.7,383.3,943.5,383.9,945.4z"/>
			<path class="st0" d="M378.6,755.1c1.6-19,4.4-38,5.3-57.1c0.8-16.2,0.3-32.6-0.9-48.8c-1.2-15.9-3-31.8-4.8-47.7l2.9-0.3
				c1.3,11.9,2.8,23.7,4,35.6c2.6,24.7,3.7,49.4,1,74.2c-3,27.8-5.1,55.6-7.3,83.5c-1.9,23.2-3.4,46.4-4.9,69.7
				c-0.1,1.2-0.1,2.4-0.2,3.5l-2.5-0.1c0.8-18.9,2.1-37.8,3.3-56.7C375.8,792.3,377,773.7,378.6,755.1z"/>
			<path class="st0" d="M373.8,867.7c-1.1,24.5,1.7,48.5,8.4,72.2l-2.6,0.8c-0.5-1.8-1.1-3.6-1.6-5.4c-5.7-18.3-7.8-36.8-7.1-55.6
				c0.1-4,0.3-8,0.5-12L373.8,867.7z"/>
			<path class="st0" d="M373.1,371.1c10.3,24.2,20.3,48.5,30.4,72.8c1.2,2.9,2.4,5.9,2.9,9c2.8,17.5,10.1,33.3,18,49
				c14.6,29.3,28.9,58.9,42.6,88.6c3.9,8.4,5.7,17.9,8.8,27.9c1.2,0.5,2.6,0.7,4.1,0.7l0,2c-2.1,0-4.2,0-6.3,0c-1,0-2.8-2.2-2.8-3.4
				c0.1-9.1-2.5-17.5-6.4-25.5c-16.8-34.9-33.9-69.8-50.6-104.8c-3.3-6.9-6.2-14.1-7.7-21.5c-3.8-19.7-12.4-37.6-19.7-55.9
				c-5-12.7-10.7-25.1-16.2-37.6c-0.8-1.8-1.6-3.5-3.1-6.8l1.1-0.8C370.2,365.9,372.2,368.9,373.1,371.1z"/>
			<path class="st0" d="M361.9,372.3c0.6-3.4,1.2-8,5.2-7.9c0.4,0,0.8,0.2,1.2,0.4l-1.1,0.8c-1.1,3.4-2,5.3-2.3,7.3
				c-5.6,30.6-11.7,61.1-16.6,91.8c-2,12.2,0.1,24.3,6.8,35.6c14.4,24.5,21.3,51.4,23.8,79.6c0.6,7.1,1.4,14.3,2.2,21.4l-2.9,0.3
				c-0.8-7.4-1.7-14.8-2.4-22.2c-2.9-28.5-10.1-55.6-24.9-80.3c-6.6-11-7.4-23.4-5.5-35.3C350.2,433.1,356.2,402.7,361.9,372.3z"/>
			<path class="st0" d="M380.4,1241.7c6.5-0.3,9.6-2.8,10.8-9.1c1.3-6.9,3.3-14.3,2.1-21c-0.7-3.9-1.4-7.6-1.8-11.4l2.5-0.3
				c0.1,1.7,0.7,3.4,1.2,5c1.6,5.3,3.3,10.3,1.3,16c-1.1,3.1-1.1,6.5-1.6,9.8c-1.1,9-6.1,13.8-15.1,14.1c-3,0.1-6,0.1-9-0.3
				c-9.8-1.3-14.6-6.2-15.1-16.1c0-0.3,0-0.6-0.1-0.9l2.7-0.3C359.2,1238.4,364,1242.4,380.4,1241.7z"/>
			<path class="st0" d="M353.5,1149.7c1.3,6.3,0.3,13-0.3,19.7l-2.4-0.2c0.1-1,0.1-2,0.1-3c0.1-5.9,0.6-12.1-0.8-17.8
				c-6.4-26.4-12.8-52.7-20.2-78.8c-1.6-5.8-3.1-11.5-4.3-17.3l2.9-0.7c2.4,10.6,6.3,21,9,31.6
				C343.1,1105.3,349,1127.4,353.5,1149.7z"/>
			<path class="st0" d="M352.9,1174.9c-0.1,4.1-0.2,8.2,0.6,12.2c0.9,4.3,0.7,7.6-2.8,10.8c-6.5,6-4.9,14.3,2.6,18.7
				c2.3,1.3,4.7,4.8,4.7,7.3c0,1.2,0.1,2.4,0.2,3.5l-2.7,0.3c-0.3-4.5-1.2-7.8-6.4-9.9c-6.4-2.6-7.6-15.5-2-20.5
				c4-3.5,3.4-6.7,2.9-11.4c-0.7-5.4,0.4-11.1,0.8-16.7l2.4,0.2C353,1171.2,352.9,1173.1,352.9,1174.9z"/>
			<path class="st0" d="M328.5,1051.7l-2.9,0.7c-4.5-20.7-6.8-41.7-7.9-62.9c-0.9-16.9-3.6-33.7-5.8-50.5c-0.2-1.5-0.5-2.9-1-4.3
				l2.8-0.8c3.7,12.5,5.1,25.4,6.3,38.5c2.2,24,3.8,48.1,7.2,71.9C327.5,1046.7,327.9,1049.2,328.5,1051.7z"/>
			<path class="st0" d="M314.8,119.8c7.3-3.1,9.2-1.8,9,5.7c-0.2,9.8-3.8,18.5-9.3,26.5c-0.5,0.8-1.3,2-2.1,2.1
				c-1.2,0.1-2.1,0.4-2.8,0.8l-2.3-1c0.7-0.7,1.5-1.4,2.2-2.1c0.6-0.7,1.9-0.8,2.4-1.5c5.7-8.5,9.2-17.6,8.8-27.6
				c-2.8-0.3-6.1,0.2-7.2-1.1c-0.4-0.4-0.6-0.9-0.9-1.5L314.8,119.8z"/>
			<path class="st0" d="M308.6,213.8c2.7,3,6.2,5.8,10.7,8.4c14.8,8.7,30.9,14.5,48.2,16.9c16.7,2.3,28.3,12.3,36.4,26.7
				c6.7,12,10.6,25.2,10.6,38.7c0,20.9,3.5,41.1,8.8,60.9l-2.1,0.6c-2.5-9.5-4.9-19-7.1-28.5c-2-8.8-1.7-18.2-2.1-27.3
				c-0.8-15-3.6-29.4-10.7-42.7c-8-15.1-20.4-23.4-37.3-25.8c-18.3-2.6-35.4-9.1-50.6-19.9c-2.7-1.9-5.1-4.1-7-6.3L308.6,213.8z"/>
			<path class="st0" d="M309.7,154.9c-2.5,1.5-2.3,4.7-2.9,7.5c-1.6,7.6-4.4,15.1-5.2,22.8c-1.4,12.4,0.3,21.3,6.9,28.6l-2.3,1.6
				c-8.5-9.8-9.8-22.2-6.8-35.9c1.6-7.3,3.1-14.6,5.3-21.8c0.4-1.4,1.6-2.6,2.8-3.8L309.7,154.9z"/>
			<path class="st0" d="M308.1,919c2.3,4.9,4.1,9.8,5.6,14.8l-2.8,0.8c-0.7-2.4-1.8-4.7-2.9-7c-6.8-13.6-8.8-28.1-9.9-43
				c-0.8-11.7-1.6-23.4-2.5-35.1l2.8-0.2c1.2,17,2.8,34,4.5,51C303.6,906.7,305.3,913.2,308.1,919z"/>
			<path class="st0" d="M297.1,827.7c0.4,7.2,0.9,14.4,1.4,21.7l-2.8,0.2c-1.4-19.5-2.9-39-4.9-58.4c-1.7-17.2-5.4-34.2-8.3-51.2
				c-2.9-17.2-7.6-34.1-7.6-51.7c0-3.1-2.4-6.1-3.4-9.2c-0.5-1.7-0.6-3.5-0.8-5.3c0-0.1,0-0.2,0-0.4c4.6,6.2,7.1,12.4,7.7,20.2
				c1.2,14.9,4.1,29.6,7,44.3C291.1,767.5,295.5,797.3,297.1,827.7z"/>
			<path class="st0" d="M314.8,100.7c0.4,6.3,0.1,12.6,0.1,19.1l-2.1,0.3c-0.6-1.7-0.6-4-0.7-5.9c-0.1-11.7-0.1-23.3-4.5-34.4
				c-3-7.6-7.7-13.2-15-17.2c-18-9.9-39.4-8.8-55.2,4c-1.8,1.4-3.2,3-4.5,4.7l-2.3-1.4c3.7-4.9,8.8-9,15.3-12.2
				c16.9-8.2,42-5.5,55.7,7.5C311.7,74.8,314,87.5,314.8,100.7z"/>
			<path class="st0" d="M219.1,973.6c-1.1,11.8-2,23.6-3.1,35.4l-2.1-0.2c0.6-6.8,1.1-13.6,1.5-20.4c0.9-16.9,3.6-33.7,5.8-50.5
				c0.5-3.9,2.1-7.8,3.9-11.3c6.8-13.6,8.8-28.1,9.9-43c2.2-31.2,4.2-62.4,7.4-93.5c1.7-17.3,5.7-34.5,8.4-51.7
				c2.6-16.9,4.6-33.9,7.5-50.7c0.9-5.4,3.9-10.4,5.9-15.7c2,0.8,3.4,1.3,4.9,1.9c-5.1,4.8-7.2,10.5-8.1,17.4
				c-1.8,16-4.3,32-7.2,47.8c-5.6,29.5-10,59-11.6,89c-1.3,24.4-3.5,48.8-5.9,73.1c-0.6,6.4-2.3,12.9-5.1,18.7
				C222.9,936.9,220.7,955.2,219.1,973.6z"/>
			<path class="st0" d="M189.3,454.1c1,7.1,1.3,14.4,1,21.6l-1.9-0.1c0.1-3.7-0.2-7.4-0.8-11.1c-4.9-30.4-10.8-60.6-16.4-90.8
				c-0.4-2.2-1.2-4.4-2.2-7.6l1-0.8c1.4,1.3,2.9,2.5,3.2,4c2.2,9.4,3.9,18.9,5.7,28.4C182.6,416.5,186.7,435.2,189.3,454.1z"/>
			<path class="st0" d="M169.1,366.1c-1.3,2-2.1,3-2.5,4.1c-10.4,24.9-20.7,49.8-31,74.7c-0.6,1.5-1.2,2.9-1.7,4.4l-2.8-0.8
				c4.4-13.5,10.3-26.5,15.5-39.7c4.9-12.4,10.5-24.5,15.8-36.7c0.5-1.2,0.8-2.7,1.6-3.6c1.4-1.7,3.2-3,4.8-4.5
				c0.4,0.4,0.8,0.9,1.3,1.3L169.1,366.1z"/>
			<path class="st0" d="M216,1009c-1.1,12-2.4,24.1-4.1,36.1c-1.9,13.2-7.1,26-10.4,39c-5.6,22.1-11.4,44.1-16,66.5
				c-1.6,7.7,0.5,16.1,0.7,24.2c0.1,4.2,0.3,8.6-0.6,12.7c-0.8,3.7-0.7,6.1,2.2,8.8c7.6,6.9,5.5,18.3-3.8,23
				c-1.5,0.8-2.7,2.8-3.2,4.4c-0.7,2.2-0.4,4.6-0.7,6.9c-0.8,6.8-4.5,11.7-11.2,13c-3.9,0.7-8,1.2-11.9,1.1l0.1-2.6
				c3,0.1,6.1-0.4,9.2-0.9c5.8-0.9,9.8-3.9,10.7-10.2c0.2-1.7,0.6-3.3,0.5-5c-0.3-5.4,1.9-8.6,7.1-10.6c5.1-1.9,6.4-12.5,1.7-16.4
				c-5-4.2-4.4-8.5-3.4-14.2c1-5.6-0.9-11.7-0.9-17.6c-0.1-6.8-0.6-13.8,0.9-20.2c6.2-26.1,12.5-52.1,19.9-77.8
				c5.7-19.8,9-39.9,10.9-60.3L216,1009z"/>
			<path class="st0" d="M189.5,486.3c-0.8,6.4-4.8,12.6-7.9,18.6c-10.9,20.9-17.6,43-20.4,66.4c-2.7,22.6-5.3,45.2-7.5,67.9
				c-1.3,13.2-2.2,26.3-2.4,39.5l-2.6,0c0.1-10,0.5-20,1.3-30c1.8-23.5,4.9-46.9,7.3-70.4c2.9-28.5,10.2-55.6,24.9-80.3
				c4.2-7,6.1-14.6,6.3-22.2l1.9,0.1C190.2,479.3,189.9,482.8,189.5,486.3z"/>
			<path class="st0" d="M215.4,121.6c0,2.8-0.6,5.5,0.1,7.8c2,6.3,4.4,12.5,7.1,18.6c0.7,1.6,3.2,2.4,4.6,3.8c1.5,1.5,3.5,3.2,4,5.1
				c2.1,7.7,4.1,15.4,5.6,23.3c4.1,21.5-1.9,35.7-21.8,46.4c-14.4,7.8-29.7,13.1-46.1,15.5c-8.4,1.2-15.4,4.3-21.2,8.8l-1.9-1.9
				c7-5.7,15.6-9.3,25.8-10.6c16.9-2.2,32.6-8.5,46.9-17.4c14.9-9.3,18.9-22.8,15-40.9c-1.5-7.1-3.1-14.3-5.1-21.3
				c-0.4-1.6-2.4-2.9-3.7-4.2c-0.9-0.9-2.3-1.4-3.1-2.4c-5.8-8.4-9.6-17.5-9.5-27.9c0-6.5,2.5-7.9,8.5-4.4c0.1-1.6,0.3-3,0.3-4.4
				c0.3-7.6,0.2-15.3,1.1-22.9c1-8.8,3.6-16.5,8.4-22.8l2.3,1.4c-4.6,6-6.5,13.5-7.5,21c-1.1,7.9-1,15.9-1.2,23.9
				C223.9,122.9,222.2,124.3,215.4,121.6z"/>
			<path class="st0" d="M158.2,769.4c2.4,31,5.1,62,6.7,93c1.2,24.6,0.8,49-6.9,73.1c-9.9,31-15,62.9-13.9,95.5l-2.9,0.1
				c-1.2-33.3,4.3-65.8,14.1-97.5c5.5-17.8,7.6-35.8,6.9-54.2c-0.8-22.6-2.4-45.2-3.8-67.7c-1.2-18.6-2.4-37.2-4-55.7
				c-1.6-19-4.4-38-5.3-57.1c-0.3-6.8-0.4-13.6-0.4-20.4l2.6,0c-0.1,10.4,0.3,20.8,1.6,31.2C155.2,729.6,156.7,749.5,158.2,769.4z"
				/>
			<path class="st0" d="M148.9,1123.1c0.5,9.5,0.8,19.1,1.1,28.6l-2.2,0.1c-0.1-3.4-0.3-6.8-0.6-10.2c-1-11.9-2.1-23.9-2.7-35.8
				c-1.2-24.6-2.3-49.2-3.2-73.8c0-0.3,0-0.6,0-0.9l2.9-0.1c0,1,0.1,1.9,0.1,2.9C145.6,1063.7,147.5,1093.4,148.9,1123.1z"/>
			<path class="st0" d="M150,1151.7c0.1,4.6,0.2,9.1,0.3,13.7c0.1,2.4-0.5,5-1.4,7.3c-3.4,8.6-5.5,17.3-3.8,26.8
				c0.5,2.5-1.1,5.3-1.9,8c-3.1,10.3,0.8,19.9,3.2,29.6c0.1,0.3,0.3,0.6,0.6,0.8c3.1,3,6.5,4,10.1,4.1l-0.1,2.6
				c-1.5,0-2.9-0.2-4.3-0.4c-3.4-0.6-8-3.6-9.1-6.6c-3.1-8.5-6.2-17.6-4.1-26.6c1.6-7.2,2.7-14.1,2.1-21.4c-0.3-3.1,0.3-6.5,1.5-9.3
				c4.1-9.3,5-18.9,4.7-28.6L150,1151.7z"/>
			<path class="st0" d="M119.2,486.3c3.3-6.9,6.2-14.1,7.6-21.6c1.1-5.5,2.5-10.9,4.2-16.2l2.8,0.8c-0.5,1.5-0.9,3-1.2,4.6
				c-2.8,17.5-10.1,33.3-17.9,49c-14.8,29.6-28.9,59.6-43.2,89.5c-3.8,8-6.4,16.4-6.3,25.5c0,0.5-0.3,1.2-0.8,1.8l-2.2-1.6
				c-0.4-17.2,8.5-31.2,15.5-45.8C91.2,543.4,105.5,515,119.2,486.3z"/>
			<path class="st0" d="M147.7,250.9c-7.4,5.8-12.8,14.1-16.2,24c-3.6,10.4-6.7,21.6-6.9,32.5c-0.6,25.4-5.3,49.9-13.2,73.9
				c-2.5,7.6-5,15.1-7.7,22.6l-2.7-0.9c0.2-0.6,0.4-1.3,0.7-1.9c7.3-21.2,14.3-42.6,17.5-65c1.2-9,1.5-18.2,2-27.3
				c0.8-15,3.5-29.4,10.8-42.7c3.8-6.9,8.4-12.6,13.8-17L147.7,250.9z"/>
			<path class="st0" d="M80.5,452.4c-11,22-15.5,45.8-20.2,69.7c-2.5,12.6-5.4,25.2-8.5,37.6l-2.3-0.6c4.8-19.3,8.1-39.1,11.9-58.8
				c4.8-25,14.6-47.9,27.1-69.9c5-8.8,9.2-18.1,12.6-27.6l2.7,0.9c-2.4,6.8-5,13.5-7.8,20.1C91.8,433.8,85.3,442.8,80.5,452.4z"/>
			<path class="st0" d="M37.8,603.7c-1.9,4.2-0.9,6.8,2.5,9.2c6.5,4.6,13.4,7.1,21.8,5l2.2,1.6c-0.6,0.8-1.5,1.5-2.1,1.6
				c-8.8,1.8-16.8-0.1-23.6-6c-2.1-1.8-4.1-3.9-6.6-6.2c7.9-15.9,13.3-32.6,17.5-49.7l2.3,0.6c-1.9,7.5-3.8,15-5.7,22.5
				C44.2,589.7,41,596.7,37.8,603.7z"/>
		</g>
		<g>
		</g>
	</g>
	<g id="Lats">
		<path id="R._Lats" class="st1" d="M309.6,341.1c18.8,4.4,37.1,7.3,57.3,1.7c-1.1,11.2-1.6,20.9-3.1,30.4
			c-2.3,14.5-5.2,28.9-7.8,43.3c-2,10.9-4,21.8-6.1,32.7c-0.3,1.4-1,2.7-1.6,4c-4.4,9-9.6,17.7-13.1,27.1
			c-2.8,7.5-3.7,15.8-5.1,23.8c-0.9,5-1,10.1-1.5,16.3c-18.3,4.9-37,9.9-56.7,15.1c0-44,0-87.3,0-131.1
			c10.2-2.5,14.2-12.2,18.8-20.8c5.2-9.7,9.7-19.8,14.3-29.9C306.8,349.7,308,345.5,309.6,341.1z"/>
		<path id="L._Lats" class="st1" d="M226.3,341.1c3.3,8.6,5.9,17.1,9.9,25.1c5.2,10.5,11,20.7,17.4,30.5c2.4,3.7,7.2,5.8,10.8,8.6
			c0,42.7,0,85.9,0,130.1c-19.6-5.2-38.3-10.1-56.3-14.8c-1.8-12.2-2.2-23.9-5.3-34.8c-3-10.4-9.1-20-13.3-30.1
			c-2.3-5.6-4-11.6-5.3-17.5c-1.8-7.9-3.1-16-4.5-24c-2.5-14.1-5.3-28.2-7.5-42.4c-1.4-9-1.9-18.2-3-28.9
			C189.2,348.4,207.6,345.6,226.3,341.1z"/>
	</g>
	<g id="Forearms">
		<path id="R._Forearms" class="st1" d="M405,446.7c3.4,0.6,6.1,1,9.1,1.5c-2.3,7.4,2.9,10.4,7.4,14c4.5,3.7,8.9,7.6,14.1,12
			c0.3-2.1,0.7-3.1,0.4-3.7c-3.8-7.4-0.9-14.7-0.1-22.1c0.2-2,0-4.8-1.3-6.1c-5.6-5.6-1-10,1.3-14.6c1-2,2.6-3.7,4.3-6
			c1.9,2.9,4.1,5.6,5.8,8.6c11.5,20.5,22.3,41.3,27.1,64.7c2.7,13.2,5.7,26.4,8.3,39.6c1.3,6.7,1.2,13.8,2.9,20.4
			c2.7,10.2,6.5,20.1,9.9,30.1c1.5,4.4,3.1,8.8,4.7,13.3c-6.2,8-13.9,13.5-23.8,12.9c-4.1-10.4-7.9-20.5-12-30.5
			c-2.2-5.4-4.5-10.8-7.1-16c-13.1-26.4-26.4-52.6-39.5-79c-2.9-5.9-5.5-12.1-7.3-18.5C407.3,461,406.5,454.3,405,446.7z"/>
		<path id="L._Forearms" class="st1" d="M62.4,611.2c-10,0.6-17.6-3.5-23.5-10.9c-0.8-1.1-1.2-3.2-0.8-4.5
			c3.5-10.6,6.7-21.4,11-31.7c4.1-10.1,3.6-20.8,5.9-31.1c1.7-7.6,4.2-15,5.9-22.6c2.2-10,3.2-20.4,6.3-30.1
			c3.4-10.6,8.3-20.8,13.1-30.9c4.5-9.4,9.8-18.4,15.2-28.5c2.8,4.4,5,7.7,7,11.2c2,3.3,1.5,6.1-0.3,9.9c-1.9,4-1.6,9.4-0.9,14.1
			c0.7,5,1.4,9.7-1.1,14.3c-0.3,0.6,0.1,1.6,0.3,4.3c7.9-7.2,15-13.3,21.6-19.9c1.1-1,0.1-4.1,0.1-6.5c2.7-0.5,5.3-1,9.9-1.9
			c-3.6,12.6-5.8,24.2-10.2,35c-4.8,11.9-11.6,23.1-17.3,34.6c-7.9,15.8-16,31.5-23.5,47.4c-6,12.6-11.4,25.5-16.8,38.4
			C63,604.7,63,608.1,62.4,611.2z"/>
	</g>
	<g id="Rhomboid">
		<path id="R._Rhomboid" class="st1" d="M271.3,244c9.4,1.3,18.8,3.7,28.3,3.7c9.4,0,18.7-2.5,28.1-4c9.8-1.5,19.6-3.5,29.5-4.5
			c4.3-0.4,8.9,1,14.2,1.7c-6.1,4.9-12.5,6-18.9,7.2c-13.3,2.5-25.6,11.1-28.5,25.7c-1.9,9.2-5.5,18-7.8,27.2
			c-2.7,10.7-4.3,21.7-7.2,32.4c-2.4,8.9-5.4,17.8-9.3,26.1c-5,10.8-10.7,21.2-16.8,31.5c-2.5,4.2-5.6,8.7-11.5,10.4
			C271.3,348.1,271.3,295.4,271.3,244z"/>
		<path id="L._Rhomboid" class="st1" d="M264.8,401.3c-6.1-1.6-9.3-6.1-11.6-10.4c-7.7-14.1-15.8-28.3-21.5-43.2
			c-5.1-13.6-7.1-28.3-10.8-42.5c-2.4-9.4-5.5-18.7-7.9-28.2c-1.7-6.5-3.3-13-8.3-17.9c-5.9-5.8-12.8-9.8-21-11.1
			c-6.5-1-12.8-2.3-18-7.8c6.8-0.3,13.6-1.5,20.2-0.6c15.3,2,30.5,5.3,45.9,7.3c11.2,1.5,22.4,1,33.2-4.6
			C264.8,295.3,264.8,347.9,264.8,401.3z"/>
	</g>
	<g id="Triceps">
		<path id="R._Triceps" class="st1" d="M431.6,428.5c0-5.1,0-10.1,0-15.6c-2,0.5-4,1.1-6.8,1.8c-1.2-6.2-2.3-12.6-3.8-18.9
			c-1.3-5.5-2.2-11.4-5.1-16.1c-2.6-4.3-7.5-7.2-11.4-10.7c-0.4-0.3-1.5,0.1-2.7,0.3c0.9,1.5,1.6,2.7,2.5,4.1
			c-2.2-0.6-3.9-1.2-5-1.5c1.9,7.8,3.7,15.3,5.7,23.5c-2.1-0.2-3.3-0.3-4.7-0.4c3.7,8.4,8,16.3,10.6,24.6c2.6,8.3,3.4,17.1,5.1,26.6
			c-4.7-1-8.2-1.2-11.2-2.5c-1.6-0.6-2.8-2.9-3.6-4.7c-8.7-20.5-17.3-41.1-26-61.6c-2-4.8-4.4-9.4-6.3-14.3
			c-0.5-1.4-0.1-3.2,0.1-4.7c1.3-12.9,2.6-25.8,3.9-38.7c0.5-5,0.9-10,1.3-15.1c0.4-0.4,0.9-0.7,1.3-1.1c3.7,4.2,7.1,8.7,11.1,12.5
			c5.5,5.1,11.7,9.5,17.3,14.6c5.4,4.8,9.9,10.3,12.1,17.5c3.2,10.4,7.4,20.5,10.7,30.8c4,12.5,8.3,25,11,37.8
			c0.8,3.6-3.5,8.2-5.4,12.3C432.2,428.9,431.9,428.7,431.6,428.5z"/>
		<path id="L._Triceps" class="st1" d="M161.4,304.5c1.9,14.9,3.5,29.4,5.6,43.8c1.6,10.7-2.3,20-6.3,29.5
			c-7.1,16.6-14,33.3-21,49.9c-1.8,4.2-3.6,8.4-5.3,12.6c-0.9,2.2-1.8,3.9-4.8,4c-2.7,0.1-5.3,1.2-8.2,1.9
			c-1.3-18.8,6.9-34.4,14.4-50.7c-1-0.1-2.2-0.2-4.4-0.3c1.7-7.4,3.4-14.9,5.2-22.8c-0.7,0.1-2.4,0.5-4.5,0.9
			c0.6-1.1,1.2-2.2,1.9-3.4c-0.3-0.4-0.6-0.8-0.9-1.2c-1.5,1-2.9,2.4-4.5,3.1c-8.8,3.9-11.2,11.6-12.7,20.1
			c-1.3,7.7-3.1,15.2-4.7,22.8c-2.6-0.7-4.6-1.2-6.8-1.8c0,5.4,0,10.4,0,15.2C99,424.5,97,419,99,412.7
			c5.7-18.6,11.5-37.2,17.1-55.9c4.4-14.6,13.8-25.3,25.3-34.7c6.5-5.3,12.5-11.2,18.8-16.8C160.5,305.1,160.9,304.8,161.4,304.5z"
			/>
	</g>
	<g id="Shoulders">
		<path id="R._Shoulders" class="st1" d="M334.5,260.4c5.9-5.8,12.7-9.4,21-10.5c5-0.7,10.2-2.3,14.6-4.7c5.2-2.9,9.4-4.2,13.8-0.5
			c5.8,4.9,11.9,10.1,15.9,16.4c5.1,8.2,8.7,17.4,11.9,26.6c1.9,5.3,1.9,11.3,2.4,17c0.6,7.9,0.6,15.9,1.1,23.8
			c0.3,4.3,1.2,8.6,2,13.6c-9.1-14-22.6-22.4-33.9-33c-2.6-2.4-5.9-4.4-7.6-7.3c-1.4-2.4-1.3-5.9-1.3-8.9c0-4.6,0.6-9.2,0.7-13.8
			c0-1.1-0.9-2.5-1.8-3.2c-4.9-3.8-9.9-7.5-15-11.1C350.9,259.5,343,258.9,334.5,260.4z"/>
		<path class="st1" d="M119.9,339.6c0.3-6.5,0.6-14.6,1.3-22.7c0.7-7.7,2.2-15.2,2.7-22.9c0.5-8.7,3-16.8,7.3-24.1
			c3.8-6.6,8.6-12.7,13.3-18.7c3.6-4.5,8.4-7.5,14.1-8.8c1.5-0.4,3.9,0.1,5,1.1c5.4,5.1,12.2,5.5,18.9,6.7c7.3,1.3,13.9,4.5,20,11
			c-12.6-3.2-22.2,0.2-30.4,8.3c-0.6,0.6-1.2,1.1-1.9,1.6c-10.4,7.1-10.9,8.9-8.5,21.9c0.7,4,0.8,7.7-3.8,11.1
			c-8.2,6-15.3,13.3-22.7,20.3C129.6,329.6,124.2,335.2,119.9,339.6z"/>
	</g>
	<g id="Traps">
		<path id="R._Traps" class="st1" d="M348.9,237.5c-9.6,1.6-18.2,2.7-26.7,4.6c-12.2,2.8-24.3,4.1-36.6,1.8
			c-4.9-0.9-9.6-2.7-14.4-4.2c0-26.1,0-51.9,0-77.7c0.4,0,0.9-0.1,1.3-0.1c0.6,7.8,1.1,15.7,1.7,23.5c1.2-1.1,3-2.8,5.8-5.4
			c-0.2-1.7-0.6-4.9-1-8.2c1.1,1.3,2,2.3,3.4,4c0.7-5.1,1.2-8.9,1.8-12.8c0.2,0,0.4-0.1,0.6-0.1c1.2,6.2,2.5,12.4,3.7,18.7
			c0.4,0.1,0.7,0.3,1.1,0.4c0.7-2.2,1.3-4.3,2.3-7.5c0.7,2.9,1.1,5,1.9,8.4c2.9-4.6,5.2-8.5,8-13.1c-0.7,5.9-1.5,11-1.9,16.1
			c-0.9,10.8,0.7,20.7,8.6,29.3c7.5,8.2,17.3,12.1,26.9,16.6C339.5,233.9,343.7,235.4,348.9,237.5z"/>
		<path id="L._Traps" class="st1" d="M264.7,239.4c-10.6,4.7-21.6,6.5-33.1,5.5c-6.2-0.6-12.3-1.9-18.4-2.9
			c-8.4-1.4-16.8-2.9-25.3-4.3c10.3-4.9,20.7-8.7,29.9-14.4c10-6.1,17.8-14.8,18-27.6c0.1-8.3-0.7-16.6-1.1-24.6
			c2.1,3.5,4.4,7.3,7.3,12.2c0.7-3.4,1.1-5.6,1.9-9.2c1,3.7,1.6,5.9,2.2,8.1c0.4-0.1,0.8-0.2,1.2-0.2c1.3-6.3,2.5-12.6,3.8-18.8
			c0.2,0,0.3,0,0.5,0c0.6,3.9,1.1,7.8,1.9,12.9c1.4-1.7,2.3-2.7,3.5-4.1c-0.4,3.3-0.9,6.3-1.1,8.3c2.6,2.4,4.5,4.1,6,5.5
			c0.5-7.7,1-15.7,1.5-23.6c0.4,0,0.9,0.1,1.3,0.1C264.7,187.8,264.7,213.6,264.7,239.4z"/>
	</g>
	<g id="Infraspinatus">
		<path id="R._Infraspinatus" class="st1" d="M311.4,337.3c1.9-10,3.4-20,5.7-29.8c2.4-9.9,5.5-19.7,8.4-29.5
			c0.4-1.4,1.1-2.7,1.4-4.2c1.9-8.6,9.7-13.8,18.2-11.1c5,1.6,9.7,4.2,14.4,6.7c0.7,0.4,0.9,2.8,0.5,4.1c-3.3,11.7-8.1,23.2-10,35.1
			c-1.8,11.7-10.5,16-18.2,21.9c-3,2.3-6.3,4.1-9.3,6.4C318.1,340.5,316.6,340.6,311.4,337.3z"/>
		<path id="L._Infraspinatus" class="st1" d="M191.2,262c10.8,0,15.8,4.2,18,12.1c3,10.8,6.7,21.4,9.5,32.2
			c2.5,9.8,4.3,19.7,6.3,29.6c0.5,2.4-4.7,4.8-7.5,3.1c-5.7-3.4-11.2-7.2-16.8-10.9c-1.1-0.7-2.1-1.5-3.2-2.3
			c-5.7-4-9.5-8.4-11-16.1c-2.2-11.7-6.7-23-10.5-34.4c-1.2-3.5-1.2-5.7,2.8-7.3C183.8,265.9,188.6,263.3,191.2,262z"/>
	</g>
	<g>
		<path id="R._Obliques" class="st1" d="M367.5,527.3c-17.3-9.4-22.6-11.9-35.3-8.8c-1.1-20.1,3.4-38.6,14.8-55.5
			c0,6.4-0.1,12.8,0,19.2c0.2,6.3,2.5,11.6,6.2,16.9c4,5.8,6.5,12.6,9.7,19C364.3,520.8,365.6,523.5,367.5,527.3z"/>
		<path id="L._Obliques" class="st1" d="M203.9,518.6c-13.5-5.3-23.6,3-36.1,8.5c6.1-11,11.9-20.6,16.9-30.6c2.1-4.2,3.6-9,4.1-13.7
			c0.7-6.5,0.2-13.2,0.6-19.9C200.5,479.7,204.8,498.2,203.9,518.6z"/>
	</g>
	<g id="Teres_Major">
		<path id="R._Teres_Major" class="st1" d="M371.7,305.1c-1.2,9.6-2.7,19.1-3.5,28.7c-0.5,6.3-5,7.8-9.3,8
			c-10.9,0.6-21.9,0.2-32.9,0.2c-1.2,0-2.4-0.7-3.9-1.2c16.3-12.3,32.2-24.3,48.2-36.4C370.8,304.6,371.2,304.8,371.7,305.1z"/>
		<path id="L._Teres_Major" class="st1" d="M214.2,341c-2.6,0.4-4.4,0.9-6.3,1c-9.1,0.1-18.3,0.3-27.4,0
			c-11.9-0.4-12.5-3.5-13.5-12.9c-0.4-4.1-0.6-8.2-1-12.3c-0.4-3.9-0.9-7.8-1.6-13.3C181.5,316.3,197.4,328.3,214.2,341z"/>
	</g>
	<g id="Teres_Minor">
		<path id="R._Teres_Minor" class="st1" d="M363.6,272.6c3.6,2.6,6.2,4.5,8.4,6.1c0,4.5-0.3,8.6,0.1,12.7c0.5,5.3-1.1,8.8-5.7,11.9
			c-5.4,3.6-10.1,8.3-15.6,12.4C354.5,301.4,357.2,286.8,363.6,272.6z"/>
		<path id="L._Teres_Minor" class="st1" d="M164,278.7c2.4-1.7,5-3.6,8.3-5.9c6.8,13.9,9,28.7,13.9,44.1
			c-7.7-6.3-14.4-11.7-20.9-17.3c-1-0.9-1.1-3-1.2-4.5C163.9,289.8,164,284.5,164,278.7z"/>
	</g>
	<g id="Glutes">
		<path id="R_1_" class="st1" d="M271,642.4c0-6.8,0.4-13.7-0.1-20.5c-0.7-9.7,2.4-18.6,5.9-27.1c4.3-10.3,9.5-20.4,15.5-29.9
			c2.9-4.7,8-8.2,12.8-11.4c10.2-6.7,20.7-13,31.3-19.1c1.9-1.1,5.5-1.3,7.2-0.2c3.8,2.4,7.7,5.4,10.3,9.1
			c6.9,9.4,8.1,20.8,10.1,31.8c2,11.4,4.3,22.8,5.6,34.3c1.7,15.2,3.9,30.4,1.5,45.8c-2.2,13.9-7.1,26.7-14.2,38.7
			c-4.2,7-10,11.8-19.2,11.2c-5.5-0.4-11.2,0.9-16.8,0.8c-16.7-0.4-30.6-6.9-41.9-19.5c-5.8-6.5-8.7-13.7-8.1-22.5
			C271.3,656.8,271,649.6,271,642.4z"/>
		<path id="L_1_" class="st1" d="M265,643c0,8-0.3,16,0.1,24c0.3,7.9-3.3,13.9-8.2,19.4c-6.4,7.3-13.9,13.1-23.1,16.1
			c-10.9,3.5-22,4.2-33.6,2.7c-6-0.8-12.3-0.5-16.3-5.2c-4.2-4.9-7.7-10.6-10.4-16.5c-3.3-7-5.8-14.5-8.1-22
			c-1.1-3.7-1.2-7.8-1.4-11.7c-0.6-17.8,1.2-35.5,4.8-53c2.6-12.8,3.3-26,6.5-38.6c2.4-9.7,6.7-19.1,16.6-24.2c4.4-2.3,8,0,11.4,2.1
			c11.5,7.2,22.9,14.4,34,22.1c3.2,2.2,5.7,5.9,7.8,9.4c4.1,7,7.8,14.3,11.5,21.6c6.5,12.7,9.6,26.1,8.5,40.4
			C264.7,634,265,638.5,265,643z"/>
	</g>
	<g id="Hamstrings">
		<path id="R._Hamstrings" class="st1" d="M323,709.5c10.7-1.2,20.7-2.6,30.6-3c2.3-0.1,5.7,2.6,6.9,4.9c4.4,8.1,5.7,17.2,6.5,26.4
			c1.2,13.9,2.7,27.8,3.9,41.7c0.8,9,1.8,18.1,2,27.1c0.3,21.2,0,42.3,0.1,63.5c0.1,9.4,0.6,18.9,0.9,28.3c0.1,1.6,0,3.1,0,4.7
			c-0.4,0.1-0.8,0.2-1.2,0.3c-7-15.3-13.9-30.6-20.9-45.9c-12,27.3-24.1,54.9-36.2,82.5c-5-11.6-9.3-22.3-9-34.9
			c0.8-34.6-0.2-69.3,0.5-104c0.3-16,2.7-32,4.8-48c1.4-11,3.7-21.8,6.1-32.7C319,716.5,321.4,713,323,709.5z"/>
		<path id="L._Hamstrings" class="st1" d="M220.3,939.9c-12.1-27.5-24.2-55.1-36.2-82.5c-6.9,15.1-13.8,30.5-20.8,45.9
			c-0.5-0.1-1.1-0.2-1.6-0.3c0.4-8.6,0.9-17.2,1.3-25.8c0.1-1.5,0.1-3,0.1-4.5c0-18.7-0.5-37.3,0.2-56c0.6-17.4,2.5-34.8,3.8-52.2
			c0.7-8.5,1.5-17.1,2-25.6c0.6-9,2-17.8,5.7-26.1c2.1-4.6,4.6-7,10.4-5.9c8.2,1.5,16.7,1.5,25,2.3c1.3,0.1,3.2,1.3,3.6,2.4
			c2.9,8.4,6.5,16.7,8,25.4c2.8,16.8,5.2,33.7,6.1,50.7c1.2,22.9,1,45.8,1.2,68.8c0.1,14.3-0.5,28.7,0.2,43
			c0.7,13.3-1.5,25.7-6.8,37.8c-0.3,0.7-0.5,1.6-0.7,2.3C221.2,939.6,220.8,939.8,220.3,939.9z"/>
	</g>
	<g>
		<path id="L._Inside_Thigh" class="st1" d="M259.9,690.1c-1.5,8.3-3.1,16.6-4.4,25c-1.9,12.1-3.6,24.2-5.5,36.3
			c-1.6,10.3-3.4,20.6-5,30.9c-1.7,11-3.2,21.9-4.9,33.1c-2.6-2.3-5.5-4.8-8.1-7.5c-0.8-0.9-0.9-2.6-0.9-4
			c-0.4-10.8,0.1-21.6-1.2-32.3c-1.7-14.2-4.7-28.3-7.2-42.4c-1-5.3-2.2-10.5-3.7-15.6c-0.5-1.8-2.1-3.2-3.6-5.5
			c17.1-0.1,31.6-5.7,42.6-19.4C258.6,689.1,259.3,689.6,259.9,690.1z"/>
		<path id="R._Inside_Thigh" class="st1" d="M320.5,708c-5.9,8.3-6.6,17.9-8.4,27c-3.1,16-6.2,32.2-6.2,48.6c0,4.1-0.9,8.2-0.9,12.3
			c-0.1,11.5,0,11.5-8.8,19.1c-6.5-41.5-13.1-83.3-19.7-125.1c0.4-0.5,0.9-1,1.3-1.4C289,702.1,303.4,708,320.5,708z"/>
	</g>
	<g id="Calves">
		<path id="R._Calf_4" class="st1" d="M338.8,1087.1c11.4,28.1,19.4,57,20.6,87.6c-3.1-3-5.6-5.2-5.9-10.9
			c-0.6-12.4-3.5-24.8-5.7-37.1c-1.4-8.2-3.1-16.3-4.9-24.4c-0.7-3.3-2.1-6.5-3.1-9.7C339.4,1090.7,339.1,1088.9,338.8,1087.1z"/>
		<path id="R._Calf_3" class="st1" d="M391.9,1071c-0.6,11.3-1.2,22.6-1.8,33.9c-0.3,5.4-0.6,10.9-1.1,16.3
			c-0.9,11.3-1.9,22.6-2.9,33.8c0,0.5-0.2,1.1,0,1.5c2.4,5.8,0,10.5-3.6,14.8c-7.4-4.6-4.7-12.2-4.3-18.6c0.6-9.6,2.2-19.1,3.9-28.6
			c2.1-12,4.7-24,6.8-36c1-5.7,1.2-11.5,1.8-17.2C391.1,1070.9,391.5,1071,391.9,1071z"/>
		<path id="R._Calf_2" class="st1" d="M393.5,1050.6c-9.6,2.5-14.8-4-20.5-9.5c-0.3-0.3-0.4-1-0.8-1.2c-8.4-5.7-7.5-14.7-8.4-23.2
			c-1.1-10.2-2.7-20.4-4.4-30.5c-2-12.6-4.3-25.1-6.5-37.6c-2.1-12-4.2-24.1-6.2-36.1c-0.3-1.8-0.4-4,0.4-5.5
			c4.1-7.3,8.6-14.5,13.3-22.2C387.3,937.2,397.2,992.5,393.5,1050.6z"/>
		<path id="R._Calf_1" class="st1" d="M329.7,1060.9c-2.3-14-4-27.8-6.8-41.3c-2.9-13.9-2.5-27.9-3-41.8c-0.3-9.8-2-19.6-2.7-29.4
			c-0.2-2.4,0.9-5.1,1.9-7.5c6-14,12.2-28,18.5-42.4c5.3,6.2,7,13.3,8.3,20.4c2.9,15.9,5.4,31.8,8.2,47.7c1.8,10.6,4,21.1,5.6,31.8
			c1.1,7.6,1.3,15.4,2.5,23c1.7,10.4-2.5,19-7.1,27.6C349.7,1058.7,341,1061.5,329.7,1060.9z"/>
		<path id="L._Calf_4" class="st1" d="M176.5,1175.6c1.4-31.7,9.2-60.5,20.8-88.4c-0.8,3.3-1.6,6.6-2.4,9.9c-2,8.4-4,16.7-5.9,25.1
			c-1.4,6.3-3.3,12.6-4,19.1c-1,8.7-4.4,17.1-2.6,26.2C182.8,1169.6,178.9,1172.4,176.5,1175.6z"/>
		<path id="L._Calf_3" class="st1" d="M154,1171.3c-7.8-5.2-3.9-13.2-4.8-19.9c-1.5-11.1-1.6-22.3-2.2-33.5c-0.7-13-1.3-26-2-39.1
			c-0.1-2.5-0.8-5.1,0-7.8c1.4,8.4,2.7,16.8,4.1,25.2c1.7,10.1,3.7,20.2,5.1,30.4c1.5,10.7,2.2,21.5,4,32.1
			C159,1164.1,157.4,1168,154,1171.3z"/>
		<path id="L._Calf_2" class="st1" d="M206.2,1060.7c-14.7,1.5-23.8-5.4-28.4-18.4c-1.9-5.3-4.1-10.8-4.5-16.3
			c-0.4-5.6,1-11.4,1.8-17c1.5-10.2,3.2-20.3,4.9-30.4c2.7-16.1,5.5-32.1,8.3-48.2c0.8-4.8,1.4-9.7,2.7-14.4
			c1.6-5.8,3.8-11.5,5.7-17.2c0.6,0.1,1.1,0.1,1.7,0.2c1.2,2.8,2.3,5.5,3.6,8.3c5.1,11.6,10.7,23,15.2,34.8
			c1.7,4.4,0.9,9.8,0.7,14.8c-0.5,12.2-0.9,24.4-2,36.6c-1.1,12.4-2.8,24.7-4.6,37C209.8,1040.4,207.9,1050.5,206.2,1060.7z"/>
		<path id="L._Calf_1" class="st1" d="M142.3,1050.7c-3.3-58.8,6.9-115.3,33.4-166c4.7,7.9,9.9,15.2,13.4,23.3
			c1.4,3.3-0.5,8.2-1.2,12.2c-2.2,12.8-4.6,25.6-6.9,38.5c-2.2,12.7-4.4,25.4-6.4,38.1c-1,6.5-2.5,13-2.4,19.4
			c0.2,11.7-3.8,20.5-12.8,28.3C154.1,1049.2,149.3,1051.6,142.3,1050.7z"/>
	</g>
	<path d="M35,596c4-10.9,7.7-21.9,12.1-32.7c4.2-10.2,3.7-21.1,6-31.6c1.6-7.6,4.2-15,5.9-22.6c2.2-9.8,3.2-20,6.3-29.6
		c3.5-10.8,8.3-21.2,13.3-31.4c8.9-18.4,20.1-35.7,24.7-56.1c2.8-12.5,7.6-24.5,11-36.8c1.5-5.2,2.1-10.6,2.7-15.9
		c1.2-11.9,1.9-23.9,3.1-35.8c1.8-17.1,6.1-33.1,16.8-47.3c8.7-11.5,19.6-17.5,33.8-18.3c15.5-0.9,29.1-7.7,42.7-14.6
		c6.4-3.2,11.6-7.7,15.5-13.3c6.4-9.1,6.2-19.6,4.6-30c-1.3-8.4-3-16.7-4.5-25c0.7,0,1.3,0,2,0c2.9,7,5.9,14,8.7,20.7
		c3.2-0.6,2.5-7.9,7.4-2.4c1-6.2,2-12.3,2.9-18.3c1,0,2,0,3,0c0.5,4.2,1,8.3,1.6,13.8c4.5-5,8-9.1,11.9-13.5
		c0,128.1,0,255.2,0,382.5c-15.3-3.6-30.6-7.1-45.8-11c-7.8-2-15.4-5.1-23.1-7.5c-1.1-0.4-2.6-0.6-3.6-0.2c-8.4,3.4-16.7,7-25,10.6
		c-0.8,0.4-1.3,1.6-2,2.4c-0.4-0.2-0.8-0.3-1.2-0.5c0.7-2.8,1.1-5.8,2.2-8.4c3.3-7.4,6.7-14.8,10.4-22c2.6-4.9,7.3-8.6,7.6-14.6
		c0.4-10.1,2-20.4,0.6-30.2c-2-14.2-6.6-28.1-9.4-42.2c-2.9-14.4-4.8-29-7.2-43.5c-0.3-1.7-0.9-3.3-1.6-5.8
		c-5,11.6-9.7,22.5-14.4,33.4c-3.4,7.9-6.7,15.9-10,23.9c-2.9,7.1-6.2,14-8.6,21.2c-2.8,8.8-4.5,18-7.2,26.9c-1.8,5.8-4.3,11.5-7,17
		c-10.1,20.2-20.7,40.1-30.4,60.5c-8.6,18-16.5,36.5-24.5,54.8c-1,2.3-1.2,5.1-1.2,7.7c-0.1,3.3-2.1,3.8-4.6,3.6
		c-9.4-0.8-17.3-4.4-23.2-12c-0.6-0.7-1.5-1.2-2.3-1.8C35,598.7,35,597.3,35,596z M226.3,341.1c-18.7,4.4-37,7.2-57.2,1.7
		c1.1,10.7,1.6,19.9,3,28.9c2.2,14.2,4.9,28.3,7.5,42.4c1.4,8,2.7,16.1,4.5,24c1.4,5.9,3,11.9,5.3,17.5
		c4.2,10.1,10.3,19.7,13.3,30.1c3.1,10.9,3.6,22.6,5.3,34.8c18,4.7,36.7,9.7,56.3,14.8c0-44.2,0-87.4,0-130.1
		c-3.6-2.8-8.4-4.9-10.8-8.6c-6.4-9.8-12.2-20-17.4-30.5C232.2,358.3,229.6,349.7,226.3,341.1z M62.4,611.2c0.6-3.1,0.6-6.5,1.8-9.4
		C69.6,588.9,75,576,81,563.4c7.6-15.9,15.6-31.6,23.5-47.4c5.8-11.5,12.5-22.7,17.3-34.6c4.3-10.8,6.6-22.4,10.2-35
		c-4.6,0.9-7.2,1.4-9.9,1.9c0,2.5,0.9,5.5-0.1,6.5c-6.6,6.6-13.7,12.7-21.6,19.9c-0.2-2.7-0.6-3.7-0.3-4.3c2.5-4.7,1.8-9.3,1.1-14.3
		c-0.7-4.6-1-10.1,0.9-14.1c1.9-3.8,2.3-6.6,0.3-9.9c-2-3.4-4.2-6.8-7-11.2c-5.4,10.1-10.7,19.1-15.2,28.5
		c-4.8,10.1-9.7,20.3-13.1,30.9c-3.1,9.7-4.1,20.1-6.3,30.1c-1.7,7.6-4.2,15-5.9,22.6c-2.3,10.3-1.8,21.1-5.9,31.1
		c-4.2,10.3-7.5,21.1-11,31.7c-0.4,1.3-0.1,3.4,0.8,4.5C44.8,607.7,52.4,611.8,62.4,611.2z M264.8,401.3c0-53.4,0-106,0-159.1
		c-10.7,5.6-22,6.1-33.2,4.6c-15.3-2-30.5-5.3-45.9-7.3c-6.6-0.8-13.5,0.3-20.2,0.6c5.3,5.6,11.6,6.8,18,7.8
		c8.2,1.3,15.1,5.3,21,11.1c5,4.9,6.6,11.4,8.3,17.9c2.5,9.4,5.5,18.7,7.9,28.2c3.6,14.2,5.6,28.9,10.8,42.5
		c5.7,15,13.8,29.1,21.5,43.2C255.5,395.2,258.7,399.7,264.8,401.3z M161.4,304.5c-0.5,0.3-0.9,0.6-1.3,0.9
		c-6.2,5.6-12.3,11.5-18.8,16.8c-11.5,9.4-21,20.1-25.3,34.7c-5.6,18.7-11.3,37.3-17.1,55.9c-1.9,6.3,0,11.7,5.5,15.4
		c0-4.8,0-9.8,0-15.2c2.2,0.6,4.1,1.1,6.8,1.8c1.6-7.6,3.4-15.2,4.7-22.8c1.4-8.6,3.9-16.3,12.7-20.1c1.6-0.7,3-2,4.5-3.1
		c0.3,0.4,0.6,0.8,0.9,1.2c-0.6,1.2-1.3,2.3-1.9,3.4c2.1-0.4,3.8-0.8,4.5-0.9c-1.8,7.9-3.5,15.4-5.2,22.8c2.2,0.2,3.4,0.3,4.4,0.3
		c-7.5,16.3-15.7,31.9-14.4,50.7c2.9-0.7,5.5-1.8,8.2-1.9c2.9-0.1,3.9-1.8,4.8-4c1.7-4.2,3.6-8.4,5.3-12.6c7-16.6,13.9-33.3,21-49.9
		c4-9.4,7.9-18.8,6.3-29.5C164.9,333.9,163.3,319.4,161.4,304.5z M119.9,339.6c4.4-4.3,9.8-10,15.4-15.3c7.4-7,14.5-14.3,22.7-20.3
		c4.6-3.4,4.5-7.1,3.8-11.1c-2.4-13-1.9-14.8,8.5-21.9c0.7-0.5,1.3-1,1.9-1.6c8.2-8.1,17.9-11.5,30.4-8.3c-6.2-6.4-12.7-9.7-20-11
		c-6.7-1.2-13.5-1.6-18.9-6.7c-1.1-1-3.5-1.5-5-1.1c-5.6,1.3-10.5,4.3-14.1,8.8c-4.8,6-9.5,12.1-13.3,18.7
		c-4.3,7.3-6.8,15.4-7.3,24.1c-0.5,7.7-2.1,15.2-2.7,22.9C120.5,324.9,120.2,333.1,119.9,339.6z M264.7,239.4c0-25.8,0-51.6,0-77.4
		c-0.4,0-0.9-0.1-1.3-0.1c-0.5,8-1,15.9-1.5,23.6c-1.5-1.4-3.4-3.1-6-5.5c0.3-2,0.7-5,1.1-8.3c-1.2,1.4-2.1,2.5-3.5,4.1
		c-0.7-5.1-1.3-9-1.9-12.9c-0.2,0-0.3,0-0.5,0c-1.3,6.3-2.5,12.6-3.8,18.8c-0.4,0.1-0.8,0.2-1.2,0.2c-0.6-2.2-1.2-4.4-2.2-8.1
		c-0.7,3.6-1.2,5.8-1.9,9.2c-2.9-4.9-5.2-8.7-7.3-12.2c0.4,8,1.2,16.3,1.1,24.6c-0.2,12.8-8,21.5-18,27.6
		c-9.3,5.7-19.6,9.6-29.9,14.4c8.5,1.5,16.9,2.9,25.3,4.3c6.1,1,12.2,2.4,18.4,2.9C243.1,246,254.2,244.1,264.7,239.4z M191.2,262
		c-2.6,1.3-7.4,3.9-12.4,5.9c-3.9,1.6-3.9,3.8-2.8,7.3c3.8,11.4,8.3,22.7,10.5,34.4c1.4,7.7,5.3,12.1,11,16.1
		c1.1,0.7,2.1,1.6,3.2,2.3c5.6,3.7,11.1,7.5,16.8,10.9c2.8,1.7,8-0.6,7.5-3.1c-2-9.9-3.8-19.8-6.3-29.6c-2.8-10.8-6.5-21.4-9.5-32.2
		C207,266.3,202,262,191.2,262z M106.9,415.9c0,8.8,0,17.1,0,25.4c-0.4-0.2-0.8-0.3-1.2-0.5c-1.1,2.3-3.3,4.6-3.2,6.9
		c0.2,6.5,1.3,13,2.2,20.4c4.3-3.8,8.7-7.1,12.4-11.2c1.7-1.9,2.6-5.1,2.8-7.8c0.5-6.8-0.3-13.8,0.6-20.5c0.7-5,3.3-9.7,5-14.5
		c0.8-2.2,1.7-4.4,2-6.7c0.3-2.2-0.6-4.6-0.2-6.8c0.5-3.2,3.4-7.3,2.3-9.1c-2.2-3.5-0.8-5.4,0.6-8.1c1.1-2.1,1.8-4.4,3-7.4
		c-2.4,1.3-4.1,2.2-6,3.2c-0.2-1.5-0.4-2.6-0.7-4.5c-12.2,12.5-8.1,29.6-14.5,43.2C110.4,417.2,108.6,416.5,106.9,415.9z
		 M203.9,518.6c0.9-20.5-3.4-38.9-14.5-55.6c-0.4,6.7,0.1,13.3-0.6,19.9c-0.5,4.7-1.9,9.5-4.1,13.7c-5.1,10-10.8,19.7-16.9,30.6
		C180.3,521.6,190.4,513.3,203.9,518.6z M214.2,341c-16.8-12.7-32.7-24.7-49.8-37.6c0.7,5.5,1.2,9.4,1.6,13.3
		c0.4,4.1,0.6,8.2,1,12.3c1,9.5,1.6,12.6,13.5,12.9c9.1,0.3,18.3,0.1,27.4,0C209.8,341.9,211.7,341.4,214.2,341z M164,278.7
		c0,5.8-0.1,11.1,0.1,16.4c0,1.5,0.2,3.7,1.2,4.5c6.5,5.6,13.2,11,20.9,17.3c-4.9-15.4-7-30.3-13.9-44.1
		C169,275.1,166.4,276.9,164,278.7z"/>
	<path d="M307,155c-1.4,8.2-2.7,16.4-4.3,24.6c-3.2,16.3-0.1,30.9,14.2,40.3c9.2,6.1,19.9,10.4,30.5,13.9
		c10.9,3.5,22.6,4.6,33.7,7.4c7.6,1.9,12.6,8.1,17.2,13.9c7.4,9.4,12.5,20.2,15.5,31.9c1.3,5.4,1.8,11,2.1,16.5
		c0.6,8.8,0.4,17.6,1.2,26.3c0.5,5.6,2,11.2,3.1,16.8c4.9,24.9,13,49,22,72.7c3.7,9.8,9.5,18.9,14.9,28
		c8.2,13.6,13.2,28.3,16.8,43.6c2.6,11.2,4.9,22.6,7,33.9c1.9,9.7,2.8,19.7,5.2,29.3c2.6,10.2,6.4,20.1,9.9,30.1
		c1.4,4.1,3.3,8,4.9,11.9c0,1.3,0,2.7,0,4c-1.4,1.2-3,2.2-4,3.6c-5.6,7.3-13.6,9.2-22,10.2c-1.2,0.1-3.8-1.6-3.8-2.6
		c-0.3-10.1-5.5-18.4-9.3-27.1c-8.9-20.1-18.5-40-28.2-59.7c-6.9-13.9-15.1-27.2-21.4-41.4c-4.1-9.2-5.6-19.6-8.3-29.5
		c-0.8-2.8-1.8-5.6-2.9-8.3c-2.2-5.6-4.6-11.1-6.9-16.7c-3-7.5-5.8-15.2-8.9-22.7c-5.3-12.6-10.9-25.1-16.3-37.6
		c-0.4-0.9-0.9-1.7-1.9-3.5c-2.8,16.8-5.4,32.6-8.2,48.4c-0.8,4.5-2.1,8.9-2.9,13.4c-1.4,7.5-1.6,15.5-4.3,22.5
		c-4.2,10.9-2.6,21.8-2.5,32.7c0.1,4.9,2.8,9.9,4.9,14.6c3.3,7,7.2,13.8,10.7,20.7c1.8,3.6,3.2,7.4,4.7,11.1
		c0.4,1.1,0.2,2.3,0.3,4.2c-8.5-7.7-18.3-11-28.4-13.5c-1.2-0.3-2.6,0.5-3.9,0.9c-11.1,3.2-22.1,6.5-33.2,9.5
		c-11.6,3.1-23.2,5.8-34.9,8.7c0-127.4,0-254.5,0-382.6c3.9,4.4,7.5,8.5,11.9,13.5c0.6-5.5,1.1-9.6,1.6-13.8c1,0,2,0,3,0
		c1,6.1,1.9,12.1,2.9,18.3c5-5.8,4.1,2.5,7.5,2.2c2.8-6.6,5.7-13.5,8.6-20.5C305.7,155,306.3,155,307,155z M309.6,341.1
		c-1.6,4.3-2.8,8.5-4.6,12.5c-4.6,10-9.1,20.2-14.3,29.9c-4.7,8.7-8.6,18.3-18.8,20.8c0,43.8,0,87.1,0,131.1
		c19.7-5.2,38.4-10.2,56.7-15.1c0.5-6.2,0.7-11.3,1.5-16.3c1.4-8,2.3-16.2,5.1-23.8c3.5-9.3,8.7-18.1,13.1-27.1
		c0.6-1.3,1.3-2.6,1.6-4c2.1-10.9,4.1-21.8,6.1-32.7c2.7-14.4,5.6-28.8,7.8-43.3c1.5-9.5,2-19.2,3.1-30.4
		C346.7,348.4,328.4,345.5,309.6,341.1z M405,446.7c1.5,7.6,2.3,14.3,4.1,20.7c1.9,6.3,4.4,12.5,7.3,18.5c13,26.4,26.3,52.6,39.5,79
		c2.6,5.2,4.9,10.6,7.1,16c4.1,10,7.9,20.1,12,30.5c9.9,0.6,17.6-4.8,23.8-12.9c-1.6-4.5-3.2-8.9-4.7-13.3
		c-3.4-10-7.1-19.9-9.9-30.1c-1.8-6.6-1.6-13.6-2.9-20.4c-2.6-13.2-5.6-26.4-8.3-39.6c-4.8-23.3-15.6-44.1-27.1-64.7
		c-1.7-3-3.9-5.8-5.8-8.6c-1.7,2.3-3.3,4-4.3,6c-2.3,4.6-6.8,9-1.3,14.6c1.2,1.2,1.5,4,1.3,6.1c-0.7,7.4-3.7,14.7,0.1,22.1
		c0.3,0.6-0.1,1.5-0.4,3.7c-5.2-4.4-9.5-8.3-14.1-12c-4.4-3.6-9.7-6.5-7.4-14C411.1,447.7,408.4,447.2,405,446.7z M271.3,244
		c0,51.4,0,104.1,0,157.3c5.9-1.6,9-6.2,11.5-10.4c6.1-10.2,11.8-20.7,16.8-31.5c3.9-8.4,6.8-17.2,9.3-26.1
		c2.9-10.7,4.5-21.7,7.2-32.4c2.3-9.1,5.9-18,7.8-27.2c3-14.6,15.2-23.2,28.5-25.7c6.4-1.2,12.8-2.3,18.9-7.2
		c-5.3-0.7-9.9-2.1-14.2-1.7c-9.9,1-19.6,3-29.5,4.5c-9.4,1.5-18.7,3.9-28.1,4C290.1,247.7,280.7,245.3,271.3,244z M431.6,428.5
		c0.3,0.2,0.6,0.4,0.9,0.7c1.9-4.1,6.2-8.8,5.4-12.3c-2.7-12.8-7-25.3-11-37.8c-3.3-10.3-7.5-20.4-10.7-30.8
		c-2.2-7.3-6.8-12.7-12.1-17.5c-5.6-5-11.8-9.4-17.3-14.6c-4.1-3.8-7.5-8.3-11.1-12.5c-0.4,0.4-0.9,0.7-1.3,1.1
		c-0.4,5-0.8,10.1-1.3,15.1c-1.3,12.9-2.6,25.8-3.9,38.7c-0.2,1.6-0.6,3.4-0.1,4.7c1.9,4.8,4.2,9.5,6.3,14.3
		c8.7,20.5,17.2,41.1,26,61.6c0.8,1.8,2,4,3.6,4.7c3.1,1.2,6.5,1.5,11.2,2.5c-1.7-9.4-2.6-18.3-5.1-26.6
		c-2.6-8.4-6.9-16.2-10.6-24.6c1.4,0.1,2.6,0.2,4.7,0.4c-2-8.2-3.8-15.7-5.7-23.5c1.1,0.3,2.9,0.8,5,1.5c-0.9-1.4-1.6-2.6-2.5-4.1
		c1.3-0.1,2.4-0.6,2.7-0.3c4,3.4,8.9,6.4,11.4,10.7c2.8,4.7,3.7,10.6,5.1,16.1c1.5,6.3,2.6,12.7,3.8,18.9c2.8-0.7,4.8-1.3,6.8-1.8
		C431.6,418.4,431.6,423.4,431.6,428.5z M334.5,260.4c8.5-1.5,16.4-0.9,23.6,4.2c5.1,3.6,10.1,7.3,15,11.1c0.9,0.7,1.9,2.1,1.8,3.2
		c-0.1,4.6-0.7,9.2-0.7,13.8c0,3-0.1,6.5,1.3,8.9c1.7,2.9,5,4.9,7.6,7.3c11.3,10.6,24.8,19,33.9,33c-0.8-5.1-1.7-9.3-2-13.6
		c-0.5-7.9-0.5-15.9-1.1-23.8c-0.4-5.7-0.5-11.7-2.4-17c-3.2-9.2-6.8-18.4-11.9-26.6c-3.9-6.3-10.1-11.5-15.9-16.4
		c-4.3-3.7-8.5-2.3-13.8,0.5c-4.4,2.4-9.6,4-14.6,4.7C347.2,251,340.4,254.6,334.5,260.4z M348.9,237.5c-5.2-2.2-9.4-3.7-13.4-5.6
		c-9.6-4.6-19.4-8.5-26.9-16.6c-7.9-8.5-9.5-18.5-8.6-29.3c0.4-5.1,1.2-10.2,1.9-16.1c-2.8,4.6-5.2,8.5-8,13.1
		c-0.8-3.4-1.3-5.5-1.9-8.4c-1,3.2-1.6,5.3-2.3,7.5c-0.4-0.1-0.7-0.3-1.1-0.4c-1.2-6.2-2.5-12.4-3.7-18.7c-0.2,0-0.4,0.1-0.6,0.1
		c-0.5,3.9-1.1,7.8-1.8,12.8c-1.4-1.7-2.3-2.8-3.4-4c0.4,3.3,0.8,6.5,1,8.2c-2.8,2.6-4.6,4.2-5.8,5.4c-0.6-7.8-1.1-15.7-1.7-23.5
		c-0.4,0-0.9,0.1-1.3,0.1c0,25.8,0,51.6,0,77.7c4.8,1.4,9.6,3.3,14.4,4.2c12.3,2.3,24.5,1,36.6-1.8
		C330.7,240.2,339.3,239.1,348.9,237.5z M311.4,337.3c5.2,3.3,6.7,3.1,11.3-0.5c2.9-2.3,6.3-4.1,9.3-6.4
		c7.6-5.9,16.3-10.2,18.2-21.9c1.9-11.9,6.6-23.4,10-35.1c0.4-1.3,0.2-3.7-0.5-4.1c-4.7-2.5-9.4-5.1-14.4-6.7
		c-8.5-2.6-16.4,2.5-18.2,11.1c-0.3,1.4-1,2.8-1.4,4.2c-2.8,9.8-6,19.6-8.4,29.5C314.8,317.3,313.3,327.3,311.4,337.3z M423.1,418.1
		c-1.8-9.3-3.3-18.3-5.2-27.2c-1.2-5.9-2.8-11.8-8.5-15.7c-0.3,1.4-0.5,2.5-0.8,3.9c-1.9-1.1-3.5-2-6.1-3.5c1.8,3.9,3.3,6.7,4.3,9.7
		c0.5,1.4,0.2,3.1,0.1,4.6c-0.1,1.7-0.6,3.4-0.4,5c0.7,4.4,6.2,8.1,1.7,13.2c-0.2,0.3,0.5,1.4,0.9,2.2c1.6,3.8,3.8,7.6,4.8,11.6
		c2.4,9.5,4.3,19.2,2.2,29.1c-0.2,1,0.1,2.5,0.8,3.2c4.6,4.7,9.4,9.3,14.7,14.5c0.6-7.7,0.8-13.9,1.7-20.1c0.5-3.8-0.2-6.3-4.2-7.2
		c0-8.4,0-16.8,0-25.5C427.4,416.5,425.7,417.2,423.1,418.1z M367.5,527.3c-1.9-3.8-3.2-6.5-4.5-9.2c-3.2-6.4-5.7-13.2-9.7-19
		c-3.7-5.3-6.1-10.6-6.2-16.9c-0.2-6.4,0-12.8,0-19.2c-11.5,16.9-16,35.4-14.8,55.5C344.9,515.3,350.2,517.9,367.5,527.3z
		 M371.7,305.1c-0.5-0.2-0.9-0.5-1.4-0.7c-16,12-31.9,24.1-48.2,36.4c1.5,0.5,2.7,1.2,3.9,1.2c11,0.1,22,0.5,32.9-0.2
		c4.2-0.2,8.8-1.7,9.3-8C368.9,324.2,370.5,314.6,371.7,305.1z M363.6,272.6c-6.3,14.3-9.1,28.8-12.8,43.2
		c5.5-4.1,10.2-8.8,15.6-12.4c4.6-3.1,6.2-6.7,5.7-11.9c-0.4-4.1-0.1-8.2-0.1-12.7C369.8,277.1,367.2,275.2,363.6,272.6z"/>
	<path d="M174,1180c2.4-17.7,3.4-35.6,7.4-52.9c3.8-16.5,10.7-32.3,16.3-48.4c1.7-5,3.3-10.1,5-15.5c-19.5,0.5-25.5-13.8-30.5-29.1
		c-5.3,5.8-9.8,11.7-15.4,16.3c-3,2.4-7.9,2.4-12.8,3.8c0.7,4.4,1.4,9.5,2.3,14.5c2.2,12.7,4.5,25.4,6.7,38c2,11.7,4,23.5,5.9,35.2
		c0.6,4.1,0.5,8.2,1.2,12.3c1.4,8.2,0.1,15.6-6.7,21.9c-2.8-5.7-7.7-10.3-6-18.4c1.3-6.1-0.2-12.7-0.7-19.1
		c-0.4-4.9-1.4-9.8-1.6-14.6c-0.8-14.9-1.4-29.7-2.1-44.6c-0.3-6.6,0.1-13.3-1.1-19.8c-2.8-15.1-1.6-30.3-1.8-45.4
		c-0.3-17.8,2.3-35.4,6.4-52.6c3.8-16.3,8.7-32.3,13.1-48.4c0.3-1.3,0.5-2.6,0.5-3.9c0.4-35.8,0.4-71.5,1.2-107.3
		c0.3-12.6,2.5-25.1,3.7-37.7c0.5-5.3,0.6-10.5,1.1-15.8c1.1-11.8,1.3-23.8,6-35.1c2.4-5.7,6.5-10.9,14.3-8.2
		c-11.8-9.4-15.7-22.4-20.3-35c-5.4-14.8-4.9-30.1-3-45.4c1.8-15.1,3.6-30.2,6.1-45.2c2.3-13.9,3.3-28.6,13-39.9
		c3.4-4,8.5-7,13.5-8.9c2.1-0.8,6,1.8,8.7,3.5c11.2,7.1,22,14.6,33.3,21.6c6.7,4.2,9.7,10.9,13.4,17.2c7,12,12.5,24.6,15.7,38.2
		c0.3,1.4,0.4,3,0.4,4.4c0,18.2,0.2,36.3-0.2,54.5c-0.1,3.8-2.4,7.5-3.7,11.3c-0.8,2.3-1.8,4.5-2.1,6.9c-1.2,8.9-1.9,17.9-3.2,26.8
		c-1.8,12.6-3.9,25.1-5.9,37.7c-1.6,10.3-3.4,20.6-5,31c-1.7,11.5-3.3,23-5.1,35.3c-3.3-2.5-6.9-5.2-10.9-8.3c0,1.9,0,3.6,0,5.4
		c0,32-0.3,64,0.2,96c0.2,9.4-4.2,17.1-6.7,25.4c-3.4,11.2-5.5,22.4-5.7,34.1c-0.1,13.4-0.6,26.8-2.1,40.1
		c-1.3,11.8-4.6,23.4-6.1,35.1c-1.8,14-7.6,26.7-11.4,40c-3.9,13.7-6.3,27.9-9.3,41.9c-2,9.5-4.3,19-5.8,28.6
		c-0.6,3.9,0.5,8,0.9,11.6c-2.9,3.5-6,7.3-9.1,11C175.3,1180,174.7,1180,174,1180z M265,643c0-4.5-0.3-9,0.1-13.5
		c1.1-14.3-2-27.7-8.5-40.4c-3.7-7.3-7.4-14.5-11.5-21.6c-2-3.5-4.6-7.1-7.8-9.4c-11.1-7.7-22.6-14.9-34-22.1
		c-3.3-2.1-7-4.4-11.4-2.1c-9.8,5.2-14.2,14.6-16.6,24.2c-3.1,12.6-3.9,25.8-6.5,38.6c-3.5,17.5-5.4,35.1-4.8,53
		c0.1,3.9,0.2,8,1.4,11.7c2.3,7.5,4.7,14.9,8.1,22c2.7,5.9,6.2,11.6,10.4,16.5c4,4.7,10.3,4.5,16.3,5.2c11.5,1.5,22.7,0.8,33.6-2.7
		c9.2-3,16.7-8.8,23.1-16.1c4.9-5.6,8.5-11.5,8.2-19.4C264.7,659,265,651,265,643z M220.3,939.9c0.5-0.2,0.9-0.3,1.4-0.5
		c0.2-0.8,0.4-1.6,0.7-2.3c5.2-12.1,7.4-24.5,6.8-37.8c-0.7-14.3,0-28.7-0.2-43c-0.2-22.9,0-45.9-1.2-68.8
		c-0.9-17-3.3-33.9-6.1-50.7c-1.4-8.7-5.1-17-8-25.4c-0.4-1.1-2.3-2.2-3.6-2.4c-8.3-0.9-16.8-0.8-25-2.3c-5.9-1-8.3,1.4-10.4,5.9
		c-3.8,8.3-5.2,17.1-5.7,26.1c-0.5,8.5-1.3,17.1-2,25.6c-1.3,17.4-3.2,34.8-3.8,52.2c-0.7,18.6-0.1,37.3-0.2,56c0,1.5,0,3-0.1,4.5
		c-0.4,8.6-0.9,17.2-1.3,25.8c0.5,0.1,1.1,0.2,1.6,0.3c7-15.4,14-30.8,20.8-45.9C196.1,884.8,208.2,912.4,220.3,939.9z
		 M206.2,1060.7c1.7-10.2,3.7-20.3,5.1-30.4c1.8-12.3,3.5-24.6,4.6-37c1.1-12.1,1.5-24.4,2-36.6c0.2-4.9,0.9-10.4-0.7-14.8
		c-4.4-11.8-10-23.2-15.2-34.8c-1.2-2.7-2.4-5.5-3.6-8.3c-0.6-0.1-1.1-0.1-1.7-0.2c-1.9,5.7-4.1,11.4-5.7,17.2
		c-1.3,4.7-1.9,9.6-2.7,14.4c-2.8,16.1-5.6,32.1-8.3,48.2c-1.7,10.1-3.4,20.3-4.9,30.4c-0.9,5.7-2.3,11.4-1.8,17
		c0.4,5.5,2.6,11,4.5,16.3C182.3,1055.3,191.5,1062.2,206.2,1060.7z M142.3,1050.7c7,0.9,11.8-1.5,17.1-6.1c9-7.8,13-16.6,12.8-28.3
		c-0.1-6.5,1.4-13,2.4-19.4c2-12.7,4.2-25.4,6.4-38.1c2.2-12.8,4.6-25.6,6.9-38.5c0.7-4.1,2.7-9,1.2-12.2c-3.5-8-8.7-15.4-13.4-23.3
		C149.1,935.4,139,992,142.3,1050.7z M259.9,690.1c-0.7-0.5-1.4-1-2.1-1.5C247,702.4,232.4,708,215.3,708c1.5,2.3,3.1,3.8,3.6,5.5
		c1.5,5.1,2.7,10.4,3.7,15.6c2.6,14.1,5.5,28.2,7.2,42.4c1.3,10.6,0.8,21.5,1.2,32.3c0.1,1.4,0.1,3.1,0.9,4c2.6,2.8,5.6,5.2,8.1,7.5
		c1.6-11.2,3.2-22.2,4.9-33.1c1.6-10.3,3.4-20.6,5-30.9c1.9-12.1,3.6-24.2,5.5-36.3C256.8,706.7,258.5,698.4,259.9,690.1z
		 M154,1171.3c3.4-3.3,5-7.2,4.1-12.6c-1.7-10.6-2.5-21.4-4-32.1c-1.5-10.2-3.5-20.3-5.1-30.4c-1.4-8.4-2.7-16.8-4.1-25.2
		c-0.7,2.7-0.1,5.2,0,7.8c0.7,13,1.3,26,2,39.1c0.6,11.2,0.7,22.5,2.2,33.5C150.2,1158.1,146.2,1166.1,154,1171.3z M184.1,863.2
		c-2.5,5.6-5.1,11.1-7.5,16.8c-0.3,0.7-0.1,1.9,0.3,2.6c4.5,7.6,9.1,15.1,14.1,23.5c1.9-3.4,2.9-6.3,4.9-8.2
		c2.6-2.5,1.8-4.3,0.6-6.9C192.3,881.8,188.3,872.6,184.1,863.2z M176.5,1175.6c2.4-3.2,6.3-6,5.9-8.1c-1.8-9.1,1.7-17.5,2.6-26.2
		c0.7-6.4,2.5-12.7,4-19.1c1.9-8.4,3.9-16.8,5.9-25.1c0.8-3.3,1.6-6.6,2.4-9.9C185.7,1115.1,177.9,1143.9,176.5,1175.6z"/>
	<path d="M360,1180c-3.1-3.7-6.1-7.5-9.6-11.6c2.6-4.4,1.7-9.7,0.3-15.2c-1.4-5.7-1.5-11.7-2.8-17.4c-3.1-13.6-6.4-27.2-9.9-40.7
		c-3.7-13.9-8.3-27.5-11.5-41.5c-2.6-10.9-3.2-22.3-5.6-33.3c-3-13.7-2.5-27.6-3-41.4c-0.4-9.8-1.1-19.8-3.1-29.3
		c-1.9-9.1-5.9-17.8-8.8-26.7c-0.6-2-1-4.1-1-6.2c-0.1-35.2,0-70.3,0-105.9c-3.9,3-7.4,5.7-11.1,8.6c-1.4-10.9-2.4-21.1-3.9-31.3
		c-1.7-11.1-3.8-22.2-5.6-33.3c-1.9-11.9-3.6-23.9-5.4-35.9c-0.4-2.8-0.8-5.5-1.2-8.3c-1-7.1-1.8-14.2-2.9-21.3
		c-0.4-2.5-0.4-5.6-1.9-7.4c-3.3-4-4.1-8.4-4.1-13.3c0.1-16.2,0.3-32.3-0.1-48.5c-0.3-9.8,2.8-18.8,6.4-27.4
		c4.1-9.7,9.2-19.2,14.8-28.1c3-4.7,7.5-8.9,12.2-12c11.3-7.4,23.1-14.2,34.8-20.9c1.5-0.8,4-0.8,5.7-0.2
		c6.7,2.6,11.5,7.1,15.1,13.7c6.1,11,6.8,23.1,9.1,34.8c1.9,9.3,3.3,18.7,4.5,28c2,16,4,32.1,1.7,48.3c-2.1,13.9-7.2,26.7-14.2,38.7
		c-2.1,3.6-5.3,6.5-7.5,9c2,0.5,5.1,0.6,7.1,2.1c2.3,1.7,4.2,4.5,5.4,7.1c5,11.1,4.9,23.2,6.1,35.1c1.4,13.6,2.6,27.1,3.9,40.7
		c0.4,4.4,1,8.9,1,13.3c0.1,12.2-0.1,24.3,0.1,36.5c0.3,23.6,0.2,47.2,1.2,70.8c0.4,7.9,3.8,15.8,5.8,23.6c3,11.6,6.1,23.2,8.9,34.9
		c6.4,26.5,6.2,53.6,4.6,80.4c-1.1,18.1-2,36.1-2.7,54.2c-0.7,16.6-2.5,33.1-3.8,49.7c-0.2,2.7-0.3,5.4,0,8.1
		c0.7,6.6-4.2,10.5-6.6,15.9c-2.2-3.1-4.2-5.4-5.5-8.1c-0.9-2-1.2-4.5-1.1-6.7c0.2-4.6,0.7-9.2,1.2-13.8c0.9-8.1,1.7-16.3,3.1-24.3
		c2-12.1,4.6-24,6.7-36.1c1.9-11.2,3.4-22.5,5.2-34.1c-2.3-0.2-4.4-0.5-6.5-0.6c-6.6-0.2-9-6.4-13.5-9.6c-3.1-2.2-5.1-5.8-8-9.4
		c-5.2,15.6-11.2,29.8-30.9,29.4c5.1,14,10.5,27.4,14.9,41.1c3.9,12.2,7.5,24.6,9.8,37.2c2.3,12.7,2.9,25.7,4.3,38.6
		C361.3,1180,360.7,1180,360,1180z M271,642.4c0,7.2,0.3,14.4-0.1,21.5c-0.5,8.8,2.3,16,8.1,22.5c11.2,12.6,25.2,19.1,41.9,19.5
		c5.6,0.1,11.2-1.2,16.8-0.8c9.2,0.6,15-4.2,19.2-11.2c7.1-11.9,12-24.8,14.2-38.7c2.4-15.4,0.2-30.6-1.5-45.8
		c-1.3-11.5-3.6-22.9-5.6-34.3c-1.9-11.1-3.2-22.5-10.1-31.8c-2.7-3.6-6.5-6.6-10.3-9.1c-1.7-1.1-5.3-0.9-7.2,0.2
		c-10.6,6.1-21.1,12.4-31.3,19.1c-4.7,3.1-9.9,6.7-12.8,11.4c-5.9,9.5-11.1,19.6-15.5,29.9c-3.6,8.5-6.6,17.4-5.9,27.1
		C271.4,628.8,271,635.6,271,642.4z M323,709.5c-1.6,3.5-3.9,7.1-4.8,10.9c-2.4,10.8-4.7,21.7-6.1,32.7c-2.1,15.9-4.5,31.9-4.8,48
		c-0.7,34.6,0.3,69.3-0.5,104c-0.3,12.6,4,23.3,9,34.9c12.1-27.6,24.2-55.2,36.2-82.5c6.9,15.3,13.9,30.6,20.9,45.9
		c0.4-0.1,0.8-0.2,1.2-0.3c0-1.6,0-3.1,0-4.7c-0.3-9.4-0.9-18.9-0.9-28.3c-0.1-21.2,0.2-42.3-0.1-63.5c-0.1-9-1.2-18.1-2-27.1
		c-1.2-13.9-2.7-27.8-3.9-41.7c-0.8-9.2-2.1-18.2-6.5-26.4c-1.3-2.3-4.6-5-6.9-4.9C343.6,706.9,333.7,708.3,323,709.5z
		 M329.7,1060.9c11.3,0.6,20-2.2,25.3-12c4.6-8.6,8.7-17.3,7.1-27.6c-1.2-7.6-1.3-15.4-2.5-23c-1.6-10.6-3.8-21.2-5.6-31.8
		c-2.7-15.9-5.3-31.9-8.2-47.7c-1.3-7.1-3-14.1-8.3-20.4c-6.3,14.5-12.5,28.4-18.5,42.4c-1,2.3-2,5-1.9,7.5
		c0.7,9.8,2.4,19.6,2.7,29.4c0.5,14,0.1,28,3,41.8C325.7,1033.1,327.4,1046.9,329.7,1060.9z M393.5,1050.6
		c3.6-58.1-6.3-113.3-33.1-165.8c-4.7,7.7-9.1,14.8-13.3,22.2c-0.8,1.4-0.7,3.7-0.4,5.5c2,12.1,4.1,24.1,6.2,36.1
		c2.2,12.5,4.5,25,6.5,37.6c1.7,10.2,3.3,20.3,4.4,30.5c0.9,8.5-0.1,17.5,8.4,23.2c0.4,0.2,0.4,0.9,0.8,1.2
		C378.7,1046.6,383.9,1053.1,393.5,1050.6z M320.5,708c-17.1,0-31.6-6-42.7-19.5c-0.4,0.5-0.9,1-1.3,1.4
		c6.6,41.8,13.2,83.6,19.7,125.1c8.8-7.6,8.7-7.6,8.8-19.1c0-4.1,0.9-8.2,0.9-12.3c0-16.5,3.1-32.6,6.2-48.6
		C313.9,725.9,314.6,716.3,320.5,708z M391.9,1071c-0.4,0-0.8-0.1-1.2-0.1c-0.6,5.8-0.8,11.6-1.8,17.2c-2.1,12-4.7,24-6.8,36
		c-1.6,9.5-3.3,19-3.9,28.6c-0.4,6.4-3.1,14,4.3,18.6c3.6-4.3,6-9,3.6-14.8c-0.2-0.4,0-1,0-1.5c1-11.3,2-22.6,2.9-33.8
		c0.4-5.4,0.8-10.8,1.1-16.3C390.7,1093.6,391.3,1082.3,391.9,1071z M352,863.2c-4.3,9.6-8.5,18.8-12.6,28c-0.6,1.3-1.6,3.1-1.1,4
		c1.9,3.5,4.3,6.7,6.8,10.4c4.9-7.9,9.4-15.1,13.8-22.4c0.6-0.9,0.7-2.5,0.3-3.5C356.9,874.2,354.4,868.8,352,863.2z M338.8,1087.1
		c0.3,1.8,0.5,3.7,1.1,5.4c1,3.3,2.4,6.4,3.1,9.7c1.8,8.1,3.5,16.2,4.9,24.4c2.2,12.3,5.1,24.7,5.7,37.1c0.3,5.7,2.8,7.9,5.9,10.9
		C358.2,1144,350.2,1115.2,338.8,1087.1z"/>
	<path id="Outline" d="M270.7,673c4.6,6.1,7.1,12.4,7.7,20.2c1.2,14.9,4.1,29.6,7,44.3c5.8,29.8,10.2,59.7,11.8,90.1
		c1.3,24.3,3.5,48.5,5.9,72.7c0.6,6.4,2.4,12.9,5.1,18.7c8.1,16.9,10.2,35,11.9,53.3c2.2,24,3.8,48.1,7.2,72
		c1.9,13.2,7.1,26,10.4,39c5.6,22.1,11.5,44.2,16,66.5c1.6,8-0.4,16.8-0.6,25.2c-0.1,4.1-0.2,8.2,0.6,12.2c0.9,4.3,0.7,7.6-2.8,10.8
		c-6.5,6-4.9,14.3,2.6,18.7c2.3,1.3,4.7,4.8,4.7,7.3c0.4,13.9,4.4,18.7,22.4,17.9c6.5-0.3,9.6-2.8,10.8-9.1c1.3-6.9,3.3-14.3,2.1-21
		c-1.3-7.2-2.7-14.1-1.8-21.4c0.3-2.7-0.2-5.8-1.3-8.3c-5.9-13.3-5.4-27.2-4.3-41.2c1-11.9,2.1-23.9,2.8-35.8
		c1.3-23.9,2.3-47.9,3.2-71.8c1.3-33.5-4.1-66.2-13.9-98c-5.7-18.3-7.8-36.8-7.1-55.7c0.8-22.9,2.4-45.9,3.8-68.8
		c1.2-18.6,2.4-37.2,4-55.8c1.6-19.1,4.4-38.1,5.3-57.1c0.8-16.2,0.3-32.6-0.9-48.9c-1.8-23.4-4.9-46.6-7.2-70
		c-2.9-28.5-10.1-55.6-25-80.4c-6.6-11-7.5-23.4-5.5-35.4c4.9-30.6,10.9-60.9,16.5-91.4c0.6-3.4,1.2-8,5.2-7.9
		c2.1,0.1,4.9,4,6.1,6.7c10.3,24.2,20.4,48.5,30.4,72.9c1.2,2.9,2.4,5.9,2.9,9c2.8,17.6,10.1,33.3,18,49
		c14.7,29.4,28.9,58.9,42.7,88.7c3.9,8.4,5.7,17.9,8.9,27.9c6.9,2.6,18.5-2.8,22.9-8.7c0.7-1,0.5-3.1-0.1-4.5
		c-8.4-20-14.8-40.7-18.9-62c-3.3-17.2-6.2-34.4-10.2-51.4c-5.2-22.2-14.7-42.7-26.3-62.3c-5.1-8.7-9.2-18.2-12.1-27.9
		c-6.4-21.3-12.2-42.9-17.3-64.6c-2.1-8.8-1.7-18.2-2.2-27.3c-0.8-15-3.6-29.4-10.7-42.8c-8-15.1-20.4-23.4-37.4-25.9
		c-18.4-2.6-35.5-9.1-50.7-19.9c-14.7-10.5-17.5-25.4-13.9-42.2c1.6-7.3,3.1-14.7,5.3-21.8c0.7-2.3,3.2-4,4.9-5.9
		c0.6-0.7,1.9-0.8,2.4-1.5c5.7-8.5,9.3-17.6,8.8-27.6c-2.8-0.3-6.1,0.3-7.3-1.1c-1.5-1.6-1.5-4.8-1.5-7.4
		c-0.1-11.7-0.2-23.3-4.6-34.5c-3-7.6-7.7-13.2-15-17.3c-18-9.9-39.5-8.8-55.3,4c-8,6.5-10.7,16-12.1,25.6c-1.1,7.9-1,15.9-1.2,23.9
		c-0.2,6.8-1.9,8.2-8.7,5.5c0,2.8-0.6,5.5,0.1,7.9c2,6.3,4.4,12.5,7.1,18.6c0.7,1.6,3.2,2.4,4.6,3.8c1.5,1.5,3.5,3.2,4,5.1
		c2.1,7.7,4.1,15.4,5.6,23.3c4.1,21.5-1.9,35.7-21.9,46.5c-14.5,7.8-29.7,13.1-46.2,15.5c-19.2,2.8-31.3,15.2-37.5,32.8
		c-3.6,10.4-6.7,21.6-6.9,32.5c-0.6,25.5-5.3,49.9-13.2,73.9c-4.7,14.4-9.5,28.8-15.5,42.7c-4.2,9.9-10.7,18.8-15.5,28.5
		c-11,22-15.6,45.9-20.2,69.8c-4,20.2-9.1,40.3-14.2,60.2c-1.9,7.4-5.2,14.4-8.3,21.4c-1.9,4.2-0.9,6.8,2.5,9.2
		c6.5,4.6,13.4,7.2,21.8,5.1c-0.5-17.2,8.5-31.3,15.5-45.9c13.7-28.7,28-57.2,41.7-85.9c3.3-6.9,6.2-14.2,7.7-21.6
		c3.9-19.7,12.5-37.6,19.8-56c4.9-12.4,10.5-24.5,15.8-36.7c0.5-1.2,0.8-2.7,1.6-3.6c1.4-1.7,3.2-3,4.9-4.5c1.6,1.8,4,3.3,4.5,5.3
		c2.2,9.4,3.9,18.9,5.7,28.4c3.6,18.8,7.7,37.5,10.4,56.5c1.5,10.6,1.4,21.6,0.2,32.2c-0.8,6.4-4.8,12.6-7.9,18.6
		c-11,20.9-17.7,43.1-20.5,66.4c-2.7,22.6-5.3,45.3-7.5,67.9c-2.3,23.5-3.6,47.1-0.8,70.8c2.3,19.8,3.8,39.8,5.4,59.7
		c2.4,31,5.1,62,6.7,93.1c1.2,24.6,0.8,49.1-6.9,73.2c-10.2,31.9-15.4,64.8-13.8,98.5c1.4,29.7,3.3,59.5,4.7,89.2
		c0.7,14.1,1.1,28.2,1.4,42.3c0.1,2.4-0.5,5-1.4,7.3c-3.4,8.7-5.6,17.3-3.8,26.8c0.5,2.5-1.1,5.4-1.9,8c-3.1,10.3,0.8,19.9,3.2,29.6
		c0.1,0.3,0.3,0.6,0.5,0.8c5.7,5.5,12.6,4.2,19.4,3.2c5.8-0.9,9.9-3.9,10.7-10.2c0.2-1.6,0.6-3.3,0.5-5c-0.3-5.4,1.9-8.6,7.1-10.6
		c5.1-1.9,6.4-12.5,1.7-16.4c-5-4.2-4.4-8.5-3.4-14.2c1-5.7-0.9-11.7-1-17.7c-0.1-6.8-0.6-13.8,0.9-20.2c6.2-26.1,12.6-52.1,20-77.9
		c7.6-26.5,10.9-53.4,12.4-80.8c0.9-16.9,3.6-33.7,5.8-50.5c0.5-3.9,2.1-7.8,3.9-11.3c6.8-13.6,8.8-28.1,9.9-43
		c2.2-31.2,4.2-62.5,7.4-93.6c1.7-17.4,5.7-34.5,8.4-51.8c2.6-16.9,4.6-33.9,7.5-50.8c0.9-5.4,3.9-10.4,5.9-15.7
		c2.1,0.8,3.4,1.3,4.9,1.9c-5.1,4.8-7.3,10.5-8.1,17.4c-1.8,16-4.3,32-7.3,47.8c-5.6,29.5-10,59.1-11.7,89.1
		c-1.3,24.4-3.5,48.8-5.9,73.2c-0.6,6.4-2.3,12.9-5.1,18.7c-8.2,17.1-10.3,35.3-12,53.8c-2.2,23.9-3.8,47.8-7.1,71.5
		c-1.9,13.2-7.1,26-10.4,39.1c-5.6,22.1-11.5,44.2-16,66.5c-1.6,7.7,0.5,16.1,0.7,24.2c0.1,4.2,0.3,8.6-0.6,12.7
		c-0.8,3.7-0.7,6.1,2.2,8.8c7.6,6.9,5.5,18.3-3.8,23c-1.5,0.7-2.7,2.7-3.2,4.4c-0.7,2.2-0.4,4.6-0.7,6.9c-0.8,6.9-4.5,11.7-11.3,13
		c-5.3,1-11,1.6-16.3,0.7c-3.4-0.6-8.1-3.6-9.2-6.6c-3.1-8.5-6.2-17.6-4.1-26.6c1.7-7.2,2.7-14.1,2-21.4c-0.3-3,0.3-6.5,1.5-9.3
		c5.6-12.5,5.1-25.6,4.1-38.8c-1-11.9-2.1-23.9-2.7-35.8c-1.3-24.6-2.3-49.2-3.3-73.8c-1.3-33.7,4.2-66.5,14.1-98.5
		c5.5-17.8,7.6-35.9,7-54.2c-0.8-22.6-2.4-45.2-3.8-67.8c-1.2-18.6-2.4-37.2-4-55.8c-1.6-19.1-4.5-38.1-5.3-57.1
		c-0.8-16.8-0.4-33.6,0.9-50.4c1.8-23.5,4.9-47,7.3-70.5c2.9-28.5,10.2-55.6,25-80.4c6.2-10.4,7.4-22,5.5-33.4
		c-5-30.4-10.9-60.6-16.5-90.9c-0.4-2.2-1.2-4.4-2.2-7.6c-1.3,2-2.1,3-2.5,4.1c-10.4,24.9-20.8,49.8-31.1,74.8
		c-1.2,2.9-2.4,5.9-2.9,9c-2.8,17.6-10.1,33.3-18,49c-14.8,29.6-29,59.6-43.3,89.5c-3.8,8-6.5,16.4-6.3,25.5c0,1.2-1.7,3.1-2.9,3.4
		c-8.8,1.8-16.8-0.1-23.7-6c-2.1-1.8-4.1-3.9-6.6-6.2c16.9-34,22.4-71.5,29.5-108.6c4.8-25,14.7-47.9,27.2-69.9
		c5.3-9.3,9.7-19.4,13.2-29.5c7.3-21.2,14.4-42.7,17.5-65c1.3-9,1.5-18.2,2-27.3c0.8-15,3.6-29.4,10.9-42.7
		c8.7-15.7,21.5-25.3,39.7-27.6c16.9-2.2,32.6-8.6,47-17.5c15-9.3,18.9-22.8,15-40.9c-1.6-7.1-3.2-14.3-5.1-21.3
		c-0.4-1.6-2.4-2.9-3.7-4.2c-0.9-0.9-2.4-1.4-3.1-2.4c-5.9-8.4-9.6-17.5-9.5-27.9c0-6.5,2.5-7.9,8.5-4.4c0.1-1.6,0.3-3,0.3-4.4
		c0.3-7.6,0.2-15.3,1.1-22.9c1.8-15.7,8.8-27.8,23.8-35c17-8.3,42.1-5.5,55.8,7.5c10.2,9.6,12.5,22.4,13.3,35.6
		c0.4,6.3,0.1,12.6,0.1,19.1c7.3-3.1,9.2-1.8,9,5.7c-0.2,9.8-3.8,18.5-9.3,26.5c-0.6,0.8-1.3,2-2.1,2.1c-5.5,0.4-4.9,4.6-5.7,8.3
		c-1.6,7.6-4.4,15.1-5.2,22.8c-2,17.5,2.4,28.1,17.7,37c14.9,8.7,30.9,14.5,48.3,16.9c16.7,2.3,28.4,12.3,36.5,26.8
		c6.7,12,10.6,25.2,10.6,38.7c0.1,30.5,7.5,59.3,16.9,87.9c4.8,14.6,9.9,28.9,18,42.1c15.6,25.2,23.3,53.1,28.5,82
		c4,21.9,9.5,43.6,15.2,65.1c2.5,9.6,7.1,18.6,11.2,28.7c-4.8,3.3-9.4,7.6-15,9.7c-4.7,1.8-10.3,1.3-15.5,1.4c-1,0-2.8-2.2-2.8-3.4
		c0.1-9.1-2.5-17.5-6.4-25.5c-16.9-35.1-34.1-70.1-50.9-105.3c-3.2-6.7-6.1-13.9-7.5-21.1c-3.8-19.7-12.5-37.6-19.7-56
		c-5-12.7-10.8-25.1-16.2-37.6c-0.8-1.8-1.6-3.5-3.1-6.8c-1.1,3.4-2,5.3-2.3,7.3c-5.7,30.6-11.7,61.2-16.6,91.9
		c-2,12.2,0.1,24.3,6.8,35.6c14.4,24.5,21.3,51.5,23.9,79.7c1.7,19,4.2,38,6.2,57c2.6,24.7,3.7,49.4,1,74.2
		c-3,27.8-5.1,55.7-7.3,83.5c-1.8,23.2-3.4,46.5-4.9,69.7c-1.7,27.7,1.6,54.7,9.9,81.3c12.4,39.6,12.5,80.4,10.1,121.3
		c-1.3,22.6-3,45.2-4.3,67.8c-0.6,9.9-1.1,19.9-0.9,29.8c0.1,4.2,1.7,8.5,3.1,12.5c2.4,6.9,3.5,13.8,2.1,21.1
		c-0.4,2.2,0.4,4.9,1.1,7.2c1.7,5.3,3.3,10.3,1.3,16c-1.1,3.1-1.1,6.5-1.6,9.8c-1.1,9-6.1,13.7-15.1,14.2c-2.5,0.1-5,0-7.5-0.2
		c-10.8-0.9-16.2-6-16.7-16.7c-0.2-4.9-1.3-8.1-6.4-10.3c-6.6-2.8-7.5-15.7-1.7-20.9c3.7-3.3,3.1-6.2,2.6-10.5
		c-0.7-6.6,0.7-13.4,0.8-20.2c0.1-5.9,0.6-12.1-0.8-17.8c-6.4-26.4-12.8-52.8-20.2-78.8c-7.5-26.3-10.8-53.1-12.3-80.3
		c-0.9-16.9-3.6-33.7-5.8-50.6c-0.5-3.9-2.1-7.8-3.8-11.3c-6.8-13.6-8.8-28.1-9.9-43c-2.2-31.2-4.3-62.5-7.4-93.6
		c-1.7-17.2-5.4-34.2-8.3-51.3c-2.9-17.2-7.6-34.1-7.7-51.8c0-3.1-2.4-6.1-3.4-9.2C270.9,676.9,270.9,674.9,270.7,673z"/>
</g>
<g id="Layer_2" class="st2">
	<path d="M270.7,673.2c0.3,1.9,0.3,3.9,0.8,5.7c1,3.1,3.4,6.2,3.4,9.2c0,17.7,4.8,34.5,7.6,51.7c2.9,17.1,6.5,34.1,8.3,51.2
		c3.1,31.1,5.2,62.3,7.3,93.6c1,14.9,3,29.4,9.9,43c1.8,3.5,3.3,7.4,3.8,11.3c2.2,16.8,4.9,33.6,5.8,50.5
		c1.5,27.2,4.8,53.9,12.3,80.2c7.4,26.1,13.8,52.4,20.2,78.8c1.4,5.7,0.9,11.8,0.8,17.8c-0.1,6.6-1.7,13.2-0.9,19.6
		c0.6,4.6,1.2,7.8-2.8,11.4c-5.6,5-4.4,17.9,2,20.5c5.6,2.3,6.1,5.9,6.4,10.8c0.6,9.9,5.4,14.8,15.1,16.1c3,0.4,6,0.4,9,0.3
		c9-0.4,14-5.1,15.1-14.1c0.4-3.3,0.5-6.8,1.6-9.8c2-5.7,0.4-10.7-1.3-16c-0.7-2.3-1.5-4.9-1.1-7.1c1.4-7.3,0.2-14.2-2.1-21.1
		c-1.4-4.2-3.1-8.6-3.1-13c-0.2-9.8,0.4-19.6,1-29.3c1.3-22.6,3-45.1,4.3-67.7c2.4-40.9,2.3-81.7-10.1-121.2
		c-8.3-26.6-11.6-53.6-9.9-81.2c1.4-23.2,3-46.5,4.9-69.7c2.2-27.8,4.4-55.7,7.3-83.5c2.7-24.8,1.6-49.5-1-74.2c-2-19-4.5-38-6.2-57
		c-2.5-28.2-9.4-55.1-23.8-79.6c-6.6-11.3-8.7-23.3-6.8-35.5c4.9-30.7,11-61.2,16.6-91.8c0.4-2,1.2-3.9,2.3-7.3
		c1.5,3.2,2.4,5,3.1,6.8c5.4,12.5,11.2,24.9,16.2,37.6c7.3,18.4,15.9,36.3,19.7,55.9c1.4,7.4,4.4,14.7,7.7,21.5
		c16.7,35,33.7,69.8,50.6,104.8c3.9,8,6.5,16.4,6.4,25.5c0,1.2,1.8,3.4,2.8,3.4c5.2-0.1,10.9,0.5,15.5-1.4
		c5.5-2.2,10.1-6.5,14.9-9.7c-4-10.1-8.6-19.1-11.1-28.7c-5.7-21.5-11.2-43.2-15.1-65.1c-5.2-28.9-13-56.8-28.5-82
		c-8.2-13.2-13.2-27.5-18-42.1c-9.4-28.5-16.8-57.3-16.9-87.8c0-13.5-3.9-26.6-10.6-38.7c-8.1-14.5-19.7-24.4-36.4-26.7
		c-17.3-2.4-33.3-8.2-48.2-16.9c-15.3-8.9-19.6-19.4-17.6-36.9c0.9-7.7,3.6-15.2,5.2-22.8c0.8-3.6,0.2-7.9,5.7-8.3
		c0.7-0.1,1.5-1.3,2.1-2.1c5.4-8,9-16.7,9.3-26.5c0.2-7.5-1.8-8.8-9-5.7c0-6.5,0.3-12.8-0.1-19.1c-0.7-13.2-3.1-26-13.3-35.6
		c-13.7-13-38.8-15.7-55.7-7.5c-14.9,7.3-22,19.3-23.7,35c-0.8,7.6-0.7,15.3-1.1,22.9c-0.1,1.4-0.2,2.8-0.3,4.4
		c-6-3.5-8.5-2.1-8.5,4.4c-0.1,10.4,3.7,19.5,9.5,27.9c0.7,1,2.1,1.5,3.1,2.4c1.4,1.3,3.3,2.5,3.7,4.2c1.9,7,3.5,14.2,5.1,21.3
		c3.9,18.1,0,31.6-15,40.9c-14.3,8.9-30,15.3-46.9,17.4c-18.2,2.3-31,11.9-39.6,27.6c-7.3,13.3-10,27.7-10.8,42.7
		c-0.5,9.1-0.7,18.3-2,27.3c-3.1,22.4-10.2,43.7-17.5,65c-3.5,10.2-7.9,20.2-13.2,29.5c-12.5,22-22.4,44.9-27.2,69.9
		c-7.1,37-12.5,74.5-29.4,108.5c2.5,2.4,4.5,4.4,6.6,6.2c6.9,5.9,14.9,7.8,23.6,6c1.2-0.2,3-2.2,2.9-3.4c-0.1-9.1,2.5-17.4,6.3-25.5
		c14.3-29.9,28.4-59.8,43.2-89.5c7.9-15.7,15.2-31.4,18-49c0.5-3.1,1.7-6.1,2.9-9c10.3-24.9,20.6-49.8,31-74.7
		c0.5-1.1,1.3-2.1,2.5-4.1c0.9,3.2,1.8,5.4,2.2,7.6c5.6,30.3,11.5,60.5,16.4,90.8c1.9,11.4,0.7,23-5.5,33.4
		c-14.8,24.8-22.1,51.8-24.9,80.3c-2.4,23.5-5.5,46.9-7.3,70.4c-1.3,16.7-1.7,33.6-0.9,50.3c0.9,19.1,3.7,38,5.3,57.1
		c1.6,18.6,2.8,37.1,4,55.7c1.4,22.6,3,45.1,3.8,67.7c0.6,18.3-1.4,36.3-6.9,54.2c-9.9,31.9-15.4,64.7-14.1,98.4
		c1,24.6,2,49.2,3.2,73.8c0.6,12,1.8,23.9,2.7,35.8c1.1,13.2,1.5,26.2-4.1,38.7c-1.2,2.8-1.8,6.2-1.5,9.3c0.6,7.3-0.4,14.2-2,21.4
		c-2.1,9,1,18.1,4.1,26.6c1.1,3,5.7,6,9.2,6.6c5.2,0.9,10.9,0.3,16.2-0.7c6.8-1.3,10.4-6.1,11.3-13c0.3-2.3,0-4.8,0.6-6.9
		c0.5-1.7,1.7-3.7,3.2-4.4c9.2-4.7,11.4-16.1,3.8-23c-3-2.7-3.1-5.1-2.2-8.8c0.9-4.1,0.7-8.5,0.6-12.7c-0.2-8.1-2.3-16.5-0.7-24.2
		c4.6-22.3,10.4-44.4,16-66.5c3.3-13.1,8.5-25.8,10.4-39c3.4-23.7,5-47.6,7.1-71.5c1.7-18.5,3.8-36.7,12-53.8
		c2.7-5.7,4.5-12.3,5.1-18.7c2.3-24.3,4.6-48.7,5.9-73.1c1.6-30,6.1-59.5,11.6-89c3-15.8,5.4-31.8,7.2-47.8c0.8-7,3-12.6,8.1-17.4
		c-1.4-0.5-2.8-1.1-4.9-1.9c-2.1,5.3-5,10.3-5.9,15.7c-2.9,16.8-4.9,33.8-7.5,50.7c-2.7,17.3-6.6,34.4-8.4,51.7
		c-3.1,31.1-5.2,62.3-7.4,93.6c-1,14.9-3,29.4-9.9,43c-1.8,3.5-3.3,7.4-3.8,11.3c-2.2,16.8-4.9,33.6-5.8,50.5
		c-1.5,27.4-4.8,54.2-12.4,80.7c-7.4,25.7-13.7,51.8-19.9,77.8c-1.5,6.5-1,13.5-0.9,20.2c0.1,5.9,1.9,12,1,17.6
		c-1,5.7-1.6,9.9,3.4,14.2c4.7,4,3.3,14.5-1.7,16.4c-5.2,2-7.4,5.2-7.1,10.6c0.1,1.6-0.3,3.3-0.5,5c-0.9,6.2-5,9.3-10.7,10.2
		c-6.7,1-13.6,2.3-19.3-3.2c-0.2-0.2-0.5-0.5-0.5-0.8c-2.4-9.7-6.3-19.3-3.2-29.6c0.8-2.6,2.3-5.5,1.9-8c-1.8-9.5,0.4-18.1,3.8-26.8
		c0.9-2.3,1.5-4.9,1.4-7.3c-0.3-14.1-0.7-28.2-1.4-42.3c-1.5-29.7-3.4-59.4-4.7-89.1c-1.5-33.6,3.7-66.5,13.8-98.4
		c7.7-24.1,8.1-48.5,6.9-73.1c-1.5-31-4.2-62-6.7-93c-1.5-19.9-3-39.8-5.4-59.6c-2.8-23.7-1.5-47.2,0.8-70.7
		c2.2-22.7,4.8-45.3,7.5-67.9c2.8-23.3,9.5-45.5,20.4-66.4c3.1-6,7.1-12.2,7.9-18.6c1.2-10.6,1.3-21.6-0.2-32.2
		c-2.7-18.9-6.8-37.6-10.3-56.4c-1.8-9.5-3.5-19-5.7-28.4c-0.5-2-2.9-3.5-4.5-5.3c-1.6,1.5-3.4,2.8-4.9,4.5c-0.8,1-1.1,2.4-1.6,3.6
		c-5.3,12.2-10.9,24.3-15.8,36.7c-7.3,18.4-15.9,36.3-19.7,55.9c-1.4,7.4-4.4,14.7-7.6,21.5c-13.7,28.7-28,57.1-41.6,85.8
		c-6.9,14.6-15.9,28.7-15.5,45.9c-8.4,2.1-15.3-0.5-21.8-5.1c-3.4-2.4-4.4-5.1-2.5-9.2c3.2-7,6.4-14,8.3-21.4
		c5.2-20,10.3-40,14.2-60.2c4.7-23.9,9.2-47.8,20.2-69.7c4.8-9.7,11.3-18.6,15.5-28.5c5.9-13.9,10.7-28.3,15.4-42.7
		c7.9-24,12.6-48.4,13.2-73.9c0.2-10.9,3.3-22.1,6.9-32.5c6.2-17.6,18.2-30,37.4-32.8c16.4-2.4,31.6-7.7,46.1-15.5
		c19.9-10.7,25.9-24.9,21.8-46.4c-1.5-7.8-3.4-15.6-5.6-23.3c-0.5-1.9-2.5-3.6-4-5.1c-1.4-1.4-3.9-2.2-4.6-3.8
		c-2.7-6-5.1-12.3-7.1-18.6c-0.7-2.3-0.1-5.1-0.1-7.9c6.7,2.6,8.5,1.2,8.6-5.5c0.2-8,0.1-16,1.2-23.9c1.3-9.6,4.1-19.2,12-25.6
		c15.8-12.8,37.2-13.9,55.2-4c7.3,4,12,9.6,15,17.2c4.4,11.2,4.4,22.8,4.5,34.4c0,2.5,0.1,5.7,1.5,7.4c1.2,1.3,4.5,0.8,7.2,1.1
		c0.4,10-3.2,19.1-8.8,27.6c-0.5,0.7-1.8,0.8-2.4,1.5c-1.8,1.9-4.3,3.6-4.9,5.9c-2.1,7.2-3.7,14.5-5.3,21.8
		c-3.6,16.8-0.9,31.7,13.9,42.2c15.1,10.8,32.3,17.3,50.6,19.9c16.9,2.4,29.3,10.7,37.3,25.8c7.1,13.4,9.9,27.8,10.7,42.7
		c0.5,9.1,0.1,18.5,2.2,27.3c5.1,21.7,10.9,43.2,17.2,64.5c2.9,9.6,6.9,19.2,12,27.9c11.6,19.6,21.1,40.1,26.3,62.3
		c3.9,17,6.9,34.2,10.2,51.4c4.1,21.3,10.4,41.9,18.9,62c0.5,1.3,0.8,3.5,0.1,4.4c-4.3,5.9-15.9,11.2-22.8,8.6
		c-3.1-10-4.9-19.4-8.8-27.9c-13.8-29.7-28-59.3-42.6-88.6c-7.9-15.7-15.2-31.4-18-49c-0.5-3.1-1.7-6.1-2.9-9
		c-10-24.3-20.1-48.6-30.4-72.8c-1.2-2.7-3.9-6.6-6.1-6.7c-4.1-0.1-4.6,4.5-5.2,7.9c-5.6,30.4-11.6,60.8-16.5,91.3
		c-1.9,12-1,24.3,5.5,35.4c14.8,24.8,22.1,51.8,24.9,80.3c2.3,23.3,5.4,46.6,7.2,69.9c1.2,16.2,1.7,32.6,0.9,48.8
		c-0.9,19.1-3.7,38-5.3,57.1c-1.6,18.6-2.8,37.1-4,55.7c-1.4,22.9-3,45.8-3.8,68.7c-0.6,18.8,1.4,37.3,7.1,55.6
		c9.9,31.8,15.2,64.4,13.9,97.9c-1,23.9-2,47.8-3.2,71.8c-0.6,12-1.8,23.9-2.7,35.8c-1.2,14-1.7,27.9,4.2,41.2
		c1.1,2.5,1.7,5.6,1.3,8.3c-0.9,7.3,0.5,14.2,1.8,21.4c1.2,6.7-0.9,14-2.1,21c-1.2,6.3-4.3,8.8-10.8,9.1c-17.9,0.8-22-4-22.3-17.9
		c-0.1-2.5-2.4-6-4.7-7.3c-7.5-4.4-9.1-12.7-2.6-18.7c3.5-3.2,3.7-6.4,2.8-10.7c-0.9-3.9-0.7-8.1-0.6-12.1
		c0.2-8.4,2.2-17.2,0.6-25.2c-4.5-22.3-10.4-44.4-16-66.5c-3.3-13.1-8.5-25.8-10.4-39c-3.4-23.8-5-47.9-7.2-72
		c-1.7-18.3-3.8-36.4-11.9-53.3c-2.7-5.7-4.5-12.3-5.1-18.7c-2.4-24.2-4.6-48.4-5.9-72.6c-1.6-30.3-6-60.2-11.8-90
		c-2.8-14.7-5.8-29.4-7-44.3C277.7,685.6,275.3,679.4,270.7,673.2z"/>
</g>
</svg>
