<?xml version="1.0" encoding="utf-8"?>
<!-- Generator: Adobe Illustrator 25.2.3, SVG Export Plug-In . SVG Version: 6.00 Build 0)  -->
<svg version="1.1" id="Layer_1" xmlns="http://www.w3.org/2000/svg" xmlns:xlink="http://www.w3.org/1999/xlink" x="0px" y="0px"
	 viewBox="0 0 635 1300" style="enable-background:new 0 0 635 1300;" xml:space="preserve">
<style type="text/css">
	.st0{fill:#F2E197;}
	.st1{fill:#CC7F90;}
</style>
<path class="st0" d="M217.6,369.9c-4.9,12-9.8,24-14.6,36c-5.3,13.3-10.8,26.5-15.8,39.9c-1.7,4.5-2.1,9.5-3.2,14.2
	c-0.5,2-0.7,4.2-1.7,6c-14.7,27-29.4,53.9-44.3,80.7c-5.3,9.5-11.9,18.4-16.8,28.1c-5.6,11.3-9.9,23.3-14.7,34.9
	c-7.5-5.3-15.1-13.8-27.9-12.7c4.4-10,8.7-19.3,12.7-28.7c9.5-22.3,18.2-44.9,23.9-68.6c4-16.4,7.9-33,16.8-47.8
	c3.9-6.4,8-12.8,11.1-19.6c4.9-10.6,9.4-21.4,13.3-32.4c3.6-10.1,6.3-20.5,9-30.8c4.9-18.9,9-37.9,7.8-57.8
	c-1.1-18.2,3.2-35.4,13.1-51c4-6.3,9.9-10.6,16.5-13.3c11.7-4.6,23.9-6.3,36.6-4.3c2,0.3,4.3-1.2,6.5-1.9c9.6-3,18.5-6.9,25.7-14.6
	c7-7.6,11.2-15.7,11.6-26.1c0.7-17.8-1.5-35.1-7.2-51.9c-0.4-1.3-2.5-3.4-3.3-3.1c-3.9,1-5.9-1.5-7.6-3.9
	c-5.1-7.1-5.4-15.3-4.7-23.6c0.1-1.3,1.9-2.4,2.9-3.6c0.9,0.8,1.7,1.7,2.7,2.4c1,0.7,2.2,1.3,4.6,2.7c-0.6-3.6-1.3-5.8-1.2-7.9
	c0.5-14.9-0.4-29.9,6.7-43.8c7.6-14.9,20-21.1,36.2-21.4c8.1-0.2,16.2,0.3,23.7,3.4c12.3,5.1,19.1,15.3,22,27.6
	c2.9,12.1,4.6,24.6,2.3,37.1c-0.2,1.1,0,2.3,0,5c2.1-1.5,3.7-2.1,4.4-3.2c1.8-2.9,3.1-2.4,4.6,0.1c0.2,0.4,0.6,0.8,0.7,1.3
	c2.4,7-1.8,22.2-7.5,26.9c-0.7,0.5-1.8,1.2-2.4,1c-4.3-1.4-5.2,1.3-6.3,4.6c-5.2,16.3-7.2,33-6.6,50.1c0.7,16.6,12.9,32.8,29,38.2
	c4,1.4,7.9,3.2,11.9,4.3c2,0.5,4.4-0.3,6.6-0.3c11.6-0.1,23.2,0.5,33.7,5.4c7.5,3.4,13.7,9,17.9,16.8c7.1,13.1,10.4,27.1,10.8,41.8
	c0.1,2.8,0.2,5.7,0,8.5c-1.4,16.8,2.7,32.9,6.2,49.2c3.8,17.4,9.9,34,15.6,50.8c3.9,11.6,9.8,22,16.2,32.2
	c8.8,14.2,14.2,29.6,18,45.7c5.6,24.1,13.6,47.5,23.3,70.3c4.8,11.2,9.8,22.3,15.1,34.2c-12.3-0.6-20.2,7.1-27.8,13.1
	c-4.8-11.5-9-23.4-14.7-34.6c-6.4-12.5-14.3-24.1-21.3-36.3c-8.3-14.4-16.4-29-24.4-43.6c-5.2-9.4-10.2-19-15.2-28.6
	c-0.8-1.6-2-3.3-1.9-4.9c0.7-9.5-3.9-17.4-7.1-25.7c-7.3-18.8-14.7-37.6-22.1-56.3c-1.3-3.3-3.1-6.5-5.1-10.7
	c-1.1,1.6-2.5,2.7-2.7,4.1c-1.8,8.8-3.5,17.6-5.1,26.4c-1.7,9.6-3.5,19.3-4.8,29c-0.8,6.2-1.1,12.5-1.2,18.8
	c-0.2,10.3-0.2,20.7,0,31c0,2.3,0.7,4.9,1.9,6.9c10.6,18.6,17.9,38.4,21.9,59.4c2.5,13.3,4.4,26.8,6.1,40.2
	c1.7,13.5,2.9,27.1,4,40.7c0.9,10.7,1.5,21.4,2,32.1c0.5,9.1,1.3,18.2,0.9,27.3c-0.6,11.6-2.5,23.1-3.7,34.7
	c-0.5,4.3-0.8,8.5-1.1,12.8c-0.7,11.2-1.3,22.4-2,33.6c-1.3,17.9-2.2,35.9-4.1,53.7c-3.2,30-4.8,60.1-3.7,90.2
	c0.2,6.6,2.6,13.1,4.2,19.6c4.1,16.7,8.4,33.5,12.5,50.2c0.1,0.3,0.1,0.7,0.1,1c0.3,9.4,0.9,18.9,0.9,28.3c0,9.1-0.7,18.2-0.9,27.3
	c-0.4,16.4-0.6,32.9-1,49.3c-0.3,10.9-0.6,21.9-1,32.8c-0.3,9.9-0.9,19.9-0.9,29.8c0,4.8-2.4,6.7-6.5,6.6
	c-7.8-0.1-15.5-0.4-23.3-1.1c-1.6-0.2-3.8-2.5-4.2-4.2c-1.4-6.2-1.7-12.6-3.2-18.8c-2.5-10.6-5.4-21.1-8.4-31.6
	c-5.8-20.3-11.2-40.8-17.8-60.9c-4.7-14.2-4.7-28.7-5.8-43.2c-1.3-17.4-1.9-34.9-4.3-52.2c-1.4-9.8-5.5-19.3-9.2-28.7
	c-5.7-14.6-7.3-29.8-7.6-45.3c-0.4-19.5-1-39.1-2-58.6c-0.9-15.8-2.3-31.5-4-47.2c-0.8-7.8-3-15.4-4.3-23.1
	c-2.3-12.7-4.5-25.4-6.5-38.1c-1-6.6-0.6-13.6-2.3-20c-1.5-5.7-5.1-10.9-8-16.1c-0.2-0.3-3.4,0.1-4,1c-5.7,8.6-8.7,17.8-9.1,28.5
	c-0.4,10-3.6,19.8-5.2,29.8c-2.4,15.2-4.5,30.4-6.4,45.6c-1.6,12.9-2.7,25.8-4,38.7c-0.1,0.5,0,1,0,1.5c-0.3,13.4-0.5,26.9-1,40.3
	c-0.5,13.5-0.3,27.2-2.3,40.6c-1.5,10.2-5.3,20.1-9.1,29.8c-3.4,8.6-6.1,17.1-6.6,26.4c-1,18.3-2.9,36.5-3.8,54.7
	c-1,19.3-6.2,37.6-11.8,55.9c-6.2,20.2-11.8,40.6-17.2,61.1c-2.6,10-4,20.4-6.3,30.6c-0.3,1.5-2.4,3.5-3.8,3.6
	c-7.9,0.7-15.8,1-23.8,1.1c-4.2,0.1-6.4-1.9-6.4-6.7c-0.1-18.4-0.5-36.9-0.9-55.3c-0.6-25.9-1.4-51.7-1.9-77.6
	c-0.2-11-0.7-22.1,0.2-33.1c0.6-7.4,3.3-14.6,5-21.8c3.9-15.8,7.8-31.6,11.6-47.4c0.3-1.3,0.1-2.7,0.1-4c0-15.3,0.5-30.7-0.1-46
	c-0.6-14.1-2.5-28.1-3.8-42.2c-0.5-5.1-0.7-10.2-1.1-15.3c-0.7-11-1.2-22.1-2-33.1c-1.2-17.2-1.9-34.6-4.2-51.7
	c-2.5-18.4-4.6-36.7-3.7-55.2c0.8-16.8,1.2-33.7,3.1-50.4c2.6-22.2,6.6-44.3,9.7-66.4c3.2-22.4,10.9-43.2,22-62.8
	c1.2-2.2,1.9-4.9,2-7.4c0.2-11.5,0.6-23-0.1-34.5c-0.7-11.4-2.3-22.8-4-34.2c-1.6-10.8-3.8-21.5-5.9-32.2c-0.5-2.7-1.8-5.3-2.8-8
	C218.6,369.7,218.1,369.8,217.6,369.9z"/>
<g id="Quads">
	<path id="R._Quad" class="st1" d="M395.3,829.5c-1.2-11-4.9-21.2-9.1-31.3c1.2,11.9,2.4,23.5-1.7,36.1c-2.4-17-4.8-32.8-8.3-48.4
		c-0.6,0.1-1.2,0.2-1.7,0.3c-0.8,7.3-2,14.5-2.4,21.8c-0.6,11.7-0.2,23.6-1.2,35.3c-0.9,9.9-2.9,19.6-4.9,29.4
		c-0.3,1.7-2.6,3.6-4.3,4.2c-2.8,0.9-5.7,0.2-6.7-3.3c-2.3-7.9-5.1-15.8-6.8-23.9c-3.7-18.2-5.6-36.6-6.4-55.2
		c-0.3-7.1,1.1-13.7,2.8-20c4.9-18.2,10.2-36.4,16.7-54c10.8-29.3,22.6-58.2,34.2-87.2c5-12.5,10.4-24.9,15.6-37.3
		c0.3-0.7,0.9-1.3,1.6-2.4c1.2,14.1,5.2,27,9,40.1c2.9,10.1,3.9,20.8,5.4,31.3c3.2,21.4,4.8,43,3.9,64.7
		c-0.7,15.6-2.6,31.1-3.8,46.7c-0.6,7.7-0.7,15.5-1.1,23.3c-0.6,11-0.5,22.2-2.2,33.1c-2.2,13.5-6,26.6-9,40
		c-1.2,5.4-2.1,10.8-3.1,16.2c-0.5,0.1-1,0.3-1.4,0.4c-1.7-4.7-4.2-9.3-5-14.1c-1.6-10.2-2.5-20.5-3.1-30.8
		c-0.2-4.1,1.2-8.4,1.8-12.6c0.4-2.6,1-5.2,1-7.8c0.1-9.6,0-19.1-0.7-28.8c-3.7,8.3-9.1,16-6.8,26c0.6,2.7-0.4,5.7-0.7,8.5
		C396.2,829.6,395.8,829.6,395.3,829.5z"/>
	<path id="L._Quad" class="st1" d="M253.9,785.9c-3.8,15.4-5.8,31.3-8.2,46.8c-3.4-4-3.9-23.4-0.5-34.8c-1.3,0.5-2.8,0.6-2.9,1.1
		c-2.8,10-5.4,20.1-8.4,31.2c-0.7-3.1-2.2-6-1.6-8.2c3.1-10.3-3-18.1-6.7-26.9c-0.2,1-0.5,2-0.5,3c-0.1,4.8,0.1,9.7-0.1,14.5
		c-0.3,9.3,1.1,18.3,2.6,27.4c1.2,7.2,0.4,14.9-0.8,22.2c-1.3,8.3-4,16.4-6.1,24.5c-0.2,0.8-1,1.6-1.8,2.9
		c-2.7-12.1-5.2-23.6-7.9-35.1c-3.4-14.5-5.5-29.2-6.1-44.2c-0.7-16.1-2.6-32.1-3.8-48.2c-0.5-6.6-0.8-13.2-1-19.8
		c-0.4-10.9-1.3-21.9-0.9-32.8c0.7-14.6,2.2-29.2,3.9-43.7c1.2-10.5,2.9-21,5.1-31.4c1.8-8.7,4.8-17.2,7-25.9
		c1.2-4.7,1.7-9.6,2.6-15.1c2.5,5.2,5.2,10,7.2,15c5.2,12.5,10.1,25,15.1,37.6c4.5,11.3,9.1,22.7,13.5,34
		c6.3,16.4,13.1,32.6,18.5,49.3c6.3,19.5,11.8,39.3,16.5,59.2c1.5,6.5,0,13.8-0.6,20.6c-0.6,6.5-1.7,13-2.9,19.4
		c-2.6,13.8-5.1,27.5-8.1,41.2c-0.7,3.2-1.6,7.3-6.6,7.4c-5,0.1-7.3-2-8.1-9.5c-1.3-12.1-2.2-24.2-3.1-36.4c-1.1-14.9-2-29.9-3-44.8
		C255.3,786.2,254.6,786,253.9,785.9z"/>
</g>
<g id="InnerThigh">
	<path id="R._InnerThigh" class="st1" d="M340.9,778.4c-2.3-12.2-4.4-23.2-6.4-34.3c-2.3-13.2-4.6-26.4-6.5-39.6
		c-1.1-7.8-1.3-15.7-2.2-23.6c-0.2-1.5-1.1-3.1-1.9-4.4c-3.1-5-2.6-12.3,1-17c16.8-22.3,33.6-44.6,47.1-69.1
		c4.7-8.5,11-16.2,19.1-22.3c7.7-5.8,14.5-12.8,21.7-19.3c0.6,0.2,1.1,0.5,1.7,0.7c0,7.1,0.3,14.3,0,21.4
		c-1,22.4-14.2,40.7-21.6,60.9c-9.1,24.7-19.7,48.9-28.8,73.6c-7.2,19.5-13,39.5-19.4,59.3C343.3,768.9,342.3,773.3,340.9,778.4z"/>
	<path id="L._InnerThigh" class="st1" d="M216.5,548.6c6.2,5.3,11.9,10.1,17.5,14.9c3.1,2.7,6.2,5.4,9.2,8.2
		c8.4,7.8,13.8,17.7,19.7,27.4c7,11.7,15.1,22.9,22.9,34.1c6.3,9,12.9,17.7,19.4,26.5c3.5,4.8,3.7,11.8,0.6,17.1
		c-1,1.6-1.7,3.6-1.7,5.5c-0.5,17.8-3.8,35.1-7.3,52.5c-2.3,11.5-3.8,23.2-5.7,34.8c-0.4,2.7-0.9,5.3-2.2,8.2
		c-1.6-6-2.9-12.1-4.8-18c-5.2-16.4-10.5-32.9-16.1-49.1c-5.3-15.2-11-30.3-16.9-45.2c-6.2-15.6-13-30.9-19.5-46.4
		c-4.7-11.3-10.5-22.2-13.5-33.9c-2.6-10.4-2.1-21.5-2.8-32.4C215,551.6,215.8,550.5,216.5,548.6z"/>
</g>
<g id="Chest">
	<path id="R._Chest" class="st1" d="M411.4,308.3c-7.3-2-14.2-4.1-21.3-5.7c-11.9-2.7-23.9-4.6-36-0.7c-19.1,6.3-26.9,18.8-28,38.6
		c-0.3,5.3,0,10.7,0,16.1c-0.7,0.1-1.5,0.1-2.2,0.2c-0.9-3.5-2.4-6.9-2.7-10.4c-0.7-8.9-0.9-17.8-1.1-26.8
		c-0.3-12.1,0.2-23.9,3.5-35.8c2-7.2,3-14.7,6.6-21.2c1.5-2.8,4.7-5.8,7.6-6.5c11.4-2.6,22.6-2.2,33.6,3.5
		c8.8,4.5,18.2,7.8,27.4,11.5c5,2,10.1,3.4,15.1,5.4c4.4,1.8,6.7,7,4.5,12.9C416.1,295.4,413.9,301.5,411.4,308.3z"/>
	<path id="L._Chest" class="st1" d="M304.4,356.4c-0.1-1.9-0.4-3.8-0.4-5.6c0-8.7,0.1-17.3-2.9-25.8c-4.8-13.6-15.1-20.5-28.2-23.9
		c-13.7-3.5-27-0.3-40.2,3.5c-4.6,1.3-9.4,2.3-14.1,3.5c-2.4-6.5-4.9-12.7-7-19c-2.2-6.7,0.2-10.7,6.7-13.3
		c14.4-5.8,28.6-12.2,43.2-17.8c6.5-2.5,13.4-5,20.8-3.1c1.3,0.3,2.7,0.1,4,0.1c8.3,0,12.8,2.4,15.2,10.2
		c4.7,14.8,9.2,29.7,8.5,45.6c-0.5,11.7-0.5,23.5-1.1,35.3c-0.2,3.6-1.7,7.1-2.7,10.7C305.6,356.6,305,356.5,304.4,356.4z"/>
</g>
<g id="Shoulders">
	<path id="R._Shoulders" class="st1" d="M459.7,348.4c-11.7-12.4-23.5-25.5-35.9-38c-6.3-6.3-6.3-12.6-3.4-20.4
		c3.5-9.5,0.2-14-9.3-17.3c-12.1-4.2-23.7-9.7-36.3-14.8c9.8-3.9,18.6-7.4,27.4-10.9c0.9-0.4,1.8-0.7,2.8-1c3.9-1,8.3-3.5,11.6-2.5
		c8.9,2.9,18.9,4.8,25,12.6c6.6,8.5,10.8,18.5,13.5,29.1c3.9,15.1,2.8,30.5,3.1,45.8C458.2,337.2,459.2,343.2,459.7,348.4z"/>
	<path id="L._Shoulders" class="st1" d="M254.5,258.6c-12.4,4.8-24.7,9.9-37.2,14.3c-6.9,2.4-10.6,8.5-8.3,15.6
		c0.9,2.8,2,5.5,2.8,8.3c1.8,6.1-2.4,9.8-5.9,13.7c-3.6,4-7.6,7.4-11.2,11.4c-8.2,9-16.2,18.1-24.4,27.3c-0.1-0.8-0.6-2.1-0.2-3.1
		c4.1-13.4,1-27.1,1.9-40.6c1.1-17.4,5.8-33.8,15.7-48.2c2.4-3.5,7-5.9,11-8c4.6-2.4,9.6-4.1,14.5-5.7c1.7-0.6,4-0.5,5.8,0.1
		c9,3.4,17.8,7.2,26.7,10.7c2.9,1.1,5.8,1.9,8.8,2.9C254.5,257.6,254.5,258.1,254.5,258.6z"/>
</g>
<g id="Traps">
	<path id="R._Traps" class="st1" d="M326.3,252c9.2-12.6,15.3-25.5,18.1-41.8c5.1,5,10,8.4,13,13.1c6.7,10.2,16.7,14.3,27.7,16.6
		c6.5,1.4,13.2,1.9,20.8,2.9c-7,2.9-13.3,5.6-19.7,8.2c-2.4,1-4.9,1.7-7.3,2.7c-4.3,1.9-8.2,1.8-13,0.8c-8.4-1.8-17.3-1.8-26-2.3
		C335.8,251.8,331.6,252,326.3,252z"/>
	<path id="L._Traps" class="st1" d="M285.9,212.1c2.4,14.4,8.5,27.2,17.8,39.9c-2.5,0-4.1,0-5.8,0c-13,0.3-26.1-1.4-38.6,3.7
		c-1.6,0.7-4.3-0.9-6.4-1.7c-9.4-3.5-18.8-7.1-28.9-10.9c8.6-1.4,16.2-2.6,23.7-4c10.8-2,19.2-7.5,25.5-16.6
		c2.9-4.2,7.3-7.4,11-11.1C284.9,211.6,285.4,211.8,285.9,212.1z"/>
</g>
<g id="Obliques">
	<path id="R.6_1_" class="st1" d="M378.5,576.1c-0.5-5.2-1.2-10.5-1.4-15.9c-0.5-10.2-0.7-20.5-1.1-30.8c-0.1-2.3-0.6-4.5-1-6.8
		c-1.7-11.1,3-20.3,9.5-28.5c4-5.1,9-9.4,13.2-13.7c3.5,7.9,7.5,16.7,11.2,25.6c3.4,8.2,6.5,16.6,9.5,25c0.5,1.4,0.7,3.7-0.1,4.7
		c-4,5.5-6.4,12-12.6,16c-5.9,3.8-10.8,9.1-16.1,13.8C386,569.1,382.4,572.5,378.5,576.1z"/>
	<path id="R.5_1_" class="st1" d="M398,449.3c0,7.9,0.9,14.6-0.2,20.8c-1.3,7.4-5.1,14-10.7,19.3c-1.9,1.7-3.5,3.8-5.5,5.3
		c-1.4,1-3.5,2-5,1.8c-1-0.1-2-2.5-2.4-4c-0.4-1.6,0.1-3.3-0.1-5c-1.3-8.9,1.2-15.4,9.2-20.7c4.9-3.2,8-9.2,11.9-13.9
		C395.7,452.2,396.4,451.3,398,449.3z"/>
	<path id="R.4_2_" class="st1" d="M399.6,419.8c1.3,15.4-1.7,28.6-11.8,39.7c-2.9,3.2-6.3,6-9.7,8.7c-2.3,1.8-5.8,0-6.1-3
		c-0.5-4.2-0.4-8.6-1.1-12.7c-1.3-8.1,5.9-9.7,9.9-13.7c5.3-5.4,10.8-10.7,16.2-16C397.7,422,398.4,421.3,399.6,419.8z"/>
	<path id="R.3_2_" class="st1" d="M397.2,400.9c4.7,18.9-7.5,27.8-19,37.2c-8.7-7-8.5-20.1,0.2-26.1c4.8-3.3,9.7-6.4,14.7-9.5
		C394.4,401.7,396,401.3,397.2,400.9z"/>
	<path id="R.2_2_" class="st1" d="M399.5,388.5c-4.9,7.1-10.2,15.1-19.7,18.4c-1.6,0.6-4,0.6-5.2-0.2c-1.7-1.2-4.4-2.4-2.7-5.9
		c0.8-1.7,0.1-4.2,0.1-5.5C381.7,392.9,390.8,390.7,399.5,388.5z"/>
	<path id="R.1_2_" class="st1" d="M401.8,410c-3.6-3.4,0.9-10.1-4.2-12.1c2.1-5.5,4.2-11.2,6.5-16.8c0.7-1.7,2.3-3.1,4.1-5.5
		C405.9,387.9,403.8,399,401.8,410z"/>
	<path id="L.6_1_" class="st1" d="M251.8,575.8c-9.8-8.3-19.9-16.3-29.2-25.1c-4.5-4.3-7.8-10-11.3-15.3c-0.7-1-0.1-3.3,0.5-4.7
		c6.1-15.2,12.4-30.4,18.6-45.6c0.7-1.8,1.4-3.6,2.3-6c1,1.7,1.6,3.6,2.8,4.9c3.3,3.7,7.3,6.8,10.3,10.7c7.1,9.4,11.8,19.6,8.3,32
		c-0.8,2.8,0,6-0.2,9C253.3,549.2,252.5,562.7,251.8,575.8z"/>
	<path id="L.5_1_" class="st1" d="M232.9,450.4c2.3,3.3,4.2,6.9,6.9,9.7c3.9,4.1,8.5,7.6,12.4,11.6c1.7,1.7,3.4,4,3.6,6.2
		c0.5,4.9,0.3,10,0.1,14.9c-0.1,1.3-1.2,3.2-2.2,3.6c-1.2,0.5-3.5,0.1-4.3-0.8c-5.7-6.7-13.8-11.8-15.6-21.3
		c-0.5-2.8-1.5-5.6-1.6-8.4c-0.3-5.1-0.1-10.1-0.1-15.2C232.3,450.6,232.6,450.5,232.9,450.4z"/>
	<path id="L.4_2_" class="st1" d="M230,419.6c5.6,6.3,10.2,11.9,15.3,17c2.5,2.5,5.6,4.3,8.8,5.9c5.1,2.6,5.3,7,4.9,11.8
		c-0.3,3.3-0.4,6.6-1.1,9.8c-0.3,1.5-1.3,3.4-2.5,4c-1.2,0.6-3.2,0-4.6-0.8c-9.8-5.5-13.7-15.7-19.4-24.5c-0.3-0.4-0.4-0.9-0.4-1.4
		C230.7,434.5,230.4,427.7,230,419.6z"/>
	<path id="L.3_2_" class="st1" d="M252,438.1c-12-9.6-24-18.9-19.1-37.9c5.5,3.2,10.9,6.3,16.3,9.5c0.7,0.4,1.1,1.3,1.8,1.7
		c3.7,2.2,7,4.5,7,9.5C258.2,429.2,256.9,433.6,252,438.1z"/>
	<path id="L.2_2_" class="st1" d="M230.4,388.6c8.8,2.1,17.8,4.4,27.2,6.7c-0.9,2.9,2.9,6.8-0.8,10.5c-2.2,2.3-4.1,2.6-7,1.3
		c-7.2-3.2-12.4-8.5-16.8-14.7C232,390.9,231,389.4,230.4,388.6z"/>
	<path id="L.1_2_" class="st1" d="M232.7,397.8c-5.3,2.2-1.1,8.6-4.5,12.1c-2-10.9-4.1-21.9-6.2-32.8c0.3-0.1,0.5-0.3,0.8-0.4
		C226.1,383.7,229.4,390.7,232.7,397.8z"/>
</g>
<g id="Bicep">
	<path id="R.4_1_" class="st1" d="M439.8,432.2c2.5,3.5,5,7.1,7.6,10.6c2.4,3.2,2.3,5.9-0.9,8.9c-2.6-6.4-5.1-12.6-7.6-18.9
		C439.2,432.6,439.5,432.4,439.8,432.2z"/>
	<path id="R.3_1_" class="st1" d="M439.5,428.1c5.2,3.7,9.6,6.8,14.3,10.2c-0.6,1.5-1.5,3.6-2.5,6.1
		C447.3,438.8,443.6,433.8,439.5,428.1z"/>
	<path id="R.2_1_" class="st1" d="M454.1,435.1c-5.1-1.9-8.7-5.6-12.6-9.5c-5-5.1-1.1-10-0.4-15.4c4.8,7.9,9.6,15.8,14.4,23.7
		C455.1,434.3,454.6,434.7,454.1,435.1z"/>
	<path id="R.1_1_" class="st1" d="M414.4,361c4.7,9.7,9.3,19.2,13.9,28.7c0.3,0.6,0.5,1.3,0.9,1.7c9.1,9.7,8.5,21.6,7.5,34.5
		c-6.1-13.7-11.6-26.8-17.7-39.7C415.1,378.1,412.6,370,414.4,361z"/>
	<path id="R.Main_Bicep" class="st1" d="M416.1,305c9.8,10.7,19.7,21.3,29.4,32c3.3,3.6,6.3,7.6,9.6,11.2c7.1,7.7,8.1,18,11.7,27.1
		c3.1,7.6,4.4,15.9,7.2,23.7c5.5,15.4,5.5,30.8,1.3,46.4c-0.5,1.9-0.4,3.9-0.6,6.9c-4-3.3-7.4-6.6-11.3-9.1
		c-5.3-3.4-6.5-8.8-8.7-13.9s-5.8-9.7-8.7-14.6c-3.8-6.3-7.7-12.4-11.1-18.8c-6.3-12-12.7-24-18-36.4c-2.3-5.5-2.5-12.1-3-18.2
		c-0.7-8.2-1-16.5-1-24.8c0-3.6,1-7.2,1.5-10.8C415.1,305.3,415.6,305.2,416.1,305z"/>
	<path id="L.4_1_" class="st1" d="M183.4,452.2c-1.2-2.2-2.1-3.9-3.2-5.8c3.3-4.7,6.6-9.4,9.9-14.1c0.3,0.1,0.7,0.3,1,0.4
		C188.6,439,186.1,445.3,183.4,452.2z"/>
	<path id="L.3_1_" class="st1" d="M178.7,444.4c-1-2.3-1.8-4.3-2.6-6c4.6-3.3,9.2-6.5,14.4-10.2
		C186.4,433.8,182.7,438.8,178.7,444.4z"/>
	<path id="L.2_1_" class="st1" d="M190.6,410.7c-0.2,4.5,0.9,9.7-1,13.2c-2.9,5.1-7.6,9.3-13.7,11.1c-0.5-0.3-1-0.6-1.4-1
		c4.7-8,9.5-15.9,14.2-23.9C189.3,410.4,190,410.6,190.6,410.7z"/>
	<path id="L.1_1_" class="st1" d="M193.4,425.8c-1.2-12.8-0.5-23.8,7.1-34.5c6-8.5,9.2-19,13.7-28.5c0.3-0.7,0.8-1.3,1.6-2.5
		c0.8,8.1,0.6,15.3-2.8,22.2c-3.5,7-6.6,14.2-9.8,21.3C199.9,410.9,196.8,418,193.4,425.8z"/>
	<path id="L._Main_Bicep" class="st1" d="M154.2,451.3c-0.7-11.8-2.3-23.6-1.9-35.3c0.3-7.4,3.2-14.9,5.4-22.1
		c3.6-11.8,7.3-23.6,11.4-35.2c1.5-4.2,3.9-8.2,6.6-11.7c5.1-6.4,10.8-12.5,16.4-18.5c7.3-7.9,14.7-15.6,22-23.3
		c0.6,0.1,1.2,0.3,1.7,0.4c0.2,4.6,0.4,9.1,0.5,13.7c0,4.5-0.7,9-0.3,13.4c2.2,20.4-6.7,37.3-16.3,54.1c-4.7,8.3-9.1,16.9-13.9,25.2
		c-1.4,2.4-4.1,4-5.4,6.4c-2.5,4.5-5.1,9.2-6.3,14.2c-1.2,4.9-4.1,7.8-7.7,10.6c-3.6,2.9-7.2,5.9-10.8,8.9
		C155.2,451.7,154.7,451.5,154.2,451.3z"/>
</g>
<g id="Forearm">
	<path id="R.7" class="st1" d="M519.5,600.2c-1-5-2.1-10-3.1-15c0.5-0.1,1-0.2,1.5-0.3c1.2,5,5.8,9.1,4.2,14.8
		C521.2,599.8,520.3,600,519.5,600.2z"/>
	<path id="R.6" class="st1" d="M514.8,584.9c-7-11.8-14-23.6-20.8-35.4c-6.8-11.8-13.5-23.8-20.4-35.9c5.1-1.7,8.8,0.1,11,3.9
		c3.4,5.9,6,12.2,9.3,18.2c4.9,9,10.2,17.8,14.9,26.8C512.6,569.5,518.9,576,514.8,584.9z"/>
	<path id="R.5" class="st1" d="M460.9,462.7c6.5,16.4,12.7,31.9,18.9,47.4c-8.3,1.9-9,1.2-11.9-5.5c-3-6.9-6.5-13.5-10.1-20
		C453.2,476.4,453.5,471.5,460.9,462.7z"/>
	<path id="R.4" class="st1" d="M533,591.2c-2.4,1.8-4.9,3.6-7.9,5.8c-1.9-5.5-3.5-11.1-5.8-16.3c-3.6-8.2-7.4-16.2-11.5-24.1
		c-3.6-7-7.8-13.8-11.7-20.7c-4.6-8.1-9.4-16.1-13.6-24.3c-2.3-4.6-3.5-9.8-5.5-14.5c-4.5-10.8-8.7-21.7-13.8-32.2
		c-1.7-3.4-2.8-5.9-0.6-9C469.7,465.7,530.6,577,533,591.2z"/>
	<path id="R.3" class="st1" d="M464.1,446.4c7.6,5.3,12.3,11.8,16,19.1c11.1,21.5,22,43,33,64.6c4.6,9,9.5,17.8,13.9,26.9
		c4.9,10,9.4,20.3,14.3,30.8c-2,0.8-3.7,1.6-5.2,2.2c-4.1-8.4-8-16.6-12-24.7c-6.5-13.1-13.1-26.3-19.8-39.4
		c-4.5-8.7-9.1-17.4-13.9-25.9c-5.8-10.3-11.9-20.5-17.7-30.8c-3-5.3-5.9-10.7-8.5-16.2C463.4,451.3,464.1,449.1,464.1,446.4z"/>
	<path id="R.2" class="st1" d="M478.7,445.1c3.1,3.9,6.3,7.8,9.3,11.8c5.5,7.5,10.1,15.8,16.4,22.5c7.9,8.4,11,18.7,14.5,29
		c4.3,12.9,8.3,25.8,12.9,38.6c4.7,13.3,9.9,26.4,15.4,41.1c-2.2-1.5-3.8-2-4.4-3.1c-8.6-17-17.2-34-25.6-51.1
		c-6.6-13.3-12.9-26.8-19.7-40.1c-6.2-12-13.2-23.6-19.1-35.8c-1.7-3.6-1-8.4-1.5-12.6C477.4,445.4,478.1,445.2,478.7,445.1z"/>
	<path id="R.1" class="st1" d="M486.6,432.3c9.3,17,22.9,37.5,23.3,50.9c-4.2-5.8-7.4-10.5-10.9-15.1c-5.9-7.8-11.8-15.6-17.8-23.3
		C478,440.7,480,435.8,486.6,432.3z"/>
	<path id="L.7" class="st1" d="M113.5,585.1c-0.8,4.3-1.6,8.5-2.6,12.7c-0.2,0.8-1.5,1.4-2.3,2c-0.3-1.1-1.1-2.3-0.8-3.1
		c1.3-4.1,2.8-8.1,4.3-12.1C112.5,584.8,113,584.9,113.5,585.1z"/>
	<path id="L.6" class="st1" d="M115.2,585.1c-4.2-9,2.2-15.5,5.9-22.5c4.7-9.1,10.1-17.8,14.9-26.8c3.2-6,5.9-12.3,9.3-18.2
		c2.1-3.7,5.7-5.4,11.2-4C142.7,537.5,129,561.2,115.2,585.1z"/>
	<path id="L.5" class="st1" d="M169.7,463.7c6.6,7,7,13,2.9,20.4c-3.9,6.9-7.6,14.1-10.6,21.4c-2.2,5.2-5.3,6.6-11.5,4.9
		C156.6,494.8,161,478.7,169.7,463.7z"/>
	<path id="L.4" class="st1" d="M167.1,455.3c2.7,3.6,1.5,6.1-0.3,9.5c-4.4,8.6-8.5,17.6-11.7,26.7c-3.7,10.5-8.4,20.4-14.1,30
		c-3.8,6.4-6.6,13.4-10.2,19.9c-5.2,9.5-11.4,18.6-16.1,28.3c-3.8,7.8-6,16.4-8.9,24.7c-0.3,0.7-0.7,1.4-1.1,2.3
		c-2.7-1.9-5.2-3.6-8.7-6C117.1,544.3,142.2,499.9,167.1,455.3z"/>
	<path id="L.3" class="st1" d="M165.1,445.7c1.9,5.6,0.3,8.6-1.9,11.9c-4.1,6.2-7.6,12.9-11.1,19.4c-5.7,10.6-11.4,21.2-17,31.9
		c-7.4,14-14.8,28-22,42.1c-6.5,12.7-12.7,25.6-19.3,38.7c-1.1-0.4-2.8-1-5.2-1.9c3.3-6.8,6.2-13.2,9.4-19.5
		c4.9-9.7,10.1-19.3,15-29.1c7.4-14.9,14.5-30,22.1-44.9c6.6-12.9,13.4-25.7,20.6-38.3C157.7,452.4,161.4,449.6,165.1,445.7z"/>
	<path id="L.2" class="st1" d="M152.3,444.1c0.9,5.9,1.6,10.4-0.8,15c-12.6,24.5-25.2,49.1-37.8,73.6c-3,5.8-6.3,11.5-9.2,17.3
		c-5.7,11.5-11.2,23.1-16.9,34.6c-0.6,1.2-2.2,1.9-3.4,2.9c-0.3-0.3-0.6-0.6-0.9-0.9c4.6-11.8,9.6-23.4,13.9-35.3
		c4.3-11.8,7.9-23.9,11.9-35.9c2.7-8,4.5-16.5,8.4-23.8c4.8-8.8,11.4-16.7,17.3-24.9c4.3-6,8.8-11.8,13.2-17.7
		C149.1,447.7,150.3,446.4,152.3,444.1z"/>
	<path id="L.1" class="st1" d="M143,432c7.9,4.2,8.6,8.2,3.8,14.7c-7.6,10.2-14.8,20.6-22.2,30.9c-1.1,1.6-2.3,3.2-4,4.3
		C123.2,463,135.5,448.8,143,432z"/>
</g>
<g id="Calves">
	<path id="R._Calf_Outer" class="st1" d="M408,1142c-0.7-10.4-1.6-20.4-1.9-30.4c-0.5-18.4-0.7-36.8-1.1-55.3
		c-0.3-19.9-1.1-39.9-0.8-59.8c0.2-14.8,1.9-29.6,2.8-44.4c0.2-3.7-0.2-7.4,0.1-11.1c0.9-12.5,6.5-23.2,13.2-32.9
		c3.3,14,7.1,28.1,10,42.4c2.5,12.6,7.3,24.7,7,38c-0.5,22.3,0,44.7-0.2,67.1c-0.1,15.4-0.6,30.9-1,46.3
		c-0.3,10.9-0.7,21.9-0.9,32.8c-0.1,4.5-0.9,7.7-6.6,7.4C421.8,1141.7,415.1,1142,408,1142z"/>
	<path id="R._Calf_Inner" class="st1" d="M392,1109.4c-4.3-14.2-8.2-27-11.9-39.8c-3.9-13.4-7.7-26.8-11.3-40.3
		c-1.3-4.8-2.3-9.9-2.7-14.9c-0.9-13-1.4-26-2.1-39c-0.3-5.2-0.9-10.4-1.3-15.6c0.5-0.2,1-0.3,1.4-0.5c3.3,6.4,6.7,12.7,9.9,19.1
		c1.4,2.8,2,5.9,3.6,8.5c5.6,9.3,6.1,19.8,7.4,30.1c1.3,10.9,2.6,21.8,3.9,32.6c0,0.3,0.1,0.7,0.1,1c1,17.8,2,35.6,3,53.3
		C392.1,1105.4,392,1106.7,392,1109.4z"/>
	<path id="L._Calf_Outer" class="st1" d="M221.5,1142c-7.4,0-14.9,0.1-22.4-0.1c-1.1,0-2.5-1.3-3.1-2.4c-0.7-1.2-0.9-2.8-0.9-4.2
		c-0.4-19.1-0.7-38.2-1-57.3c-0.3-18.4-0.6-36.8-1-55.3c-0.1-5.1-0.8-10.2-0.9-15.3c-0.3-17.5,1.8-34.6,6.4-51.6
		c3.9-14.1,7-28.4,10.4-42.6c0.4-1.7,0.2-3.6,0.3-5.7c8.4,11.1,13,23.4,14.7,36.8c0.3,2-0.9,4.2-0.8,6.3c0.9,14,1.9,27.9,2.9,41.9
		c0.1,1.3,0,2.7,0,4c0,14,0.1,28,0,42c-0.2,19.1-0.5,38.2-1,57.3c-0.4,12.5-1.2,25.1-2,37.6C222.8,1136.1,222.1,1138.8,221.5,1142z"
		/>
	<path id="L._Calf_Inner" class="st1" d="M267.5,959.9c-1.2,15.1-2.3,30.2-3.5,45.3c-0.4,4.8-0.2,9.6-1.1,14.3
		c-2,9.5-4.4,18.9-6.9,28.3c-2.1,7.8-4.4,15.6-6.6,23.4c-3.6,12.2-7.3,24.5-11.7,36.7c0.5-9.4,0.9-18.8,1.5-28.1
		c0.4-5.4,1.3-10.7,1.8-16.1c1.4-14.7,2.6-29.4,4-44.1c0.7-7.3,2-14.6,3-21.8c0.1-1,0.3-2,0.7-2.8c5.5-11.5,11-22.9,16.5-34.3
		c0.2-0.4,0.7-0.6,1-0.9C266.7,959.7,267.1,959.8,267.5,959.9z"/>
</g>
<g id="Abs">
	<path id="R._Ab_3" class="st1" d="M364.7,504.3c-10.6,1.2-21.1,2.5-31.6,3.6c-9.1,1-14-3.6-14.1-12.9c-0.1-7.3-0.2-14.6-0.4-21.9
		c-0.1-3.4,1.4-5.3,4.8-5.1c12.9,0.6,25.7,1.1,38.5,2.2c1.5,0.1,3.8,3.7,3.8,5.6C365.8,485.1,365.1,494.4,364.7,504.3z"/>
	<path id="R._Ab_2" class="st1" d="M365,464c-4.5-0.7-8.4-1.6-12.4-1.9c-8.4-0.5-16.8-0.8-25.3-1c-6.3-0.2-8.1-1.7-8.3-8.2
		c-0.4-12.1-0.8-24.2-1-36.3c-0.2-8.6,0.2-9,7.9-4.5c11.6,6.9,23,14.3,34.2,21.7c3.3,2.2,5.4,5.3,5,10
		C364.6,450.4,365,457.1,365,464z"/>
	<path id="R._Ab_1" class="st1" d="M364.7,429.4c-6.9-4.5-13.3-8.6-19.6-12.9c-7.2-4.8-14.2-9.8-21.4-14.6c-2.7-1.8-3.9-3.7-3.8-7.1
		c0.3-8,0.4-16,0-24c-0.3-5.3,1.7-8.9,6.1-11.9c5.8,11.7,16.3,18.6,26.4,25.9c3.4,2.5,7.5,4,11,6.4c1.3,0.9,2.5,2.8,2.6,4.3
		c0.2,9.7,0.2,19.3,0.1,29C365.9,425.9,365.3,427.2,364.7,429.4z"/>
	<path id="R._Ab_R" class="st1" d="M324,514.6c13.9-1.1,27-2.1,40.5-3.1c4.5,25.4,2.6,51.2-7.4,76c-8.9,22-22.1,41.5-39.7,57.5
		c-0.4-0.2-0.9-0.4-1.3-0.6c0-1.9,0-3.9,0-5.8c0-37.3,0-74.6-0.1-111.9c0-3.1,0.7-5,3.7-6.7C321.8,518.7,323,515.8,324,514.6z"/>
	<path id="L.Ab_3" class="st1" d="M265.4,503.6c-0.5-7.9-1.1-15.5-1.4-23.1c-0.4-11.5,1.2-10.4,9.6-11.3c10.8-1.2,21.8-0.9,32.7-1.2
		c3.4-0.1,5.1,1.6,5.1,5c-0.1,7.3-0.4,14.6-0.4,21.9c-0.1,9.5-4.6,13.8-14,13c-6.7-0.5-13.4-1.1-20-2
		C273.2,505.5,269.4,504.4,265.4,503.6z"/>
	<path id="L.Ab2" class="st1" d="M265,462.6c0-6.8-0.4-14.7,0.2-22.4c0.2-2.3,2.6-5.1,4.7-6.4c12.3-8,24.8-15.7,37.3-23.3
		c1.2-0.8,3-0.7,4.5-1c0.1,1.5,0.3,2.9,0.2,4.4c-0.3,12.4-0.7,24.9-1,37.3c-0.2,8.7-1.3,9.8-10,10C289.3,461.4,277.5,462,265,462.6z
		"/>
	<path id="L.Ab1" class="st1" d="M265,428.8c-0.4-2-0.9-3.7-0.9-5.4c-0.1-9-0.2-18,0.1-27c0.1-1.9,1.5-4.5,3.1-5.4
		c11.5-5.9,21.3-14.1,30.7-22.7c2.6-2.4,4-6.1,6.1-9.4c4.1,2.7,6.3,6.1,6.1,11.4c-0.4,8.7,0,17.4-0.2,26c0,1.6-1.2,3.6-2.5,4.6
		c-3.3,2.4-7,4.2-10.3,6.5c-9.7,6.6-19.3,13.3-29,19.9C267.4,427.9,266.6,428.1,265,428.8z"/>
	<path id="Lower_Ab_L" class="st1" d="M312.7,644.9c-17.6-16-30.7-35.5-39.7-57.5c-10-24.7-12-50.5-7.3-77
		c6.8,1.2,13.3,2.8,19.8,3.4c6.5,0.6,13.1,0.1,19.3,0.1c2.5,2.3,5.2,4.6,7.6,7.2c0.9,0.9,1.1,2.5,1.5,3.9c0.1,0.5,0,1,0,1.5
		c0,39.1,0,78.2,0,117.4C313.6,644.3,313.1,644.6,312.7,644.9z"/>
</g>
<path d="M347,210c4.4,4.5,9.3,8.6,13.1,13.6c6.6,8.8,16,12.4,26.1,14.2c9.7,1.8,19.8,1.3,29.4,3.4c10.3,2.2,21.1,5.2,28,14
	c6.7,8.5,10.8,18.5,13.5,29.1c3.8,14.9,2.7,30.2,3.1,45.3c0.2,6.7,1.2,13.4,2.2,20c3.2,19.7,10.6,38.2,16.5,57.1
	c0.8,2.5,1,5.1,1.1,7.7c0.2,6.2,0.1,12.3,0.1,18.9c0.8-0.3,1.3-0.4,1.7-0.7c4.9-3.8,5.9-4,8.6,1.2c7,13.4,14.9,26.5,20.1,40.6
	c6.1,16.4,9.4,33.8,14.8,50.4c4.1,12.6,9.6,24.8,14.4,37.2c2.6,6.8,5.1,13.7,7.7,20.6c0.3,0.8,1.1,1.5,1.7,2.3c0,1.3,0,2.7,0,4
	c-8.4-0.1-15,4.1-21.3,8.8c-2.6,2-5.1,4.1-7.7,6.3c-3.7-7.8-7-15.7-11.1-23.1c-7.7-14-16-27.7-23.9-41.6
	c-6.8-11.9-13.3-23.9-19.8-35.9c-3-5.4-5-11.6-8.8-16.4c-6.2-7.7-4.4-14.7-0.3-22.3c1.9-3.6,3.4-7.4,4.7-11.3
	c2.8-7.9,2.4-8.9-4.6-13.3c-3,5-6.1,10.1-9.7,16.1c-11.9-28.1-23.2-54.9-34.5-81.7c-0.6,0.1-1.1,0.3-1.7,0.4
	c-2.4,14.2-5,28.4-7.2,42.7c-3.1,19.3-3.3,38.9-3,58.4c0,2.6,0.4,5.3,1.4,7.6c5,11.7,10.4,23.2,15.4,34.9c1.7,4,3.3,8.3,3.9,12.5
	c0.3,2.8-0.9,6-2.3,8.6c-1.8,3.4-3.3,5.9-2.1,10.6c1.7,6.4,1.6,13.7,0.4,20.3c-3,16.4-1.8,32.2,2.7,48.1c2.8,9.8,5.9,19.6,8.2,29.5
	c1.5,6.5,2,13.3,2.3,20c1.2,20.1,2.9,40.3,2.8,60.4c-0.1,16.2-2.4,32.5-3.7,48.7c-0.5,6.8-0.7,13.5-1.1,20.3
	c-0.7,11.9-0.5,23.9-2.2,35.6c-1.8,12.2-5.3,24.1-8,36.2c-1.7,7.5-3.1,15-4.8,22.4c-0.2,1.1-1,2.1-1.7,3.5
	c-9.9-17.4-12.4-35.7-10.9-54.4c0.8-10.6,3.5-21.1,2.7-31.9c-0.1-1.4,0-2.9,0-5.6c-3.6,5.7-4.8,10.6-3.6,15.9
	c1.5,7,0.4,10.1-5.7,14.3c-0.9-5.8-1.8-11.5-2.6-17.1c-0.2,0-0.5,0-0.7,0c-1.8,10-3.6,20.1-5.4,30.1c-0.3-0.1-0.6-0.2-0.9-0.3
	c-2.4-16.4-4.8-32.8-7.2-49.2c-0.3-0.1-0.7-0.1-1-0.2c-0.6,2.7-1.6,5.4-1.7,8.1c-0.5,12.6-0.2,25.2-1.2,37.8
	c-0.8,10.4-2.9,20.7-5,30.9c-0.4,1.9-3.1,4.3-5.2,4.8c-3.3,0.7-7.7,1.5-9.2-3c-2.7-8.1-5.6-16.3-7.3-24.7
	c-3.7-18.2-5.6-36.6-6.3-55.2c-0.7-17.3-3.6-34.4-7.4-51.4c-2.9-12.9-4.5-26.1-6.3-39.1c-1-7.3-1.4-14.7-2.1-22.1
	c-0.1-1.4-0.2-3.5-1.1-4.2c-4.7-3.6-2.2-9-3.3-13.4c-0.5-1.9,1.8-4.7,3.2-6.7c6.4-8.9,13.2-17.5,19.3-26.5
	c11.3-16.6,22.2-33.4,33.1-50.2c0.7-1.1,0.8-2.8,0.7-4.2c-0.6-16.5-1.3-33.1-2-49.6c-0.1-2.1-0.8-4.2-0.9-6.3
	c-0.7-7.9,0-15.5,5.6-22.4c-5.8-0.6-7.2-3.8-6.7-8.6c0.8-6.6-1.5-13.6,1-18.3c-1.3-4.2-2.3-7-2.9-9.9c-0.6-2.7-0.8-5.5-1-8.3
	c-0.6-8.2-0.6-8.2,6.7-14.8c-3.3-4.4-6.3-8.9-5.8-14.9c0.4-5.4-0.9-11.2,6.2-13.7c-4.3-3.5-8.9-6.2-6.2-12.6
	c0.7-1.6-0.2-3.8-0.4-5.7c5-0.9,10.2-2.2,15.5-2.6c9.9-0.7,16-6.3,20.3-14.7c0.8-1.6,1.9-3.1,3.2-4.3c0.6-0.5,2.1-0.1,3.3-0.1
	c0-19.6,0-40,0-60.7c-11.8-2.9-22.5-6.3-33.4-8.1c-14.5-2.3-28.5,0.4-39.6,10.6c-7,6.5-9.9,15.7-10.6,25.1
	c-0.5,6.6-0.5,13.4,0.6,19.8c1.3,8,8.4,12.3,14.2,16.8c7.2,5.6,15.2,10.1,22.8,15.2c1.1,0.8,2.2,2.5,2.2,3.8c0.2,10.5,0.2,21,0,31.5
	c0,1.9-0.8,3.7-1.3,5.8c-7.1-0.5-11.7-5.3-16.8-8.8c-10.4-7.1-20.8-14.4-31.3-21.7c-0.4-7.6-1.8-15.9-1.1-24
	c0.5-6.1-1.6-13.6,4.2-17c-0.9-6.1-2-11.4-2.4-16.8c-0.9-11.8-1.6-23.7-1.9-35.6c-0.1-4.5,0.9-9.1,1.8-13.5
	c1.8-8.2,3.8-16.4,5.9-24.6c1.4-5.5,3.3-10.9,9.4-14.5c-4.3,0-7.6,0-11.6,0c2.5-4.5,4.7-9.1,7.6-13.2c6.7-9.4,9.8-20.1,11.6-31.2
	C343.7,210,345.3,210,347,210z M395.3,829.5c0.5,0.1,0.9,0.1,1.4,0.2c0.3-2.9,1.3-5.9,0.7-8.5c-2.2-9.9,3.1-17.7,6.8-26
	c0.7,9.7,0.8,19.2,0.7,28.8c0,2.6-0.6,5.2-1,7.8c-0.6,4.2-2.1,8.4-1.8,12.6c0.6,10.3,1.5,20.6,3.1,30.8c0.7,4.8,3.3,9.4,5,14.1
	c0.5-0.1,1-0.3,1.4-0.4c1-5.4,1.9-10.8,3.1-16.2c3-13.3,6.8-26.5,9-40c1.8-10.9,1.6-22,2.2-33.1c0.4-7.8,0.5-15.5,1.1-23.3
	c1.2-15.6,3.1-31.1,3.8-46.7c0.9-21.7-0.7-43.2-3.9-64.7c-1.6-10.5-2.5-21.2-5.4-31.3c-3.8-13.1-7.8-26-9-40.1
	c-0.7,1.1-1.3,1.7-1.6,2.4c-5.2,12.4-10.7,24.8-15.6,37.3c-11.6,29-23.4,57.9-34.2,87.2c-6.5,17.7-11.7,35.8-16.7,54
	c-1.7,6.4-3.1,12.9-2.8,20c0.8,18.6,2.7,37,6.4,55.2c1.7,8.1,4.5,15.9,6.8,23.9c1,3.5,4,4.1,6.7,3.3c1.8-0.5,4-2.5,4.3-4.2
	c2-9.7,4.1-19.5,4.9-29.4c1-11.7,0.6-23.5,1.2-35.3c0.4-7.3,1.6-14.6,2.4-21.8c0.6-0.1,1.2-0.2,1.7-0.3c3.5,15.6,5.9,31.4,8.3,48.4
	c4.1-12.5,2.9-24.2,1.7-36.1C390.4,808.3,394.1,818.5,395.3,829.5z M340.9,778.4c1.4-5.1,2.4-9.5,3.8-13.7
	c6.3-19.8,12.2-39.8,19.4-59.3c9.1-24.7,19.7-48.9,28.8-73.6c7.4-20.2,20.6-38.4,21.6-60.9c0.3-7.1,0-14.2,0-21.4
	c-0.6-0.2-1.1-0.5-1.7-0.7c-7.2,6.5-14,13.5-21.7,19.3c-8.1,6.1-14.3,13.8-19.1,22.3c-13.6,24.6-30.3,46.9-47.1,69.1
	c-3.6,4.8-4.1,12-1,17c0.8,1.4,1.8,2.9,1.9,4.4c0.8,7.8,1,15.8,2.2,23.6c1.9,13.2,4.2,26.4,6.5,39.6
	C336.5,755.2,338.7,766.3,340.9,778.4z M416.1,305c-0.5,0.2-1,0.3-1.5,0.5c-0.5,3.6-1.5,7.2-1.5,10.8c0,8.3,0.3,16.5,1,24.8
	c0.5,6.1,0.6,12.7,3,18.2c5.3,12.4,11.7,24.4,18,36.4c3.4,6.5,7.4,12.6,11.1,18.8c2.9,4.8,6.5,9.4,8.7,14.6s3.4,10.6,8.7,13.9
	c3.9,2.5,7.3,5.8,11.3,9.1c0.2-2.9,0.1-5,0.6-6.9c4.2-15.6,4.2-31-1.3-46.4c-2.8-7.8-4.2-16.1-7.2-23.7c-3.7-9.1-4.6-19.4-11.7-27.1
	c-3.3-3.6-6.3-7.6-9.6-11.2C435.7,326.3,425.9,315.7,416.1,305z M411.4,308.3c2.5-6.8,4.7-12.9,6.9-19c2.1-5.8-0.1-11.1-4.5-12.9
	c-5-2-10.2-3.4-15.1-5.4c-9.2-3.7-18.6-7-27.4-11.5c-10.9-5.6-22.1-6-33.6-3.5c-2.9,0.7-6.1,3.7-7.6,6.5c-3.6,6.6-4.6,14.1-6.6,21.2
	c-3.3,12-3.8,23.8-3.5,35.8c0.2,8.9,0.4,17.9,1.1,26.8c0.3,3.5,1.7,6.9,2.7,10.4c0.7-0.1,1.5-0.1,2.2-0.2c0-5.4-0.3-10.7,0-16.1
	c1.1-19.8,8.9-32.3,28-38.6c12.1-4,24.1-2,36,0.7C397.1,304.2,404.1,306.3,411.4,308.3z M459.7,348.4c-0.5-5.2-1.5-11.2-1.6-17.3
	c-0.3-15.3,0.8-30.7-3.1-45.8c-2.7-10.5-6.9-20.5-13.5-29.1c-6.1-7.9-16.1-9.8-25-12.6c-3.3-1-7.7,1.5-11.6,2.5
	c-0.9,0.2-1.9,0.6-2.8,1c-8.8,3.5-17.6,7-27.4,10.9c12.5,5.2,24.2,10.6,36.3,14.8c9.5,3.3,12.9,7.8,9.3,17.3
	c-2.9,7.8-2.9,14,3.4,20.4C436.1,322.9,448,336,459.7,348.4z M378.5,576.1c3.9-3.6,7.6-7.1,11.3-10.4c5.3-4.7,10.2-10,16.1-13.8
	c6.2-4.1,8.6-10.6,12.6-16c0.8-1.1,0.6-3.3,0.1-4.7c-3-8.4-6.1-16.8-9.5-25c-3.7-8.9-7.7-17.7-11.2-25.6c-4.2,4.3-9.2,8.6-13.2,13.7
	c-6.5,8.2-11.3,17.4-9.5,28.5c0.3,2.3,0.9,4.5,1,6.8c0.4,10.2,0.6,20.5,1.1,30.8C377.3,565.6,378,570.9,378.5,576.1z M364.7,429.4
	c0.6-2.2,1.2-3.6,1.2-4.9c0.1-9.7,0.2-19.3-0.1-29c0-1.5-1.3-3.5-2.6-4.3c-3.5-2.4-7.5-3.9-11-6.4c-10.1-7.3-20.6-14.2-26.4-25.9
	c-4.4,3-6.4,6.6-6.1,11.9c0.4,8,0.3,16,0,24c-0.1,3.4,1.1,5.3,3.8,7.1c7.2,4.8,14.2,9.8,21.4,14.6
	C351.4,420.8,357.9,424.9,364.7,429.4z M326.3,252c5.3,0,9.5-0.2,13.7,0c8.7,0.5,17.5,0.5,26,2.3c4.8,1,8.7,1.1,13-0.8
	c2.4-1,4.9-1.7,7.3-2.7c6.4-2.6,12.8-5.3,19.7-8.2c-7.6-1-14.3-1.5-20.8-2.9c-11-2.3-21-6.4-27.7-16.6c-3-4.6-7.9-8.1-13-13.1
	C341.6,226.5,335.4,239.4,326.3,252z M478.7,445.1c-0.6,0.2-1.3,0.3-1.9,0.5c0.4,4.2-0.3,9,1.5,12.6c5.9,12.1,12.9,23.8,19.1,35.8
	c6.8,13.2,13.1,26.7,19.7,40.1c8.5,17.1,17,34.1,25.6,51.1c0.5,1.1,2.2,1.6,4.4,3.1c-5.5-14.7-10.7-27.8-15.4-41.1
	c-4.5-12.8-8.6-25.7-12.9-38.6c-3.4-10.4-6.6-20.6-14.5-29c-6.3-6.7-10.9-15-16.4-22.5C485,452.8,481.8,449,478.7,445.1z M533,591.2
	c-2.3-14.2-63.3-125.5-70.5-135.4c-2.3,3.1-1.1,5.6,0.6,9c5.1,10.5,9.4,21.4,13.8,32.2c2,4.8,3.2,10,5.5,14.5
	c4.2,8.3,9,16.2,13.6,24.3c3.9,6.9,8.1,13.6,11.7,20.7c4.1,7.9,7.9,16,11.5,24.1c2.3,5.2,3.8,10.7,5.8,16.3
	C528.1,594.7,530.5,592.9,533,591.2z M464.1,446.4c0,2.7-0.6,4.9,0.1,6.5c2.6,5.5,5.5,10.9,8.5,16.2c5.8,10.3,11.9,20.5,17.7,30.8
	c4.8,8.5,9.4,17.2,13.9,25.9c6.7,13.1,13.2,26.2,19.8,39.4c4,8.1,7.9,16.3,12,24.7c1.4-0.6,3.2-1.3,5.2-2.2
	c-4.9-10.6-9.4-20.8-14.3-30.8c-4.4-9.1-9.3-17.9-13.9-26.9c-11-21.5-21.9-43.1-33-64.6C476.3,458.2,471.6,451.7,464.1,446.4z
	 M399.6,419.8c-1.3,1.4-1.9,2.2-2.6,2.9c-5.4,5.3-10.9,10.6-16.2,16c-4,4-11.3,5.6-9.9,13.7c0.7,4.2,0.6,8.5,1.1,12.7
	c0.3,3.1,3.8,4.9,6.1,3c3.4-2.7,6.8-5.5,9.7-8.7C397.9,448.5,401,435.3,399.6,419.8z M398,449.3c-1.6,2-2.3,2.8-3,3.7
	c-3.9,4.7-7,10.7-11.9,13.9c-8,5.3-10.5,11.8-9.2,20.7c0.2,1.6-0.3,3.4,0.1,5c0.4,1.5,1.4,3.8,2.4,4c1.6,0.2,3.6-0.7,5-1.8
	c2-1.5,3.6-3.6,5.5-5.3c5.7-5.3,9.4-11.9,10.7-19.3C398.9,463.9,398,457.3,398,449.3z M397.2,400.9c-1.2,0.5-2.8,0.8-4.1,1.6
	c-5,3.1-9.9,6.2-14.7,9.5c-8.7,6-8.9,19.1-0.2,26.1C389.7,428.7,401.9,419.7,397.2,400.9z M514.8,584.9c4-8.9-2.3-15.4-6-22.4
	c-4.7-9.1-10.1-17.8-14.9-26.8c-3.2-6-5.9-12.3-9.3-18.2c-2.2-3.8-5.9-5.5-11-3.9c6.9,12.1,13.6,24.1,20.4,35.9
	C500.9,561.3,507.9,573,514.8,584.9z M460.9,462.7c-7.5,8.8-7.7,13.7-3.1,21.9c3.7,6.5,7.1,13.2,10.1,20c2.9,6.6,3.7,7.4,11.9,5.5
	C473.6,494.5,467.5,479.1,460.9,462.7z M486.6,432.3c-6.5,3.5-8.5,8.4-5.4,12.4c6,7.7,12,15.5,17.8,23.3c3.4,4.6,6.7,9.3,10.9,15.1
	C509.5,469.8,495.9,449.3,486.6,432.3z M414.4,361c-1.8,9,0.7,17.1,4.5,25.2c6.1,12.9,11.6,26,17.7,39.7c0.9-12.9,1.6-24.8-7.5-34.5
	c-0.4-0.5-0.6-1.2-0.9-1.7C423.7,380.1,419.1,370.7,414.4,361z M399.5,388.5c-8.7,2.1-17.8,4.4-27.6,6.8c0,1.3,0.7,3.8-0.1,5.5
	c-1.6,3.4,1,4.7,2.7,5.9c1.3,0.8,3.7,0.8,5.2,0.2C389.3,403.6,394.6,395.7,399.5,388.5z M454.1,435.1c0.5-0.4,1-0.8,1.4-1.2
	c-4.8-7.9-9.6-15.8-14.4-23.7c-0.7,5.4-4.6,10.3,0.4,15.4C445.4,429.5,449,433.1,454.1,435.1z M401.8,410c2.1-11,4.1-22.2,6.4-34.3
	c-1.8,2.4-3.3,3.7-4.1,5.5c-2.4,5.6-4.4,11.3-6.5,16.8C402.7,400,398.2,406.6,401.8,410z M439.8,432.2c-0.3,0.2-0.6,0.4-0.9,0.6
	c2.5,6.3,5.1,12.5,7.6,18.9c3.2-3,3.3-5.7,0.9-8.9C444.8,439.4,442.3,435.8,439.8,432.2z M439.5,428.1c4.2,5.7,7.8,10.7,11.9,16.3
	c1-2.5,1.9-4.6,2.5-6.1C449,434.9,444.7,431.8,439.5,428.1z M519.5,600.2c0.9-0.2,1.7-0.4,2.6-0.6c1.6-5.7-3-9.8-4.2-14.8
	c-0.5,0.1-1,0.2-1.5,0.3C517.4,590.1,518.4,595.2,519.5,600.2z"/>
<path d="M81,585c2.7-6.6,5.3-13.1,8-19.7c4-9.8,8.2-19.4,11.9-29.3c2.5-6.7,4-13.7,6.1-20.5c5-16.6,9.1-33.6,15.5-49.7
	c4.7-11.9,12.2-22.7,18.7-33.8c0.5-0.9,2.9-1.2,4.2-1c1.5,0.3,2.7,1.5,4.6,2.7c0-2.8,0.2-5.3,0-7.7c-1.4-13,2.9-24.8,7.2-36.8
	c4-11.2,7.7-22.5,10-34.1c3.4-17.3,2.4-34.9,3.2-52.5c0.8-18.1,5.7-35.7,18.3-49.5c6.6-7.2,16.2-9.8,25.4-11.9
	c7.2-1.7,15.1-0.2,22.3-1.8c12.7-2.7,26.1-4.4,34.3-17.2c3-4.8,8.2-8.2,12.4-12.3c1.7,0,3.3,0,5,0c1.9,6.7,3,13.7,5.8,20.1
	c3.4,7.8,8.2,15,12.4,22.5c0.3,0.5,0.6,1.1,0.9,1.9c-3.6,0-7,0-10.8,0c7.2,5.4,9.1,13.6,11,21.5c2.4,9.9,4.8,20.1,5.4,30.2
	c0.6,10.8-1,21.7-1.6,32.6c-0.3,4.3-0.5,8.5-1.1,12.8c-0.4,2.5-1.5,4.8-1.3,6.7c1.1,3.5,3.1,7,3.2,10.5c0.4,10.8,0.2,21.7,0.2,32.9
	c-17.6,7.3-30.3,22.6-48.7,30.6c-0.6-4-1.2-6.7-1.3-9.4c-0.1-9.3-0.2-18.7,0.1-28c0-1.7,1.2-4.3,2.6-5c12-6,22.4-14.2,32-23.4
	c2.7-2.6,4.9-7.1,5-10.8c0.2-8.8-0.3-17.8-1.9-26.5c-2.3-13-14.9-23.8-28-26.2c-13-2.4-25.4,0.2-37.8,3.5c-4.9,1.3-9.7,2.6-15.8,4.1
	c0,20.2,0,40.8,0,60.5c1.1,0,2.7-0.5,3.2,0.1c1.9,2.2,4,4.5,5.2,7.1c4.2,9.5,12.9,11.2,21.7,12.7c4,0.7,8.1,1,12.3,1.5
	c-2.2,5.9,4,14.6-6.5,17.6c8.2,9.7,8.1,20.2-0.3,29.8c6.9,2.9,8.7,8.9,6.8,15c-1.7,5.3,2.7,12.4-3.2,15.2c0.2,9.2,0.5,17.5,0.2,25.8
	c-0.1,1.4-3.2,2.6-5.6,4.4c5.3,6.6,5.4,15.1,4.9,23.7c-1,17.1-2,34.3-3,51.4c-0.2,3.5,0.7,6.4,2.8,9.5c5.8,8.6,10.5,18.1,16.4,26.6
	c11.1,16,22.7,31.6,34.1,47.3c3.6,4.9,3.8,13.8,0.6,18.9c-1.1,1.7-1.8,3.9-1.8,6c-0.7,17.9-3.9,35.4-7.7,52.9
	c-2.8,13.1-4.7,26.4-6.3,39.7c-1.3,10.5-0.9,21.1-2.2,31.6c-2,16.4-4.5,32.7-7.4,48.9c-1.1,6.2-3.6,12.1-5.5,18.1
	c-1.6,5.3-6.1,4.7-9.7,3.9c-2.1-0.5-4.7-3.1-5.3-5.2c-1.8-7.4-3.4-15-4-22.6c-1.1-15.2-1.4-30.4-2.2-45.6c-0.1-2.6-1-5.2-1.5-7.9
	c-0.4,0-0.8,0-1.2,0.1c-2.4,16.3-4.8,32.7-7.3,50.1c-3.7-10.4-3.4-21-6.7-31.9c-1,6.7-1.9,12.3-2.7,17.8c-5.5-2.5-7.6-7.1-6-13.5
	c1.3-5.4,0.3-10.6-4.3-15c1,10.6,2.3,21.2,2.8,31.8c0.5,9.3,0.7,18.8-0.2,28.1c-1.1,10.5-3.5,20.9-10.1,29.9
	c-0.4-0.6-1.3-1.4-1.5-2.3c-3.1-14.7-5.4-29.5-9.3-43.9c-4.8-17.6-4.6-35.4-5.8-53.3c-1-14.3-2.1-28.6-3-42.9
	c-0.8-13.9-2.2-27.8-1.8-41.6c0.4-15.4,2.1-30.8,3.8-46.2c1.2-10.5,2.9-21,5.1-31.4c1.9-8.9,5.5-17.4,7.2-26.3
	c1.7-8.8,2.5-17.7,1-26.9c-1.4-9.3-2.1-19-0.9-28.2c0.7-5.6,0.2-9.3-3.1-13.6c-1.4-1.8-1.7-5.6-0.9-7.9c3.7-10.6,7.9-21,12.1-31.4
	c2-5,4.6-9.7,6.6-14.7c1-2.5,1.7-5.3,1.7-8c0.2-9.2,0.7-18.4-0.1-27.5c-1.1-13.9-2.9-27.7-4.8-41.5c-1.5-10.7-3.5-21.4-5.3-32.1
	c-0.6-0.1-1.1-0.3-1.7-0.4c-11.3,26.7-22.5,53.4-34.4,81.5c-3.5-5.6-6.6-10.6-9.7-15.7c-6.6,3.1-7.5,4.7-4.8,12.1
	c2.3,6.4,5,12.8,7.9,18.9c1.6,3.4,1.9,6.3,0,9.5c-3.6,6.4-7.2,12.8-10.7,19.3c-5.7,10.4-11.3,20.9-17.2,31.2
	c-8.5,15-17.5,29.9-25.8,45c-3.7,6.6-6.3,13.9-9.5,20.8c-1,2.2-2.3,4.2-3.7,6.7c-8.7-6.8-16.9-14.9-29.1-15.1
	C81,587.7,81,586.3,81,585z M253.9,785.9c0.7,0.1,1.5,0.3,2.2,0.4c1,14.9,1.9,29.9,3,44.8c0.9,12.1,1.8,24.3,3.1,36.4
	c0.8,7.6,3.1,9.6,8.1,9.5s5.9-4.2,6.6-7.4c3-13.7,5.6-27.4,8.1-41.2c1.2-6.4,2.3-12.9,2.9-19.4c0.6-6.9,2.1-14.2,0.6-20.6
	c-4.8-19.9-10.2-39.7-16.5-59.2c-5.4-16.7-12.2-32.9-18.5-49.3c-4.4-11.4-9-22.7-13.5-34c-5-12.5-9.9-25.1-15.1-37.6
	c-2.1-5-4.7-9.8-7.2-15c-0.9,5.5-1.4,10.4-2.6,15.1c-2.1,8.7-5.1,17.2-7,25.9c-2.2,10.4-3.9,20.8-5.1,31.4
	c-1.7,14.5-3.2,29.1-3.9,43.7c-0.5,10.9,0.5,21.9,0.9,32.8c0.2,6.6,0.5,13.2,1,19.8c1.2,16.1,3.2,32.1,3.8,48.2
	c0.6,15,2.7,29.6,6.1,44.2c2.7,11.5,5.2,23,7.9,35.1c0.9-1.3,1.6-2,1.8-2.9c2.2-8.1,4.8-16.2,6.1-24.5c1.2-7.3,2-15,0.8-22.2
	c-1.5-9.1-3-18.1-2.6-27.4c0.2-4.8,0-9.7,0.1-14.5c0-1,0.4-2,0.5-3c3.7,8.7,9.8,16.6,6.7,26.9c-0.7,2.2,0.9,5.1,1.6,8.2
	c2.9-11.1,5.6-21.1,8.4-31.2c0.1-0.5,1.6-0.6,2.9-1.1c-3.4,11.4-2.9,30.8,0.5,34.8C248.1,817.1,250,801.3,253.9,785.9z M216.5,548.6
	c-0.7,1.9-1.5,3-1.5,4c0.7,10.8,0.2,22,2.8,32.4c3,11.7,8.8,22.7,13.5,33.9c6.5,15.5,13.2,30.8,19.5,46.4c6,14.9,11.6,30,16.9,45.2
	c5.7,16.3,10.9,32.7,16.1,49.1c1.9,5.9,3.2,12,4.8,18c1.3-2.8,1.8-5.5,2.2-8.2c1.9-11.6,3.4-23.3,5.7-34.8
	c3.5-17.4,6.9-34.7,7.3-52.5c0-1.9,0.8-3.9,1.7-5.5c3.2-5.3,3-12.3-0.6-17.1c-6.5-8.8-13.1-17.5-19.4-26.5
	c-7.8-11.2-15.9-22.4-22.9-34.1c-5.8-9.7-11.3-19.6-19.7-27.4c-3-2.8-6.1-5.5-9.2-8.2C228.4,558.7,222.8,553.9,216.5,548.6z
	 M154.2,451.3c0.5,0.2,1,0.4,1.5,0.6c3.6-3,7.2-6,10.8-8.9c3.6-2.8,6.4-5.8,7.7-10.6c1.2-4.9,3.8-9.6,6.3-14.2
	c1.3-2.4,4.1-4,5.4-6.4c4.8-8.3,9.2-16.8,13.9-25.2c9.5-16.8,18.4-33.7,16.3-54.1c-0.5-4.4,0.3-8.9,0.3-13.4c0-4.6-0.3-9.1-0.5-13.7
	c-0.6-0.1-1.2-0.3-1.7-0.4c-7.4,7.8-14.8,15.5-22,23.3c-5.6,6-11.2,12.1-16.4,18.5c-2.8,3.5-5.1,7.5-6.6,11.7
	c-4.1,11.6-7.9,23.4-11.4,35.2c-2.2,7.3-5.1,14.7-5.4,22.1C151.9,427.7,153.5,439.5,154.2,451.3z M304.4,356.4
	c0.6,0.1,1.2,0.2,1.8,0.3c0.9-3.6,2.5-7.1,2.7-10.7c0.6-11.7,0.7-23.5,1.1-35.3c0.6-15.9-3.8-30.8-8.5-45.6
	c-2.5-7.8-6.9-10.2-15.2-10.2c-1.3,0-2.7,0.2-4-0.1c-7.4-1.9-14.3,0.6-20.8,3.1c-14.5,5.6-28.7,12-43.2,17.8
	c-6.5,2.6-8.9,6.6-6.7,13.3c2.1,6.3,4.6,12.5,7,19c4.8-1.2,9.5-2.2,14.1-3.5c13.2-3.8,26.5-7,40.2-3.5c13.1,3.3,23.4,10.2,28.2,23.9
	c3,8.5,2.9,17.1,2.9,25.8C304,352.7,304.2,354.6,304.4,356.4z M254.5,258.6c0-0.5,0-1,0-1.4c-2.9-1-5.9-1.8-8.8-2.9
	c-8.9-3.5-17.8-7.3-26.7-10.7c-1.7-0.7-4-0.7-5.8-0.1c-4.9,1.6-9.9,3.3-14.5,5.7c-4,2.1-8.6,4.4-11,8c-9.9,14.4-14.6,30.8-15.7,48.2
	c-0.9,13.5,2.1,27.2-1.9,40.6c-0.3,1,0.2,2.3,0.2,3.1c8.2-9.2,16.2-18.3,24.4-27.3c3.6-3.9,7.7-7.4,11.2-11.4
	c3.5-3.8,7.7-7.6,5.9-13.7c-0.8-2.8-1.9-5.5-2.8-8.3c-2.3-7.1,1.4-13.1,8.3-15.6C229.8,268.5,242.1,263.4,254.5,258.6z M251.8,575.8
	c0.7-13,1.5-26.6,2.2-40.2c0.2-3-0.6-6.2,0.2-9c3.4-12.4-1.2-22.6-8.3-32c-3-3.9-7-7.1-10.3-10.7c-1.2-1.3-1.8-3.1-2.8-4.9
	c-0.9,2.4-1.6,4.3-2.3,6c-6.2,15.2-12.5,30.3-18.6,45.6c-0.6,1.4-1.1,3.7-0.5,4.7c3.5,5.3,6.7,11,11.3,15.3
	C231.9,559.5,242,567.5,251.8,575.8z M265,428.8c1.6-0.7,2.4-0.9,3.1-1.4c9.7-6.6,19.3-13.3,29-19.9c3.4-2.3,7.1-4.1,10.3-6.5
	c1.3-1,2.5-3,2.5-4.6c0.2-8.7-0.2-17.4,0.2-26c0.2-5.3-2-8.7-6.1-11.4c-2.1,3.3-3.5,7-6.1,9.4c-9.4,8.6-19.2,16.8-30.7,22.7
	c-1.6,0.8-3,3.5-3.1,5.4c-0.3,9-0.2,18-0.1,27C264.1,425.2,264.6,426.9,265,428.8z M285.9,212.1c-0.5-0.2-1.1-0.5-1.6-0.7
	c-3.7,3.7-8.1,6.9-11,11.1c-6.4,9.1-14.7,14.7-25.5,16.6c-7.6,1.4-15.1,2.6-23.7,4c10.1,3.8,19.5,7.4,28.9,10.9
	c2.1,0.8,4.7,2.3,6.4,1.7c12.6-5.1,25.7-3.4,38.6-3.7c1.7,0,3.3,0,5.8,0C294.5,239.2,288.4,226.5,285.9,212.1z M152.3,444.1
	c-2,2.3-3.2,3.6-4.3,5c-4.4,5.9-8.9,11.7-13.2,17.7c-5.9,8.2-12.5,16-17.3,24.9c-4,7.3-5.8,15.8-8.4,23.8c-4,12-7.6,24-11.9,35.9
	S88,575,83.3,586.7c0.3,0.3,0.6,0.6,0.9,0.9c1.2-1,2.8-1.7,3.4-2.9c5.7-11.5,11.2-23.1,16.9-34.6c2.9-5.9,6.2-11.5,9.2-17.3
	c12.6-24.5,25.1-49.1,37.8-73.6C153.8,454.5,153.1,450,152.3,444.1z M167.1,455.3c-24.9,44.5-50.1,89-70.9,135.4
	c3.5,2.4,6,4.2,8.7,6c0.4-0.9,0.8-1.6,1.1-2.3c2.9-8.2,5.1-16.8,8.9-24.7c4.7-9.8,10.8-18.8,16.1-28.3c3.6-6.5,6.3-13.6,10.2-19.9
	c5.7-9.6,10.3-19.5,14.1-30c3.3-9.2,7.3-18.1,11.7-26.7C168.6,461.5,169.9,458.9,167.1,455.3z M165.1,445.7c-3.7,4-7.3,6.7-9.5,10.4
	c-7.2,12.6-14,25.3-20.6,38.3c-7.6,14.8-14.6,29.9-22.1,44.9c-4.9,9.8-10.1,19.4-15,29.1c-3.2,6.3-6.1,12.7-9.4,19.5
	c2.4,0.9,4.1,1.5,5.2,1.9c6.5-13.1,12.8-26,19.3-38.7c7.2-14.1,14.6-28.1,22-42.1c5.6-10.7,11.3-21.3,17-31.9
	c3.6-6.6,7-13.2,11.1-19.4C165.3,454.2,166.9,451.2,165.1,445.7z M230,419.6c0.4,8.1,0.7,15,1,21.8c0,0.5,0.1,1,0.4,1.4
	c5.7,8.8,9.6,19,19.4,24.5c1.3,0.7,3.4,1.3,4.6,0.8c1.2-0.6,2.2-2.5,2.5-4c0.6-3.2,0.8-6.5,1.1-9.8c0.4-4.7,0.2-9.1-4.9-11.8
	c-3.1-1.6-6.3-3.5-8.8-5.9C240.2,431.5,235.7,425.9,230,419.6z M232.9,450.4c-0.3,0.1-0.6,0.2-0.9,0.3c0,5.1-0.2,10.2,0.1,15.2
	c0.1,2.8,1.1,5.6,1.6,8.4c1.9,9.6,9.9,14.6,15.6,21.3c0.8,0.9,3.1,1.3,4.3,0.8c1.1-0.4,2.2-2.3,2.2-3.6c0.3-5,0.5-10-0.1-14.9
	c-0.2-2.2-1.9-4.5-3.6-6.2c-4-4-8.6-7.5-12.4-11.6C237.1,457.3,235.2,453.7,232.9,450.4z M252,438.1c4.9-4.5,6.2-8.9,6.1-17.2
	c-0.1-5-3.4-7.3-7-9.5c-0.7-0.4-1.1-1.3-1.8-1.7c-5.4-3.2-10.8-6.3-16.3-9.5C228,419.2,239.9,428.5,252,438.1z M115.2,585.1
	c13.8-23.9,27.5-47.6,41.3-71.5c-5.5-1.4-9.1,0.3-11.2,4c-3.4,5.9-6,12.2-9.3,18.2c-4.9,9-10.2,17.7-14.9,26.8
	C117.4,569.5,111.1,576,115.2,585.1z M169.7,463.7c-8.7,15-13.2,31.1-19.3,46.6c6.2,1.7,9.3,0.3,11.5-4.9c3-7.3,6.7-14.5,10.6-21.4
	C176.8,476.7,176.3,470.7,169.7,463.7z M143,432c-7.5,16.8-19.9,30.9-22.4,49.9c1.7-1.1,2.9-2.7,4-4.3c7.4-10.3,14.6-20.8,22.2-30.9
	C151.7,440.2,150.9,436.3,143,432z M193.4,425.8c3.4-7.7,6.5-14.9,9.6-21.9c3.2-7.1,6.3-14.3,9.8-21.3c3.5-6.9,3.6-14.1,2.8-22.2
	c-0.8,1.2-1.3,1.8-1.6,2.5c-4.5,9.6-7.6,20.1-13.7,28.5C192.9,401.9,192.2,413,193.4,425.8z M230.4,388.6c0.6,0.9,1.6,2.3,2.6,3.7
	c4.5,6.2,9.6,11.6,16.8,14.7c2.9,1.3,4.7,1,7-1.3c3.7-3.8-0.1-7.6,0.8-10.5C248.3,392.9,239.2,390.7,230.4,388.6z M190.6,410.7
	c-0.6-0.2-1.3-0.4-1.9-0.6c-4.7,8-9.5,15.9-14.2,23.9c0.5,0.3,1,0.6,1.4,1c6.1-1.8,10.8-6,13.7-11.1
	C191.6,420.5,190.4,415.2,190.6,410.7z M232.7,397.8c-3.4-7.2-6.7-14.2-9.9-21.2c-0.3,0.1-0.5,0.3-0.8,0.4c2.1,11,4.1,21.9,6.2,32.8
	C231.7,406.4,227.5,400.1,232.7,397.8z M183.4,452.2c2.7-6.9,5.2-13.2,7.7-19.5c-0.3-0.1-0.7-0.3-1-0.4c-3.3,4.7-6.6,9.5-9.9,14.1
	C181.2,448.4,182.1,450,183.4,452.2z M178.7,444.4c4-5.5,7.7-10.6,11.8-16.2c-5.2,3.7-9.7,6.9-14.4,10.2
	C176.9,440.1,177.7,442.1,178.7,444.4z M113.5,585.1c-0.5-0.1-1-0.3-1.5-0.4c-1.4,4-3,8-4.3,12.1c-0.3,0.9,0.5,2.1,0.8,3.1
	c0.8-0.7,2.1-1.2,2.3-2C112,593.6,112.7,589.3,113.5,585.1z"/>
<path d="M417,1145c-3.5-0.5-6.9-1-10.8-1.6c-0.7-8.2-1.7-16.7-2.1-25.2c-0.6-11.9-0.9-23.8-1-35.8c-0.4-28.1-1-56.2-0.9-84.2
	c0.1-13.3,1.9-26.6,2.7-39.9c0.2-3.6-0.6-7.2-0.6-10.8c0.1-4.4-0.4-9.2,1.1-13.1c3.6-9.3,8.2-18.3,12.6-27.4c0.6-1.2,1.8-2.2,3-3.7
	c0.9,1.3,1.7,2,1.9,2.8c3.2,14.6,6.9,29.1,9.5,43.8c2.2,12.3,7,24.1,6.8,37c-0.5,26.7-0.1,53.4-0.2,80c-0.1,12.1-0.6,24.2-1,36.3
	c-0.3,10.1-0.8,20.2-1,30.3c-0.2,9-0.3,9.3-9,10.5c-0.4,0.1-0.7,0.6-1,0.9C423.7,1145,420.3,1145,417,1145z M408,1142
	c7.2,0,13.8-0.3,20.5,0.1c5.8,0.3,6.5-2.8,6.6-7.4c0.2-10.9,0.7-21.9,0.9-32.8c0.4-15.4,0.9-30.9,1-46.3c0.2-22.4-0.3-44.7,0.2-67.1
	c0.3-13.3-4.5-25.4-7-38c-2.9-14.3-6.6-28.4-10-42.4c-6.6,9.7-12.2,20.3-13.2,32.9c-0.3,3.7,0.2,7.4-0.1,11.1
	c-0.9,14.8-2.6,29.6-2.8,44.4c-0.3,19.9,0.5,39.8,0.8,59.8c0.3,18.4,0.5,36.9,1.1,55.3C406.4,1121.6,407.3,1131.6,408,1142z"/>
<path d="M203,1145c-0.3-0.3-0.6-0.8-1-0.9c-8.7-1.2-8.9-1.5-9-10.5c-0.3-18.4-0.6-36.8-1-55.3c-0.3-17.9-0.6-35.8-1-53.8
	c-0.1-5.9-0.8-11.9-0.9-17.8c-0.4-17.5,1.7-34.7,6.3-51.6c3.8-14.3,7.1-28.7,10.5-43.1c0.6-2.6,0.5-5.3,0.8-9.2
	c2,1.7,3.4,2.2,3.9,3.3c4.5,9.5,9.5,18.9,13.1,28.7c1.6,4.3,0.3,9.6,0.4,14.5c0.2,4.4,0.8,8.9,0.9,13.3c0.7,28.2,1.6,56.3,1.9,84.5
	c0.2,16.6-0.4,33.2-1,49.8c-0.4,12.5-1.2,25.1-2,37.6c-0.2,2.9-0.9,5.8-1.4,8.9c-3.4,0.5-7,1-10.6,1.6
	C209.7,1145,206.3,1145,203,1145z M221.5,1142c0.6-3.2,1.3-5.9,1.4-8.6c0.8-12.5,1.6-25,2-37.6c0.6-19.1,0.8-38.2,1-57.3
	c0.2-14,0-28,0-42c0-1.3,0-2.7,0-4c-1-14-2-27.9-2.9-41.9c-0.1-2.1,1.1-4.2,0.8-6.3c-1.7-13.4-6.3-25.7-14.7-36.8
	c-0.1,2.1,0.1,4-0.3,5.7c-3.4,14.2-6.5,28.5-10.4,42.6c-4.6,16.9-6.7,34.1-6.4,51.6c0.1,5.1,0.8,10.2,0.9,15.3
	c0.4,18.4,0.7,36.8,1,55.3c0.3,19.1,0.7,38.2,1,57.3c0,1.4,0.2,3,0.9,4.2c0.6,1.1,2,2.3,3.1,2.4C206.6,1142.1,214.1,1142,221.5,1142
	z"/>
<path d="M306.2,509.8c7.3,13.3,9.6,13.3,17.7,0.1c12.8,4.5,25.5,1.5,38.1-1.5c3.2-0.8,4.6,0.3,4.9,2.9c0.9,9.5,2,19.1,2,28.6
	c-0.1,12.9-2.5,25.7-6.3,38.1c-5.6,18.7-15,35.4-27.4,50.4c-6.1,7.3-12.6,14.4-18.9,21.4c-13.1-8.8-21-20.5-29.2-31.8
	c-13.4-18.3-21.1-39.2-24.5-61.2c-2-12.9,0.1-26.5,0.5-39.8c0.1-3,0.3-7.5,2.1-8.4c2-1.1,5.8,0.8,8.8,1.4
	C284.6,512.1,295.3,513.7,306.2,509.8z M312.7,644.9c0.4-0.3,0.9-0.6,1.3-1c0-39.1,0-78.2,0-117.4c0-0.5,0.1-1,0-1.5
	c-0.4-1.3-0.6-2.9-1.5-3.9c-2.4-2.6-5.2-4.9-7.6-7.2c-6.1,0-12.7,0.5-19.3-0.1c-6.6-0.6-13-2.2-19.8-3.4c-4.7,26.4-2.8,52.3,7.3,77
	C282,609.4,295.1,628.9,312.7,644.9z M324,514.6c-1,1.2-2.2,4.1-4.4,5.3c-3,1.7-3.7,3.6-3.7,6.7c0.1,37.3,0.1,74.6,0.1,111.9
	c0,1.9,0,3.9,0,5.8c0.4,0.2,0.9,0.4,1.3,0.6c17.6-16,30.7-35.5,39.7-57.5c10-24.7,12-50.5,7.4-76C351,512.5,337.9,513.5,324,514.6z"
	/>
<path d="M314.4,413.2c-0.1,0.7-0.4,1.5-0.4,2.2c-0.4,12.4-0.7,24.8-1,37.3c-0.2,7.9-2.4,10.3-10.2,10.3c-12.6,0.1-25.4-1-38.4,4.5
	c-0.5-2.2-1.3-4.1-1.4-6c-0.2-6.7,0.1-13.3-0.1-20c-0.2-3.8,1.3-6.5,4.3-8.5c3.4-2.3,6.7-4.7,10.2-6.8c9.7-6,19.3-12.1,29.2-17.8
	c1.8-1,4.8-0.2,7.2-0.1c0.6,0,1.5,0.7,1.7,0.5c4.4-4.2,8.2-0.7,11.6,1.4c12.3,7.4,24.4,15.1,36.2,23.2c2.1,1.4,3.4,5,3.6,7.8
	c0.5,6.6,0.3,13.3,0.1,20c0,2-0.7,4-1.2,6.5c-12.9-5.5-25.8-4.5-38.6-4.5c-7.5,0-10-2.4-10.1-9.9c-0.3-12.4-0.6-24.8-1-37.3
	c0-0.9-0.3-1.8-0.4-2.7C315.2,413.2,314.8,413.2,314.4,413.2z M265,462.6c12.5-0.6,24.3-1.2,36.1-1.5c8.7-0.2,9.8-1.3,10-10
	c0.2-12.4,0.7-24.9,1-37.3c0-1.4-0.1-2.9-0.2-4.4c-1.5,0.3-3.3,0.3-4.5,1c-12.5,7.7-25,15.3-37.3,23.3c-2.1,1.4-4.6,4.2-4.7,6.4
	C264.6,447.9,265,455.8,265,462.6z M365,464c0-6.9-0.4-13.5,0.1-20.1c0.4-4.7-1.6-7.8-5-10c-11.3-7.4-22.6-14.9-34.2-21.7
	c-7.7-4.5-8.1-4.1-7.9,4.5c0.2,12.1,0.6,24.2,1,36.3c0.2,6.5,1.9,8,8.3,8.2c8.4,0.2,16.9,0.5,25.3,1
	C356.6,462.3,360.5,463.3,365,464z"/>
<path d="M235,1123.8c0-4.7-0.2-9.4,0-14.1c0.5-8.4,1.3-16.7,1.9-25.1c1.3-16.7,2.4-33.5,4.1-50.2c1.3-12.7,3.3-25.3,5-37.9
	c0.1-1.1,0.5-2.2,0.9-3.2c6.4-13,12.9-26,19.4-38.9c0.5-1,1.7-1.7,3.3-3.3c-0.6,10.2-1.1,19-1.7,27.8c-1,15.5-1.4,31-3.2,46.4
	c-1,8.4-4.4,16.6-6.8,24.9c-2.2,7.5-4.5,14.9-6.7,22.4c-4.4,14.9-8.8,29.9-13.2,44.8c-0.6,2.2-1.1,4.4-1.6,6.6
	C236,1123.8,235.5,1123.8,235,1123.8z M267.5,959.9c-0.4-0.1-0.9-0.2-1.3-0.3c-0.3,0.3-0.8,0.5-1,0.9c-5.5,11.4-11.1,22.9-16.5,34.3
	c-0.4,0.9-0.5,1.9-0.7,2.8c-1,7.3-2.3,14.5-3,21.8c-1.5,14.7-2.7,29.4-4,44.1c-0.5,5.4-1.4,10.7-1.8,16.1c-0.6,9.4-1,18.8-1.5,28.1
	c4.5-12.2,8.1-24.4,11.7-36.7c2.3-7.8,4.6-15.5,6.6-23.4c2.5-9.4,4.9-18.8,6.9-28.3c1-4.6,0.8-9.5,1.1-14.3
	C265.2,990.1,266.4,975,267.5,959.9z"/>
<path d="M393.7,1123.9c-2-7.2-4-14.5-6.1-21.7c-4-13.4-8.1-26.7-12-40.1c-3.4-11.7-6.8-23.4-10-35.1c-0.9-3.4-1.3-7.1-1.5-10.7
	c-0.8-13-1.3-26.1-2.1-39.1c-0.5-8.2-1.1-16.4-1.7-25.5c1.2,0.8,2.4,1.1,2.8,1.9c6.9,13.5,14.3,26.8,20.2,40.7
	c2.7,6.4,2.7,14.1,3.6,21.2c1.5,11.2,2.8,22.4,3.9,33.7c0.6,6.2,0.7,12.5,1.1,18.8c1,17.1,2,34.3,3,51.4c0.1,1.5-0.2,3-0.3,4.6
	C394.3,1123.9,394,1123.9,393.7,1123.9z M392,1109.4c0-2.7,0.1-4,0-5.3c-1-17.8-2-35.6-3-53.3c0-0.3-0.1-0.7-0.1-1
	c-1.3-10.9-2.5-21.8-3.9-32.6c-1.3-10.3-1.8-20.8-7.4-30.1c-1.6-2.6-2.2-5.8-3.6-8.5c-3.2-6.4-6.6-12.8-9.9-19.1
	c-0.5,0.2-1,0.3-1.4,0.5c0.5,5.2,1,10.4,1.3,15.6c0.7,13,1.2,26,2.1,39c0.4,5,1.4,10,2.7,14.9c3.6,13.5,7.4,26.9,11.3,40.3
	C383.8,1082.5,387.7,1095.2,392,1109.4z"/>
<path d="M297.6,466c3.3,0,6.7,0,10,0c4.1,0.1,6.6,2.9,6.4,7c-0.4,8.1-0.7,16.2-0.9,24.3c-0.2,8-2.8,11-10.6,11.7
	c-12.5,1.2-24.8-0.3-36.9-3.1c-1.1-0.2-2.3-2.2-2.4-3.5c-0.5-8.1-0.6-16.2-1.1-24.3c-0.6-9.3,2.6-10.1,10.3-11
	c8.4-0.9,16.8-0.9,25.3-1.3C297.6,465.9,297.6,465.9,297.6,466z M265.4,503.6c3.9,0.8,7.7,1.8,11.6,2.3c6.7,0.8,13.3,1.4,20,2
	c9.3,0.8,13.9-3.6,14-13c0.1-7.3,0.3-14.6,0.4-21.9c0.1-3.4-1.6-5.1-5.1-5c-10.9,0.3-21.9,0-32.7,1.2c-8.3,0.9-10-0.2-9.6,11.3
	C264.3,488.1,264.9,495.7,265.4,503.6z"/>
<path d="M317.4,487.7c-0.4-4.9-0.9-9.8-1.3-14.7c-0.3-3.8,2.2-7.1,5.9-6.9c13.5,0.5,27,1.2,40.6,2c3.6,0.2,5.5,2.7,5.4,6.1
	c-0.2,9.6-0.5,19.2-1.1,28.8c-0.1,1.1-1.5,2.8-2.4,2.9c-8.2,1.2-16.5,2.3-24.8,3.1c-4.5,0.4-9.1,0.3-13.6,0c-5.5-0.4-8.8-4.1-9-9.7
	c-0.1-3.8,0-7.7,0-11.5C317.1,487.7,317.3,487.7,317.4,487.7z M364.7,504.3c0.5-9.9,1.1-19.2,1.1-28.4c0-2-2.3-5.5-3.8-5.6
	c-12.8-1.1-25.7-1.6-38.5-2.2c-3.5-0.2-4.9,1.7-4.8,5.1c0.2,7.3,0.3,14.6,0.4,21.9c0.1,9.3,5,13.9,14.1,12.9
	C343.6,506.7,354.1,505.5,364.7,504.3z"/>
<path d="M406,1157c-1.2-0.3-2.5-0.4-3.5-1.1c-1.7-1.2-4.3-2.8-4.3-4.3c-0.7-12.7-4.3-24.7-7.8-36.8c-8-27.6-16.1-55.3-23.9-83
	c-1.4-4.8-2.1-9.9-2.4-15c-1.2-16.1-1.7-32.3-3.2-48.4c-1.3-13.8-1.1-27.8-6.1-41.2c-4-10.6-7.9-21.3-11-32.3
	c-1.6-5.4-1.5-11.4-1.7-17.1c-0.5-13.4-0.6-26.9-1.1-40.3c-0.5-15.2-0.6-30.5-2.2-45.6c-1.8-17.5-5-34.9-7.8-52.3
	c-2.2-13.7-4.7-27.3-6.9-41c-0.7-4-0.1-8.3-1.2-12.2c-1.8-6.4-4.4-12.6-7-19.7c-6.9,9.2-9.5,18-10.1,28c-0.7,10.5-3.6,20.8-5.3,31.3
	c-2.3,15.2-4.5,30.4-6.4,45.6c-1.6,12.9-2.7,25.8-4,38.7c-0.1,0.5,0,1,0,1.5c-0.3,13.3-0.5,26.5-1,39.8c-0.5,13.7-0.2,27.6-2.3,41
	c-1.6,10.6-6.5,20.7-9.6,31.2c-2.4,8.1-5,16.2-5.9,24.5c-2,18.5-3.3,37.1-4.1,55.7c-1,21.8-7.9,42.2-14,62.8
	c-5.2,17.8-10.4,35.6-15,53.6c-2.7,10.4-4,21.1-6.3,31.5c-0.4,1.6-3.1,2.7-4.8,3.9c-0.8,0.6-2,0.7-3,1c-8.3,0-16.7,0-25,0
	c-3.7-1.6-5.1-4.1-5.1-8.3c-0.1-18.4-0.5-36.9-0.9-55.3c-0.6-25.5-1.4-51.1-1.9-76.6c-0.2-11.7-0.7-23.4,0.2-35.1
	c0.6-7.5,3.2-14.9,5-22.3c3.9-15.8,7.8-31.6,11.6-47.4c0.3-1.3,0.1-2.7,0.1-4c0-15,0.5-30-0.1-45c-0.6-13.8-2.5-27.5-3.8-41.2
	c-0.5-5.1-0.8-10.2-1.1-15.3c-0.7-11-1.2-22.1-2-33.1c-1.2-17.2-1.9-34.6-4.2-51.7c-2.5-18.7-4.7-37.4-3.7-56.2
	c1-18.4,2.3-36.8,4-55.2c1.3-14.7,2.6-29.4,5.1-43.9c3.8-21.6,6.9-43.5,16.8-63.5c3.1-6.1,6.2-12.2,9-18.4c1-2.2,1.8-4.6,1.9-6.9
	c0.2-11.7,0.6-23.4-0.1-35c-0.6-10.6-2.3-21.2-4-31.7c-1.7-10.9-3.9-21.8-5.9-32.7c-0.2-1.2-0.7-2.4-1.3-4.2c-1.4,2.7-2.7,4.8-3.6,7
	c-8.7,21.9-17.5,43.8-25.9,65.8c-1.7,4.5-2.1,9.5-3.2,14.2c-0.5,2-0.6,4.3-1.6,6.1c-15.4,28.4-30.8,56.8-46.5,85.1
	c-5.7,10.3-12.7,19.8-17.8,30.4c-4.8,9.8-7.9,20.5-12,31.1c-9.3-5.9-18-16.4-32.2-14.6c0-1,0-2,0-3c4-8.5,8.3-16.9,11.9-25.5
	c5.6-13.2,11.2-26.4,16-39.9c3.7-10.2,6.4-20.8,9-31.4c5.3-21.4,12-42.2,24.6-60.8c8.6-12.7,13.3-27.5,17.4-42.2
	c3.9-13.6,7.6-27.2,11.2-40.8c3.1-11.8,5.5-23.6,4.9-35.9c-0.8-14.7,0.1-29.2,4.9-43.4c5.6-16.6,15.5-29.6,33-33.7
	c9.7-2.3,20.2-0.7,30.3-1.9c5.6-0.7,11.1-3.4,16.5-5.5c8.5-3.3,13.7-10.2,19.5-16.8c5.1-5.8,5.1-12.4,5.6-18.8
	c1.3-17.7-1.6-34.9-7.5-51.6c-6,0.4-13.3-6.3-14.3-13.4c-0.7-4.9-1-9.8-1-14.8c-0.1-6.8,1.9-8.3,8.6-7.2c0.4-8.1,0.8-16.2,1.3-24.2
	c0.8-11.9,4.7-22.3,12.6-31.6c6.2-7.3,14-10.2,22.8-11.8c0.2,0,0.4-0.5,0.5-0.7c7.3,0,14.7,0,22,0c2.7,0.9,5.4,1.7,8.1,2.6
	c16.3,5.7,24,18.4,26.7,34.4c1.8,10.3,1.9,21,2.8,31.5c6.5-1.1,8.3,0.4,8.4,7.3c0.1,7.2,0.1,14.4-3.9,21c-3.3,5.5-6.6,7.7-12.1,6.6
	c-2,9.6-4.9,19.2-5.8,28.9c-1,10.6-1,21.4,0.1,32c0.5,4.7,4.1,9.3,7,13.5c7.7,11.1,20,15.1,32,18.7c3.8,1.2,8.5-0.8,12.6-0.3
	c7.7,0.9,15.6,1.9,23,4c10.3,2.9,17.8,9.7,23,19.2c7.3,13,10.4,27,10.9,41.8c0.1,2.8,0.2,5.7,0,8.5c-1.4,16.8,2.7,32.9,6.2,49.1
	c3.8,17.4,9.8,34,15.6,50.7c4,11.6,9.8,21.9,16.2,32.2c8.8,14.3,14.3,29.9,18.1,46.2c5.6,24,13.6,47.1,23.2,69.8
	c4.3,10.2,8.8,20.3,13.3,30.4c0.6,1.4,1.7,2.7,2.5,4c0,1,0,2,0,3c-12-1.3-20.4,5.7-28.9,12.4c-1.4,1.1-2.9,1.9-4.4,2.9
	c-3.7-19.1-11.4-35.7-21.9-51.3c-7.7-11.5-14-23.9-20.7-36c-10.7-19.4-21.3-39-31.8-58.5c-0.9-1.7-2.2-3.7-2.1-5.4
	c0.7-9.5-3.9-17.4-7.1-25.7c-7.3-18.8-14.7-37.6-22.1-56.3c-0.9-2.2-2.2-4.3-3.9-7.5c-1.1,6.5-2.1,11.9-3,17.3
	c-2.3,13.2-5.6,26.3-6.7,39.5c-1.4,16.5-1,33.2-1.2,49.8c0,1.8,1.1,3.7,2.1,5.4c11.2,19.2,18.5,39.8,21.9,61.8
	c2.7,17.7,6,35.4,8.8,53.1c0.8,4.7,0.8,9.5,1.1,14.3c0.7,14,1.4,28.1,2,42.1c0.5,11.3,1.3,22.6,0.8,33.8c-0.4,9.9-2.3,19.8-3.5,29.8
	c-0.5,4.4-1,8.8-1.3,13.2c-0.7,11.2-1.3,22.4-2.1,33.6c-1.3,17.9-2.2,35.9-4.1,53.7c-3.1,29.3-4.8,58.7-3.7,88.2
	c0.2,6.4,2.4,12.8,3.9,19.1c4.2,16.9,8.5,33.7,12.7,50.6c0.2,0.9,0.1,2,0.2,3c0.3,7.3,0.9,14.5,0.9,21.8c0,5.9-0.8,11.9-0.9,17.8
	c-0.2,8.7,0.1,17.3-0.1,26c-0.2,13.3-0.6,26.5-1,39.8c-0.3,10.6-0.7,21.2-1,31.8c-0.3,10.4-0.8,20.9-0.9,31.3
	c-0.1,3.7-2.1,5.4-5.1,6.8C422.7,1157,414.3,1157,406,1157z M217.6,369.9c0.5-0.1,1.1-0.3,1.6-0.4c0.9,2.7,2.2,5.2,2.8,8
	c2.1,10.7,4.3,21.4,5.9,32.2c1.7,11.3,3.3,22.7,4,34.2s0.3,23,0.1,34.5c0,2.5-0.7,5.3-2,7.4c-11.1,19.6-18.9,40.4-22,62.8
	c-3.1,22.2-7.2,44.2-9.7,66.4c-1.9,16.7-2.4,33.6-3.1,50.4c-0.9,18.5,1.3,36.8,3.7,55.2c2.3,17.1,2.9,34.4,4.2,51.7
	c0.8,11,1.3,22.1,2,33.1c0.3,5.1,0.6,10.2,1.1,15.3c1.3,14.1,3.2,28.1,3.8,42.2c0.7,15.3,0.2,30.7,0.1,46c0,1.3,0.2,2.7-0.1,4
	c-3.8,15.8-7.7,31.6-11.6,47.4c-1.8,7.3-4.5,14.5-5,21.8c-0.9,11-0.4,22.1-0.2,33.1c0.5,25.9,1.3,51.7,1.9,77.6
	c0.4,18.4,0.8,36.9,0.9,55.3c0,4.7,2.2,6.7,6.4,6.7c7.9-0.1,15.9-0.4,23.8-1.1c1.4-0.1,3.4-2.2,3.8-3.6c2.3-10.2,3.6-20.5,6.3-30.6
	c5.4-20.5,11-40.8,17.2-61.1c5.6-18.3,10.8-36.6,11.8-55.9c0.9-18.3,2.8-36.5,3.8-54.7c0.5-9.3,3.2-17.8,6.6-26.4
	c3.8-9.6,7.6-19.6,9.1-29.8c2-13.3,1.8-27,2.3-40.6c0.5-13.4,0.7-26.9,1-40.3c0-0.5,0-1,0-1.5c1.3-12.9,2.4-25.8,4-38.7
	c1.9-15.2,4.1-30.5,6.4-45.6c1.6-10,4.8-19.8,5.2-29.8c0.4-10.6,3.4-19.9,9.1-28.5c0.6-0.9,3.8-1.3,4-1c2.9,5.3,6.5,10.4,8,16.1
	c1.7,6.4,1.3,13.4,2.3,20c2,12.7,4.2,25.4,6.5,38.1c1.4,7.7,3.5,15.3,4.3,23.1c1.7,15.7,3.2,31.4,4,47.2c1.1,19.5,1.7,39.1,2,58.6
	c0.3,15.5,1.9,30.7,7.6,45.3c3.6,9.4,7.8,18.9,9.2,28.7c2.5,17.2,3,34.8,4.3,52.2c1.1,14.5,1.1,29,5.8,43.2
	c6.6,20.1,12,40.5,17.8,60.9c3,10.5,5.9,21,8.4,31.6c1.5,6.2,1.8,12.6,3.2,18.8c0.4,1.7,2.6,4.1,4.2,4.2c7.7,0.7,15.5,1,23.3,1.1
	c4.1,0.1,6.5-1.8,6.5-6.6c0-9.9,0.6-19.9,0.9-29.8c0.3-10.9,0.7-21.9,1-32.8c0.4-16.4,0.6-32.9,1-49.3c0.2-9.1,0.9-18.2,0.9-27.3
	c0-9.4-0.6-18.9-0.9-28.3c0-0.3,0-0.7-0.1-1c-4.2-16.7-8.4-33.4-12.5-50.2c-1.6-6.5-3.9-13-4.2-19.6c-1.1-30.1,0.5-60.2,3.7-90.2
	c1.9-17.8,2.8-35.8,4.1-53.7c0.8-11.2,1.3-22.4,2-33.6c0.3-4.3,0.7-8.5,1.1-12.8c1.3-11.6,3.1-23.1,3.7-34.7
	c0.5-9.1-0.4-18.2-0.9-27.3c-0.5-10.7-1.1-21.4-2-32.1c-1.1-13.6-2.3-27.2-4-40.7s-3.6-26.9-6.1-40.2c-4-21-11.2-40.8-21.9-59.4
	c-1.2-2-1.8-4.6-1.9-6.9c-0.2-10.3-0.2-20.7,0-31c0.1-6.3,0.4-12.6,1.2-18.8c1.3-9.7,3.1-19.3,4.8-29c1.6-8.8,3.2-17.6,5.1-26.4
	c0.3-1.4,1.6-2.5,2.7-4.1c2,4.2,3.7,7.3,5.1,10.7c7.4,18.7,14.8,37.5,22.1,56.3c3.2,8.3,7.8,16.3,7.1,25.7c-0.1,1.6,1.1,3.4,1.9,4.9
	c5,9.5,10,19.1,15.2,28.6c8,14.6,16.1,29.2,24.4,43.6c7,12.2,14.9,23.8,21.3,36.3c5.7,11.1,9.9,23.1,14.7,34.6
	c7.6-5.9,15.5-13.6,27.8-13.1c-5.2-11.9-10.3-23-15.1-34.2c-9.7-22.8-17.7-46.1-23.3-70.3c-3.8-16.1-9.2-31.6-18-45.7
	c-6.3-10.2-12.3-20.6-16.2-32.2c-5.7-16.8-11.8-33.4-15.6-50.8c-3.5-16.2-7.7-32.3-6.2-49.2c0.2-2.8,0.1-5.7,0-8.5
	c-0.4-14.8-3.8-28.7-10.8-41.8c-4.2-7.8-10.4-13.4-17.9-16.8c-10.5-4.8-22.2-5.5-33.7-5.4c-2.2,0-4.6,0.8-6.6,0.3
	c-4.1-1.1-7.9-2.9-11.9-4.3c-16.1-5.5-28.3-21.6-29-38.2c-0.7-17.1,1.4-33.8,6.6-50.1c1.1-3.3,2-5.9,6.3-4.6c0.6,0.2,1.7-0.5,2.4-1
	c5.7-4.7,10-19.9,7.5-26.9c-0.2-0.5-0.5-0.9-0.7-1.3c-1.5-2.5-2.8-3.1-4.6-0.1c-0.7,1.1-2.3,1.7-4.4,3.2c0-2.7-0.2-3.9,0-5
	c2.4-12.6,0.6-25-2.3-37.1c-2.9-12.3-9.7-22.4-22-27.6c-7.6-3.2-15.6-3.6-23.7-3.4c-16.2,0.3-28.6,6.5-36.2,21.4
	c-7.1,13.9-6.2,29-6.7,43.8c-0.1,2.2,0.6,4.4,1.2,7.9c-2.4-1.4-3.5-1.9-4.6-2.7c-1-0.7-1.8-1.6-2.7-2.4c-1,1.2-2.8,2.4-2.9,3.6
	c-0.7,8.3-0.4,16.5,4.7,23.6c1.7,2.4,3.7,4.9,7.6,3.9c0.8-0.2,2.9,1.8,3.3,3.1c5.6,16.8,7.8,34.2,7.2,51.9
	c-0.4,10.3-4.6,18.5-11.6,26.1c-7.2,7.8-16,11.7-25.7,14.6c-2.2,0.7-4.5,2.2-6.5,1.9c-12.6-2-24.9-0.3-36.6,4.3
	c-6.7,2.6-12.5,6.9-16.5,13.3c-9.9,15.6-14.2,32.8-13.1,51c1.2,19.9-2.9,38.9-7.8,57.8c-2.7,10.4-5.4,20.8-9,30.8
	c-3.9,11-8.4,21.8-13.3,32.4c-3.1,6.8-7.2,13.2-11.1,19.6c-8.9,14.8-12.8,31.4-16.8,47.8c-5.8,23.7-14.4,46.2-23.9,68.6
	c-4,9.4-8.2,18.7-12.7,28.7c12.8-1,20.4,7.5,27.9,12.7c4.8-11.6,9.1-23.6,14.7-34.9c4.8-9.8,11.5-18.6,16.8-28.1
	c14.9-26.8,29.6-53.8,44.3-80.7c1-1.8,1.2-4,1.7-6c1.1-4.7,1.5-9.7,3.2-14.2c5-13.4,10.5-26.7,15.8-39.9
	C207.8,393.9,212.7,381.9,217.6,369.9z"/>
</svg>
