<svg id="Layer_1" data-name="Layer 1" xmlns="http://www.w3.org/2000/svg" viewBox="0 0 846.25 1671.1"><defs><style>.cls-1{fill:#f9f9a6;}.cls-2{fill:#ed8d8d;}</style></defs><path id="Inside_Fill" data-name="Inside Fill" class="cls-1" d="M242.7,801c5.3-9.5,10.5-19.6,16.3-29.3,10.1-16.8,20.8-33.3,30.7-50.2,4-6.8,6.7-14.4,10.1-21.6,7-14.5,13.7-29.1,21.2-43.4,7.9-15.1,16.7-29.8,24.7-44.9,2.5-4.8,3.5-10.3,5.3-15.5,1.9-5.5,3.8-10.9,5.7-16.3,3.7-10.9,7-22.1,11.3-32.8,5.5-13.7,12.2-26.9,18-40.6,6.4-15,13.5-29.7,18-45.3,2.7-9.3,1.6-19.8,1.1-29.8-1.1-21.8,2.1-42.8,11.5-62.6a94.55,94.55,0,0,1,30.5-36.2c16-11.7,34.2-16.2,53.5-15.4,14,.5,28,2.4,41.6,7.1,3.4,1.2,8.7-.4,12-2.5A234.14,234.14,0,0,0,580.7,303c10.8-8.9,19.2-19.4,18.5-34.7-.3-6.4-.5-12.9,3.4-18.8,1.1-1.7-.1-5.4-1-8-2.9-8.6-6.4-17-9.2-25.6-1.8-5.7-3-6.8-9-5.9a4,4,0,0,1-3.2-1.2c-8-12.9-11.8-26.6-7.3-41.8.8-2.6,1.9-3.6,4.7-2.5,3.8,1.6,5.7-.5,6.4-3.9a52.88,52.88,0,0,0,.8-7.9c.6-11.1.2-22.4,1.8-33.3,3.1-20.7,14.5-36.8,30.7-49.5,17.2-13.5,36.7-19,58-12.7,17.7,5.2,31.6,16.4,42.3,31.6,10.2,14.7,14.6,31,14.4,48.8-.1,7.2.1,14.3.6,21.5.3,4.3,2,7.5,7.6,5.4.8-.3,3.3,1.7,3.7,3.1,4.9,15.7.4,29.7-8.1,42.8-8.9-1.4-9.7-.1-11.8,8.5-1.7,7.3-4.8,14.4-8,21.3-2.1,4.4-3,8.2-.2,12.6,1.3,2,1.5,4.7,2,7.1a13.6,13.6,0,0,1,.1,4.5c-1.7,19.3,8.6,32,23.1,42.4,6.9,4.9,13.9,9.8,20.8,14.7,4.7,3.3,9.2,4,15.3,2.3,23.3-6.3,46.8-10,70.7-2.1,21.8,7.2,37.7,21.3,49,40.7A108.85,108.85,0,0,1,911.9,416c.3,12.5,0,25-.1,37.5-.1,11.8,5.3,21.8,9.8,32.1,9.7,22.2,19.7,44.4,29.5,66.6,1.1,2.6,1.2,5.5,2.2,8.2,2.9,7.9,6.3,15.6,9,23.6,2.1,6.1,2.5,12.9,5.2,18.6,6.1,13,13.1,25.7,19.9,38.4,11.4,21.2,23.6,41.9,31.9,64.7,4.1,11.2,11.3,21.4,17.5,31.8,9,15,18.5,29.6,27.5,44.6,3.7,6.3,6.5,13.2,9.6,19.6-13,8.2-26.7,16.7-41.1,25.7-4-4.1-9.3-8.6-12.2-15.8-5.1-12.9-14.4-23-23.5-33.3-22.4-25.3-45.5-50.1-66.7-76.3-14.9-18.4-27.8-38.6-40.3-58.8-6.2-10-8.9-22.1-14.1-32.8-9.2-19.1-19.1-38-28.9-56.9-1.8-3.5-4-7.8-8.7-7s-5.2,5.6-5.9,9.4c-4,19.9-11.4,38.4-20.9,56.2-8.3,15.6-18.2,30.6-22.1,48.3a131.64,131.64,0,0,0-2.6,20.7,151.57,151.57,0,0,0,.7,20.2c1.1,11.4,2.9,22.6,4,34,1,9.9,1.3,19.8,2,29.7.7,9.7,5,18.4,9.3,26.8,5.1,9.9,6.8,20.4,8.6,31,.7,4.2,1.9,8.4,1.7,12.5-.2,5-1.6,10-2.3,15-.3,2.5-.8,5.2-.3,7.6,2.9,14.4,5.8,28.9,9.3,43.1,3.9,15.7,8,31.4,12.7,47,6.2,20.3,14.2,40.1,19.3,60.6a342.29,342.29,0,0,1,9.2,57.9c1.3,17.8-.6,35.9-1,53.8-.1,5.8-.5,11.5-.4,17.3.2,16.4-2.6,32.3-7.3,47.9a38.39,38.39,0,0,0-1.1,5.9c-1,8.4-5.5,15.5-8.7,23.1-3.2,7.8-6.1,15.7-8.8,23.7a100.35,100.35,0,0,0-4.4,16.7c-.7,4.8.5,9.9-.1,14.8-.9,7.4-2.5,14.7-4.1,21.9a116.31,116.31,0,0,1-4.2,12.6c-3.5,9.8-1.6,19.6.3,29.4.7,3.7,2,7.4,2.8,11.1.3,1.4.4,3.6-.4,4.3-3.9,3.6-2.1,6,.9,9,1.3,1.4,1.7,3.9,2,6,2.5,14.6,5.1,29.2,7.1,43.9,2.2,15.9,4.4,31.9,5.3,47.9.6,11.2-.9,22.5-1.5,33.7-.4,7-.8,14-1.7,20.9-1.7,13.8-3.8,27.6-5.8,41.3-1.1,7.7-2.5,15.4-3.3,23.1q-4.35,39.15-8.5,78.3c-.8,7-2,14.1-2.2,21.1-.1,4.7,1.5,9.5,1.6,14.2.1,3-1.3,6.1-1.4,9.2-.1,2.7-.2,5.8,1,8.1,2.3,4.4,1.7,8.2-.4,12.4H757.3c.7-4.7,1.7-9,2-13.3.8-10.2,3.2-20.8,1.4-30.6-7.9-44.4-17.1-88.5-25.7-132.8a162,162,0,0,0-16.3-45.7c-10.1-19.1-12.3-39.5-7.5-60.6q6.45-28.35,13.1-56.7c1.2-5,3.2-9.9,3.6-14.9.5-5.7.8-11.9-1-17.2-6.1-18.4-8.7-37.4-12.1-56.3-2.9-16.1-6.4-32.2-8.1-48.5-2.2-21.1-7.7-41.3-13.2-61.6-3.2-12-7.3-23.8-10.1-35.9-2.2-9.6-3.1-19.6-4.6-29.4-1.8-11.6-3.8-23.2-5.5-34.8a149.85,149.85,0,0,1-1.6-16.3c-.5-21.8-.7-43.6-1-65.5a13.48,13.48,0,0,1,.6-4.9c3.3-8.8-.2-16.2-4.8-23.3-3.7-5.7-13.7-5.1-17.3.7-4.5,7.3-7.4,14.8-3.9,23.4.5,1.3.3,3,.3,4.5-.3,21.7,0,43.3-1.2,64.9-.9,14.8-4.1,29.5-6.1,44.2-1.2,8.7-1.4,17.6-3.2,26.1-3,13.6-7,26.9-10.6,40.3-4.3,16-9.1,31.9-12.6,48.1-2.7,12.5-3.3,25.3-5.3,37.9-2.9,18-5.9,36-9.4,53.8-2.2,11-5.6,21.8-8.1,32.8-1.9,8.5-.6,16.8,1.7,25.3,5,18.6,9,37.4,13.2,56.1,4.1,17.9,5.4,35.9-.5,53.7a71.2,71.2,0,0,1-6,14.2c-10.8,18.4-15,38.8-18.9,59.4-4.4,23.1-8.8,46.2-13.5,69.2-2.7,13.1-6.8,26-8.8,39.2-2.1,14.3-3,28.9,1.6,43.3,1.1,3.3.5,7.1.8,11.1H499.6c-2.1-4.1-3-7.9-.4-12.3,2-3.3,1.2-6.6.3-10.4a36.6,36.6,0,0,1-.2-15.8,46.38,46.38,0,0,0-.1-21.6c-1.7-6.9-1.8-14.2-2.5-21.3-1.7-16.9-2.9-33.8-5-50.7-1.6-13-4.4-25.8-6.5-38.7-1-5.9-1.8-11.8-2.4-17.8-1.3-12.5-2.7-25.1-3.5-37.7-.9-14.2-2.1-28.5-1.6-42.7.5-13.5,3.1-27,4.7-40.4,1.2-9.7,1.2-19.7,3.9-29,2.4-8.3,1-18.1,8-25,.6-.6.7-3,.2-3.5-3.9-3.6-2.8-7.9-1.3-11.6,3.6-8.6,4-17.6,3.8-26.5-.1-6.2-2.9-12.4-4.5-18.5-.2-.8-1-1.4-1.2-2.2-1.6-9.3-4.8-18.6-4.3-27.8.6-11.5-2.7-21.5-6.6-31.6-4.1-10.7-9.2-20.9-13-31.7-2.8-8.1-4.1-16.7-6.2-25.1-3.4-13.4-4.7-27-4.9-40.9-.2-19-1-38.1-1.4-57.1-.5-21.7,3.3-42.9,8-64a391.81,391.81,0,0,1,18.7-60.8c5.3-13.5,8.4-27.9,11.8-42,3.5-14.5,6.1-29.1,9.2-43.7a51.62,51.62,0,0,1,2-6.7c1.5-4.1,1.5-7.7.6-12.3-1.1-5.7-2.9-11.7-.9-18.2,2.1-6.8,1.4-14.5,3-21.6,1.4-6.2,4.1-12.2,6.6-18.1,5-12.2,9.6-24.1,9.5-37.9-.1-12.9,3.1-25.9,4.8-38.8.2-1.8.2-3.6.4-5.5l1.2-12.3a40.7,40.7,0,0,0,.6-5.9c-1-23.8-6.8-45.9-19-66.8-8.8-15-15.4-31.2-22.3-47.2-2.7-6.3-3.5-13.4-5.1-20.2-1-4-1.1-9.2-6-10-5.1-.9-7.2,4.1-9.3,7.7-14.2,25.6-27.7,51.4-37.7,79.1-5.5,15.4-16.1,27.9-24.9,41.3-17.7,27-39.7,50.4-60.8,74.7-12.1,14-25,27.3-36.7,41.6-5.6,6.8-9,15.4-13.9,22.9-3.4,5.2-7.6,9.9-10.8,14C270.2,818.3,256.5,809.7,242.7,801Z" transform="translate(-235.49 -50.9)"/><g id="Quads"><path class="cls-2" d="M819,1288.9c-3-18.4-6.4-36.8-8.7-55.3-.5-4,3-8.5,4.5-12.9a67.43,67.43,0,0,0,3.1-10.6c1.1-7.2,1.7-14.5,2.6-21.8a7.46,7.46,0,0,1-1.2-.7c-5.6,11.2-11.2,22.4-16.7,33.7-.7-.3-1.4-.6-2-.9,3.7-14.7,10.7-28.3,15.6-42.6-1.9-.5-2.1-.6-12.5,11.1-4,4.5-7,9.7-10.5,14.7-2.4-5-.3-36.4,3.4-52a10.47,10.47,0,0,1-1.1-.8,14.84,14.84,0,0,0-2.3,3.8c-1.9,7.1-3.4,14.2-5.3,21.3-1,3.6-2.3,7.1-4,12.1-1.5-7.6-2.6-13.9-4-20.2a114.12,114.12,0,0,0-5.5-18.7c-3.6,5.7-2.5,11.4-1.6,17.1s1.3,11.3,2,17.6c-2.7-3.4-5-6.3-7.4-9.3-.6.3-1.2.7-1.8,1,.9,2.5,1.8,4.9,2.6,7.4,2.9,8.1,6.9,16,8.4,24.3,1.4,7.9.5,16.3-.2,24.5-1.5,18.4-10,34.6-17,51.2-1.5,3.5-4,6.5-8.1,6.1-9-.8-18.1-2-24.4-9.5a32.45,32.45,0,0,1-5.3-9.2c-4.3-11.7-9-23.4-12.1-35.5-1.7-6.6-.9-13.9-.4-20.9.5-7.3,1.8-14.6,2.8-21.9q2.25-15.75,4.8-31.5,3.45-21.75,7.2-43.5c2.3-13.2,4.8-26.3,7.2-39.5,3.3-18,6.4-35.9,9.9-53.9,2-10,4.8-19.9,7-29.9,3.7-17,7.7-34,9-51.5s3.2-34.7,4.9-52c.5-4.7.1-9.8,1.6-14.1,2.5-7,6.3-13.6,9.9-20.3.2,10.5.9,20.8,6.4,30,5,8.2,10,16.3,15.6,24.1,8.8,12.3,18.5,23.9,27,36.4,8,11.8,15.2,24.3,22.4,36.7,5.5,9.4,7.3,20.1,9,30.7,1.4,9,2.9,18.1,3.9,27.2a195.72,195.72,0,0,1,1.1,20.3c.1,25.2-.2,50.3.1,75.5.2,14.4-1,28.6-5.2,42.4-6.5,21.3-13.3,42.5-19.8,63.8-1.5,5-2,10.2-3.2,15.3a129.61,129.61,0,0,1-3.4,12.6c-2.2,6.1-4.8,12-7.2,18A3.75,3.75,0,0,1,819,1288.9Z" transform="translate(-235.49 -50.9)"/><path class="cls-2" d="M548.6,1175.4c-2.4,2.9-4.7,5.9-7.8,9.6,1.6-12.2,4.9-23.5,1.3-35-6.4,11.7-6.7,24.9-10.1,38.9-1.7-5.4-3-9.4-4.1-13.4-1.2-4.2-1.9-8.6-3.5-12.6-1.5-3.5-.3-8.3-4.8-11.9,1,18.8,5.4,35.9,3.7,53.6-6.7-10.1-14.1-19.2-23.2-26.6,4.8,14.8,11.5,28.6,15.6,43.4l-2.1.9c-5.6-11.2-11.2-22.5-16.7-33.7-.4.2-.9.4-1.3.6,1.2,9.3,2.3,18.6,3.6,27.9a8.55,8.55,0,0,0,2,4.3c5.2,5.3,5.8,11.9,4.7,18.4-2.7,16.7-6.1,33.3-9.4,50.8-.7-1.4-1.2-2.1-1.5-2.8-3.2-8.7-6.6-17.3-9.5-26-1.3-3.8-1-8.2-2.2-12-5.1-16.6-10.8-33.1-15.7-49.7-6-20.6-11.7-41.1-10.8-63.1.8-19.6.2-39.3.2-59a362.66,362.66,0,0,1,4.9-61.5c2.2-13.1,4.7-25.9,12.1-37.3,8.7-13.4,17.1-26.9,25.8-40.4,3.8-5.9,7.5-11.9,11.7-17.5,5.3-7.1,11.4-13.8,16.6-21s10.3-14.8,12-23.8c1.2-6.4,1.8-13,2.7-19.5,3.6,9.1,10.5,16.7,10.7,28.2.2,16.3,2.9,32.7,4.6,49,.7,7.5,1.1,15.1,2.1,22.6,1,6.8,2.5,13.4,4,20.1,3.5,15.7,7.6,31.3,10.7,47.1,4.7,24,8.8,48.1,13.2,72.2,2.2,11.9,4.7,23.6,6.8,35.5,2.3,13.4,4.3,26.8,6.2,40.2,2.1,14.6,4.6,29.1,5.8,43.8.8,9.1,1.2,18.3-2.6,27.3-4.2,10.2-6.9,21-11.1,31.2-3.7,9.1-11.7,13.2-21.1,14.8-1.3.2-2.5.6-3.8.9a10.24,10.24,0,0,1-12-6.4c-4.3-10.6-8.9-21-12.7-31.7-2.2-6.2-3.3-12.9-4.3-19.5-2-12.8-2.4-25.5,3.7-37.6,2.6-5.2,4.6-10.8,6.8-16.2a6.15,6.15,0,0,0,.2-1.9A17.41,17.41,0,0,1,548.6,1175.4Z" transform="translate(-235.49 -50.9)"/></g><g id="Chest"><path class="cls-2" d="M763.5,518.6c-5.1.4-10.2,1.5-15.2,1-4.8-.4-9.5-2.1-14.1-3.7-10-3.5-20-6.9-29.6-11.2-6.4-2.8-12.8-6.3-17.9-10.9-6.7-6-10.8-14.3-13.7-22.9a15.55,15.55,0,0,0-.8-2.3c-5-7-2.3-14.5-1.6-21.8.6-6.4,1.3-12.7,2.4-19,2.3-13.6,4.2-27.4,7.7-40.8,3.2-12.2,8.1-24,12.4-35.9a4.35,4.35,0,0,1,2.8-2.1c14.1-2.8,28.1-5.7,42.3-7.9,10.4-1.6,20.9-2.5,31.4-3.1,9.7-.5,19.5-1.1,29.1.1,17.9,2.3,35.3,7,46.2,23.3,7.1,10.5,7.8,22.3,4.7,34.4-3.3,13.1-6.3,26.2-9.6,39.3-4.4,17.5-7.8,35.2-17.9,50.8-6.5,9.9-14.8,17.7-23.9,25.1-7.9,6.4-17.1,7.5-26.6,7.9-2.7.1-5.3,0-8,0A1,1,0,0,1,763.5,518.6Z" transform="translate(-235.49 -50.9)"/><path class="cls-2" d="M464.6,386.3c.7-18.4,7.9-30.4,22.5-38,12.3-6.4,25.3-8.8,39.1-9.6,20.4-1.1,40.2,2,60.1,5.2,11.3,1.8,22.5,3.9,33.7,6.1a4.92,4.92,0,0,1,2.9,2.6c3.8,9.4,8.2,18.6,10.8,28.2a399.09,399.09,0,0,1,8.2,39.1c2.1,12.9,3.4,26,5,38.9a9,9,0,0,1-.4,4.9c-4.6,10.2-7.9,21.2-15.8,29.6-1.5,1.6-3.7,2.6-5.6,3.9-15.6,11.3-33.6,17-52,21.5-11.8,2.9-24,.8-36.1.4-12.7-.3-20.3-8.4-29-15.6-11.3-9.3-17.5-21.9-23.2-34.6-3.5-7.9-4.8-16.8-6.9-25.3-3.8-15.4-7.6-30.9-11.3-46.4C465.7,393.1,465.1,388.7,464.6,386.3Z" transform="translate(-235.49 -50.9)"/></g><g id="Inner_Thigh" data-name="Inner Thigh"><path class="cls-2" d="M778.2,802.7c-.7,10.8-1.6,21.3-1.9,31.8-.3,12.1-6.4,22.1-11.8,32.2-4.6,8.5-5.4,17.8-6.4,26.9-1.5,13.3-.8,26.8-2.4,40-2.1,17.3-5.2,34.5-8.5,51.6-4,20.4-9,40.7-13.2,61.1-4.3,21.2-8.3,42.6-12,63.9-3,17.4-5.3,34.9-8.2,52.3-2.7,15.9-5.9,31.7-8.8,47.6-.6,3.3-.7,6.8-1.6,10.1-4.2-16.7-8.2-33.4-12.6-50.1-2.6-9.7-6.6-19-9-28.8-2-8-2.6-16.4-3.9-24.7-1.4-9.2-3-18.3-4.4-27.5a93.61,93.61,0,0,1-1.5-11.7c-.5-20.4-.9-40.9-1-61.3-.1-11.9.5-23.8.8-35.8a3.4,3.4,0,0,0-.1-1c-4.1-14,2.4-25.4,10.2-35.6a336.1,336.1,0,0,0,38-61.9c3.4-7,5.7-14.6,9.4-21.4,3.2-5.8,7.6-11.1,11.8-16.2,9.3-11.3,18.9-22.4,28.4-33.4C772.1,808.1,775,805.7,778.2,802.7Z" transform="translate(-235.49 -50.9)"/><path class="cls-2" d="M539,803.2c14.5,17.3,29.3,34.1,43,51.7,5.6,7.2,8.6,16.3,12.8,24.6,5.5,10.7,11,21.5,16.5,32.2a107.52,107.52,0,0,0,6.8,11.9c6,8.3,13,15.9,18.2,24.6,4.3,7.1,6.5,15.5,9.6,23.3a4.49,4.49,0,0,1,0,2c-2.4,24.4-.2,48.9-1,73.3-.5,13.7-.9,27.4-2.1,41.1-.7,8.1-2.9,16-4.3,24-.7,3.9-1.6,7.8-1.5,11.7.4,12.1-4.3,23-7.5,34.3-3.8,13.6-7.8,27.1-11.6,40.8-2,7.4-3.6,14.8-5.6,23.1-1.6-8.5-3.1-16.3-4.4-24.2-1.8-10.6-3.4-21.3-5.2-31.9-1.9-11.7-3.8-23.5-5.9-35.2-2.3-13.3-4.8-26.6-7.2-39.9-2.6-14.1-5.1-28.2-7.8-42.3-2-10.2-4-20.5-6.2-30.6-4.1-18.9-9-37.7-12.5-56.7-2.1-11.3-2.2-22.9-3.3-34.3-1.6-17-3.3-34-5.1-50.9-.1-1.2-1-2.4-1.5-3.6-4.3-9.6-8.8-19.1-12.8-28.8-1.3-3.1-1.5-6.7-1.6-10.1C538.9,823.4,539,813.8,539,803.2Z" transform="translate(-235.49 -50.9)"/></g><g id="Shoulders"><path class="cls-2" d="M910.5,454.3c-2.8-5.3-5-9.5-7.3-13.6-7.6-13.8-18.7-24-32.2-31.7-4.6-2.7-9.7-4.8-13.7-8.2-2.3-1.9-4.3-5.8-4-8.7,1.6-18.1-2.2-33.4-18.4-44.4-11.1-7.6-23.4-10.2-36.2-11.7-7.8-.9-15.7-1.1-25-1.6,5.8-3,10.6-5.6,15.5-8.1,6.1-3.1,12.1-6.4,18.4-9.1,2.4-1.1,5.4-1.1,8.1-1.3,4.2-.2,8.3,0,12.5,0,10.7-.1,21.3,1.5,30.1,7.4,9.4,6.4,17.3,14.8,26.1,22.2,6.3,5.4,10.9,12,14.7,19.3,5.7,10.8,8.3,22.6,9.9,34.5,1.5,11.7,2.5,23.5,3,35.3C912.2,440.8,911.1,446.9,910.5,454.3Z" transform="translate(-235.49 -50.9)"/><path class="cls-2" d="M405.4,455.2c-.5-8.3-1.8-15.3-1.2-22.1,1.5-16.8,2.7-33.8,6.4-50.1a76.92,76.92,0,0,1,14.1-29.2c7.3-9.4,17.4-16.8,26.5-24.7,12.5-10.8,27.7-11.9,43.4-12.3,7.4-.2,13.7,1,20.1,4.9,6.8,4.2,14.4,6.9,21.6,10.4a33.51,33.51,0,0,1,4.4,2.9c-11.8,1.3-24,2-35.9,4.2-17.3,3.2-31.6,11.4-39.3,28.2a22.88,22.88,0,0,0-2.2,8.9c-.3,6,.1,12-.2,18s-4.7,9.3-9.5,11.4c-11.7,5.2-22.2,12.2-30.4,22-5,6-8.8,12.9-13.1,19.4C408.5,449.4,407.3,451.8,405.4,455.2Z" transform="translate(-235.49 -50.9)"/></g><g id="Traps"><path class="cls-2" d="M795.7,318.5c-11.3,8.6-22.9,15.4-36.6,17.5-12.1,1.9-24.3,3.1-36.4,5.1-12.5,2.1-24.9,4.8-37.4,7.3-4.9,1-9.8,2.2-15.5,3.5q4.2-35.25,8.2-69.8c8.4-3.2,17.4-6.6,26.2-10.1,3.1-1.3,6-3.3,9.1-4.5,2.2-.9,4.2-.6,4.6,2.6,2,13.6,9.8,23.7,20.3,31.7,9.1,6.9,18.8,12.9,28.2,19.5a6.72,6.72,0,0,0,7.2.8C780.5,319.1,787.5,316.8,795.7,318.5Z" transform="translate(-235.49 -50.9)"/><path class="cls-2" d="M637.8,282.2c2.8,23.8,5.6,47,8.4,70.8-10.3-2.5-20-5.1-29.8-7.1-7.8-1.6-15.8-2.6-23.7-3.8s-15.6-2.1-23.3-3.3c-5.3-.8-10.6-1.8-15.9-2.7-12.6-2.2-22.8-8.9-33.3-16.6,8.6-1.5,15.6,1,22.7,3.4,1.7.6,4.4.6,5.8-.3,11.4-7.7,23.1-14.9,33.6-23.7,8.1-6.8,14.2-15.9,15.7-27,.6-4.3,2.3-4.5,5.6-3,7.2,3.3,14.4,6.8,21.8,9.7C629.6,280.3,634.3,281.2,637.8,282.2Z" transform="translate(-235.49 -50.9)"/></g><g id="Lats"><path class="cls-2" d="M842,448c0,19.3-.2,38.5,0,57.8.4,32.3-7.6,62.5-22.5,91a128.86,128.86,0,0,1-13,19.7C812.2,559,823.2,502.7,842,448Z" transform="translate(-235.49 -50.9)"/><path class="cls-2" d="M474,449.1c14.6,36.7,21,75.2,28.8,113.4,3.7,18,5.2,36.4,7.7,54.7-.6.2-1.1.5-1.7.7-2.9-4.5-6.1-8.9-8.7-13.6-12-21.1-20.7-43.5-24-67.7a186.15,186.15,0,0,1-1.9-23.6C473.8,491.7,474,470.4,474,449.1Z" transform="translate(-235.49 -50.9)"/></g><g id="Forearm"><path class="cls-2" d="M906.9,645.7c4.4-3.8,8.7-7.6,13.2-11.1.7-.5,3,0,3.7.8,9.4,9.8,18.6,19.8,27.8,29.7,5.3,5.7,10.7,11.3,16,17,19.8,21.1,37.8,43.5,53.1,68.1,8.7,14,18,27.5,27.1,41.3a18.13,18.13,0,0,1,1.2,2.8c-2.3,1.4-4.5,2.7-7.3,4.3-5.7-9-11.1-17.7-16.7-26.2-4.5-6.8-9.1-13.5-14.1-19.9-9.4-12-18.6-24.2-28.8-35.5-4.6-5.1-11.5-8-17.1-12.1-10-7.3-20.4-14.3-29.7-22.5-5.9-5.2-10.1-12.4-15-18.7C915.8,657.9,911.5,651.9,906.9,645.7Z" transform="translate(-235.49 -50.9)"/><path class="cls-2" d="M1039.5,798.6c-4.1,2.3-7.5,4.3-10.7,6.2-6.3-9.3-12.4-18.6-18.7-27.7-7.7-11.1-14.6-23.1-23.7-32.8-10.7-11.4-23.5-20.7-35.4-30.9a12,12,0,0,0-3.7-2.3c-11.1-3-18.6-10-24.5-19.7-6.6-10.8-14.1-21.2-21.7-31.3-3.6-4.7-2.7-7.8,1.5-10.9.7-.5,1.2-1.1,2.3-2.1,4.5,5.8,9.4,11.2,13.3,17.3a109.47,109.47,0,0,0,33.7,33.7c9.6,6.2,19.9,11.8,27.9,19.7,10.1,9.9,18.4,21.7,27.3,32.9,5.2,6.7,10.1,13.6,14.8,20.6,3.5,5.1,6.5,10.5,9.8,15.7C1034,790.8,1036.6,794.4,1039.5,798.6Z" transform="translate(-235.49 -50.9)"/><path class="cls-2" d="M1052,792.9c-19.5-28.3-37.5-57.5-58.6-84.1-21.3-26.9-45.8-51.3-69.3-77.3,2.4-2.1,5.3-4.8,8.3-7.1.5-.4,2.2.1,3,.7,11.8,8.3,23.6,16.7,33.7,27a21.39,21.39,0,0,1,2.8,3.9c11.3,17.5,22.8,35,33.9,52.7,12.9,20.6,25.4,41.4,38.1,62.1,3.3,5.4,6.4,11,9.7,16.4C1055.4,789.9,1054.9,791.7,1052,792.9Z" transform="translate(-235.49 -50.9)"/><path class="cls-2" d="M934.9,621.8c1.8-1.9,3.2-3.4,4.6-4.9,12.2,5.8,23.7,12.2,33.5,21.2a48.2,48.2,0,0,1,6.9,8.6c13,19.5,26.2,39,38.9,58.7,8.6,13.3,16.6,26.9,24.6,40.5,7.6,12.8,15,25.8,22.6,38.9q-4.65,2.7-8.1,4.8c-10.1-16.9-19.9-33.6-30.1-50.1q-20.7-33.45-41.9-66.6c-4.5-7-8.7-14.3-14.1-20.6-5.1-5.9-11.3-11-17.4-15.9C948.2,631.2,941.6,626.7,934.9,621.8Z" transform="translate(-235.49 -50.9)"/><path class="cls-2" d="M935.5,708.3c13.4,5.4,23.9,12.1,32.4,22a46,46,0,0,0,7.4,6.5c10.2,7.8,17.4,18.2,24.5,28.6,8.7,12.6,17,25.5,25.4,38.2.3.5.6,1.1,1.1,2.1-2.3,1.5-4.5,2.9-6.8,4.3-6-9-11.1-18.4-17.9-26.4-9.5-11-20.4-20.9-30.7-31.2-.9-.9-2.4-1.3-3.2-2.3C957.2,736.6,946.8,723,935.5,708.3Z" transform="translate(-235.49 -50.9)"/><path class="cls-2" d="M942.2,615.4c2.5-3,5-5.4,6.7-8.2,3.4-5.8,9.1-7.1,14.9-8,.8-.1,2.2,1.1,2.7,2,5.1,8.9,10.1,17.8,14.9,26.9,10.1,19,20.2,38.1,30.1,57.2a51.46,51.46,0,0,1,4.6,12.6c-5.1-7.7-10.1-15.5-15.3-23.2-7.9-11.5-15.9-22.9-23.8-34.4-5.4-7.9-13.4-12.7-21.4-17.3C951.2,620.3,946.7,617.9,942.2,615.4Z" transform="translate(-235.49 -50.9)"/><path class="cls-2" d="M408.8,646.5c-5.1,7.4-9.7,14.8-15,21.7-8.3,10.9-17.6,20.6-29.3,28.1-10.2,6.4-21,12.6-29.5,20.8-10.3,10-18.7,21.9-27.6,33.3-5.2,6.6-10,13.7-14.8,20.7-3.1,4.6-6,9.3-9,14s-6,9.3-9.4,14.5c-2.4-1.3-4.8-2.6-7.5-4.2,2.5-3.7,4.8-7.2,7.1-10.7,6.1-9.5,12-19,18.2-28.4,9-13.4,17.9-26.9,27.4-39.9,5.8-7.9,12.6-15.2,19.3-22.5,14.2-15.5,28.7-30.7,43-46.1,3.4-3.6,6.6-7.4,10.1-10.9.9-.9,3.4-1.7,4.1-1.2C400.4,639.1,404.7,642.9,408.8,646.5Z" transform="translate(-235.49 -50.9)"/><path class="cls-2" d="M287.3,805.9l-10.6-6.2c4.1-6.1,8-11.9,11.9-17.6,9.2-13.5,17.9-27.2,27.7-40.2,10.6-14.2,23-26.5,38.4-35.9,10.5-6.4,20.2-14.5,29.4-22.8,5.5-4.9,9.3-11.7,13.9-17.7,4.4-5.7,8.7-11.4,13-17.1.6.2.9.2,1.1.4,6.3,6,6.8,6.3,2.3,13.4-6.5,10.2-13.7,19.9-20.6,29.7-1.5,2.1-3,4.3-4.5,6.4-3.7,5.4-8.4,8.9-14.9,11.4a66.45,66.45,0,0,0-28.2,20.5c-1.7,2.1-4.1,3.7-6.3,5.4-9.6,7.4-16.9,17-23.7,26.8C306.4,776.7,297,791.2,287.3,805.9Z" transform="translate(-235.49 -50.9)"/><path class="cls-2" d="M391.9,632.4c-23.6,26.2-48.1,50.8-69.5,77.8-21,26.5-38.9,55.5-58.4,83.7-2.8-.8-3.5-2.6-1.7-5.6,6.6-10.9,13-21.9,19.6-32.8,8.3-13.7,16.4-27.4,25-40.9C317.5,698,329.2,682,339.1,665c5.2-8.9,11.9-16.1,19.3-22.7,7.1-6.3,15.1-11.4,22.8-16.9a2.87,2.87,0,0,1,2.7.1C386.8,627.8,389.4,630.2,391.9,632.4Z" transform="translate(-235.49 -50.9)"/><path class="cls-2" d="M258.2,790.6c-2.4-1.4-5.1-3-8.2-4.8,7.7-13.2,15.4-26.3,22.9-39.3,5.5-9.5,10.2-19.4,16.2-28.4,13.7-20.7,27.8-41,41.9-61.4,4.2-6,7.6-13.1,13-17.6,9.7-8.1,20.6-14.7,31.4-22.1,2,2.8,3.3,4.5,4.8,6.6-3.6,2.7-7.9,6.1-12.4,9.3-10.5,7.2-20.3,15.2-27.4,25.7-11.1,16.5-21.7,33.3-32.2,50.2-12.9,20.6-25.4,41.4-38.1,62.1C266.1,777.2,262.2,783.8,258.2,790.6Z" transform="translate(-235.49 -50.9)"/><path class="cls-2" d="M296.3,811c-2.2-1.4-4.4-2.8-6.8-4.4,5.7-8.5,11-16.7,16.5-24.7,8.1-11.7,16.1-23.3,24.5-34.7,2.6-3.5,6.4-6.1,9.8-9,8.5-7.3,16.9-14.7,25.8-21.6,3.7-2.9,8.5-4.6,12.7-6.9.3.3.6.7.9,1-4.9,6.3-9.9,12.6-14.8,18.9-5.4,7-10.6,14.1-16.2,20.9-1.7,2.1-4.4,3.2-6.6,5-12.1,9.6-21.8,21.4-30.7,33.8C306.4,796.2,301.6,803.3,296.3,811Z" transform="translate(-235.49 -50.9)"/><path class="cls-2" d="M373.6,616c-7.4,4.6-14.8,9.4-22.3,13.9s-13.1,10.8-17.8,18.1c-6.6,10.1-13.4,20.1-20,30.2A235,235,0,0,1,299,698.5c2-4.5,3.8-9.2,6.1-13.5q16.8-31.8,33.8-63.6c2.9-5.4,5.5-11.1,8.7-16.3,3.5-5.9,5.2-6.6,11.6-3.1,4,2.2,7.1,6.1,10.4,9.3A45.09,45.09,0,0,1,373.6,616Z" transform="translate(-235.49 -50.9)"/></g><g id="Obliques"><path class="cls-2" d="M790.3,710.5c.9,11.4,1.9,21.8,2.6,32.1.5,7.7.1,15.6,1.2,23.3,1.2,8.8-3.6,14.7-8.2,20.6-9.6,12.3-19.4,24.3-29.3,36.3-4.1,5-8.7,9.7-13.4,15-.1-1-.2-1.6-.2-2.2,0-24.1-.5-48.3.2-72.4.3-8.8-1-18.8,6.7-25.9a80.4,80.4,0,0,1,12.1-9.7c7.3-4.5,15.1-8.3,22.6-12.6C786.3,714.1,787.8,712.5,790.3,710.5Z" transform="translate(-235.49 -50.9)"/><path class="cls-2" d="M791.8,615c2.7,3.6,5.2,6.6,7.4,9.8a5,5,0,0,1,.7,4.1c-3.2,8.8-6.2,17.7-10.3,26.2-1.6,3.4-5.4,5.9-8.7,8.2a80,80,0,0,1-11.3,6.7c-5.9,3.1-11.8,1.6-14.3-4.5-1.4-3.5-1.3-7.7-1.5-11.7-.2-4.3.3-8.7-.1-13-.8-9.1,5.5-14,11.1-16.3C773.9,621,783,618.2,791.8,615Z" transform="translate(-235.49 -50.9)"/><path class="cls-2" d="M788.8,661.1c-.6,11.2-1.2,22.9-1.8,34.5a6.84,6.84,0,0,0,.3,2.9c4,7.8,1.6,11-6.5,16.4-2.8,1.9-5.8,3.6-8.7,5.4-7.2,4.6-16.6,1.3-18.8-7.1-2.6-9.4-3-19.2,1.4-28.1,2-4,6.2-7.4,10.1-10C772.4,670.1,780.6,665.8,788.8,661.1Z" transform="translate(-235.49 -50.9)"/><path class="cls-2" d="M820.1,513.6c-1.9,8.8-3.9,17.7-5.7,26.5-.9,4.5-1.5,9-2.4,13.4-1.3,6-9.1,9.3-14,5.9-6.9-4.7-13.7-9.4-20.3-14.4-3.5-2.7-6.2-6.2-9.4-9.2a128.3,128.3,0,0,1-13.7-14.5l40.8-.3c8.8-.1,18.2,1.7,23.9-8.7C819.6,512.8,819.9,513.2,820.1,513.6Z" transform="translate(-235.49 -50.9)"/><path class="cls-2" d="M801.1,601c-7.4,13.6-21.8,15.6-34.2,20.9-4.7,2-7.5-.6-9-4.6a123.09,123.09,0,0,1-5.4-17.6c-1.5-7.6,8.6-19.9,16.5-20.7a44.28,44.28,0,0,1,11.5.1c6,.9,10.2,4.4,13.1,9.8C795.9,593.4,798.9,597.5,801.1,601Z" transform="translate(-235.49 -50.9)"/><path class="cls-2" d="M804.3,565c-4.4,5.4-8.6,10.5-13.1,15.9-7.1-3.3-14.2-5.9-22.7-4.6-3,.5-8-2.8-9.9-5.7-3.4-5.4-5.3-11.7-7.5-17.8-.8-2.2-.7-4.8-1.1-7.2-.7-4.8,1.4-7.8,6.2-8.7a8.69,8.69,0,0,0,3.2-1.1c3-1.8,5.2-.9,7.4,1.4,9.3,9.5,19.2,18.1,30.7,24.7A54.7,54.7,0,0,0,804.3,565Z" transform="translate(-235.49 -50.9)"/><path class="cls-2" d="M790.5,519c16.3-11.1,30.1-22.6,38.3-39.5-1.9,7.8-3.4,15.8-5.9,23.5-2.7,8-11,17.4-20.3,16.2C799.2,518.6,795.7,519,790.5,519Z" transform="translate(-235.49 -50.9)"/><path class="cls-2" d="M802.5,599.1c-3-4.8-6.1-9.5-9.1-14.4a2.89,2.89,0,0,1,.2-2.7c5.4-7,10.8-13.9,17.3-20.3-2.2,12.5-4.4,24.9-6.6,37.4Z" transform="translate(-235.49 -50.9)"/><path class="cls-2" d="M573,839.4c-7.5-9-14.4-16.7-20.8-24.8-9.9-12.4-19.6-24.9-29.4-37.4a3.72,3.72,0,0,1-.8-2.2l.9-24.3c.3-6.8.6-13.5,1.1-20.3.5-6,1.2-12,1.8-17.5,8.4,4.9,16.4,10.2,25,14.2,7.7,3.6,14.1,8.1,18.2,15.5a20.83,20.83,0,0,1,2.9,8.1c.6,12.4.9,24.8,1.1,37.3.2,15.1,0,30.3,0,45.4Z" transform="translate(-235.49 -50.9)"/><path class="cls-2" d="M524.1,615.5c10.2,4.2,20.5,8,30.5,12.6,5.4,2.4,7.6,7.3,7.4,13.3-.2,6.8.8,13.8-.2,20.5-1.6,10.4-8.9,13.6-17.7,8-5.7-3.6-11.5-7.5-15.9-12.5-3.8-4.3-5.6-10.2-8.2-15.5-1.1-2.3-1.9-4.8-2.8-7.3-1.6-4.1-3.2-8,1.7-11.5C521.2,621.6,522.2,618.4,524.1,615.5Z" transform="translate(-235.49 -50.9)"/><path class="cls-2" d="M527,661.8c7.8,4.6,14.9,9.6,22.6,13.2,8.7,4,13.4,10.5,14.2,19.5a65.18,65.18,0,0,1-1.1,19.7c-1.8,8.7-11.6,11.9-19,6.9-4.7-3.1-9.1-6.7-13.8-9.6a6.27,6.27,0,0,1-2.6-8.1c1.7-3.9,1.4-7.4.8-11.4s-.1-8-.1-12c0-3.2.1-6.3,0-9.5C527.8,667.6,527.3,664.7,527,661.8Z" transform="translate(-235.49 -50.9)"/><path class="cls-2" d="M495.9,514.9c6.3,7.8,14.8,7.4,23.3,7.2,7.8-.2,15.6,0,23.4,0h18.6c.2.6.3,1.2.5,1.8-6.4,5.7-13.3,11-19.1,17.3-7.3,7.9-15.8,14-24.8,19.6-4.6,2.9-12.7-.3-13.8-5.8-2.5-12.1-4.7-24.2-7.1-36.3A21.1,21.1,0,0,0,495.9,514.9Z" transform="translate(-235.49 -50.9)"/><path class="cls-2" d="M514.3,602.7c3.7-5.6,7.2-11.1,11-16.4,4.6-6.6,11.8-7.7,18.7-7,11.3,1.3,19.4,9.1,19.5,20.3.1,7.9-2.2,16.5-8.4,22.7-1.2,1.2-4.7.8-6.9.2a146.72,146.72,0,0,1-17.8-6.6c-3.1-1.4-5.7-4-8.3-6.3C519.3,607.4,516.9,605.1,514.3,602.7Z" transform="translate(-235.49 -50.9)"/><path class="cls-2" d="M523.8,580.7c-3.4-4.2-7.7-9.4-11.2-13.7,8-5.6,15.8-10.7,23.2-16.4,4.9-3.8,9-8.5,13.8-12.4,1.5-1.2,4-1.7,6.1-1.8a11.32,11.32,0,0,1,6,1.7c1.8,1.3,4.3,3.6,4.2,5.4-.7,11.6-1.5,23.4-11.8,31.2-2.2,1.7-5.7,1.8-8.6,2.4C538.4,578.4,531.4,579.5,523.8,580.7Z" transform="translate(-235.49 -50.9)"/><path class="cls-2" d="M487.1,480.4c8.2,17,22.1,28.5,38,39.3-6.3,0-11.8,1-16.7-.2-7.9-1.9-12.8-8.2-15.3-15.7S489.1,488.3,487.1,480.4Z" transform="translate(-235.49 -50.9)"/><path class="cls-2" d="M506.1,562.2c5.4,6.9,10.9,13.8,16.3,20.8a2.89,2.89,0,0,1,.2,2.7c-2.9,4.8-6,9.6-9.1,14.4-.6,0-1.1.1-1.7.1-2.2-12.5-4.5-25.1-6.7-37.6C505.4,562.5,505.8,562.3,506.1,562.2Z" transform="translate(-235.49 -50.9)"/><path class="cls-2" d="M514.4,625.4c-.9-6.9-1.8-13.7-2.8-20.6.4-.2.9-.3,1.3-.5,3.7,2.7,7.3,5.4,11,8.1-.6.8-1.1,1.7-1.7,2.5-2.7,3.5-5.3,6.9-8,10.4Z" transform="translate(-235.49 -50.9)"/><path class="cls-2" d="M801.8,624.3c-2.7-3.5-5.3-6.9-9.8-12.8,3.8-2.8,7.5-5.4,12.6-9.1-1.1,8.3-2,15.1-2.9,22Z" transform="translate(-235.49 -50.9)"/></g><g id="Biceps"><path id="Main_Bicep" data-name="Main Bicep" class="cls-2" d="M851.4,400.4c8.3,4.9,16.4,9.7,24.4,14.6,10.1,6.2,17.8,15.2,24,24.9a356.65,356.65,0,0,1,21.9,39.7c8.3,18,16.8,35.9,22.6,55,5,16.8,9.8,33.4,10,51.2.1,9.4-3.7,16.5-9.6,22.8-6.5,7-13.6,13.4-20.6,19.8-4.5,4.1-9.4,7.7-15.1,12.3-2.4-7.1-4.7-13.8-6.9-20.4-.2-.6.2-1.5-.1-2-4.9-6.7,1.2-9.3,5-12.2,6.2-4.7,13.4-8.3,19.1-13.5,2.2-2,3-7.3,2.3-10.6-1.7-7.4-6.6-12.5-13.2-16.8-12.2-8-25.9-11.7-39.2-16.8-4.5-1.7-7.9-3.2-9.3-9.1-1.7-7-6.2-13.4-9.8-19.9-5-8.9-8.6-18.4-9.6-28.4-1.6-15.4-3.3-30.9-2.8-46.3.4-12.8,3.8-25.5,5.9-38.2A43.08,43.08,0,0,1,851.4,400.4Z" transform="translate(-235.49 -50.9)"/><path id="Main_Bicep_Left" data-name="Main Bicep Left" class="cls-2" d="M407.1,642.6c-8-7.4-14.5-13.6-21.2-19.7-4.7-4.3-9.9-8.2-14.2-12.9s-8.7-9.6-9.5-16.1a70.83,70.83,0,0,1,0-18.4,202.32,202.32,0,0,1,6.8-29.9c4.1-13.3,9-26.4,14.1-39.4a292.32,292.32,0,0,1,14-30.7c6.9-13,13.9-26.1,22.1-38.3A77.62,77.62,0,0,1,454.7,408c3.5-1.4,6.3-4.5,9.4-6.7,6,21.4,9.7,43,7.8,65.1a307,307,0,0,1-6.1,39.2c-1.5,6.8-5.7,13-8.7,19.5s-5.5,13-8.8,19.1c-1.2,2.1-3.9,3.9-6.3,4.8-10.3,3.9-21.2,6.6-31,11.5s-20.1,10-23.2,22.3a11.2,11.2,0,0,0,4.7,12.6c7.6,5.4,15,11.1,22.4,16.7.5.4,1.3,1.3,1.1,1.8C413.2,623,410.3,632.1,407.1,642.6Z" transform="translate(-235.49 -50.9)"/><path class="cls-2" d="M845.2,497.7c8.4,20.4,17.3,40.2,24.7,60.6,7.4,20.2,13.2,41.1,20.1,61.5a124.11,124.11,0,0,0,9.1,20c2.6,4.8,3.1,8.3-2.9,10.8-3.3-6.4-6.8-12.9-10.1-19.5-3-5.9-6-11.9-9-17.9q-10.5-21.6-21.1-43.1c-3.8-7.7-8.8-15-11.6-23.1-1.9-5.5-1.4-12.1-1.2-18.1.3-9.7,1.2-19.4,1.9-29.1A7.88,7.88,0,0,1,845.2,497.7Z" transform="translate(-235.49 -50.9)"/><path class="cls-2" d="M870.9,548.8c7.8,3,15.6,6,23.4,8.9,2.3.9,4.7,1.4,6.9,2.4,8,3.6,15.8,7.5,21.3,14.8,3.4,4.5,5.2,9.2,2.8,15.4-12.3-6.8-24.6-13.4-36.8-20.4-4.8-2.8-9.6-5.8-13.4-9.7-2.6-2.6-3.5-6.9-5.2-10.5A9,9,0,0,0,870.9,548.8Z" transform="translate(-235.49 -50.9)"/><path class="cls-2" d="M902.1,608c-5.9,1.7-4.8,5-3.2,9.2,3,7.7,5.4,15.6,7.8,23.4.3,1-1.4,2.5-2.6,4.5-10.2-20.5-18.5-40.5-23.3-62C887.7,591.2,894.7,599.3,902.1,608Z" transform="translate(-235.49 -50.9)"/><path class="cls-2" d="M923.3,591.7c-3.2,2-5.8,3.7-9,5.7-10.6-8.6-21.2-17.3-31.8-25.9.3-.4.6-.8,1-1.3C896.6,577.2,909.7,584.3,923.3,591.7Z" transform="translate(-235.49 -50.9)"/><path class="cls-2" d="M955.3,573.4c7.6,6.6,10.6,14,9.5,23.3-3.4.7-6.7,1.4-9.5,2Z" transform="translate(-235.49 -50.9)"/><path class="cls-2" d="M876,567.9q18.15,15.45,36.3,31.1c-.8.6-2.3,1.7-3.9,2.9C897.4,590.7,886,579.9,876,567.9Z" transform="translate(-235.49 -50.9)"/><path class="cls-2" d="M879,576.7c8.8,8.8,17.6,17.5,26.7,26.6-.3.4-1,1.4-2.1,2.9-8.5-9.9-16.8-19.5-25-29.1C878.7,577,878.9,576.9,879,576.7Z" transform="translate(-235.49 -50.9)"/><path class="cls-2" d="M470.4,500c.8,9.8,1.4,20.3,2.7,30.8s-2,19.6-6.7,28.6q-11.25,21.45-22.1,43.1c-8.1,16.3-16,32.7-24.1,49.1-6.4-3.9-6.1-3.8-3.4-10.1,6.8-16.4,14.8-32.5,19.3-49.5,6.7-25.3,14.9-49.8,26.9-73.1C466.1,512.6,468.1,505.8,470.4,500Z" transform="translate(-235.49 -50.9)"/><path class="cls-2" d="M390.4,591.5c-1.3-11.5,2.5-17.2,11.5-23.2,13.4-8.9,28.7-12.4,43.2-18.5.7,9.1-5.6,13.9-11.5,17.6C419.8,576,405.2,583.4,390.4,591.5Z" transform="translate(-235.49 -50.9)"/><path class="cls-2" d="M437.1,585.2q-11.85,30-23.6,59.9c-4.1-.7-4.9-1.7-3.7-5.1,3.2-8.5,5.9-17.1,8.3-25.8.4-1.6-2-3.9-3.3-6.3,6.4-7.4,13.3-15.5,20.3-23.6C435.8,584.6,436.5,584.9,437.1,585.2Z" transform="translate(-235.49 -50.9)"/><path class="cls-2" d="M433.4,572.4c-10.6,8.7-21.2,17.3-31.8,25.9-3.1-2-5.7-3.6-8.9-5.6,13.6-7.4,26.6-14.4,39.6-21.4A5.73,5.73,0,0,0,433.4,572.4Z" transform="translate(-235.49 -50.9)"/><path class="cls-2" d="M351.2,597.7c-1.2-9.4,1.9-16.6,9.3-23.4v25.1C358.1,599.1,354.8,598.4,351.2,597.7Z" transform="translate(-235.49 -50.9)"/><path class="cls-2" d="M407.8,602.9c-1.7-1.1-3.1-2.1-4.2-2.8,12.1-10.4,24.3-20.7,37.5-32C430.6,581.4,418.3,591.3,407.8,602.9Z" transform="translate(-235.49 -50.9)"/><path class="cls-2" d="M412.7,607c-1.2-1-2.1-1.7-2.5-2.1L437.1,578c.1,0,.2.1.3.1C429.3,587.7,421.1,597.1,412.7,607Z" transform="translate(-235.49 -50.9)"/></g><g id="Calves"><path class="cls-2" d="M535.1,1653.7l-37.6,6.1c-.5-5.3-1.1-10.5-1.5-15.8-.7-10.2-1.2-20.4-2.1-30.6-1.4-15.6-2.7-31.3-6.4-46.6-2.3-9.3-3.2-19-4.5-28.6-1.8-13.5-3.4-27-4.9-40.5-.6-5.4-.8-10.9-1.1-16.3-.4-7.6-1.4-15.3-.9-22.8,1.1-15.2,3.1-30.3,4.7-45.5,1-9.3,1.9-18.6,3.2-27.9,1-7.1,2.5-14.1,3.9-21.1,2.3-11.3,4.6-22.7,7-34a40.48,40.48,0,0,1,1.7-4.9,12.1,12.1,0,0,0,1.9-.1c1.8,9.9,3.4,19.9,5.4,29.8,3.3,16,2.4,32.2,3.2,48.4.5,11.2,3.2,22.3,4.7,33.5.6,4.9.8,9.9,1.1,14.8.7,9.9,1.2,19.7,2.1,29.6.9,10.3,2,20.6,3.1,30.9.9,8.3,1.9,16.6,2.9,24.9,2.3,18,4.7,36,6.9,54.1,1.3,10.4,2,20.9,3.1,31.4,1,8.9,2.4,17.8,3.6,26.7C534.8,1650.6,534.9,1651.9,535.1,1653.7Z" transform="translate(-235.49 -50.9)"/><path class="cls-2" d="M819.5,1324.1c1.5,5.6,3.3,11.1,4.5,16.7,2.8,13.2,5.5,26.5,7.8,39.8,1.6,9.4,2.2,18.9,3.3,28.3,1,8.8,2.5,17.6,3,26.4.7,11.6.9,23.3,1,34.9A197.68,197.68,0,0,1,838,1492c-1.4,13.9-3,27.7-4.7,41.5-1.3,10.1-2.6,20.1-4.2,30.1-1.2,7.4-3,14.7-4.3,22.1-.8,4.7-1.2,9.4-1.7,14.2-1.4,15.6-2.7,31.1-3.9,46.7-.3,4,0,8,0,12.3-12.8-2.1-25.1-4.1-38.1-6.2.4-2.4.8-4.7,1.1-7.1,1.7-13,3.4-26,4.9-39,1.4-12,2.6-24.1,4.1-36.2,1.9-15.3,4.1-30.5,5.9-45.8,1-8.5,1.3-17.1,2.1-25.6,1.2-13.4,2.6-26.8,3.9-40.2.4-4.3.7-8.5,1.1-12.8,1-10.8,2.1-21.6,3-32.4.8-9.7,1.5-19.4,2-29.1C810,1364.2,811.7,1343.9,819.5,1324.1Z" transform="translate(-235.49 -50.9)"/><path class="cls-2" d="M723.6,1374.2c5,7.2,10.2,14.8,15.6,22.2,2.9,3.9,7,6.9,9.4,11.1a225,225,0,0,1,10.3,20.9c5,11.1,6.3,23,6.9,34.9.8,15.4,1.4,30.9.9,46.3-.5,16.4-2.5,32.8-3.8,49.2-.8,10-1.1,20.1-2.1,30.1s-2.5,19.8-3.7,29.7c-.6,5.4-.9,10.8-1.3,16.3-.1,1.7,0,3.4,0,5.1-.6,0-1.2.1-1.8.1-1.4-6.4-2.9-12.7-4.2-19.1-3.4-16.4-6.8-32.8-10.2-49.3-2.3-11.2-4.2-22.4-6.9-33.5-3.5-14-7.2-28-14.7-40.7-5.5-9.4-7.2-20.1-9.4-30.6-2.7-12.6.1-24.6,2.3-36.7,2.9-15.5,6.5-30.9,9.9-46.3C721.7,1380.5,722.7,1377.3,723.6,1374.2Z" transform="translate(-235.49 -50.9)"/><path class="cls-2" d="M560.5,1640.8c-.5-5.1-.9-10.3-1.5-15.4-1.2-10.7-2.7-21.4-3.8-32.2-.9-7.8-1.6-15.7-2.1-23.6-.8-13-1.5-26-2-39.1-.8-18.5-2.1-37.1-1.8-55.6.3-20.7,3.7-41.1,13.9-59.5,2.8-5.1,7.5-9.3,11-14.1,5.1-7,10-14.1,14.9-21.2,1.2-1.7,2.1-3.6,3.6-6,4.8,22.3,9.9,43.7,14,65.3,1.7,9.1,3,18.5.7,28.1-2.4,10.3-3.9,20.7-9.1,30.2a100.19,100.19,0,0,0-8,17.7c-3.8,12.2-7.2,24.6-10,37.1-3.8,17-6.7,34.2-10.2,51.3-2.5,12.4-5.5,24.7-8.2,37A6.48,6.48,0,0,1,560.5,1640.8Z" transform="translate(-235.49 -50.9)"/></g><g id="Abs"><path class="cls-2" d="M738.1,599.8c-4-3.3-7.9-6.7-12-9.8-13.6-10.1-29.4-15-45.5-19.2-4.9-1.3-9.6-3.8-14.1-6.3a7.18,7.18,0,0,1-3.1-5.2c.3-7.9,1-15.7,1.8-23.5.8-8,2.2-15.9,2.8-23.9.6-7.6,5.9-11.6,13.6-10.3,11.3,1.9,22.3,4.6,32.4,10.3,5.7,3.2,11.5,6.3,16.7,10.1,1.9,1.4,2.9,4.9,3.3,7.6,1.3,8.4,2.4,16.9,3,25.3,1.1,14.6,1.8,29.3,2.7,44A8.94,8.94,0,0,1,738.1,599.8Z" transform="translate(-235.49 -50.9)"/><path class="cls-2" d="M576,599.9c1.3-15.7,2.6-31.5,4-47.2.6-6.9,1.9-13.7,1.9-20.6,0-7.9,5.6-10.8,10.9-14,9.8-5.8,19.9-11.4,31.2-13.4,6.3-1.1,12.9-5.3,19.3-.5,2,1.5,4.2,4.1,4.5,6.4,1.4,10.6,2.2,21.2,3.2,31.8.5,5.5,1.4,11.1,1.4,16.6,0,2.3-1.5,5.9-3.3,6.7-7.6,3.5-15.4,7.2-23.5,9-16.9,3.8-31.1,12.2-44.1,23.2-1.2,1-2.5,1.8-3.8,2.7C577.1,600.4,576.6,600.1,576,599.9Z" transform="translate(-235.49 -50.9)"/><path class="cls-2" d="M657,941.8c-9.9.3-15.1-3.1-19.2-13.5-6.9-17.6-13.3-35.3-19.8-53-4.8-13-10-25.8-14.1-39-5.3-16.7-12-33-13.9-50.7-1.8-16.8-3.9-33.5-6-50.3-.7-6.2-1.6-12.3-2.5-19.7,1.9,1.6,3,2.3,3.8,3.1,2.8,2.9,5.4,3.4,9.6,2.1a87,87,0,0,1,19.6-3.7c8.9-.9,17.8-1,27.4-1.4v6.8c0,8.5,3.4,12.2,11.9,13.6,1.2.2,2.2,1.8,3,3,.4.6.1,1.6.1,2.5V937.5C657,938.8,657,940.1,657,941.8Z" transform="translate(-235.49 -50.9)"/><path class="cls-2" d="M674,714.8c17.1.5,33.5.8,49.4,5.7,1.7.5,4.1-.5,5.8-1.4,1.5-.8,2.6-2.4,4.9-4.5-.5,6.2-.7,11.3-1.2,16.4-.9,8.5-1.8,16.9-2.9,25.4-1.4,10.2-3,20.4-4.4,30.5-3.4,25-13.6,48.1-21.7,71.7-8.4,24.3-18.2,48-27,72.1-2.9,8-9.4,8.8-16.6,10.6-.4-3-1.2-5.7-1.2-8.4-.1-63.9,0-127.9-.1-191.8,0-4.3.7-6.4,5.7-6.2,4.5.2,9.2-5.7,9.4-10.8C674.1,721.2,674,718.4,674,714.8Z" transform="translate(-235.49 -50.9)"/><path class="cls-2" d="M597.9,710.8c-3.5,0-7,.5-10.4-.1-5.6-.9-8.3-4.5-8.4-11.1-.2-12.7-.3-25.4.2-38,.1-1.7,2.9-4.2,4.9-5,13.1-4.7,26.3-9.3,39.6-13.5,9.5-3,18.4.1,26.9,4a7.07,7.07,0,0,1,3.2,4.9c.7,5.5.8,11.2,1.1,16.8.4,6.8,1.2,13.5.8,20.3a55.7,55.7,0,0,1-3.5,14.9c-.6,1.7-3.1,3.5-5.1,3.8a124.48,124.48,0,0,1-13.7,1.2L598,711.1A.37.37,0,0,0,597.9,710.8Z" transform="translate(-235.49 -50.9)"/><path class="cls-2" d="M737,670.6c0,8.7.3,17.4-.1,26a26.3,26.3,0,0,1-3.1,11c-.9,1.6-4.5,2.3-6.8,2.3-11.4-.4-22.7-1.2-34.1-1.8-3-.2-6,0-9-.1-5.1-.3-10.2-.4-15.3-1.1s-6.6-5.6-7.3-9.3a97.47,97.47,0,0,1-1.1-20.2c.2-7.2,1.5-14.4,1.8-21.6.3-8.6,3-10.5,11.1-13.1,12.2-3.9,22.7.2,33.5,4.4,7.2,2.8,14.6,5.3,22.1,7.6,8.3,2.6,8.4,2.4,8.4,10.8C737,667.3,737,668.9,737,670.6Z" transform="translate(-235.49 -50.9)"/><path class="cls-2" d="M737,630.6c0,4.7.1,9.3,0,14-.1,3.1-1.2,4-4.4,2.7-11-4.3-22-8.9-33.4-12-6.1-1.6-12.9-.4-19.4-.1-4.5.2-9.2,2-13.5,1.3-2.1-.3-4.9-4.7-5-7.4-.5-14.3-.7-28.7,0-43,.3-6.8,6-9.7,13.3-9,14.3,1.4,27.4,6.4,40.2,12.8,15.2,7.6,24.4,18.4,22.4,36.3A21.31,21.31,0,0,0,737,630.6Z" transform="translate(-235.49 -50.9)"/><path class="cls-2" d="M579.3,631.1c0-5.3-.6-10.7.1-15.9,1.6-10.7,9.2-17.1,18-22.3a115.9,115.9,0,0,1,33.8-13.4c5.4-1.2,11.3-.9,16.9-.4,4.5.4,6.5,4.3,6.7,8.4.6,10.2,1.1,20.5.9,30.7-.1,5.6-1.6,11.2-2.9,16.7-.5,2.1-1.9,2.9-4.9,2.3-6.6-1.3-13.3-1.7-20-2.3-11-1-20.6,4.3-30.6,7.3a99.18,99.18,0,0,0-13.5,5.7c-3.4,1.7-5,.9-5-2.9V631A1.34,1.34,0,0,0,579.3,631.1Z" transform="translate(-235.49 -50.9)"/></g><path d="M719,264c1.7,17,10.8,29.3,24.4,38.8,7.9,5.5,15.9,10.8,24,16a7.51,7.51,0,0,0,5.5.7c8-2.7,16.1-4.5,24.8-3.1.2,1,.4,2,.6,3.2a13.08,13.08,0,0,0,1.5-.5c4.4-2,9-6,13.2-5.7,16,1.1,33.1-1.4,47.2,8.6,9.4,6.7,17.3,15.5,26.3,22.8,6.4,5.2,10.6,11.9,14.4,18.9,6,10.9,8.5,22.9,10,35,1.5,12.4,2.3,24.9,3,37.4.3,4.2-.4,8.6-.9,12.8-1.1,8.1,2.8,14.4,6.3,21.2,6.1,11.9,11.7,24.1,16.6,36.5,5.5,13.9,10.1,28.1,15,42.2,2.7,7.8,4.8,15.8,7.8,23.4,1.8,4.5,4.8,8.5,7.2,12.8a7.11,7.11,0,0,1,1,3.7c-1,7.2,2.4,12.9,6,18.7,3.5,5.6,6.4,11.7,9.5,17.6,10.4,19.8,21.9,39.1,30.9,59.5,8.6,19.3,19.5,37.2,29.4,55.7,7.1,13.4,15,26.4,22.6,39.5.8,1.4,2.4,2.3,3.7,3.4v4c-4.6,2.1-9.2,4-13.6,6.3-12.5,6.5-25,13.2-36.8,19.4-5.4-7.9-10.3-15.7-15.8-23.2-10.1-13.8-20.4-27.5-35.3-36.7a5.81,5.81,0,0,1-1.8-1.7c-18.3-24.3-36.5-48.6-55-72.8a167.1,167.1,0,0,1-19.9-33.6c-5.8-12.8-12.8-25-19.1-37.5-8.1-16-16.1-32.1-24.1-48.1-2.1-4.3-4.2-8.6-6.6-13.6-5.8,21.6-12.5,41.6-23.7,59.7-3.4,5.4-7,10.6-10.8,15.7-1.1,1.5-3.2,2.3-4.8,3.4.9-6.9,1.8-13.7,2.9-22-5.1,3.7-8.8,6.3-12.6,9.1,4.5,5.8,7.2,9.3,9.8,12.8,3.2,4.1-.4,7.5-1.6,10.9-2.2,6.3-5.9,12-7.8,18.3-1.6,5.4-2,11.3-2.4,17a211.16,211.16,0,0,0,3.9,53.2,64.75,64.75,0,0,1,1,10.8c.7,13.4,1.2,26.7,1.8,40.1a3.58,3.58,0,0,1-.9,2.1c-4.8,6.6-9.9,13-14.5,19.7-1,1.5-1.2,3.8-1.3,5.8-.4,8.1-.5,16.2-1.1,24.3-.6,7-2,13.9-2.6,20.9-.9,11.7-1.8,23.7,4.1,34.3,6.3,11.3,14,22,21.3,32.7,9.3,13.7,19.2,27,28.1,40.8,7.4,11.5,15,23.1,20.5,35.4,3.9,8.6,4.9,18.5,6.5,28,6.3,39.5,3.4,79.4,4.1,119.2.3,14.4-.9,28.6-5.2,42.4-6.5,21.3-13.3,42.5-19.8,63.8-1.5,5-1.9,10.2-3.2,15.3a140.47,140.47,0,0,1-4.3,14.4c-2.4,6.7-5,13.4-8.1,21.5-1.4-2.8-3-4.9-3.5-7.2-2.1-9.4-4.2-18.7-5.7-28.2a224.86,224.86,0,0,1-3.2-28.3c-.1-3.8,2.9-7.6,4.3-11.5a62.76,62.76,0,0,0,2.7-8.7,52.36,52.36,0,0,0,1-12.6l-14.4,28.8c-6.5-15.9,5.9-27.1,7.1-41.4-3,3.8-6.3,7.5-9,11.5s-5.1,8.4-8,13.3c-4.1-13.4-1.2-25.7.1-38.9-4,7-3.5,14.9-9.3,21.1-2.7-13.8-5.2-26.5-7.7-39.1l-1.8.3c1.9,13.5,3.8,27,5.7,40.4l-.9.3c-1.1-1.6-2.2-3.2-3.9-5.7,1.8,6.3,4.3,11.4,4.6,16.6a203,203,0,0,1-.3,27c-1.3,18.3-9.8,34.3-16.8,50.7-2,4.6-5.4,7.9-11.1,7.5-12.4-1-24-4.1-29.6-16.6a236.82,236.82,0,0,1-10.9-30.2c-2.3-8.1-3-16.7-4.2-23.8-.3,1.9-.9,5.2-1.5,8.4-.7.7-1.4,1.3-2,2-.1-1.1-.2-2.3-.4-3.4-4-17.3-7.8-34.6-12.3-51.8-2.9-11.3-7.2-22.2-10-33.6-2-8-2.5-16.5-3.7-24.7-1.4-9-2.9-18-4.3-27.1-.6-3.7-1.5-7.4-1.6-11.1-.5-12.4-.9-24.9-1-37.3-.2-20.2.2-40.3-.2-60.5-.1-6.1-1.7-12,1.1-18,2.6-5.6,4-11.8,7.3-16.9,5.5-8.6,13.1-15.9,18.1-24.7,11-19.3,20.7-39.3,31.2-58.8,3.6-6.7,8.1-12.8,12.1-19.3a12.91,12.91,0,0,0,2.2-6.1c.2-22.3,0-44.7.1-67,0-7.6-.1-15.3,1.1-22.8,1.6-9.6,8.5-15.9,16.3-21,1.1-.7,2.2-1.4,3.5-2.2-16.6-4.9-16.8-41.7-.6-50.5-6.9-4.3-10.5-10.3-10.4-18.2.1-5.6.6-11.2,1-16.8.1-1.9,0-4.1,1-5.7,2-3.3,4.6-6.3,7.1-9.7-12.8-16.8-13.5-33.7,2.9-45.7-2.6-2.6-5.8-5-7.9-8.1-5.1-7.7-6.6-16.6-7.1-25.6-.3-5.8,1.7-7.9,7.7-9.3,1.7-.4,3.3-1.5,4.9-2.2-7.7-13.7-23.1-11.9-35.2-17.2.6.5,1.2,1,1.9,1.5s1.2,1.3,1.9,1.5c5.4,1.4,6.3,5.9,6.8,10.2,1.6,14.5,2.9,29.1,4,43.7.6,8.1.8,16.2,1,24.3a46.21,46.21,0,0,1-1,6.6c-3.7-2.4-6.7-4.4-9.8-6.4-3.1-2.4-6.1-4.8-9.2-7.2a82.46,82.46,0,0,0-30.7-14c-8.3-2-16.9-3.5-24.1-8.8-3.8-2.8-5.5-5.7-4.4-10.7s.9-10.1,1.4-15.2c1-10.8,1.9-21.6,3-32.4.7-7,9.6-10.8,15.4-9.6,3.5.8,7,1.5,10.2,2.1-4.6-5-9.9-9.4-13.3-14.9a101.37,101.37,0,0,1-10.8-23.4c-1.4-4.6.1-10.1.7-15.2,1.1-9.6,2.4-19.2,4-28.7,1.9-11.1,3.6-22.2,6.6-33,3.3-11.7,8-23,12.1-34.5.2-.6.2-1.2.5-2.9-8.3,2.4-16,4.6-23.8,6.8,2.9-24.5,5.8-50.1,8.9-76.6,13.9-1,26.2-9.8,39.8-15.1A10.21,10.21,0,0,0,719,264ZM819,1288.9h1.3c2.4-6,5.1-11.9,7.2-18a93.9,93.9,0,0,0,3.4-12.6c1.2-5.1,1.7-10.3,3.2-15.3,6.5-21.3,13.2-42.5,19.8-63.8,4.2-13.8,5.4-28,5.2-42.4-.3-25.2,0-50.3-.1-75.5a195.72,195.72,0,0,0-1.1-20.3c-1-9.1-2.4-18.1-3.9-27.2-1.7-10.6-3.6-21.3-9-30.7-7.2-12.4-14.3-24.9-22.4-36.7-8.5-12.5-18.2-24.1-27-36.4-5.6-7.8-10.6-16-15.6-24.1-5.5-9.1-6.2-19.5-6.4-30-3.6,6.7-7.4,13.2-9.9,20.3-1.6,4.4-1.2,9.4-1.6,14.1-1.7,17.3-3.6,34.6-4.9,52s-5.3,34.5-9,51.5c-2.2,10-5,19.9-7,29.9-3.5,17.9-6.6,35.9-9.9,53.9-2.4,13.2-4.9,26.3-7.2,39.5q-3.75,21.75-7.2,43.5c-1.7,10.5-3.2,21-4.8,31.5-1.1,7.3-2.3,14.6-2.8,21.9-.4,6.9-1.3,14.3.4,20.9,3.1,12.1,7.8,23.7,12.1,35.5a32.45,32.45,0,0,0,5.3,9.2c6.3,7.5,15.4,8.8,24.4,9.5,4.1.3,6.7-2.6,8.1-6.1,7-16.6,15.5-32.8,17-51.2.7-8.1,1.5-16.5.2-24.5-1.5-8.3-5.5-16.2-8.4-24.3-.9-2.5-1.8-4.9-2.6-7.4.6-.3,1.2-.7,1.8-1,2.4,3,4.7,5.9,7.4,9.3-.7-6.3-1.1-12-2-17.6-.9-5.8-2-11.4,1.6-17.1a124.87,124.87,0,0,1,5.5,18.7c1.4,6.3,2.5,12.7,4,20.2,1.7-5,3-8.5,4-12.1,1.9-7.1,3.4-14.2,5.3-21.3.4-1.4,1.5-2.5,2.3-3.8a10.47,10.47,0,0,1,1.1.8c-3.7,15.7-5.8,47-3.4,52,3.5-5,6.5-10.2,10.5-14.7,10.4-11.7,10.6-11.6,12.5-11.1-5,14.2-11.9,27.8-15.6,42.6.7.3,1.4.6,2,.9,5.6-11.2,11.2-22.4,16.7-33.7a7.46,7.46,0,0,1,1.2.7c-.8,7.3-1.5,14.6-2.6,21.8a67.43,67.43,0,0,1-3.1,10.6c-1.5,4.4-5,8.8-4.5,12.9C812.6,1252.1,816,1270.4,819,1288.9ZM763.5,518.6v.4c2.7,0,5.3.1,8,0,9.5-.4,18.7-1.5,26.6-7.9,9.1-7.4,17.5-15.2,23.9-25.1,10.1-15.5,13.5-33.3,17.9-50.8,3.3-13.1,6.3-26.2,9.6-39.3,3.1-12.2,2.4-23.9-4.7-34.4-10.9-16.3-28.3-21-46.2-23.3-9.5-1.2-19.4-.6-29.1-.1a300.67,300.67,0,0,0-31.4,3.1c-14.2,2.2-28.2,5.2-42.3,7.9a4.11,4.11,0,0,0-2.8,2.1c-4.3,11.9-9.2,23.7-12.4,35.9-3.5,13.4-5.3,27.1-7.7,40.8-1.1,6.3-1.8,12.6-2.4,19-.7,7.3-3.5,14.9,1.6,21.8a7.8,7.8,0,0,1,.8,2.3c2.9,8.6,7,16.9,13.7,22.9,5.1,4.6,11.6,8.1,17.9,10.9,9.6,4.3,19.7,7.7,29.6,11.2,4.6,1.6,9.3,3.3,14.1,3.7C753.3,520.1,758.5,519,763.5,518.6Zm14.7,284.1c-3.2,3.1-6.1,5.5-8.6,8.3q-14.4,16.65-28.4,33.4c-4.3,5.2-8.6,10.4-11.8,16.2-3.8,6.8-6.1,14.4-9.4,21.4a336.1,336.1,0,0,1-38,61.9c-7.9,10.1-14.3,21.6-10.2,35.6a3.08,3.08,0,0,1,.1,1c-.3,11.9-.8,23.8-.8,35.8.1,20.4.5,40.9,1,61.3a93.61,93.61,0,0,0,1.5,11.7c1.4,9.2,3,18.3,4.4,27.5,1.3,8.2,1.9,16.6,3.9,24.7,2.4,9.7,6.4,19.1,9,28.8,4.5,16.6,8.5,33.4,12.6,50.1.9-3.3,1-6.8,1.6-10.1,2.9-15.9,6.1-31.7,8.8-47.6,2.9-17.4,5.2-34.9,8.2-52.3,3.7-21.3,7.7-42.7,12-63.9,4.1-20.4,9.1-40.6,13.2-61.1,3.4-17.1,6.4-34.3,8.5-51.6,1.6-13.2.9-26.8,2.4-40,1-9.1,1.8-18.4,6.4-26.9,5.4-10.1,11.5-20,11.8-32.2C776.6,824,777.6,813.5,778.2,802.7Zm73.2-402.3c-.4,2-.9,4.1-1.2,6.1-2.1,12.7-5.5,25.4-5.9,38.2-.5,15.4,1.2,30.9,2.8,46.3,1,10,4.6,19.5,9.6,28.4,3.6,6.5,8.1,12.9,9.8,19.9,1.5,5.9,4.8,7.4,9.3,9.1,13.3,5.1,27,8.8,39.2,16.8,6.6,4.3,11.5,9.4,13.2,16.8.8,3.3,0,8.6-2.3,10.6-5.8,5.2-12.9,8.8-19.1,13.5-3.8,2.9-9.8,5.4-5,12.2.3.4-.1,1.4.1,2,2.2,6.7,4.5,13.3,6.9,20.4,5.7-4.6,10.6-8.2,15.1-12.3,7.1-6.4,14.2-12.8,20.6-19.8,5.8-6.3,9.7-13.4,9.6-22.8-.2-17.8-5-34.4-10-51.2-5.7-19.2-14.2-37.1-22.6-55a341.15,341.15,0,0,0-21.9-39.7c-6.2-9.8-13.9-18.7-24-24.9C867.8,410.1,859.7,405.3,851.4,400.4Zm59.1,53.9c.6-7.5,1.6-13.5,1.3-19.6-.6-11.8-1.5-23.6-3-35.3-1.6-11.9-4.1-23.7-9.9-34.5-3.8-7.2-8.4-13.9-14.7-19.3-8.7-7.4-16.7-15.9-26.1-22.2-8.7-5.9-19.4-7.5-30.1-7.4-4.2,0-8.3-.2-12.5,0-2.7.1-5.7.2-8.1,1.3-6.3,2.7-12.3,6-18.4,9.1-4.9,2.5-9.7,5-15.5,8.1,9.3.6,17.2.7,25,1.6,12.8,1.5,25.1,4.2,36.2,11.7,16.2,11,20,26.3,18.4,44.4-.2,2.8,1.8,6.8,4,8.7,4.1,3.4,9.1,5.5,13.7,8.2,13.5,7.8,24.6,17.9,32.2,31.7C905.5,444.9,907.7,449,910.5,454.3ZM795.7,318.5c-8.2-1.6-15.2.6-22,3.4a6.72,6.72,0,0,1-7.2-.8c-9.3-6.5-19.1-12.6-28.2-19.5-10.6-8-18.4-18.1-20.3-31.7-.5-3.1-2.4-3.5-4.6-2.6-3.1,1.3-6,3.3-9.1,4.5-8.9,3.6-17.8,6.9-26.2,10.1q-4.05,34.5-8.2,69.8c5.7-1.3,10.5-2.5,15.5-3.5,12.4-2.5,24.9-5.2,37.4-7.3,12.1-2,24.3-3.3,36.4-5.1C772.8,333.8,784.4,327.1,795.7,318.5ZM738.1,599.8c.5-.3,1-.5,1.5-.8-.9-14.7-1.6-29.3-2.7-44-.6-8.5-1.8-16.9-3-25.3-.4-2.7-1.4-6.1-3.3-7.6-5.2-3.9-11-6.9-16.7-10.1-10-5.8-21-8.4-32.4-10.3-7.7-1.3-13,2.6-13.6,10.3-.6,8-2,15.9-2.8,23.9-.8,7.8-1.5,15.7-1.8,23.5a6.56,6.56,0,0,0,3.1,5.2c4.5,2.5,9.2,5.1,14.1,6.3,16.2,4.1,31.9,9,45.5,19.2C730.2,593.1,734.1,596.6,738.1,599.8Zm52.2,110.7c-2.6,2.1-4,3.6-5.7,4.6-7.5,4.2-15.3,8.1-22.6,12.6-4.4,2.7-8.2,6.2-12.1,9.7-7.8,7.1-6.5,17.1-6.7,25.9-.7,24.1-.3,48.3-.2,72.4,0,.6.1,1.2.2,2.2,4.7-5.3,9.3-10,13.4-15,9.9-12,19.7-24,29.3-36.3,4.7-6,9.5-11.9,8.2-20.6-1.1-7.7-.7-15.5-1.2-23.3C792.3,732.2,791.3,721.8,790.3,710.5Zm116.6-64.8c4.6,6.1,8.9,12.1,13.5,18,4.9,6.4,9.1,13.5,15,18.7,9.3,8.2,19.6,15.2,29.7,22.5,5.7,4.1,12.6,7,17.1,12.1,10.2,11.3,19.4,23.5,28.8,35.5,5,6.4,9.6,13.2,14.1,19.9,5.6,8.5,11,17.2,16.7,26.2,2.8-1.7,5-3,7.3-4.3a18.13,18.13,0,0,0-1.2-2.8c-9-13.8-18.4-27.3-27.1-41.3-15.3-24.6-33.4-47-53.1-68.1-5.3-5.7-10.7-11.3-16-17-9.3-9.9-18.5-19.9-27.8-29.7-.8-.8-3.1-1.3-3.7-.8C915.6,638.1,911.3,642,906.9,645.7Zm132.6,152.9c-2.9-4.2-5.5-7.9-8-11.7-3.3-5.2-6.4-10.6-9.8-15.7-4.8-7-9.6-14-14.8-20.6-8.8-11.2-17.1-23-27.3-32.9-8-7.9-18.3-13.5-27.9-19.7A108.4,108.4,0,0,1,918,664.3c-3.9-6.1-8.8-11.5-13.3-17.3a18.15,18.15,0,0,1-2.3,2.1c-4.3,3.1-5.1,6.2-1.5,10.9,7.6,10.2,15.1,20.5,21.7,31.3,5.9,9.7,13.4,16.8,24.5,19.7a9.6,9.6,0,0,1,3.7,2.3c11.9,10.2,24.7,19.6,35.4,30.9,9.2,9.8,16,21.7,23.7,32.8,6.3,9.1,12.4,18.3,18.7,27.7C1032,802.9,1035.4,801,1039.5,798.6ZM842,448c-18.8,54.7-29.8,110.9-35.4,168.4a131.45,131.45,0,0,0,13-19.7c14.9-28.5,22.9-58.7,22.5-91C841.8,486.6,842,467.3,842,448Zm210,344.9c2.9-1.3,3.4-3,1.7-5.8-3.4-5.4-6.4-11-9.7-16.4-12.6-20.7-25.2-41.5-38.1-62.1C994.8,691,983.3,673.5,972,656a22.82,22.82,0,0,0-2.8-3.9c-10.2-10.3-21.9-18.7-33.7-27-.8-.6-2.5-1.1-3-.7-3,2.3-5.9,5-8.3,7.1,23.6,26,48,50.4,69.3,77.3C1014.5,735.4,1032.5,764.6,1052,792.9ZM934.9,621.8c6.7,4.9,13.4,9.4,19.6,14.4s12.3,10,17.4,15.9c5.4,6.3,9.6,13.6,14.1,20.6,14.1,22.2,28.1,44.3,41.9,66.6,10.2,16.5,20,33.3,30.1,50.1q3.45-2.1,8.1-4.8c-7.6-13.1-15-26-22.6-38.9-8.1-13.6-16.1-27.2-24.6-40.5-12.7-19.7-25.8-39.2-38.9-58.7a47.34,47.34,0,0,0-6.9-8.6c-9.8-9.1-21.3-15.4-33.5-21.2C938.1,618.4,936.7,619.8,934.9,621.8ZM845.2,497.7c-.1.9-.1,1.5-.2,2.1-.7,9.7-1.6,19.4-1.9,29.1-.2,6.1-.7,12.6,1.2,18.1,2.8,8.1,7.8,15.3,11.6,23.1,7.1,14.3,14,28.7,21.1,43.1,2.9,6,5.9,12,9,17.9,3.4,6.6,6.8,13.1,10.1,19.5,6-2.5,5.6-6,2.9-10.8a133.42,133.42,0,0,1-9.1-20c-6.9-20.4-12.7-41.3-20.1-61.5C862.4,537.9,853.6,518.1,845.2,497.7ZM791.8,615c-8.8,3.1-18,6-26.8,9.6-5.5,2.3-11.9,7.2-11.1,16.3.4,4.3-.1,8.7.1,13,.2,3.9,0,8.2,1.5,11.7,2.5,6.1,8.3,7.6,14.3,4.5a80,80,0,0,0,11.3-6.7c3.2-2.4,7-4.9,8.7-8.2,4-8.4,7.1-17.4,10.3-26.2a5.52,5.52,0,0,0-.7-4.1C797.1,621.6,794.6,618.6,791.8,615Zm-3,46.1c-8.2,4.7-16.4,9-24.1,14.1-3.9,2.6-8.1,6-10.1,10-4.4,8.9-3.9,18.6-1.4,28.1a12.31,12.31,0,0,0,18.8,7.1c2.9-1.8,5.9-3.5,8.7-5.4,8.1-5.4,10.5-8.7,6.5-16.4a6.84,6.84,0,0,1-.3-2.9C787.6,684,788.2,672.3,788.8,661.1Zm31.3-147.5c-.2-.4-.5-.9-.7-1.3-5.7,10.4-15.1,8.6-23.9,8.7l-40.8.3a137.42,137.42,0,0,0,13.7,14.5c3.2,3.1,5.9,6.6,9.4,9.2,6.6,5.1,13.4,9.8,20.3,14.4,4.9,3.4,12.7.1,14-5.9,1-4.4,1.5-9,2.4-13.4C816.2,531.3,818.2,522.5,820.1,513.6Zm-19,87.4c-2.2-3.5-5.2-7.6-7.5-12.1-2.9-5.4-7.1-9-13.1-9.8A55.26,55.26,0,0,0,769,579c-7.9.7-18,13-16.5,20.7a123.09,123.09,0,0,0,5.4,17.6c1.5,4,4.3,6.6,9,4.6C779.3,616.6,793.7,614.6,801.1,601Zm3.2-36a62.58,62.58,0,0,1-6.7-3c-11.5-6.7-21.5-15.3-30.7-24.7-2.3-2.3-4.5-3.2-7.4-1.4a9.37,9.37,0,0,1-3.2,1.1c-4.8.9-6.9,3.9-6.2,8.7.4,2.4.2,5,1.1,7.2,2.2,6.1,4.1,12.4,7.5,17.8,1.9,3,6.9,6.2,9.9,5.7,8.5-1.3,15.6,1.3,22.7,4.6C795.6,575.5,799.9,570.4,804.3,565ZM935.5,708.3c11.3,14.7,21.7,28.3,32.3,41.8.8,1,2.2,1.4,3.2,2.3,10.3,10.3,21.2,20.2,30.7,31.2,6.9,7.9,11.9,17.4,17.9,26.4,2.3-1.5,4.4-2.9,6.8-4.3a12.78,12.78,0,0,0-1.1-2.1c-8.4-12.8-16.7-25.6-25.4-38.2-7.1-10.4-14.3-20.8-24.5-28.6a46,46,0,0,1-7.4-6.5C959.4,720.4,948.8,713.7,935.5,708.3Zm6.7-92.9c4.5,2.5,9.1,4.9,13.6,7.6,8,4.7,16,9.4,21.4,17.3,7.9,11.5,15.9,22.9,23.8,34.4,5.2,7.6,10.2,15.4,15.3,23.2a52.58,52.58,0,0,0-4.6-12.6q-15-28.65-30.1-57.2c-4.8-9-9.9-18-14.9-26.9-.5-.9-1.9-2.2-2.7-2-5.9.9-11.5,2.3-14.9,8C947.2,610,944.6,612.4,942.2,615.4Zm-71.3-66.6-.9.9c1.7,3.6,2.6,7.9,5.2,10.5,3.8,3.9,8.6,6.9,13.4,9.7,12.1,7,24.4,13.6,36.8,20.4,2.4-6.2.6-10.9-2.8-15.4-5.5-7.3-13.3-11.2-21.3-14.8-2.2-1-4.6-1.6-6.9-2.4C886.5,554.7,878.7,551.8,870.9,548.8ZM902.1,608c-7.4-8.6-14.4-16.8-21.4-24.9,4.8,21.5,13.1,41.4,23.3,62,1.2-2,2.9-3.5,2.6-4.5-2.3-7.9-4.8-15.8-7.8-23.4C897.3,613,896.2,609.7,902.1,608ZM790.5,519c5.2,0,8.7-.4,12.1.1,9.3,1.2,17.6-8.2,20.3-16.2,2.5-7.6,4-15.6,5.9-23.5C820.7,496.4,806.8,507.9,790.5,519Zm12,80.1h1.8c2.2-12.5,4.4-24.9,6.6-37.4A232.52,232.52,0,0,0,793.6,582a2.89,2.89,0,0,0-.2,2.7C796.3,589.6,799.4,594.3,802.5,599.1Zm120.8-7.4c-13.7-7.4-26.7-14.5-39.8-21.5-.3.4-.6.8-1,1.3,10.6,8.7,21.2,17.3,31.8,25.9C917.5,595.4,920.1,593.8,923.3,591.7Zm32-18.3v25.2c2.7-.6,6.1-1.3,9.5-2C966,587.3,962.9,580,955.3,573.4ZM876,567.9c10,12,21.5,22.8,32.4,34,1.7-1.2,3.1-2.3,3.9-2.9C900.1,588.6,888,578.3,876,567.9Zm3,8.8a1.76,1.76,0,0,0-.5.4c8.3,9.6,16.5,19.2,25,29.1,1.1-1.5,1.8-2.5,2.1-2.9Z" transform="translate(-235.49 -50.9)"/><path d="M248,784c4.6-7.5,9.3-14.8,13.7-22.4,11.1-19.2,22.3-38.3,32.8-57.9,6.5-12.1,11.2-25,17.5-37.2,7.9-15.5,16.5-30.7,24.9-46,3.3-6.1,6.9-12.1,10.1-18.4a20.05,20.05,0,0,0,2-7.9c.2-7.1,2.1-13.1,7.3-18.5,2.6-2.8,3.1-7.7,4.3-11.7,2.3-7.4,4.1-15,6.7-22.3,4.4-12.4,8.9-24.8,13.9-36.9,4.2-10.3,9.1-20.2,13.7-30.3a43.57,43.57,0,0,1,3.3-6c5.9-8.5,5.5-17.8,4-27.5-.7-4.7.2-9.6.4-14.3.4-6.6.4-13.2,1.4-19.7,2.1-14.3,4-28.7,10.8-41.9,6.3-12.1,15.5-21.7,25.8-30.4,3.1-2.6,6.4-5.1,9.5-7.8,12-10.3,26.5-12.1,41.5-12,3.6,0,7.2-1,10.8-.8,2.6.2,5.2,1.5,7.7,2.6s4.8,2.7,7.5,4.2c.3-1.6.5-2.6.9-4.8,7,1,14.6.7,20.8,3.4,7,3.1,11.3-.3,15.8-3.3,8.3-5.5,16.2-11.6,24-17.8A45.92,45.92,0,0,0,596,271.2c.5-2,.9-4.1,1.4-6.7,14.5,5.8,28.5,11.4,42.6,17.1,2.9,24.5,5.8,50.2,8.7,75.1-7.5-2.2-15.3-4.4-24.1-7,1.8,5.6,2.7,10.6,4.8,14.9,5.9,11.8,9.3,24.3,11.8,37.1,2.1,10.9,3.3,22,4.8,33,1.1,7.8,2,15.6,2.9,23.4.2,2.1.6,4.6-.2,6.4-3.1,7.5-6,15.3-10.2,22.1-3.6,5.8-9.1,10.4-13.7,15.5,2.6-.5,6-.9,9.3-1.7,8.5-2,15.3,3.2,16,11.8.9,11.3,2.6,22.5,3.8,33.7.5,4.7,1.4,9.6.8,14.2-.3,2.8-2.6,5.9-4.9,7.8-8,6.5-18.3,7.5-27.8,10a81.36,81.36,0,0,0-27,13c-3.1,2.4-6.1,4.8-9.2,7.1-2.9,1.9-5.9,3.9-9.2,6-.6-1.1-1.6-2.2-1.6-3.3.1-8.4.3-16.9.7-25.3.3-5.9.6-11.9,1.2-17.8,1.1-10.2,2.7-20.4,3.8-30.7.4-3.5,1.8-5.7,5.1-7.1a13.13,13.13,0,0,0,4.6-3.6c-11.9,5.3-27,3.6-35.1,17.3a31.69,31.69,0,0,0,4.9,2.3c6.3,1.5,8.6,4.2,7.6,10.8a120.28,120.28,0,0,1-4,18c-1.9,6-5.3,11.2-11.5,13.8,17.6,12.5,15.8,30.8,2.9,46.9,6.9,3.9,9.3,9.9,8.9,17.7-.3,4.9.9,9.9.8,14.8-.2,7.3-3.4,13.2-10.7,17.1,10.7,6,12.4,16.2,12.5,26.1.1,9.6-.9,20-11.2,23.9,5,5.3,10.5,10.5,15.2,16.4a17.43,17.43,0,0,1,3.2,9.9c.6,29.3.6,58.5,1.4,87.8.1,4,3.3,8.4,6.3,11.6,7.4,8.1,10,18.6,15.2,27.8,5.9,10.5,11.1,21.5,16.6,32.2a107.52,107.52,0,0,0,6.8,11.9c6.1,8.4,12.8,16.4,18.7,24.9s10.5,18.7,9.4,28.2c-1.4,11.3-.7,22.5-1.1,33.7-.5,15.6,0,31.3-.2,47-.1,14.3-1,28.4-4.6,42.5-2.3,9-2.1,18.5-3.4,27.8-1.1,7.6-2.1,15.2-4.1,22.6-3.6,13.2-8.2,26-11.7,39.2s-6.2,26.6-9.1,40c-.2,1.1-.3,2.3-.4,3.4-.7-.7-1.4-1.3-2.1-2-.6-3.3-1.2-6.6-1.7-9.9.9,12.2-2.9,23.5-6.7,34.6a187.85,187.85,0,0,1-7.8,20.5c-4.4,9.2-12.1,14.3-22.1,16-1.3.2-2.5.5-3.8.8-7.5,1.7-12.5-1.3-15.4-8.7-4.1-10.3-8.9-20.3-12.6-30.7-2.1-5.9-2.9-12.3-3.9-18.6-2-11.9-2.9-23.9,1.6-35.5a26,26,0,0,0,2.2-7c-1,1.5-2.1,3-3.1,4.6-.3,0-.7-.1-1-.1l5.7-40.5-1.8-.3c-2.5,12.6-5,25.1-7.8,39.1-5.8-6.1-5.3-14.1-7.8-18.3v34.9c-.4.2-.9.3-1.3.5-5.5-8.1-11.1-16.2-16.6-24.3-.6.3-1.1.6-1.7.9,1,2.9,1.9,5.9,3.1,8.8,2.5,6.2,5.6,12.2,7.4,18.6,1.1,3.9.2,8.3-.7,12.8-7.4-8.4-10.6-18.9-16.4-28.1,2.1,7.8-.2,16.1,5.9,23.6,3.1,3.8,3.2,11.1,2.6,16.5-1.2,11.6-3.7,23.2-5.8,34.7-.9,5-1.8,9.9-3.1,14.8-.6,2.1-2.1,4-3.7,6.8-2.4-7.1-4.6-12.5-6.2-18.1-2.7-9.1-5-18.4-7.8-27.5-5.3-17.4-11.1-34.7-16.3-52.1-6.1-20.3-10.9-40.7-10.1-62.2.8-22.3.1-44.7.2-67a342.11,342.11,0,0,1,4.8-53.5c1.9-11.7,3.8-23.2,9.7-33.6,4.9-8.6,10.6-16.8,16-25.2,5.3-8.2,10.2-16.7,15.8-24.7,7.9-11.1,16.5-21.7,24.5-32.7,5.4-7.4,10.9-15,12.1-24.2s1.1-18.9,1-28.3c-.1-6.2-1.4-12.4-1.9-18.6-.8-9.5-.9-19.1-2.1-28.5-.5-3.4-3.3-6.6-5.4-9.7-3-4.3-6.3-8.4-9.4-12.6a4.35,4.35,0,0,1-.9-2.1c.5-13.4.6-26.8,1.9-40.1,1.2-12.3,3.7-24.5,5.4-36.8.4-2.7-.4-5.5-.6-8.2-.7-11.4-.2-22.9-2.3-34-1.7-8.9-6.5-17.2-9.7-25.9-.6-1.5.2-3.5.3-5.3,2.7-3.5,5.3-7,8-10.4.6-.8,1.1-1.7,1.7-2.5-3.7-2.7-7.3-5.4-11-8.1-.4.2-.9.3-1.3.5.9,6.9,1.8,13.7,2.8,20.6-5.9-.7-7.5-6.4-9.9-10A199.55,199.55,0,0,1,477,552.7c-.4-1.7-.8-3.3-1.6-6.4-2.5,5.2-4.4,9.4-6.5,13.5-4.2,8.1-8.6,16.2-12.7,24.4-9,18.1-18.4,36-26.7,54.5-11.4,25.4-28.2,47.3-44.7,69.4-11.1,14.8-22.5,29.3-34,43.8-1.7,2.1-4.7,3-6.6,5-7.2,7.2-14.5,14.4-21.1,22.1-6,6.9-11.4,14.4-16.7,21.8-3,4.2-5.4,8.8-8.3,13.5-5.9-3.2-12-6.6-18.2-9.8-10.5-5.4-21.1-10.8-31.6-16.1A23.76,23.76,0,0,1,248,784Zm300.6,391.4c.5.4.9.8,1.4,1.2a12.25,12.25,0,0,1-.2,1.9c-2.2,5.4-4.1,11-6.8,16.2-6.1,12.1-5.7,24.8-3.7,37.6,1,6.6,2.1,13.2,4.3,19.5,3.8,10.7,8.4,21.2,12.7,31.7a10.34,10.34,0,0,0,12,6.4c1.3-.3,2.5-.7,3.8-.9,9.4-1.6,17.4-5.7,21.1-14.8,4.2-10.2,6.8-21,11.1-31.2,3.8-9,3.3-18.3,2.6-27.3-1.2-14.7-3.7-29.2-5.8-43.8-1.9-13.4-3.9-26.8-6.2-40.2-2-11.9-4.6-23.7-6.8-35.5-4.4-24.1-8.5-48.2-13.2-72.2-3.1-15.8-7.2-31.4-10.7-47.1-1.5-6.7-3.1-13.3-4-20.1-1.1-7.5-1.4-15.1-2.1-22.6-1.6-16.3-4.4-32.7-4.6-49-.1-11.5-7-19-10.7-28.2-.9,6.5-1.4,13.1-2.7,19.5-1.7,9-6.8,16.6-12,23.8s-11.3,13.8-16.6,21c-4.2,5.6-7.9,11.6-11.7,17.5-8.6,13.4-17.1,27-25.8,40.4-7.4,11.4-9.9,24.2-12.1,37.3A362.66,362.66,0,0,0,457,1078c.1,19.7.7,39.4-.2,59-.9,21.9,4.8,42.5,10.8,63.1,4.9,16.7,10.6,33.1,15.7,49.7,1.2,3.9.9,8.2,2.2,12,2.9,8.8,6.3,17.4,9.5,26a29.31,29.31,0,0,0,1.5,2.8c3.3-17.6,6.7-34.1,9.4-50.8,1.1-6.5.5-13.1-4.7-18.4a7.8,7.8,0,0,1-2-4.3q-1.95-13.95-3.6-27.9c.4-.2.9-.4,1.3-.6,5.6,11.2,11.2,22.5,16.7,33.7l2.1-.9c-4-14.8-10.7-28.6-15.6-43.4,9.1,7.4,16.5,16.5,23.2,26.6,1.7-17.7-2.7-34.8-3.7-53.6,4.5,3.6,3.4,8.4,4.8,11.9,1.7,4,2.3,8.4,3.5,12.6,1.2,4,2.4,8,4.1,13.4,3.4-14,3.7-27.2,10.1-38.9,3.6,11.5.3,22.8-1.3,35C543.8,1181.3,546.2,1178.4,548.6,1175.4Zm-84-789.1c.4,2.4,1.1,6.8,2.1,11,3.7,15.5,7.5,30.9,11.3,46.4,2.1,8.5,3.3,17.4,6.9,25.3,5.7,12.7,11.9,25.4,23.2,34.6,8.7,7.1,16.4,15.2,29,15.6,12.1.3,24.2,2.4,36.1-.4,18.4-4.4,36.4-10.2,52-21.5,1.8-1.3,4.1-2.3,5.6-3.9,7.8-8.5,11.2-19.4,15.8-29.6a10.05,10.05,0,0,0,.4-4.9c-1.6-13-2.8-26-5-38.9a399.09,399.09,0,0,0-8.2-39.1c-2.6-9.7-7-18.9-10.8-28.2a4.66,4.66,0,0,0-2.9-2.6c-11.2-2.2-22.4-4.3-33.7-6.1-19.9-3.2-39.7-6.4-60.1-5.2-13.8.8-26.8,3.2-39.1,9.6C472.5,355.9,465.3,367.9,464.6,386.3ZM539,803.2c0,10.5-.1,20.1.1,29.7.1,3.4.3,7,1.6,10.1,4,9.7,8.5,19.2,12.8,28.8.5,1.2,1.4,2.4,1.5,3.6,1.8,17,3.4,34,5.1,50.9,1.1,11.4,1.2,23.1,3.3,34.3,3.5,19,8.3,37.8,12.5,56.7,2.2,10.2,4.3,20.4,6.2,30.6,2.7,14.1,5.2,28.2,7.8,42.3,2.4,13.3,4.9,26.6,7.2,39.9,2,11.7,3.9,23.5,5.9,35.2,1.7,10.6,3.4,21.3,5.2,31.9,1.3,7.8,2.8,15.6,4.4,24.2,2-8.3,3.6-15.7,5.6-23.1,3.7-13.6,7.7-27.2,11.6-40.8,3.2-11.3,7.9-22.2,7.5-34.3-.1-3.9.8-7.8,1.5-11.7,1.4-8,3.6-15.9,4.3-24,1.2-13.7,1.6-27.4,2.1-41.1.9-24.4-1.4-48.9,1-73.3a4.49,4.49,0,0,0,0-2c-3.1-7.8-5.3-16.2-9.6-23.3-5.2-8.7-12.2-16.3-18.2-24.6a99.1,99.1,0,0,1-6.8-11.9c-5.6-10.7-11-21.5-16.5-32.2-4.2-8.2-7.2-17.4-12.8-24.6C568.3,837.3,553.5,820.5,539,803.2ZM407.1,642.6c3.2-10.4,6.1-19.6,8.8-28.8.1-.5-.6-1.4-1.1-1.8-7.4-5.6-14.8-11.4-22.4-16.7a11.34,11.34,0,0,1-4.7-12.6c3.1-12.3,13.5-17.5,23.2-22.3s20.7-7.5,31-11.5c2.4-.9,5.1-2.7,6.3-4.8,3.3-6.2,5.9-12.7,8.8-19.1s7.2-12.7,8.7-19.5a304.29,304.29,0,0,0,6.1-39.2c2-22.1-1.8-43.7-7.8-65.1-3.1,2.3-5.9,5.3-9.4,6.7a77.62,77.62,0,0,0-35.5,29.2c-8.2,12.2-15.3,25.3-22.1,38.3-5.2,9.9-9.8,20.3-14,30.7-5.1,13-10,26.1-14.1,39.4a222.62,222.62,0,0,0-6.8,29.9,66.7,66.7,0,0,0,0,18.4c.8,6.5,5.2,11.5,9.5,16.1s9.5,8.5,14.2,12.9C392.6,629,399.2,635.2,407.1,642.6Zm-1.7-187.4c1.9-3.4,3.2-5.9,4.6-8.1,4.3-6.6,8.1-13.5,13.1-19.4,8.2-9.8,18.7-16.7,30.4-22,4.8-2.1,9.3-5.3,9.5-11.4s-.2-12.1.2-18a27.06,27.06,0,0,1,2.2-8.9c7.7-16.8,22.1-25,39.3-28.2,11.9-2.2,24.1-2.9,35.9-4.2a33.51,33.51,0,0,0-4.4-2.9c-7.2-3.5-14.8-6.3-21.6-10.4-6.4-3.9-12.7-5.1-20.1-4.9-15.7.4-30.9,1.4-43.4,12.3-9.1,7.9-19.2,15.3-26.5,24.7A78.42,78.42,0,0,0,410.5,383c-3.7,16.4-4.8,33.3-6.4,50.1C403.6,439.9,404.9,446.9,405.4,455.2Zm232.4-173c-3.6-1-8.2-1.9-12.5-3.6-7.4-3-14.6-6.4-21.8-9.7-3.3-1.5-5-1.3-5.6,3-1.5,11-7.6,20.2-15.7,27-10.4,8.8-22.2,16-33.6,23.7-1.4.9-4.1.9-5.8.3-7.1-2.4-14.1-4.9-22.7-3.4,10.6,7.7,20.8,14.4,33.3,16.6,5.3.9,10.6,1.9,15.9,2.7,7.8,1.2,15.6,2.1,23.3,3.3,7.9,1.2,15.9,2.2,23.7,3.8,9.8,2,19.5,4.6,29.8,7.1C643.4,329.2,640.6,306,637.8,282.2ZM576,599.9c.6.3,1.1.5,1.7.8,1.3-.9,2.6-1.7,3.8-2.7,13-11,27.2-19.4,44.1-23.2,8.1-1.8,15.9-5.5,23.5-9,1.8-.8,3.3-4.4,3.3-6.7.1-5.5-.8-11.1-1.4-16.6-1-10.6-1.8-21.3-3.2-31.8-.3-2.3-2.5-4.9-4.5-6.4-6.4-4.8-13-.6-19.3.5-11.3,2-21.4,7.6-31.2,13.4-5.3,3.2-10.9,6.1-10.9,14,0,6.9-1.3,13.7-1.9,20.6C578.6,568.4,577.3,584.1,576,599.9Zm-3,239.5v-5.9c0-15.1.1-30.3,0-45.4-.1-12.4-.5-24.8-1.1-37.3-.1-2.8-1.5-5.6-2.9-8.1-4.1-7.4-10.5-11.9-18.2-15.5-8.6-4-16.5-9.4-25-14.2-.6,5.6-1.4,11.6-1.8,17.5-.5,6.7-.8,13.5-1.1,20.3q-.6,12.15-.9,24.3a3.72,3.72,0,0,0,.8,2.2c9.8,12.5,19.5,25.1,29.4,37.4C558.6,822.7,565.5,830.4,573,839.4ZM408.8,646.5c-4.2-3.6-8.4-7.4-13-10.9-.7-.5-3.1.3-4.1,1.2-3.5,3.5-6.7,7.3-10.1,10.9-14.3,15.4-28.8,30.6-43,46.1-6.7,7.3-13.4,14.5-19.3,22.5-9.5,13-18.5,26.5-27.4,39.9-6.3,9.3-12.2,18.9-18.2,28.4-2.3,3.5-4.7,7-7.1,10.7,2.7,1.5,5.1,2.8,7.5,4.2,3.4-5.2,6.4-9.8,9.4-14.5s5.8-9.4,9-14c4.8-7,9.6-14,14.8-20.7,8.9-11.3,17.3-23.3,27.6-33.3,8.6-8.3,19.3-14.4,29.5-20.8,11.7-7.4,21.1-17.2,29.3-28.1C399.2,661.3,403.8,653.9,408.8,646.5ZM287.3,805.9c9.7-14.7,19.1-29.2,28.9-43.4,6.8-9.9,14-19.4,23.7-26.8,2.2-1.7,4.6-3.3,6.3-5.4a66.45,66.45,0,0,1,28.2-20.5,30.48,30.48,0,0,0,14.9-11.4c1.5-2.1,3-4.3,4.5-6.4,6.9-9.9,14.1-19.6,20.6-29.7,4.5-7.1,4.1-7.4-2.3-13.4-.2-.2-.5-.2-1.1-.4-4.3,5.6-8.6,11.4-13,17.1-4.6,6-8.4,12.8-13.9,17.7-9.2,8.3-18.9,16.3-29.4,22.8-15.4,9.4-27.8,21.7-38.4,35.9-9.7,13-18.5,26.8-27.7,40.2-3.9,5.7-7.8,11.5-11.9,17.6C280.3,801.8,283.7,803.8,287.3,805.9ZM474,449.1c0,21.3-.2,42.6.1,63.9a206.61,206.61,0,0,0,1.9,23.6c3.3,24.2,12.1,46.5,24,67.7,2.7,4.7,5.8,9.1,8.7,13.6.6-.2,1.1-.5,1.7-.7-2.5-18.2-4-36.7-7.7-54.7C495,524.3,488.6,485.7,474,449.1ZM391.9,632.4c-2.5-2.2-5.1-4.6-8-6.8a2.87,2.87,0,0,0-2.7-.1c-7.7,5.5-15.7,10.6-22.8,16.9-7.4,6.6-14.1,13.8-19.3,22.7-10,17-21.6,33-32.2,49.6-8.6,13.5-16.7,27.2-25,40.9-6.6,10.9-13,21.9-19.6,32.8-1.8,3-1,4.7,1.7,5.6,19.5-28.2,37.4-57.2,58.4-83.7C343.8,683.1,368.3,658.5,391.9,632.4ZM258.2,790.6c4.1-6.8,7.9-13.4,11.9-19.9,12.7-20.7,25.2-41.5,38.1-62.1,10.5-16.9,21.1-33.7,32.2-50.2,7.1-10.6,16.9-18.6,27.4-25.7,4.5-3.1,8.8-6.5,12.4-9.3-1.5-2.1-2.7-3.8-4.8-6.6-10.7,7.4-21.7,14-31.4,22.1-5.5,4.6-8.9,11.6-13,17.6-14,20.4-28.2,40.8-41.9,61.4-6,9.1-10.8,19-16.2,28.4-7.5,13.1-15.2,26.1-22.9,39.3C253,787.5,255.8,789.2,258.2,790.6ZM470.4,500c-2.2,5.8-4.2,12.7-7.5,18.9C451,542.2,442.8,566.7,436,592c-4.5,17-12.5,33.1-19.3,49.5-2.6,6.3-3,6.2,3.4,10.1,8-16.4,15.9-32.8,24.1-49.1,7.2-14.5,14.5-28.9,22.1-43.1,4.8-9,8-18.1,6.7-28.6S471.2,509.7,470.4,500Zm53.7,115.5c-1.9,3-2.9,6.1-5.1,7.7-4.9,3.5-3.3,7.3-1.7,11.5.9,2.4,1.7,4.9,2.8,7.3,2.6,5.3,4.4,11.2,8.2,15.5,4.4,5,10.2,8.9,15.9,12.5,8.7,5.6,16,2.4,17.7-8,1-6.7,0-13.7.2-20.5.2-6.1-2.1-10.9-7.4-13.3C544.6,623.5,534.3,619.6,524.1,615.5Zm2.9,46.3c.4,2.9.8,5.8,1,8.7.2,3.2,0,6.3,0,9.5,0,4-.4,8,.1,12s.9,7.5-.8,11.4a6.08,6.08,0,0,0,2.6,8.1c4.8,2.9,9.2,6.5,13.8,9.6,7.4,5,17.2,1.7,19-6.9a65.18,65.18,0,0,0,1.1-19.7c-.8-9-5.5-15.5-14.2-19.5C541.8,671.4,534.7,666.4,527,661.8ZM495.9,514.9a22.38,22.38,0,0,1,1,3.7c2.4,12.1,4.6,24.2,7.1,36.3,1.1,5.5,9.2,8.7,13.8,5.8,9-5.6,17.5-11.7,24.8-19.6,5.8-6.3,12.7-11.6,19.1-17.3-.2-.6-.3-1.2-.5-1.8H542.6c-7.8,0-15.6-.1-23.4,0C510.7,522.2,502.2,522.6,495.9,514.9Zm18.4,87.8c2.6,2.4,5.1,4.7,7.6,6.9,2.7,2.2,5.2,4.9,8.3,6.3a151.18,151.18,0,0,0,17.8,6.6c2.1.7,5.7,1,6.9-.2,6.2-6.1,8.5-14.8,8.4-22.7-.1-11.2-8.2-19-19.5-20.3-6.8-.8-14.1.4-18.7,7C521.5,591.6,518,597.1,514.3,602.7Zm9.5-22c7.6-1.3,14.6-2.3,21.5-3.6,3-.5,6.4-.7,8.6-2.4,10.3-7.8,11.2-19.6,11.8-31.2.1-1.7-2.4-4.1-4.2-5.4a9.6,9.6,0,0,0-6-1.7c-2.1,0-4.6.5-6.1,1.8-4.8,3.9-8.9,8.7-13.8,12.4-7.4,5.7-15.2,10.8-23.2,16.4C516.1,571.3,520.4,576.5,523.8,580.7ZM296.3,811c5.3-7.6,10.1-14.8,15.1-21.8,9-12.4,18.6-24.3,30.7-33.8,2.2-1.7,4.9-2.9,6.6-5,5.6-6.8,10.8-13.9,16.2-20.9,4.9-6.3,9.9-12.6,14.8-18.9-.3-.3-.6-.7-.9-1-4.3,2.3-9,4-12.7,6.9-8.8,6.9-17.3,14.4-25.8,21.6-3.4,2.9-7.2,5.5-9.8,9-8.4,11.4-16.5,23.1-24.5,34.7-5.5,8-10.8,16.2-16.5,24.7C292,808.1,294.1,809.5,296.3,811Zm77.3-195a45.09,45.09,0,0,0-4-4.7c-3.4-3.2-6.4-7.2-10.4-9.3-6.4-3.5-8-2.8-11.6,3.1-3.2,5.3-5.8,10.9-8.7,16.3-11.3,21.2-22.6,42.3-33.8,63.6-2.3,4.4-4.1,9-6.1,13.5a235,235,0,0,0,14.5-20.3c6.7-10.1,13.5-20,20-30.2a57,57,0,0,1,17.8-18.1C358.8,625.4,366.2,620.6,373.6,616Zm16.8-24.5c14.8-8.1,29.3-15.5,43.2-24,5.9-3.6,12.1-8.5,11.5-17.6-14.5,6-29.8,9.6-43.2,18.5C392.9,574.3,389.1,579.9,390.4,591.5Zm46.7-6.3c-.7-.3-1.4-.6-2-.9-7,8.1-13.9,16.2-20.3,23.6,1.3,2.4,3.7,4.7,3.3,6.3a258.28,258.28,0,0,1-8.3,25.8c-1.3,3.4-.4,4.3,3.7,5.1Q425.35,615.1,437.1,585.2Zm50-104.8c1.9,7.8,3.4,15.8,5.9,23.4,2.5,7.4,7.4,13.7,15.3,15.7,4.9,1.2,10.4.2,16.7.2C509.2,508.9,495.3,497.4,487.1,480.4Zm19,81.8c-.3.1-.7.3-1,.4,2.2,12.5,4.5,25.1,6.7,37.6.6,0,1.1-.1,1.7-.1,3.1-4.8,6.2-9.5,9.1-14.4a2.89,2.89,0,0,0-.2-2.7C517,576,511.5,569.1,506.1,562.2Zm-72.7,10.2a12,12,0,0,0-1.2-1.1c-13,7-26,14.1-39.6,21.4,3.2,2,5.8,3.7,8.9,5.6C412.2,589.8,422.8,581.1,433.4,572.4Zm-82.2,25.3c3.6.7,6.9,1.3,9.3,1.8V574.4C353.1,581.1,350,588.4,351.2,597.7Zm56.6,5.2c10.5-11.6,22.8-21.5,33.3-34.8-13.2,11.3-25.3,21.6-37.5,32A50.29,50.29,0,0,1,407.8,602.9Zm4.9,4.1c8.4-9.8,16.6-19.3,24.7-28.8-.1,0-.2-.1-.3-.1L410.2,605C410.6,605.3,411.5,606,412.7,607Z" transform="translate(-235.49 -50.9)"/><path d="M495,1662c-1.3-17.6-2.3-35.2-4.1-52.7-1.6-16.3-3.7-32.5-6-48.7-1.9-13.4-4.8-26.7-6.8-40.1-1.1-7.6-1.6-15.4-2.1-23.1-.8-14.4-2.3-28.8-1.8-43.1.5-14,3-28,4.5-42,.8-7.2,1.2-14.4,2.3-21.5,1.4-9.2,3.2-18.3,4.9-27.4,2.2-11.5,4.5-23,7.1-34.4.7-3.2,2.7-6.1,4-9.2h2c2.3,10.8,4.7,21.6,6.8,32.5,3.1,16.8,2.6,33.9,3.3,50.9.6,14.5,3.3,29,4.7,43.5,1.3,13.1,1.7,26.3,3.1,39.4,2,18.4,4.6,36.7,6.8,55.1.9,7.7,1.3,15.4,2.1,23.1s2,15.6,3,23.4l3,23.4c1.6,12.8,3.3,25.6,4.9,38.5.2,1.9,0,4,0,6.2-11.6,1.8-23,3.6-34.4,5.5a6,6,0,0,0-1.5.9A54.3,54.3,0,0,0,495,1662Zm40.1-8.3c-.2-1.8-.3-3.1-.5-4.4-1.2-8.9-2.6-17.8-3.6-26.7-1.2-10.4-1.9-20.9-3.1-31.4-2.2-18-4.6-36-6.9-54.1-1-8.3-2-16.6-2.9-24.9-1.1-10.3-2.2-20.6-3.1-30.9-.8-9.9-1.4-19.7-2.1-29.6-.3-4.9-.5-9.9-1.1-14.8-1.5-11.2-4.1-22.3-4.7-33.5-.8-16.2.1-32.4-3.2-48.4-2-9.9-3.6-19.9-5.4-29.8a12.1,12.1,0,0,0-1.9.1,28.42,28.42,0,0,0-1.7,4.9c-2.4,11.3-4.7,22.6-7,34-1.4,7-2.9,14.1-3.9,21.1-1.3,9.3-2.2,18.6-3.2,27.9-1.6,15.2-3.6,30.3-4.7,45.5-.6,7.5.5,15.2.9,22.8.3,5.4.5,10.9,1.1,16.3,1.5,13.5,3.1,27,4.9,40.5,1.3,9.6,2.2,19.2,4.5,28.6,3.8,15.4,5,31,6.4,46.6.9,10.2,1.3,20.4,2.1,30.6.4,5.2,1,10.5,1.5,15.8C509.8,1657.8,522.2,1655.8,535.1,1653.7Z" transform="translate(-235.49 -50.9)"/><path d="M658,675.5c.3-.7.9-1.4.9-2.1.4-6.1.9-12.2,1-18.3.2-9.3,3.4-11.5,12.4-14.4,13.1-4.2,24.1.1,35.6,4.7,7.5,3,15.4,5,23.1,7.7,8.4,2.9,8.1,2.2,7.9,9.8s-.7,15.2-.9,22.8c-.2,6,.3,12.1-.1,18-.6,8.3-1.9,16.5-2.9,24.8-2,16.4-3.8,32.9-5.9,49.3-1.2,9.2-2.3,18.6-4.9,27.5-4.6,15.7-10.2,31.2-15.6,46.6-7.4,21.2-14.9,42.3-22.7,63.4-2.8,7.6-6.5,14.9-9.9,22.4-.2.5-.6,1.3-1.1,1.4-7.6,2.4-14.8,6.9-23.3,4.8-.3-.1-.6-.4-.9-.5-9.1-.4-12.4-7-15.1-14.2Q625.7,903,616,876.6c-4.8-13.1-10.1-26.1-14.3-39.4-5.2-16.7-12-33-13.8-50.7-1.7-16.8-4.1-33.5-5.9-50.3-1-9-1.3-18.1-2.2-27.2-.5-4.9-2.5-9.7-2.7-14.7-.4-10.3.2-20.7-.3-31.1-.3-5.4,2.2-7.6,6.6-9.1,12.5-4.2,25-8.2,37.4-12.7,11-4,21.1-.8,30.9,3.7,2.1,1,3.8,4.8,4.1,7.5.9,7.5,1,15.2,1.4,22.7A3.09,3.09,0,0,0,658,675.5Zm-1,266.3V741.6c0-.8.3-1.9-.1-2.5-.8-1.2-1.9-2.8-3-3-8.5-1.4-11.9-5.1-11.9-13.6v-6.8c-9.6.5-18.6.6-27.4,1.4a86,86,0,0,0-19.6,3.7c-4.2,1.4-6.9.9-9.6-2.1a33.6,33.6,0,0,0-3.8-3.1c.9,7.4,1.8,13.5,2.5,19.7,2,16.7,4.2,33.5,6,50.3,1.9,17.7,8.6,34,13.9,50.7,4.2,13.2,9.3,26,14.1,39,6.5,17.7,12.9,35.4,19.8,53C641.9,938.7,647.1,942.1,657,941.8Zm17-227c0,3.6.1,6.4,0,9.2-.2,5.1-4.9,11.1-9.4,10.8-5-.3-5.7,1.9-5.7,6.2q.15,96,.1,191.9a53.06,53.06,0,0,0,1.2,8.4c7.2-1.7,13.7-2.6,16.6-10.6,8.8-24.1,18.6-47.9,27-72.1,8.2-23.6,18.3-46.6,21.7-71.7,1.4-10.2,3.1-20.3,4.4-30.5,1.1-8.4,2.1-16.9,2.9-25.4.5-5.1.8-10.2,1.2-16.4-2.3,2.2-3.4,3.8-4.9,4.5-1.8.9-4.2,2-5.8,1.4C707.5,715.6,691.1,715.4,674,714.8Zm-76.1-4v.4l35.5-2.1c4.6-.3,9.2-.3,13.7-1.2,1.9-.4,4.5-2.1,5.1-3.8a55.7,55.7,0,0,0,3.5-14.9c.4-6.7-.5-13.5-.8-20.3-.3-5.6-.4-11.2-1.1-16.8a7.07,7.07,0,0,0-3.2-4.9c-8.5-4-17.4-7.1-26.9-4-13.3,4.2-26.5,8.8-39.6,13.5-2,.7-4.9,3.2-4.9,5-.4,12.7-.4,25.3-.2,38,.1,6.7,2.9,10.2,8.4,11.1C590.9,711.2,594.5,710.8,597.9,710.8ZM737,670.6v-5c0-8.4-.1-8.2-8.4-10.8-7.4-2.3-14.8-4.8-22.1-7.6-10.8-4.2-21.3-8.4-33.5-4.4-8.1,2.6-10.8,4.6-11.1,13.1-.3,7.2-1.6,14.4-1.8,21.6a97.47,97.47,0,0,0,1.1,20.2c.7,3.7,2.2,8.6,7.3,9.3s10.2.8,15.3,1.1c3,.2,6,0,9,.1,11.4.6,22.7,1.4,34.1,1.8,2.3.1,5.9-.7,6.8-2.3a24.54,24.54,0,0,0,3.1-11C737.3,688,737,679.3,737,670.6ZM582.7,713c3.4,2.8,5,7.1,12.6,5.5,14.3-3,29.3-3.2,44-4.5,3.4-.3,4.8,1,4.7,4.5-.1,2.9-.2,6.1.8,8.7,2.6,7,15.2,9.4,21.9,4.5a11.83,11.83,0,0,0,5.3-10.8c-.3-8-.1-8.1,8.1-7.9,5.4.1,10.9.4,16.3,1,7,.7,13.9,2.2,20.9,2.5,3.6.2,6.8,4,10.5,1,2.2-1.7,4.2-3.7,6.2-5.5-3.3-.7-5.9,0-8.4-.1-16.5-.6-33-1.3-49.6-2-2.8-.1-5.7-.1-8.2-1.1a13.42,13.42,0,0,1-6.2-4.8c-1.7-2.5-2.4-5.6-3.8-9.2-.4,1.6-.8,2.6-1,3.7-.9,5.6-5,11.2-9,11.5-14.9,1.1-29.9,2.2-44.9,3C596.4,713.3,589.5,713,582.7,713Z" transform="translate(-235.49 -50.9)"/><path d="M820.6,1661.3c-13.9-2.3-27.4-4.5-41.8-6.8.4-3.3.7-6.8,1.2-10.2,1.6-12.8,3.4-25.6,4.9-38.5,1.5-12,2.6-24.1,4.1-36.2,1.9-15.3,4-30.5,5.9-45.8.9-7.7,1.4-15.4,2.1-23.1,1.3-14.4,2.7-28.8,3.9-43.2.5-5.8.5-11.5,1.1-17.3.9-9.6,2.2-19.2,3.2-28.8.7-7,1.5-14.1,1.7-21.1.5-23,2-45.9,9.8-67.8a9.79,9.79,0,0,1,1.8-3.9c1.4,2.7,3.5,5.3,4.2,8.2,2.3,9.7,4.2,19.4,6.2,29.2,1.6,7.7,3.3,15.3,4.5,23,1.4,9.2,2.4,18.5,3.5,27.8s2.6,18.5,3.2,27.8c.7,12.1.8,24.3.8,36.4a167.9,167.9,0,0,1-1.1,18.8c-1.5,15-3,30-4.9,45-1.7,13.4-4.1,26.8-6,40.2-2.2,15.7-4.3,31.5-5.9,47.3C821.8,1634.9,821.5,1647.7,820.6,1661.3Zm-1.1-337.2c-7.8,19.8-9.5,40.1-10.5,60.5-.5,9.7-1.2,19.4-2,29.1-.9,10.8-2,21.6-3,32.4-.4,4.3-.7,8.5-1.1,12.8-1.3,13.4-2.7,26.8-3.9,40.2-.8,8.5-1.1,17.1-2.1,25.6-1.8,15.3-4,30.5-5.9,45.8-1.5,12-2.6,24.1-4.1,36.2-1.6,13-3.3,26-4.9,39-.3,2.3-.7,4.7-1.1,7.1,13,2.1,25.4,4.1,38.1,6.2,0-4.3-.3-8.3,0-12.3,1.2-15.6,2.6-31.1,3.9-46.7.4-4.7.9-9.5,1.7-14.2,1.3-7.4,3.1-14.7,4.3-22.1,1.6-10,3-20.1,4.2-30.1,1.7-13.8,3.4-27.7,4.7-41.5.7-7.2,1.1-14.5,1.1-21.8,0-11.6-.2-23.3-1-34.9-.5-8.8-2-17.6-3-26.4-1.1-9.4-1.7-19-3.3-28.3-2.2-13.3-5-26.6-7.8-39.8C822.8,1335.2,821,1329.7,819.5,1324.1Z" transform="translate(-235.49 -50.9)"/><path d="M756.6,1649.1c-1.4-1.5-2.4-2.1-2.6-2.8-2.8-11.4-5.5-22.8-8-34.2-2.8-13-5.5-26.1-8.1-39.2-2.3-11.5-4.1-23.1-7.1-34.4-3.6-13.6-7.2-27.3-14.4-39.8a62.26,62.26,0,0,1-8.5-25.3c-.3-3.6-1.3-7.1-1.9-10.6-1.8-9.4.3-18.6,2.1-27.6,3.4-17.4,7.2-34.8,10.9-52.1,1.1-5.3,2.4-10.5,3.8-16.6,1,1.3,1.9,2.2,2.6,3.3,4.7,7.7,9.2,15.6,14.2,23.1,5.2,7.8,12.1,14.6,16.4,22.8,6.4,12.3,9.7,25.6,11.4,39.7,2,16.3,1.9,32.4,1.5,48.6-.5,18.6-2.5,37.1-3.8,55.7-.7,10-1.1,20.1-2.1,30.1s-2.5,19.8-3.6,29.7c-.6,5.1-.9,10.2-1.3,15.2C757.6,1639.1,757.2,1643.5,756.6,1649.1Zm-33-274.9c-.8,3.1-1.8,6.3-2.5,9.6-3.4,15.4-7,30.8-9.9,46.3-2.2,12.1-5.1,24.1-2.3,36.7,2.3,10.5,3.9,21.2,9.4,30.6,7.5,12.7,11.2,26.6,14.7,40.7,2.7,11,4.6,22.3,6.9,33.5,3.4,16.4,6.7,32.9,10.2,49.3,1.3,6.4,2.8,12.7,4.2,19.1.6,0,1.2-.1,1.8-.1,0-1.7-.1-3.4,0-5.1.4-5.4.7-10.9,1.3-16.3,1.1-9.9,2.7-19.8,3.7-29.7s1.3-20.1,2.1-30.1c1.3-16.4,3.2-32.8,3.8-49.2.5-15.4-.1-30.9-.9-46.3-.7-11.9-1.9-23.8-6.9-34.9a225,225,0,0,0-10.3-20.9c-2.4-4.1-6.5-7.2-9.4-11.1C733.7,1389,728.6,1381.4,723.6,1374.2Z" transform="translate(-235.49 -50.9)"/><path d="M559.4,1650.1c-.9-8.9-1.5-16.5-2.4-24.2-1.2-10.6-2.6-21.1-3.8-31.7-.9-7.8-1.6-15.7-2.1-23.6-.8-13-1.5-26.1-2-39.1-.8-19.2-2.1-38.4-1.8-57.6.2-20.9,3.9-41.4,14-60,3-5.4,8.1-9.6,11.9-14.7,4.8-6.5,9.5-13.3,13.8-20.2,2.2-3.5,3.7-7.5,5.6-11.3l1.2.3c3.8,18.3,7.7,36.5,11.3,54.8,2.2,11,4.3,22.1,5.8,33.2.5,4-1.1,8.4-1.7,12.5-1.5,9.7-3.2,19.2-7.9,28-3.4,6.5-6.8,13.1-9,20-3.9,12.2-7.2,24.6-10,37.1-3.8,17-6.6,34.2-10.2,51.3-3,14.2-6.6,28.2-10,42.3C561.7,1648.1,560.7,1648.6,559.4,1650.1Zm1.1-9.3c.4,0,.8.1,1.3.1,2.7-12.3,5.7-24.7,8.2-37,3.5-17.1,6.4-34.3,10.2-51.3,2.8-12.5,6.2-24.9,10-37.1a94.06,94.06,0,0,1,8-17.7c5.2-9.5,6.7-19.9,9.1-30.2,2.2-9.6,1-19-.7-28.1-4-21.6-9.1-43.1-14-65.3-1.5,2.5-2.4,4.3-3.6,6-4.9,7.1-9.8,14.3-14.9,21.2-3.5,4.8-8.2,8.9-11,14.1-10.2,18.5-13.6,38.8-13.9,59.5-.3,18.5,1.1,37.1,1.8,55.6.5,13,1.2,26.1,2,39.1.5,7.9,1.2,15.7,2.1,23.6,1.2,10.7,2.6,21.4,3.8,32.2C559.6,1630.5,560,1635.6,560.5,1640.8Z" transform="translate(-235.49 -50.9)"/><path d="M585.9,598c3.1-2.4,6.1-4.8,9.2-7.1,5.1-2.2,10-4.5,15.2-6.5,6.5-2.5,13-5.1,19.8-6.7a58.22,58.22,0,0,1,15.6-1.5c7,.1,11.3,5.1,11.4,12.1v7.2c.5,0,1,.1,1.5.1a45.77,45.77,0,0,0,.5-6.3c-1-12.2,9-14.8,17.9-14,16,1.5,29.8,8.7,44.1,14.7,3,2.4,6.1,4.8,9.2,7.2.6,1.1.9,2.5,1.8,3.3,5.6,4.8,7,11.3,7.1,18.1.1,8.3.1,16.7,0,25,0,2.5-.8,5-1.3,8-8.5-3.4-16.1-7-24.2-9.4-8.3-2.5-16.3-7.1-25.5-6.1-6.2.7-12.4,1.2-18.6,2.1s-10-2.2-10.4-8.5c-.1-2,0-4-1.1-6.1-.3,1.5-.5,3.1-.9,4.6-.7,2.8-1,5.9-2.3,8.4s-3.6,3.2-7.2,3.2c-10.4,0-20.7-5.2-31.2-1.3-11.8,4.5-23.7,8.9-35.6,13.3-.6.2-1.3.2-2.5.5a76.22,76.22,0,0,1-1.2-7.7c-.2-7.7,0-15.3-.1-23-.1-8,1.2-15.4,7.8-20.8A18.25,18.25,0,0,0,585.9,598ZM737,630.6c0-1.5-.1-3,0-4.5,2-17.9-7.2-28.7-22.4-36.3-12.8-6.4-25.9-11.4-40.2-12.8-7.3-.7-13,2.2-13.3,9-.6,14.3-.4,28.7,0,43,.1,2.6,2.9,7,5,7.4,4.3.7,9-1.1,13.5-1.3,6.5-.3,13.4-1.5,19.4.1,11.4,3,22.4,7.7,33.4,12,3.3,1.3,4.4.4,4.4-2.7C737.1,639.9,737,635.3,737,630.6Zm-157.7.5H579v14c0,3.8,1.5,4.6,5,2.9a94.13,94.13,0,0,1,13.5-5.7c10.1-3,19.6-8.3,30.6-7.3,6.7.6,13.4,1,20,2.3,2.9.6,4.4-.2,4.9-2.3,1.3-5.5,2.8-11.1,2.9-16.7.2-10.2-.3-20.5-.9-30.7-.2-4.1-2.2-8-6.7-8.4-5.6-.5-11.5-.8-16.9.4A117.61,117.61,0,0,0,597.6,593c-8.8,5.1-16.4,11.6-18,22.3C578.7,620.4,579.3,625.8,579.3,631.1Z" transform="translate(-235.49 -50.9)"/><path id="Outline" d="M754,1722c.9-9.9,1.3-19.8,2.9-29.6,2.1-12.7-.7-24.7-3.1-36.9-5.5-27.7-10.9-55.5-16.8-83.2-3.9-18.6-8-37.2-13.1-55.5-2.5-9-7.9-17.2-11.8-25.8-7.5-17-9-34.8-5.5-52.8,4.1-20.8,9.2-41.4,14-62.1,1.2-5.1,3.1-10.2,3.7-15.4.5-4.2.5-8.9-.9-12.7-6.5-18.3-8.8-37.4-12.2-56.3-2.9-16.1-6.3-32.2-8.1-48.5-2.3-21.1-7.7-41.3-13.1-61.7-3.2-12-7.3-23.8-10.1-35.9-2.2-9.6-3.1-19.6-4.7-29.4-1.8-11.6-3.8-23.2-5.5-34.8a128.48,128.48,0,0,1-1.6-16.3c-.5-23.3-.7-46.6-1.1-69.9a10,10,0,0,1,.1-3c3.3-7.3.4-13.5-3.5-19.4a8,8,0,0,0-5.4-3.4c-1.6-.1-3.9,1.8-4.9,3.4-4,6.1-4.5,12.3-3.8,20,1.4,15.4.3,30.9.1,46.4,0,3.8-.7,7.7-.5,11.5.6,19.9-2.9,39.3-6.4,58.7-1.6,8.6-1.4,17.6-3.3,26.1-3,13.7-7.1,27.2-10.7,40.8-4.2,15.9-9,31.6-12.4,47.6-2.6,12.5-3.3,25.3-5.3,37.9-2.9,18-6,35.9-9.5,53.8-2.2,11-5.4,21.8-8.1,32.8-1.8,7.3.3,14.3,2.1,21.3,4.5,18.5,8.7,37.1,12.9,55.7,4.3,19.2,5.7,38.5-.3,57.7a65.81,65.81,0,0,1-6,14.2c-10.8,18.4-15,38.8-19,59.4-6.1,31-12.4,62-18.5,93-2,9.9-4.2,19.8-5.2,29.8-.6,6.2.8,12.6,1.4,18.9.7,7.9,1.5,15.7,2.3,23.6h-68c-.2-1.9-.3-3.9-.5-5.8-.2-2.3-1.5-5-.7-6.8,3.2-7.1.8-14.3,1.1-21.5.2-4.8.9-9.6,1.3-14.3a47.15,47.15,0,0,0,.4-7.5c-1.7-17.4-3.3-34.8-5.5-52.1-2.2-16.8-5.1-33.5-7.7-50.2-.8-4.9-1.6-9.8-2.1-14.7-.9-8.1-1.4-16.2-2.4-24.3-1.5-12.3-3.6-24.6-4.6-37a258.27,258.27,0,0,1-.9-32.9c.6-13.9,2.1-27.8,3.7-41.7,1.1-9.5,2.7-19,4.4-28.4,2-10.5,4.8-20.9,6.5-31.4,2.1-13.2,3.7-26.5,4.6-39.8.3-5.1-1.9-10.3-3-15.5-.8-3.3-1.8-6.6-2.6-9.9q-.9-3.6-1.5-7.2c-1-5.5-3.2-11.2-2.7-16.6,1-9.6-1.8-18.1-4.7-26.6-3.1-9.1-6.3-18.2-10.6-26.8-5.8-11.5-7.9-23.9-10.2-36.2a302.36,302.36,0,0,1-5-41.3c-1.1-22.2-2.2-44.5-1-66.7,1-18.6,4.8-37.2,8.4-55.5,4-20.5,10.7-40.3,18.3-59.9,5.3-13.5,8.4-27.9,11.8-42,3.5-14.5,6.1-29.1,9.2-43.7a13.79,13.79,0,0,1,.8-2.9c3.9-8.1,1.2-16.1-.4-24.1a13.48,13.48,0,0,1-.5-3.9c1.3-8.9,2.2-18,4.3-26.7,1.8-7.1,4.8-14,7.8-20.8,5.4-12.5,8.9-25,8.7-39.1-.2-11.9,3.4-23.9,4.7-35.9,1-9.5,1.1-19.1,1.5-28.6.1-1.5-.7-3-.7-4.4.1-22.3-10.6-40.7-20.7-59.5-7.5-13.8-13.4-28.5-19.4-43.1-2.5-6.2-3.3-13.2-4.9-19.7-.5-2-1.2-4-2.2-7.5a63.47,63.47,0,0,0-4.7,6.2c-14.3,25.7-27.9,51.7-37.8,79.5-5.5,15.4-16,27.9-25,41.3-20.9,31.3-46.7,58.5-71.4,86.6-8.8,10-18.1,19.6-26.3,30.1-5.3,6.9-8.8,15.2-13.5,22.5-2.7,4.3-6.3,8.1-9.6,12-1.9,2.2-3.8,5.6-6.1,5.9-1.9.3-4.6-2.9-6.6-4.8-11.4-10.4-25.2-16.8-38.8-23.5-3.8-1.9-3.5-3.2-.6-6.5,3-3.5,5-7.9,7.3-12,1.7-3,3.1-6.2,4.9-9.1,12.2-19.6,24.7-39.1,36.5-58.9,4.4-7.4,7-15.7,10.8-23.5,6.5-13.6,12.9-27.3,20-40.6,7.9-15.1,16.8-29.7,24.6-44.9,3.1-6.1,4.2-13.2,6.3-19.8.9-3,1.5-6.2,3.1-8.9,5-8.3,6.7-17.6,9.6-26.5,4-12,9-23.6,14-35.2,7-16,14.2-31.9,21.8-47.6,5.4-11,4.3-22.7,4.7-34.2.5-13.6-.4-27.5,1.9-40.8,5.3-29.9,19.8-54.2,46.3-70.8,19-11.9,39.7-14.3,61.2-12.3,11.4,1.1,22.8,2.4,33.6,6.8,1.7.7,4.7-.4,6.5-1.6,9.9-6.7,20-13.2,29.2-20.9,9.7-8.1,15.9-18.6,15.2-32.1-.3-6.1-.9-12.4,3.3-17.8.5-.6.3-2.3-.2-3.2a82.55,82.55,0,0,1-10.5-28.8,5.56,5.56,0,0,0-.9-1.7c-7.9,1.3-8.1,1-12.1-5.9-7.4-12.6-9.4-26.1-6.6-40.3,1.4-7.5,3.5-9.1,11.9-8.8.3-2.7.7-5.4.8-8.1.4-9.6.8-19.3,1.1-28.9.5-16.1,8.2-29.2,17.8-41.3,11.1-14,25-24.1,42.5-28.7,2.2-.6,4.5-1,6.7-1.5h19c6.3,1.9,13,3,18.8,5.9,16.5,8,28.8,20.3,38.5,36.1,9.9,16,10.6,33.2,10.8,50.9V159c11.1.7,13.1,3.6,13.9,17,.7,12.2-2.4,23.3-8.4,33.8-2.7,4.6-5.8,6.8-11.5,3.8-1.3,5-2.5,9.8-3.8,14.5a53.58,53.58,0,0,1-3,7.9c-3,5.9-6.4,11-2.1,18.6,2.7,4.6,1.1,11.7,1.3,17.7.3,12,8,19.9,16.2,26.9,7.9,6.8,16.9,12.3,25.5,18.3,3.5,2.4,6.6,3.3,11.4,2,25.3-7.2,50.8-9.8,76.6-1.3,13.7,4.5,24.5,13.2,34.3,23.1,17.1,17.2,25.9,38.5,28.4,62.3a272.36,272.36,0,0,1,.9,41.4c-.7,14,4.2,26,9.6,38.2,9.9,22.2,19.8,44.3,29.6,66.5,1.2,2.7,1.4,5.8,2.4,8.6,2.8,7.6,6.1,15,8.6,22.6,2.2,6.4,2.7,13.5,5.5,19.5,6,12.9,12.9,25.4,19.7,37.9,11.5,21.3,23.8,42.1,32.2,65.1,4,10.9,10.9,20.8,16.9,30.9,9.9,16.5,20.3,32.8,30.3,49.3,2,3.3,3.1,7.1,5,10.5a21.71,21.71,0,0,0,4.5,5.1c2.3,2.2,2.2,4.1-.5,5.5-9.5,5.1-19.2,9.7-28.5,15.2a67.53,67.53,0,0,0-14,11.6c-3,3.3-4.5,3.3-6.6-.3a4.71,4.71,0,0,0-1.3-1.5,56.66,56.66,0,0,1-14.4-20c-6.1-14.2-17.4-24.7-27.4-36-20.4-23.3-41.5-46-61-70-16.1-19.8-31.5-40.5-42.8-63.6-8.2-16.8-14.7-34.5-22.6-51.4-5.5-11.7-12-22.9-18.2-34.4-.7-1.4-2-2.5-3.6-4.6a43.1,43.1,0,0,0-2,5.3c-3.6,19.1-10.4,37.1-19,54.4-4.3,8.8-9.7,17-14.1,25.7-6.5,12.8-12.1,25.9-12.2,40.6a10.48,10.48,0,0,1-.1,2.5c-3.5,10.6,0,21.1.5,31.6.4,9.2,3.3,18.2,4.6,27.4a95.71,95.71,0,0,1,.8,16.9,52.39,52.39,0,0,0,5,24.2c7.2,15.6,14.4,31.4,13.4,49.4-.1,2.1,2,4.4,1.9,6.5-.4,5.7-1.4,11.4-2.2,17-.2,1.8-.9,3.7-.6,5.4,2.2,10.7,4.3,21.4,6.9,31.9,4.8,19.1,8.8,38.5,15.1,57.1,8.3,24.2,16.5,48.2,22,73.3,7,32.2,7.5,64.6,6.3,97.3-.5,14.4-1.2,28.7-2.7,43-.9,8.7-3.4,17.2-5.2,25.8-.3,1.5-1.1,2.8-1.2,4.3-1,9.4-5.3,17.7-8.9,26.2-3.5,8.2-5.6,17-9.5,25-5.4,10.9-2.1,22.7-4.7,33.7-2.6,11.2-6.3,22.2-8.2,33.5-1.2,7.2-.3,14.8.3,22.2.6,7.2,2,14.3,3.3,21.4s3.1,14.3,4.5,21.4c1.8,9,3.6,18.1,4.9,27.2,1.7,12.5,3.1,25,4.1,37.5a299.77,299.77,0,0,1,1.3,32.8c-.5,13.8-1.8,27.5-3.3,41.2-1.6,14.1-3.9,28.2-5.9,42.2-2.3,16.4-4.9,32.8-6.8,49.3-2,17.7-2.1,35.7-5.3,53.1-1.9,10.6.2,20.4.1,30.6-.1,7.5-1.8,14.9.9,22.5,1.3,3.6-.6,8.4-1,12.6C799.3,1722,776.7,1722,754,1722ZM242.7,801c13.8,8.7,27.5,17.3,42,26.4,3.2-4.1,7.4-8.8,10.8-14,4.9-7.5,8.3-16.1,13.9-22.9,11.7-14.3,24.6-27.6,36.7-41.6,21-24.3,43.1-47.7,60.8-74.7,8.8-13.5,19.4-26,24.9-41.3,9.9-27.6,23.4-53.5,37.7-79.1,2-3.7,4.2-8.6,9.3-7.7,4.9.8,5,6,6,10,1.6,6.8,2.4,13.9,5.1,20.2,6.9,16,13.5,32.2,22.3,47.2,12.2,20.8,18,43,19,66.8a38,38,0,0,1-.6,5.9c-.4,4.1-.9,8.2-1.2,12.3-.2,1.8-.1,3.7-.4,5.5-1.7,12.9-4.9,25.9-4.8,38.8.1,13.8-4.5,25.7-9.5,37.9-2.5,5.9-5.2,11.9-6.6,18.1-1.6,7.1-.9,14.7-3,21.6-2,6.5-.2,12.5.9,18.2.8,4.6.9,8.2-.6,12.3a51.62,51.62,0,0,0-2,6.7c-3.1,14.6-5.7,29.2-9.2,43.7-3.4,14.1-6.5,28.5-11.8,42a422.33,422.33,0,0,0-18.7,60.8c-4.7,21.1-8.5,42.3-8,64,.4,19,1.2,38.1,1.4,57.1a176,176,0,0,0,4.9,40.9c2.1,8.3,3.4,17,6.2,25.1,3.8,10.8,8.9,21,13,31.7,3.9,10.1,7.2,20.1,6.6,31.6-.5,9.2,2.7,18.5,4.3,27.8.1.8.9,1.4,1.2,2.2,1.6,6.2,4.4,12.3,4.5,18.5.2,8.9-.2,17.9-3.8,26.5-1.5,3.7-2.7,8,1.3,11.6.6.5.5,2.9-.2,3.5-7,6.9-5.6,16.7-8,25-2.7,9.2-2.7,19.3-3.9,29-1.6,13.5-4.2,26.9-4.7,40.4-.5,14.2.7,28.5,1.6,42.7.8,12.6,2.2,25.1,3.5,37.7.6,5.9,1.4,11.9,2.4,17.8,2.1,12.9,4.9,25.7,6.5,38.7,2.1,16.8,3.3,33.8,5,50.7.7,7.1.9,14.4,2.5,21.3a45.09,45.09,0,0,1,.1,21.6,36.62,36.62,0,0,0,.2,15.8c1,3.8,1.7,7.2-.3,10.4-2.6,4.3-1.7,8.2.4,12.3h59.1c-.2-3.9.3-7.8-.8-11.1-4.6-14.3-3.8-28.9-1.6-43.3,2-13.2,6.1-26.1,8.8-39.2,4.7-23,9.1-46.1,13.5-69.2,3.9-20.6,8.1-41,18.9-59.4a71.2,71.2,0,0,0,6-14.2c5.9-17.8,4.5-35.8.5-53.7-4.3-18.7-8.2-37.6-13.2-56.1-2.3-8.5-3.6-16.8-1.7-25.3,2.5-11,5.9-21.7,8.1-32.8,3.5-17.9,6.5-35.8,9.4-53.8,2-12.6,2.7-25.5,5.3-37.9,3.5-16.2,8.3-32.1,12.6-48.1,3.6-13.4,7.6-26.8,10.6-40.3,1.9-8.5,2-17.4,3.2-26.1,2-14.8,5.2-29.4,6.1-44.2,1.3-21.6.9-43.3,1.2-64.9a13.5,13.5,0,0,0-.3-4.5c-3.5-8.7-.6-16.1,3.9-23.4,3.6-5.8,13.6-6.4,17.3-.7,4.6,7.1,8.1,14.5,4.8,23.3a13.48,13.48,0,0,0-.6,4.9q.45,32.7,1,65.5a126.71,126.71,0,0,0,1.6,16.3c1.7,11.6,3.7,23.2,5.5,34.8,1.5,9.8,2.4,19.8,4.6,29.4,2.8,12.1,6.9,23.9,10.1,35.9,5.4,20.3,10.9,40.6,13.2,61.6,1.7,16.3,5.2,32.4,8.1,48.5,3.3,18.9,5.9,38,12.1,56.3,1.8,5.3,1.4,11.5,1,17.2-.4,5-2.4,9.9-3.6,14.9-4.4,18.9-8.9,37.8-13.1,56.7-4.8,21.1-2.7,41.5,7.5,60.6a162,162,0,0,1,16.3,45.7c8.6,44.3,17.8,88.4,25.7,132.8,1.7,9.8-.7,20.4-1.4,30.6-.3,4.3-1.3,8.6-2,13.3h59.5c2.2-4.2,2.8-8,.4-12.4-1.2-2.3-1.1-5.4-1-8.1.2-3.1,1.6-6.1,1.4-9.2-.2-4.8-1.8-9.5-1.6-14.2.2-7.1,1.4-14.1,2.2-21.1q4.2-39.15,8.5-78.3c.9-7.7,2.2-15.4,3.3-23.1,2-13.8,4-27.5,5.8-41.3.9-6.9,1.2-13.9,1.7-20.9.7-11.2,2.2-22.5,1.5-33.7-.9-16-3.1-32-5.3-47.9-2-14.7-4.7-29.3-7.1-43.9-.4-2.1-.7-4.7-2-6-3-3-4.8-5.4-.9-9,.8-.7.7-2.9.4-4.3-.8-3.7-2.1-7.4-2.8-11.1-1.9-9.7-3.8-19.5-.3-29.4a116.31,116.31,0,0,0,4.2-12.6,201.18,201.18,0,0,0,4.1-21.9c.6-4.9-.6-10,.1-14.8a95.47,95.47,0,0,1,4.4-16.7c2.7-8,5.6-15.9,8.8-23.7,3.2-7.6,7.7-14.7,8.7-23.1a29.25,29.25,0,0,1,1.1-5.9,155.5,155.5,0,0,0,7.3-47.9c-.1-5.8.2-11.5.4-17.3.5-17.9,2.3-36,1-53.8a354.34,354.34,0,0,0-9.2-57.9c-5.1-20.5-13.1-40.3-19.3-60.6-4.7-15.5-8.9-31.2-12.7-47-3.5-14.3-6.4-28.7-9.3-43.1a21.7,21.7,0,0,1,.3-7.6c.7-5,2.1-10,2.3-15,.2-4.1-1-8.4-1.7-12.5-1.7-10.6-3.5-21.2-8.6-31-4.3-8.4-8.6-17-9.3-26.8s-1.1-19.8-2-29.7c-1.1-11.4-2.9-22.6-4-34a136.45,136.45,0,0,1-.7-20.2,120.82,120.82,0,0,1,2.6-20.7c3.8-17.7,13.7-32.6,22.1-48.3,9.5-17.8,16.9-36.4,20.9-56.2.8-3.9,1.2-8.7,5.9-9.4s6.9,3.6,8.7,7c9.8,18.9,19.6,37.7,28.9,56.9,5.2,10.7,7.9,22.8,14.1,32.8,12.5,20.2,25.4,40.4,40.3,58.8,21.2,26.3,44.3,51,66.7,76.3,9.1,10.2,18.4,20.4,23.5,33.3,2.8,7.2,8.2,11.7,12.2,15.8,14.4-9,28-17.6,41.1-25.7-3.1-6.4-5.8-13.3-9.6-19.6-8.9-15-18.5-29.6-27.5-44.6-6.2-10.4-13.4-20.5-17.5-31.8-8.3-22.8-20.5-43.5-31.9-64.7-6.8-12.7-13.8-25.3-19.9-38.4-2.7-5.7-3.1-12.5-5.2-18.6-2.7-8-6.1-15.7-9-23.6-1-2.6-1.1-5.6-2.2-8.2-9.8-22.2-19.8-44.3-29.5-66.6-4.5-10.3-9.9-20.4-9.8-32.1.1-12.5.3-25,.1-37.5a109.91,109.91,0,0,0-15.1-53.6c-11.3-19.4-27.2-33.5-49-40.7-23.9-7.9-47.4-4.2-70.7,2.1-6.1,1.6-10.6,1-15.3-2.3-6.9-4.9-13.9-9.7-20.8-14.7-14.6-10.4-24.8-23.1-23.1-42.4a17,17,0,0,0-.1-4.5c-.5-2.4-.7-5.1-2-7.1-2.8-4.4-1.8-8.2.2-12.6,3.2-6.9,6.3-13.9,8-21.3,2.1-8.6,2.9-9.9,11.8-8.5,8.6-13.1,13-27.1,8.1-42.8-.4-1.3-2.9-3.4-3.7-3.1-5.6,2.2-7.2-1.1-7.6-5.4-.5-7.1-.7-14.3-.6-21.5.2-17.8-4.2-34.1-14.4-48.8-10.6-15.3-24.6-26.4-42.3-31.6-21.3-6.3-40.8-.9-58,12.7-16.2,12.7-27.7,28.8-30.7,49.5-1.6,11-1.3,22.2-1.8,33.3a51.58,51.58,0,0,1-.8,7.9c-.7,3.4-2.6,5.5-6.4,3.9-2.7-1.2-3.9-.1-4.7,2.5-4.5,15.2-.7,28.9,7.3,41.8a3.71,3.71,0,0,0,3.2,1.2c6-.9,7.2.2,9,5.9,2.7,8.6,6.3,17,9.2,25.6.9,2.6,2.1,6.3,1,8-4,5.9-3.8,12.4-3.4,18.8.8,15.4-7.7,25.8-18.5,34.7A234.14,234.14,0,0,1,555,321.7c-3.3,2.1-8.6,3.6-12,2.5-13.6-4.6-27.6-6.5-41.6-7.1-19.3-.7-37.4,3.7-53.5,15.4a94.41,94.41,0,0,0-30.5,36.2c-9.4,19.8-12.6,40.7-11.5,62.6.5,9.9,1.6,20.5-1.1,29.8-4.5,15.5-11.6,30.3-18,45.3-5.8,13.6-12.4,26.9-18,40.6-4.3,10.7-7.6,21.9-11.3,32.8-1.9,5.5-3.8,10.9-5.7,16.3-1.8,5.2-2.8,10.7-5.3,15.5-8,15.1-16.8,29.8-24.7,44.9-7.4,14.3-14.2,28.9-21.2,43.4-3.4,7.2-6.1,14.8-10.1,21.6-10,16.9-20.6,33.4-30.7,50.2C253.2,781.4,247.9,791.5,242.7,801Z" transform="translate(-235.49 -50.9)"/></svg>